<svg width="137" height="102" viewBox="0 0 137 102" fill="none" xmlns="http://www.w3.org/2000/svg">
<path d="M136.875 89.6257H0V89.6942H136.875V89.6257Z" fill="#EBEBEB"/>
<path d="M123.16 94.0304H114.094V94.0988H123.16V94.0304Z" fill="#EBEBEB"/>
<path d="M90.6719 94.775H88.293V94.8434H90.6719V94.775Z" fill="#EBEBEB"/>
<path d="M113.82 91.49H108.566V91.5584H113.82V91.49Z" fill="#EBEBEB"/>
<path d="M26.1846 91.9499H14.3613V92.0183H26.1846V91.9499Z" fill="#EBEBEB"/>
<path d="M30.3559 91.9499H28.623V92.0183H30.3559V91.9499Z" fill="#EBEBEB"/>
<path d="M61.6351 93.1051H35.9902V93.1735H61.6351V93.1051Z" fill="#EBEBEB"/>
<path d="M64.8787 77.4164H12.0203C11.6062 77.4157 11.2094 77.2507 10.9168 76.9577C10.6243 76.6646 10.46 76.2674 10.46 75.8533V1.54936C10.4636 1.13765 10.6295 0.743986 10.9216 0.453876C11.2138 0.163767 11.6086 0.000644251 12.0203 -6.10352e-05H64.8787C65.2933 -6.10352e-05 65.6909 0.164624 65.984 0.457764C66.2772 0.750905 66.4418 1.14849 66.4418 1.56305V75.8533C66.4418 76.2679 66.2772 76.6655 65.984 76.9586C65.6909 77.2518 65.2933 77.4164 64.8787 77.4164V77.4164ZM12.0203 0.0546892C11.6244 0.0554143 11.2449 0.213208 10.9652 0.493435C10.6855 0.773663 10.5284 1.15343 10.5284 1.54936V75.8533C10.5284 76.2493 10.6855 76.629 10.9652 76.9093C11.2449 77.1895 11.6244 77.3473 12.0203 77.348H64.8787C65.2749 77.3473 65.6547 77.1896 65.9348 76.9094C66.215 76.6293 66.3727 76.2495 66.3734 75.8533V1.54936C66.3727 1.15317 66.215 0.773418 65.9348 0.493268C65.6547 0.213119 65.2749 0.0554128 64.8787 0.0546892H12.0203Z" fill="#EBEBEB"/>
<path d="M124.093 77.4164H71.2321C70.8177 77.4157 70.4206 77.2508 70.1276 76.9578C69.8346 76.6648 69.6697 76.2677 69.6689 75.8533V1.54936C69.6733 1.1374 69.8398 0.743739 70.1324 0.453705C70.425 0.163671 70.8201 0.000636559 71.2321 -6.10352e-05H124.093C124.504 0.0013637 124.899 0.164805 125.19 0.454837C125.482 0.744869 125.647 1.13812 125.651 1.54936V75.8533C125.651 76.2669 125.487 76.6637 125.195 76.9567C124.903 77.2497 124.507 77.415 124.093 77.4164V77.4164ZM71.2321 0.0546892C70.8359 0.0554128 70.4561 0.213119 70.176 0.493268C69.8958 0.773418 69.7381 1.15317 69.7374 1.54936V75.8533C69.7381 76.2495 69.8958 76.6293 70.176 76.9094C70.4561 77.1896 70.8359 77.3473 71.2321 77.348H124.093C124.489 77.3473 124.869 77.1896 125.149 76.9094C125.429 76.6293 125.587 76.2495 125.588 75.8533V1.54936C125.587 1.15317 125.429 0.773418 125.149 0.493268C124.869 0.213119 124.489 0.0554128 124.093 0.0546892H71.2321Z" fill="#EBEBEB"/>
<path d="M32.5595 72.103V75.9902L30.917 77.1838H38.582L36.1347 76.2749V72.374L32.5595 72.103Z" fill="#E0E0E0"/>
<path d="M19.0176 77.0716V89.3164H53.2363V77.0716H19.0176ZM52.6204 81.8677H25.8367V77.8655H52.6204V81.8677Z" fill="#E0E0E0"/>
<path d="M25.0127 77.0716V89.3164H53.2363V77.0716H25.0127ZM52.6204 81.8677H25.8367V77.8655H52.6204V81.8677Z" fill="#EBEBEB"/>
<path d="M52.6202 77.8654H47.0986V81.8676H52.6202V77.8654Z" fill="#E0E0E0"/>
<path d="M32.666 79.8666H25.8359V81.8677H32.666V79.8666Z" fill="#E0E0E0"/>
<path d="M38.3109 80.6768H33.1699V81.8649H38.3109V80.6768Z" fill="#E0E0E0"/>
<path d="M44.3974 79.4368H39.5V81.8677H44.3974V79.4368Z" fill="#E0E0E0"/>
<path d="M30.6895 82.7382L30.5444 83.2172H28.5789L28.4311 82.7382H25.8359V88.0516H34.4509V82.7382H30.6895Z" fill="#E0E0E0"/>
<path d="M40.928 82.7382L40.7801 83.2172H38.8146L38.6668 82.7382H34.9082V88.0516H43.5231V82.7382H40.928Z" fill="#E0E0E0"/>
<path d="M48.8341 82.7382L48.689 83.2172H46.7234L46.5756 82.7382H43.9805V88.0516H52.5954V82.7382H48.8341Z" fill="#E0E0E0"/>
<path d="M48.2319 57.8762H22.7759C22.2422 57.8762 21.8096 58.3089 21.8096 58.8426V73.4581C21.8096 73.9918 22.2422 74.4244 22.7759 74.4244H48.2319C48.7656 74.4244 49.1983 73.9918 49.1983 73.4581V58.8426C49.1983 58.3089 48.7656 57.8762 48.2319 57.8762Z" fill="#E0E0E0"/>
<path d="M48.8755 57.8762H23.4195C22.8858 57.8762 22.4531 58.3089 22.4531 58.8426V73.4581C22.4531 73.9918 22.8858 74.4244 23.4195 74.4244H48.8755C49.4092 74.4244 49.8418 73.9918 49.8418 73.4581V58.8426C49.8418 58.3089 49.4092 57.8762 48.8755 57.8762Z" fill="#E6E6E6"/>
<path d="M49.0371 73.6223V58.681H23.2581V73.6223H49.0371Z" fill="#F0F0F0"/>
<path d="M85.1006 56.4418H109.612C110.244 56.4414 110.871 56.5656 111.455 56.8073C112.039 57.049 112.57 57.4034 113.017 57.8504C113.464 58.2973 113.819 58.8279 114.061 59.412C114.303 59.9961 114.427 60.6221 114.427 61.2543V80.3949H80.2881V61.2543C80.2881 59.9779 80.7951 58.7539 81.6976 57.8513C82.6002 56.9488 83.8242 56.4418 85.1006 56.4418Z" fill="#E6E6E6"/>
<path d="M73.0423 70.6275H77.4223C78.181 70.6275 78.9087 70.9289 79.4451 71.4654C79.9816 72.0019 80.283 72.7295 80.283 73.4882V89.3164H70.1816V73.4882C70.1816 72.7295 70.483 72.0019 71.0195 71.4654C71.556 70.9289 72.2836 70.6275 73.0423 70.6275V70.6275Z" fill="#E0E0E0"/>
<path d="M73.0423 70.6275H73.1327C73.8914 70.6275 74.619 70.9289 75.1555 71.4654C75.692 72.0019 75.9934 72.7295 75.9934 73.4882V89.3164H70.1816V73.4882C70.1816 72.7295 70.483 72.0019 71.0195 71.4654C71.556 70.9289 72.2836 70.6275 73.0423 70.6275V70.6275Z" fill="#EBEBEB"/>
<path d="M110.855 82.0455H77.2168V89.3163H110.855V82.0455Z" fill="#E6E6E6"/>
<path d="M109.613 75.3962H77.1704C75.5648 75.3962 74.2632 76.6978 74.2632 78.3035V80.1184C74.2632 81.724 75.5648 83.0257 77.1704 83.0257H109.613C111.218 83.0257 112.52 81.724 112.52 80.1184V78.3035C112.52 76.6978 111.218 75.3962 109.613 75.3962Z" fill="#F5F5F5"/>
<path d="M109.56 75.3962H105.533C103.928 75.3962 102.626 76.6978 102.626 78.3035V80.1184C102.626 81.724 103.928 83.0257 105.533 83.0257H109.56C111.166 83.0257 112.467 81.724 112.467 80.1184V78.3035C112.467 76.6978 111.166 75.3962 109.56 75.3962Z" fill="#E0E0E0"/>
<path d="M109.99 70.6275H114.37C115.129 70.6275 115.856 70.9289 116.393 71.4654C116.929 72.0019 117.231 72.7295 117.231 73.4882V89.3164H107.129V73.4882C107.129 73.1125 107.203 72.7405 107.347 72.3935C107.491 72.0464 107.702 71.731 107.967 71.4654C108.233 71.1997 108.548 70.989 108.895 70.8453C109.242 70.7015 109.614 70.6275 109.99 70.6275V70.6275Z" fill="#E0E0E0"/>
<path d="M109.99 70.6275H110.083C110.842 70.6275 111.569 70.9289 112.106 71.4654C112.642 72.0019 112.944 72.7295 112.944 73.4882V89.3164H107.129V73.4882C107.129 73.1125 107.203 72.7405 107.347 72.3935C107.491 72.0464 107.702 71.731 107.967 71.4654C108.233 71.1997 108.548 70.989 108.895 70.8453C109.242 70.7015 109.614 70.6275 109.99 70.6275V70.6275Z" fill="#F0F0F0"/>
<path d="M83.7868 47.6215L116.262 47.6215V14.0652L83.7868 14.0652V47.6215Z" fill="#EBEBEB"/>
<path d="M82.6505 47.6215L115.125 47.6215V14.0652L82.6505 14.0652V47.6215Z" fill="#F0F0F0"/>
<path d="M114.307 14.8591H83.5103V46.8413H114.307V14.8591Z" fill="#E0E0E0"/>
<path d="M114.307 14.8591H84.2793V46.8413H114.307V14.8591Z" fill="#F5F5F5"/>
<path d="M98.9823 46.8441H99.5928V14.8618H98.9823V46.8441Z" fill="#EBEBEB"/>
<path d="M95.4841 14.8591L86.9267 46.8413H86.1055L94.6629 14.8591H95.4841Z" fill="white"/>
<path d="M98.7223 47.4545H99.2451V14.3664H98.7223V47.4545Z" fill="#F0F0F0"/>
<path d="M92.3768 14.8591L84.2793 45.1249V28.4891L87.9256 14.8591H92.3768Z" fill="white"/>
<path d="M114.307 17.7609V20.8323L107.345 46.8413H106.524L114.307 17.7609Z" fill="white"/>
<path d="M114.307 23.9613V40.5971L112.637 46.8413H108.186L114.307 23.9613Z" fill="white"/>
<path d="M26.734 39.9045H46.3975V15.9788L26.734 15.9788L26.734 39.9045Z" fill="#E6E6E6"/>
<path d="M31.2346 33.9778L41.5659 23.8217L30.3887 21.9766L31.2346 33.9778Z" fill="#E0E0E0"/>
<path d="M41.3173 31.5688L41.8293 23.7806L34.0493 25.6914L33.4854 31.651L41.3173 31.5688Z" fill="#F0F0F0"/>
<path d="M33.36 22.8324C34.5862 21.6062 34.5862 19.6181 33.36 18.3919C32.1338 17.1657 30.1457 17.1657 28.9195 18.3919C27.6933 19.6181 27.6933 21.6062 28.9195 22.8324C30.1457 24.0586 32.1338 24.0586 33.36 22.8324Z" fill="#FAFAFA"/>
<path d="M40.3018 34.3447C40.3018 34.043 40.3913 33.7481 40.5589 33.4973C40.7266 33.2465 40.9649 33.051 41.2437 32.9357C41.5224 32.8204 41.8292 32.7903 42.125 32.8494C42.4209 32.9084 42.6926 33.0539 42.9057 33.2675C43.1188 33.481 43.2638 33.7529 43.3224 34.0489C43.3809 34.3448 43.3503 34.6515 43.2345 34.9301C43.1187 35.2087 42.9228 35.4466 42.6717 35.6138C42.4206 35.781 42.1255 35.87 41.8238 35.8695C41.6237 35.8695 41.4256 35.83 41.2407 35.7533C41.0559 35.6767 40.888 35.5643 40.7466 35.4227C40.6052 35.2811 40.4932 35.113 40.4168 34.928C40.3405 34.743 40.3014 34.5448 40.3018 34.3447V34.3447Z" fill="#E0E0E0"/>
<path d="M41.4619 37.0219L37.0654 34.3446L40.7611 31.3005L41.4619 37.0219Z" fill="#F5F5F5"/>
<path d="M36.2693 19.0201H35.4043V38.1252H36.2693V19.0201Z" fill="#E0E0E0"/>
<path d="M44.5532 19.0201H43.4336V37.2793H44.5532V19.0201Z" fill="#EBEBEB"/>
<path d="M34.4239 31.6509H28.708V37.3668H34.4239V31.6509Z" fill="#EBEBEB"/>
<path d="M68.4377 101.988C97.7516 101.988 121.515 100.601 121.515 98.8895C121.515 97.178 97.7516 95.7906 68.4377 95.7906C39.1239 95.7906 15.3604 97.178 15.3604 98.8895C15.3604 100.601 39.1239 101.988 68.4377 101.988Z" fill="#F5F5F5"/>
<path d="M54.5742 49.5487H111.613C111.766 49.5487 111.918 49.5789 112.06 49.6377C112.202 49.6964 112.331 49.7825 112.439 49.8911C112.548 49.9996 112.634 50.1285 112.693 50.2703C112.751 50.4121 112.782 50.5641 112.782 50.7176V91.98H53.4053V50.7286C53.4039 50.5741 53.433 50.421 53.4911 50.2779C53.5492 50.1348 53.6351 50.0046 53.7438 49.8949C53.8525 49.7852 53.9818 49.6981 54.1244 49.6387C54.2669 49.5793 54.4198 49.5487 54.5742 49.5487V49.5487Z" fill="#263238"/>
<path d="M111.613 52.1794H54.5742V88.6347H111.613V52.1794Z" fill="#003350"/>
<path opacity="0.2" d="M82.5733 51.5416C82.8878 51.5416 83.1427 51.2867 83.1427 50.9722C83.1427 50.6578 82.8878 50.4028 82.5733 50.4028C82.2588 50.4028 82.0039 50.6578 82.0039 50.9722C82.0039 51.2867 82.2588 51.5416 82.5733 51.5416Z" fill="white"/>
<path opacity="0.2" d="M83.7532 51.3993C83.9891 51.3993 84.1803 51.2081 84.1803 50.9722C84.1803 50.7364 83.9891 50.5452 83.7532 50.5452C83.5174 50.5452 83.3262 50.7364 83.3262 50.9722C83.3262 51.2081 83.5174 51.3993 83.7532 51.3993Z" fill="white"/>
<path opacity="0.2" d="M83.3262 89.3821C83.2514 89.3558 83.1728 89.3419 83.0935 89.341C82.9457 89.341 82.8012 89.3848 82.6783 89.467C82.5554 89.5491 82.4596 89.6658 82.4031 89.8024C82.3465 89.9389 82.3317 90.0892 82.3606 90.2341C82.3894 90.3791 82.4606 90.5123 82.5651 90.6168C82.6696 90.7213 82.8028 90.7925 82.9477 90.8213C83.0927 90.8502 83.243 90.8354 83.3795 90.7788C83.5161 90.7222 83.6328 90.6264 83.7149 90.5035C83.797 90.3806 83.8409 90.2362 83.8409 90.0883C83.8424 90.0747 83.8424 90.0609 83.8409 90.0473C83.698 90.0012 83.5725 89.913 83.4806 89.7943C83.3888 89.6756 83.335 89.5319 83.3262 89.3821V89.3821Z" fill="white"/>
<path d="M117.208 91.3996V91.9471C117.207 92.1168 117.152 92.2817 117.051 92.4177C116.949 92.5536 116.807 92.6535 116.644 92.7027L112.511 93.9126C111.997 94.0657 111.464 94.1432 110.928 94.1426H55.264C54.7291 94.143 54.197 94.0655 53.6845 93.9126L49.5481 92.6917C49.3852 92.6431 49.2422 92.5434 49.1402 92.4074C49.0382 92.2714 48.9825 92.1062 48.9814 91.9362V91.3887L117.208 91.3996Z" fill="#263238"/>
<path opacity="0.2" d="M117.208 91.3996V91.9471C117.207 92.1168 117.152 92.2817 117.051 92.4177C116.949 92.5536 116.807 92.6535 116.644 92.7027L112.511 93.9126C111.997 94.0657 111.464 94.1432 110.928 94.1426H55.264C54.7291 94.143 54.197 94.0655 53.6845 93.9126L49.5481 92.6917C49.3852 92.6431 49.2422 92.5434 49.1402 92.4074C49.0382 92.2714 48.9825 92.1062 48.9814 91.9362V91.3887L117.208 91.3996Z" fill="white"/>
<path opacity="0.2" d="M117.208 91.3996V91.9471C117.208 92.0889 117.169 92.2281 117.096 92.3495H49.0937C49.0204 92.2281 48.9816 92.0889 48.9814 91.9471V91.3996H117.208Z" fill="white"/>
<path opacity="0.2" d="M87.8953 91.3996V91.635C87.8953 91.6656 87.8893 91.6958 87.8776 91.7241C87.8659 91.7523 87.8488 91.7779 87.8272 91.7996C87.8056 91.8212 87.7799 91.8383 87.7517 91.85C87.7235 91.8617 87.6932 91.8677 87.6626 91.8677H78.5303C78.4996 91.8681 78.469 91.8623 78.4405 91.8508C78.4119 91.8393 78.3859 91.8222 78.364 91.8005C78.3421 91.7789 78.3248 91.7531 78.3129 91.7247C78.301 91.6963 78.2949 91.6658 78.2949 91.635V91.3996H87.8953Z" fill="black"/>
<path opacity="0.1" d="M111.613 52.1794C111.613 52.1794 103.726 83.4937 54.5742 88.6347V52.1794H111.613Z" fill="white"/>
<path d="M106.216 37.9062V72.1961L100.505 77.9065H77.9266C77.6933 77.9058 77.4698 77.8126 77.3051 77.6474C77.1403 77.4821 77.0479 77.2583 77.0479 77.025V37.9062C77.0479 37.6728 77.1403 37.449 77.3051 37.2838C77.4698 37.1186 77.6933 37.0254 77.9266 37.0247H105.329C105.445 37.024 105.56 37.0462 105.668 37.0902C105.776 37.1342 105.873 37.199 105.956 37.2809C106.038 37.3628 106.104 37.4603 106.148 37.5676C106.193 37.6749 106.216 37.7899 106.216 37.9062V37.9062Z" fill="#003350"/>
<path opacity="0.8" d="M106.215 39.4036V72.1961L100.505 77.9065H77.9256C77.6923 77.9058 77.4688 77.8126 77.3041 77.6474C77.1394 77.4821 77.0469 77.2583 77.0469 77.025V39.4036H106.215Z" fill="white"/>
<path opacity="0.6" d="M105.448 38.1142C105.449 38.1988 105.424 38.2816 105.378 38.3522C105.331 38.4228 105.265 38.4779 105.187 38.5107C105.109 38.5434 105.023 38.5523 104.94 38.5361C104.857 38.52 104.78 38.4795 104.72 38.4199C104.66 38.3603 104.619 38.2842 104.603 38.2013C104.586 38.1184 104.594 38.0323 104.626 37.9542C104.659 37.876 104.713 37.8091 104.784 37.7621C104.854 37.715 104.937 37.6899 105.021 37.6899C105.077 37.6895 105.133 37.7002 105.184 37.7214C105.236 37.7426 105.283 37.7738 105.323 37.8132C105.363 37.8526 105.394 37.8995 105.416 37.9512C105.437 38.0029 105.448 38.0582 105.448 38.1142V38.1142Z" fill="white"/>
<path opacity="0.6" d="M103.822 38.1142C103.822 38.1981 103.797 38.2802 103.751 38.3499C103.704 38.4197 103.638 38.4741 103.56 38.5062C103.483 38.5383 103.397 38.5467 103.315 38.5304C103.233 38.514 103.157 38.4736 103.098 38.4142C103.039 38.3549 102.998 38.2793 102.982 38.197C102.965 38.1147 102.974 38.0294 103.006 37.9518C103.038 37.8743 103.092 37.808 103.162 37.7614C103.232 37.7148 103.314 37.6899 103.398 37.6899C103.454 37.6895 103.509 37.7003 103.561 37.7215C103.612 37.7426 103.659 37.7739 103.699 37.8134C103.738 37.8528 103.77 37.8998 103.791 37.9514C103.812 38.003 103.823 38.0584 103.822 38.1142Z" fill="white"/>
<path opacity="0.6" d="M102.199 38.1142C102.199 38.1989 102.175 38.2818 102.128 38.3525C102.081 38.4231 102.015 38.4783 101.936 38.511C101.858 38.5436 101.772 38.5523 101.689 38.5359C101.606 38.5195 101.53 38.4788 101.47 38.4189C101.41 38.359 101.369 38.2827 101.353 38.1996C101.336 38.1165 101.345 38.0304 101.378 37.9522C101.41 37.8741 101.466 37.8074 101.536 37.7607C101.607 37.714 101.69 37.6893 101.775 37.6899C101.887 37.6899 101.995 37.7346 102.075 37.8142C102.154 37.8937 102.199 38.0017 102.199 38.1142V38.1142Z" fill="white"/>
<path d="M94.7726 42.0452H79.1414C79.0688 42.0452 78.9992 42.0164 78.9479 41.9651C78.8965 41.9137 78.8677 41.8441 78.8677 41.7715C78.8677 41.6989 78.8965 41.6293 78.9479 41.5779C78.9992 41.5266 79.0688 41.4977 79.1414 41.4977H94.7726C94.8452 41.4977 94.9148 41.5266 94.9661 41.5779C95.0175 41.6293 95.0463 41.6989 95.0463 41.7715C95.0463 41.8441 95.0175 41.9137 94.9661 41.9651C94.9148 42.0164 94.8452 42.0452 94.7726 42.0452V42.0452Z" fill="#003350"/>
<path d="M90.3539 43.5427H79.1302C79.0576 43.5427 78.988 43.5138 78.9366 43.4625C78.8853 43.4112 78.8564 43.3415 78.8564 43.2689C78.8564 43.1963 78.8853 43.1267 78.9366 43.0754C78.988 43.024 79.0576 42.9952 79.1302 42.9952H90.3539C90.4265 42.9952 90.4962 43.024 90.5475 43.0754C90.5989 43.1267 90.6277 43.1963 90.6277 43.2689C90.6277 43.3415 90.5989 43.4112 90.5475 43.4625C90.4962 43.5138 90.4265 43.5427 90.3539 43.5427Z" fill="#003350"/>
<path d="M102.473 66.6636H82.4891C82.4165 66.6636 82.3469 66.6348 82.2955 66.5834C82.2442 66.5321 82.2153 66.4624 82.2153 66.3898C82.2153 66.3172 82.2442 66.2476 82.2955 66.1963C82.3469 66.1449 82.4165 66.1161 82.4891 66.1161H102.473C102.545 66.1161 102.615 66.1449 102.666 66.1963C102.718 66.2476 102.747 66.3172 102.747 66.3898C102.747 66.4624 102.718 66.5321 102.666 66.5834C102.615 66.6348 102.545 66.6636 102.473 66.6636Z" fill="#003350"/>
<path d="M99.1301 72.645H79.1463C79.0737 72.645 79.0041 72.6162 78.9527 72.5649C78.9014 72.5135 78.8726 72.4439 78.8726 72.3713C78.8726 72.2987 78.9014 72.2291 78.9527 72.1777C79.0041 72.1264 79.0737 72.0975 79.1463 72.0975H99.1301C99.2027 72.0975 99.2723 72.1264 99.3236 72.1777C99.375 72.2291 99.4038 72.2987 99.4038 72.3713C99.4038 72.4439 99.375 72.5135 99.3236 72.5649C99.2723 72.6162 99.2027 72.645 99.1301 72.645Z" fill="#003350"/>
<path d="M102.473 68.1637H79.1414C79.0688 68.1637 78.9992 68.1349 78.9479 68.0835C78.8965 68.0322 78.8677 67.9626 78.8677 67.89C78.8677 67.8174 78.8965 67.7477 78.9479 67.6964C78.9992 67.6451 79.0688 67.6162 79.1414 67.6162H102.473C102.546 67.6162 102.615 67.6451 102.667 67.6964C102.718 67.7477 102.747 67.8174 102.747 67.89C102.747 67.9626 102.718 68.0322 102.667 68.0835C102.615 68.1349 102.546 68.1637 102.473 68.1637V68.1637Z" fill="#003350"/>
<path d="M102.473 69.6557H79.1414C79.0688 69.6557 78.9992 69.6269 78.9479 69.5755C78.8965 69.5242 78.8677 69.4546 78.8677 69.382C78.8677 69.3094 78.8965 69.2397 78.9479 69.1884C78.9992 69.1371 79.0688 69.1082 79.1414 69.1082H102.473C102.546 69.1082 102.615 69.1371 102.667 69.1884C102.718 69.2397 102.747 69.3094 102.747 69.382C102.747 69.4546 102.718 69.5242 102.667 69.5755C102.615 69.6269 102.546 69.6557 102.473 69.6557V69.6557Z" fill="#003350"/>
<path d="M102.473 71.1503H79.1414C79.0688 71.1503 78.9992 71.1215 78.9479 71.0702C78.8965 71.0188 78.8677 70.9492 78.8677 70.8766C78.8677 70.804 78.8965 70.7344 78.9479 70.683C78.9992 70.6317 79.0688 70.6028 79.1414 70.6028H102.473C102.546 70.6028 102.615 70.6317 102.667 70.683C102.718 70.7344 102.747 70.804 102.747 70.8766C102.747 70.9492 102.718 71.0188 102.667 71.0702C102.615 71.1215 102.546 71.1503 102.473 71.1503V71.1503Z" fill="#003350"/>
<path opacity="0.5" d="M106.209 72.1961L100.499 77.9065V72.1961H106.209Z" fill="#003350"/>
<path opacity="0.4" d="M106.21 39.4036H104.597V72.1961H106.21V39.4036Z" fill="black"/>
<path d="M105.394 56.5375C105.236 56.5375 105.085 56.4749 104.974 56.3635C104.862 56.2521 104.8 56.101 104.8 55.9435V52.5928C104.803 52.4376 104.868 52.29 104.979 52.1816C105.09 52.0731 105.239 52.0124 105.394 52.0125V52.0125C105.472 52.0125 105.549 52.0278 105.621 52.0577C105.693 52.0875 105.759 52.1313 105.814 52.1864C105.869 52.2416 105.913 52.3071 105.943 52.3792C105.973 52.4512 105.988 52.5285 105.988 52.6065V55.9572C105.984 56.1124 105.92 56.26 105.809 56.3684C105.698 56.4769 105.549 56.5376 105.394 56.5375V56.5375Z" fill="#003350"/>
<path d="M102.473 58.4511H82.4891C82.4165 58.4511 82.3469 58.4222 82.2955 58.3709C82.2442 58.3196 82.2153 58.2499 82.2153 58.1773C82.2153 58.1047 82.2442 58.0351 82.2955 57.9837C82.3469 57.9324 82.4165 57.9036 82.4891 57.9036H102.473C102.545 57.9036 102.615 57.9324 102.666 57.9837C102.718 58.0351 102.747 58.1047 102.747 58.1773C102.747 58.2499 102.718 58.3196 102.666 58.3709C102.615 58.4222 102.545 58.4511 102.473 58.4511Z" fill="#003350"/>
<path d="M99.1301 64.4325H79.1463C79.0737 64.4325 79.0041 64.4037 78.9527 64.3523C78.9014 64.301 78.8726 64.2314 78.8726 64.1588C78.8726 64.0862 78.9014 64.0165 78.9527 63.9652C79.0041 63.9139 79.0737 63.885 79.1463 63.885H99.1301C99.2027 63.885 99.2723 63.9139 99.3236 63.9652C99.375 64.0165 99.4038 64.0862 99.4038 64.1588C99.4038 64.2314 99.375 64.301 99.3236 64.3523C99.2723 64.4037 99.2027 64.4325 99.1301 64.4325Z" fill="#003350"/>
<path d="M102.473 59.9512H79.1414C79.0688 59.9512 78.9992 59.9224 78.9479 59.8711C78.8965 59.8197 78.8677 59.7501 78.8677 59.6775C78.8677 59.6049 78.8965 59.5353 78.9479 59.4839C78.9992 59.4326 79.0688 59.4037 79.1414 59.4037H102.473C102.546 59.4037 102.615 59.4326 102.667 59.4839C102.718 59.5353 102.747 59.6049 102.747 59.6775C102.747 59.7501 102.718 59.8197 102.667 59.8711C102.615 59.9224 102.546 59.9512 102.473 59.9512V59.9512Z" fill="#003350"/>
<path d="M102.473 61.4432H79.1414C79.0688 61.4432 78.9992 61.4143 78.9479 61.363C78.8965 61.3117 78.8677 61.242 78.8677 61.1694C78.8677 61.0968 78.8965 61.0272 78.9479 60.9759C78.9992 60.9245 79.0688 60.8957 79.1414 60.8957H102.473C102.546 60.8957 102.615 60.9245 102.667 60.9759C102.718 61.0272 102.747 61.0968 102.747 61.1694C102.747 61.242 102.718 61.3117 102.667 61.363C102.615 61.4143 102.546 61.4432 102.473 61.4432V61.4432Z" fill="#003350"/>
<path d="M102.473 62.9379H79.1414C79.0688 62.9379 78.9992 62.909 78.9479 62.8577C78.8965 62.8064 78.8677 62.7367 78.8677 62.6641C78.8677 62.5915 78.8965 62.5219 78.9479 62.4706C78.9992 62.4192 79.0688 62.3904 79.1414 62.3904H102.473C102.546 62.3904 102.615 62.4192 102.667 62.4706C102.718 62.5219 102.747 62.5915 102.747 62.6641C102.747 62.7367 102.718 62.8064 102.667 62.8577C102.615 62.909 102.546 62.9379 102.473 62.9379V62.9379Z" fill="#003350"/>
<path d="M102.47 45.3248H79.0698V54.0575H102.47V45.3248Z" fill="#003350"/>
<path opacity="0.2" d="M79.0698 52.6559H79.7077V51.0681H80.4413V47.9337H81.4651V49.8636H82.8722V52.4286H84.5503V50.6411H85.9382L86.8553 49.7213V47.5942H87.4165V50.6411H88.829V51.7251H90.2908V46.1954L90.696 45.7902V47.3068H91.6295V47.9884L92.5246 48.8863V50.5042H93.8113V49.223H97.1674V48.2676H97.9257V46.5978H98.1967V49.223H98.6238L99.5901 48.2567H100.499V47.3834H100.959V48.2676H101.553V51.8866H102.199V50.0799L102.473 50.0963V45.3248H79.0698V52.6559Z" fill="black"/>
<path d="M102.473 55.4398H96.1766C96.104 55.4398 96.0344 55.411 95.983 55.3597C95.9317 55.3083 95.9028 55.2387 95.9028 55.1661C95.9028 55.0935 95.9317 55.0239 95.983 54.9725C96.0344 54.9212 96.104 54.8923 96.1766 54.8923H102.473C102.545 54.8923 102.615 54.9212 102.666 54.9725C102.718 55.0239 102.747 55.0935 102.747 55.1661C102.747 55.2387 102.718 55.3083 102.666 55.3597C102.615 55.411 102.545 55.4398 102.473 55.4398Z" fill="#003350"/>
<path opacity="0.2" d="M88.34 37.0247V65.3633L84.0422 69.6721H77.0479V37.9171C77.0479 37.6838 77.1403 37.46 77.3051 37.2948C77.4698 37.1296 77.6933 37.0364 77.9266 37.0357L88.34 37.0247Z" fill="black"/>
<path opacity="0.4" d="M105.394 56.5375C105.236 56.5375 105.085 56.4749 104.974 56.3635C104.862 56.2521 104.8 56.101 104.8 55.9435V52.5928C104.803 52.4376 104.868 52.29 104.979 52.1816C105.09 52.0731 105.239 52.0124 105.394 52.0125V52.0125C105.472 52.0125 105.549 52.0278 105.621 52.0577C105.693 52.0875 105.759 52.1313 105.814 52.1864C105.869 52.2416 105.913 52.3071 105.943 52.3792C105.973 52.4512 105.988 52.5285 105.988 52.6065V55.9572C105.984 56.1124 105.92 56.26 105.809 56.3684C105.698 56.4769 105.549 56.5376 105.394 56.5375V56.5375Z" fill="white"/>
<path d="M71.6518 42.1795V76.4694L65.9414 82.1799H43.368C43.1347 82.1791 42.9112 82.0859 42.7465 81.9207C42.5817 81.7555 42.4893 81.5317 42.4893 81.2984V42.1795C42.4893 41.9462 42.5817 41.7224 42.7465 41.5572C42.9112 41.3919 43.1347 41.2988 43.368 41.298H70.7704C71.0041 41.298 71.2284 41.3909 71.3937 41.5562C71.559 41.7215 71.6518 41.9457 71.6518 42.1795Z" fill="#003350"/>
<path opacity="0.8" d="M71.6509 43.6795V76.472L65.9404 82.1824H43.367C43.1337 82.1817 42.9102 82.0885 42.7455 81.9233C42.5808 81.7581 42.4883 81.5343 42.4883 81.301V43.6795H71.6509Z" fill="white"/>
<path opacity="0.6" d="M70.901 42.3901C70.9015 42.4747 70.8769 42.5575 70.8303 42.6281C70.7837 42.6987 70.7172 42.7539 70.6392 42.7866C70.5613 42.8194 70.4753 42.8282 70.3923 42.8121C70.3093 42.7959 70.2329 42.7554 70.1729 42.6958C70.1129 42.6362 70.072 42.5601 70.0553 42.4772C70.0386 42.3943 70.0469 42.3083 70.0791 42.2301C70.1114 42.1519 70.1661 42.085 70.2364 42.038C70.3067 41.9909 70.3893 41.9658 70.4739 41.9658C70.5299 41.9655 70.5853 41.9762 70.6371 41.9973C70.6889 42.0185 70.736 42.0497 70.7757 42.0891C70.8154 42.1286 70.8469 42.1755 70.8684 42.2271C70.8899 42.2788 70.901 42.3342 70.901 42.3901V42.3901Z" fill="white"/>
<path opacity="0.6" d="M69.2584 42.3901C69.2589 42.4748 69.2343 42.5578 69.1876 42.6284C69.1408 42.6991 69.0742 42.7542 68.996 42.7869C68.9179 42.8195 68.8318 42.8282 68.7487 42.8118C68.6656 42.7955 68.5893 42.7547 68.5294 42.6948C68.4695 42.635 68.4288 42.5586 68.4124 42.4755C68.396 42.3924 68.4047 42.3063 68.4373 42.2282C68.47 42.15 68.5252 42.0834 68.5958 42.0367C68.6664 41.9899 68.7494 41.9653 68.8341 41.9658C68.8899 41.9655 68.9452 41.9762 68.9969 41.9974C69.0485 42.0186 69.0954 42.0498 69.1349 42.0893C69.1744 42.1288 69.2056 42.1757 69.2268 42.2273C69.248 42.279 69.2588 42.3343 69.2584 42.3901V42.3901Z" fill="white"/>
<path opacity="0.6" d="M67.6402 42.3901C67.6408 42.4747 67.6162 42.5575 67.5696 42.6281C67.523 42.6987 67.4565 42.7539 67.3785 42.7866C67.3005 42.8194 67.2146 42.8282 67.1316 42.8121C67.0485 42.7959 66.9722 42.7554 66.9122 42.6958C66.8522 42.6362 66.8112 42.5601 66.7945 42.4772C66.7778 42.3943 66.7861 42.3083 66.8184 42.2301C66.8506 42.1519 66.9053 42.085 66.9756 42.038C67.0459 41.9909 67.1286 41.9658 67.2132 41.9658C67.2691 41.9655 67.3246 41.9762 67.3764 41.9973C67.4282 42.0185 67.4753 42.0497 67.515 42.0891C67.5547 42.1286 67.5862 42.1755 67.6077 42.2271C67.6292 42.2788 67.6402 42.3342 67.6402 42.3901V42.3901Z" fill="white"/>
<path d="M49.4387 46.469H44.5823C44.5097 46.469 44.4401 46.4402 44.3888 46.3888C44.3374 46.3375 44.3086 46.2679 44.3086 46.1953C44.3086 46.1227 44.3374 46.053 44.3888 46.0017C44.4401 45.9504 44.5097 45.9215 44.5823 45.9215H49.4387C49.5113 45.9215 49.5809 45.9504 49.6322 46.0017C49.6836 46.053 49.7124 46.1227 49.7124 46.1953C49.7124 46.2679 49.6836 46.3375 49.6322 46.3888C49.5809 46.4402 49.5113 46.469 49.4387 46.469Z" fill="#003350"/>
<path d="M51.738 47.9637H44.5931C44.5205 47.9637 44.4509 47.9349 44.3995 47.8835C44.3482 47.8322 44.3193 47.7626 44.3193 47.6899C44.3193 47.6173 44.3482 47.5477 44.3995 47.4964C44.4509 47.445 44.5205 47.4162 44.5931 47.4162H51.738C51.8106 47.4162 51.8802 47.445 51.9315 47.4964C51.9829 47.5477 52.0117 47.6173 52.0117 47.6899C52.0117 47.7626 51.9829 47.8322 51.9315 47.8835C51.8802 47.9349 51.8106 47.9637 51.738 47.9637Z" fill="#003350"/>
<path d="M49.5177 49.4583H44.5902C44.5176 49.4583 44.4479 49.4295 44.3966 49.3781C44.3452 49.3268 44.3164 49.2572 44.3164 49.1846C44.3164 49.112 44.3452 49.0423 44.3966 48.991C44.4479 48.9397 44.5176 48.9108 44.5902 48.9108H49.5177C49.5903 48.9108 49.6599 48.9397 49.7112 48.991C49.7626 49.0423 49.7914 49.112 49.7914 49.1846C49.7914 49.2572 49.7626 49.3268 49.7112 49.3781C49.6599 49.4295 49.5903 49.4583 49.5177 49.4583Z" fill="#003350"/>
<path d="M67.9118 73.9508H47.928C47.8554 73.9508 47.7858 73.9219 47.7345 73.8706C47.6831 73.8192 47.6543 73.7496 47.6543 73.677C47.6543 73.6044 47.6831 73.5348 47.7345 73.4834C47.7858 73.4321 47.8554 73.4033 47.928 73.4033H67.9118C67.9844 73.4033 68.054 73.4321 68.1054 73.4834C68.1567 73.5348 68.1855 73.6044 68.1855 73.677C68.1855 73.7496 68.1567 73.8192 68.1054 73.8706C68.054 73.9219 67.9844 73.9508 67.9118 73.9508Z" fill="#003350"/>
<path d="M56.9613 75.4454H44.5823C44.5097 75.4454 44.4401 75.4166 44.3888 75.3653C44.3374 75.3139 44.3086 75.2443 44.3086 75.1717C44.3086 75.0991 44.3374 75.0295 44.3888 74.9781C44.4401 74.9268 44.5097 74.8979 44.5823 74.8979H56.9613C57.0339 74.8979 57.1036 74.9268 57.1549 74.9781C57.2062 75.0295 57.2351 75.0991 57.2351 75.1717C57.2351 75.2443 57.2062 75.3139 57.1549 75.3653C57.1036 75.4166 57.0339 75.4454 56.9613 75.4454Z" fill="#003350"/>
<path opacity="0.5" d="M71.6509 76.472L65.9404 82.1825V76.472H71.6509Z" fill="#003350"/>
<path opacity="0.4" d="M71.6505 43.6795H70.0381V76.472H71.6505V43.6795Z" fill="black"/>
<path d="M70.8431 74.2272C70.6855 74.2272 70.5344 74.1647 70.423 74.0533C70.3116 73.9419 70.249 73.7908 70.249 73.6332V70.2825C70.249 70.125 70.3116 69.9739 70.423 69.8625C70.5344 69.7511 70.6855 69.6885 70.8431 69.6885C70.9211 69.6885 70.9983 69.7038 71.0704 69.7337C71.1425 69.7635 71.208 69.8073 71.2631 69.8625C71.3183 69.9176 71.362 69.9831 71.3919 70.0552C71.4217 70.1273 71.4371 70.2045 71.4371 70.2825V73.6387C71.4357 73.7953 71.3724 73.945 71.2612 74.0552C71.1499 74.1654 70.9997 74.2273 70.8431 74.2272Z" fill="#003350"/>
<path d="M67.9112 46.469H64.1527C64.0801 46.469 64.0104 46.4402 63.9591 46.3888C63.9077 46.3375 63.8789 46.2679 63.8789 46.1953C63.8789 46.1227 63.9077 46.053 63.9591 46.0017C64.0104 45.9504 64.0801 45.9215 64.1527 45.9215H67.9112C67.9838 45.9215 68.0535 45.9504 68.1048 46.0017C68.1562 46.053 68.185 46.1227 68.185 46.1953C68.185 46.2679 68.1562 46.3375 68.1048 46.3888C68.0535 46.4402 67.9838 46.469 67.9112 46.469V46.469Z" fill="#003350"/>
<path d="M67.9111 47.9637H65.973C65.9004 47.9637 65.8307 47.9349 65.7794 47.8835C65.7281 47.8322 65.6992 47.7626 65.6992 47.6899C65.6992 47.6173 65.7281 47.5477 65.7794 47.4964C65.8307 47.445 65.9004 47.4162 65.973 47.4162H67.9166C67.9892 47.4162 68.0588 47.445 68.1102 47.4964C68.1615 47.5477 68.1903 47.6173 68.1903 47.6899C68.1903 47.7626 68.1615 47.8322 68.1102 47.8835C68.0588 47.9349 67.9892 47.9637 67.9166 47.9637H67.9111Z" fill="#003350"/>
<path d="M67.9118 53.4195H47.928C47.8554 53.4195 47.7858 53.3907 47.7345 53.3393C47.6831 53.288 47.6543 53.2184 47.6543 53.1458C47.6543 53.0732 47.6831 53.0035 47.7345 52.9522C47.7858 52.9009 47.8554 52.872 47.928 52.872H67.9118C67.9844 52.872 68.054 52.9009 68.1054 52.9522C68.1567 53.0035 68.1855 53.0732 68.1855 53.1458C68.1855 53.2184 68.1567 53.288 68.1054 53.3393C68.054 53.3907 67.9844 53.4195 67.9118 53.4195Z" fill="#003350"/>
<path d="M67.9113 54.9142H44.5823C44.5097 54.9142 44.4401 54.8854 44.3888 54.834C44.3374 54.7827 44.3086 54.7131 44.3086 54.6404C44.3086 54.5678 44.3374 54.4982 44.3888 54.4469C44.4401 54.3955 44.5097 54.3667 44.5823 54.3667H67.9113C67.9839 54.3667 68.0536 54.3955 68.1049 54.4469C68.1562 54.4982 68.1851 54.5678 68.1851 54.6404C68.1851 54.7131 68.1562 54.7827 68.1049 54.834C68.0536 54.8854 67.9839 54.9142 67.9113 54.9142Z" fill="#003350"/>
<path d="M54.2238 56.4089H44.5823C44.5097 56.4089 44.4401 56.3801 44.3888 56.3287C44.3374 56.2774 44.3086 56.2077 44.3086 56.1351C44.3086 56.0625 44.3374 55.9929 44.3888 55.9416C44.4401 55.8902 44.5097 55.8614 44.5823 55.8614H54.2238C54.2964 55.8614 54.3661 55.8902 54.4174 55.9416C54.4687 55.9929 54.4976 56.0625 54.4976 56.1351C54.4976 56.2077 54.4687 56.2774 54.4174 56.3287C54.3661 56.3801 54.2964 56.4089 54.2238 56.4089Z" fill="#003350"/>
<path opacity="0.7" d="M57.6456 58.3936H48.4531V60.8573H57.6456V58.3936Z" fill="#003350"/>
<path opacity="0.3" d="M52.6169 61.4048H48.4531V70.5015H52.6169V61.4048Z" fill="#003350"/>
<path opacity="0.3" d="M62.9728 61.4048H58.1904V70.5015H62.9728V61.4048Z" fill="#003350"/>
<path opacity="0.7" d="M67.9113 58.3936H58.1904V60.8573H67.9113V58.3936Z" fill="#003350"/>
<path opacity="0.3" d="M67.9144 61.4048H63.5234V70.5015H67.9144V61.4048Z" fill="#003350"/>
<path opacity="0.5" d="M47.9063 61.4048H44.583V70.5015H47.9063V61.4048Z" fill="#003350"/>
<path d="M47.9063 58.3936H44.583V60.8573H47.9063V58.3936Z" fill="#003350"/>
<path opacity="0.3" d="M57.6426 61.4048H53.1641V70.5015H57.6426V61.4048Z" fill="#003350"/>
<path opacity="0.4" d="M70.8431 74.2272C70.6855 74.2272 70.5344 74.1647 70.423 74.0533C70.3116 73.9419 70.249 73.7908 70.249 73.6332V70.2825C70.249 70.125 70.3116 69.9739 70.423 69.8625C70.5344 69.7511 70.6855 69.6885 70.8431 69.6885C70.9211 69.6885 70.9983 69.7038 71.0704 69.7337C71.1425 69.7635 71.208 69.8073 71.2631 69.8625C71.3183 69.9176 71.362 69.9831 71.3919 70.0552C71.4217 70.1273 71.4371 70.2045 71.4371 70.2825V73.6387C71.4357 73.7953 71.3724 73.945 71.2612 74.0552C71.1499 74.1654 70.9997 74.2273 70.8431 74.2272Z" fill="white"/>
<path opacity="0.2" d="M71.6509 42.1793V70.7041H55.1356C54.9023 70.7033 54.6788 70.6102 54.514 70.4449C54.3493 70.2797 54.2568 70.0559 54.2568 69.8226V41.2979H70.7694C71.0032 41.2979 71.2274 41.3907 71.3927 41.556C71.558 41.7213 71.6509 41.9455 71.6509 42.1793Z" fill="black"/>
<path d="M86.1509 26.6359V60.9258L80.4404 66.6362H57.867C57.6337 66.6355 57.4102 66.5423 57.2455 66.3771C57.0808 66.2118 56.9883 65.9881 56.9883 65.7547V26.6359C56.9883 26.4026 57.0808 26.1788 57.2455 26.0135C57.4102 25.8483 57.6337 25.7551 57.867 25.7544H85.2694C85.5032 25.7544 85.7274 25.8473 85.8927 26.0126C86.058 26.1779 86.1509 26.4021 86.1509 26.6359V26.6359Z" fill="#003350"/>
<path opacity="0.9" d="M86.1509 28.1332V60.9258L80.4404 66.6362H57.867C57.6337 66.6355 57.4102 66.5423 57.2455 66.377C57.0808 66.2118 56.9883 65.988 56.9883 65.7547V28.1332H86.1509Z" fill="white"/>
<path opacity="0.6" d="M84.9629 27.2682C85.1972 27.2682 85.3872 27.0783 85.3872 26.8439C85.3872 26.6096 85.1972 26.4196 84.9629 26.4196C84.7285 26.4196 84.5386 26.6096 84.5386 26.8439C84.5386 27.0783 84.7285 27.2682 84.9629 27.2682Z" fill="white"/>
<path opacity="0.6" d="M83.3369 27.2682C83.5712 27.2682 83.7612 27.0783 83.7612 26.8439C83.7612 26.6096 83.5712 26.4196 83.3369 26.4196C83.1026 26.4196 82.9126 26.6096 82.9126 26.8439C82.9126 27.0783 83.1026 27.2682 83.3369 27.2682Z" fill="white"/>
<path opacity="0.6" d="M82.1373 26.8439C82.1378 26.9286 82.1132 27.0115 82.0665 27.0822C82.0197 27.1528 81.9531 27.208 81.8749 27.2406C81.7968 27.2733 81.7107 27.282 81.6276 27.2656C81.5445 27.2492 81.4682 27.2085 81.4083 27.1486C81.3484 27.0887 81.3077 27.0123 81.2913 26.9293C81.2749 26.8462 81.2836 26.7601 81.3162 26.6819C81.3489 26.6038 81.4041 26.5371 81.4747 26.4904C81.5453 26.4437 81.6283 26.419 81.713 26.4196C81.7688 26.4192 81.8241 26.4299 81.8758 26.4511C81.9274 26.4723 81.9743 26.5036 82.0138 26.543C82.0533 26.5825 82.0845 26.6294 82.1057 26.6811C82.1269 26.7327 82.1377 26.7881 82.1373 26.8439V26.8439Z" fill="white"/>
<path d="M73.5336 30.9337H67.9573C67.8847 30.9337 67.8151 30.9049 67.7638 30.8536C67.7124 30.8022 67.6836 30.7326 67.6836 30.66C67.6836 30.5874 67.7124 30.5177 67.7638 30.4664C67.8151 30.4151 67.8847 30.3862 67.9573 30.3862H73.5336C73.6062 30.3862 73.6759 30.4151 73.7272 30.4664C73.7785 30.5177 73.8074 30.5874 73.8074 30.66C73.8074 30.7326 73.7785 30.8022 73.7272 30.8536C73.6759 30.9049 73.6062 30.9337 73.5336 30.9337Z" fill="#003350"/>
<path d="M75.8273 32.4174H65.6712C65.5986 32.4174 65.529 32.3886 65.4776 32.3373C65.4263 32.2859 65.3975 32.2163 65.3975 32.1437C65.3975 32.0711 65.4263 32.0015 65.4776 31.9501C65.529 31.8988 65.5986 31.8699 65.6712 31.8699H75.8273C75.8999 31.8699 75.9696 31.8988 76.0209 31.9501C76.0722 32.0015 76.1011 32.0711 76.1011 32.1437C76.1011 32.2163 76.0722 32.2859 76.0209 32.3373C75.9696 32.3886 75.8999 32.4174 75.8273 32.4174Z" fill="#003350"/>
<path d="M73.6158 33.9148H67.889C67.8164 33.9148 67.7468 33.886 67.6954 33.8346C67.6441 33.7833 67.6152 33.7137 67.6152 33.6411C67.6152 33.5685 67.6441 33.4988 67.6954 33.4475C67.7468 33.3962 67.8164 33.3673 67.889 33.3673H73.6377C73.7103 33.3673 73.78 33.3962 73.8313 33.4475C73.8826 33.4988 73.9115 33.5685 73.9115 33.6411C73.9115 33.7137 73.8826 33.7833 73.8313 33.8346C73.78 33.886 73.7103 33.9148 73.6377 33.9148H73.6158Z" fill="#003350"/>
<path d="M82.4118 37.8733H62.4144C62.3418 37.8733 62.2721 37.8445 62.2208 37.7931C62.1695 37.7418 62.1406 37.6722 62.1406 37.5996C62.1406 37.527 62.1695 37.4573 62.2208 37.406C62.2721 37.3546 62.3418 37.3258 62.4144 37.3258H82.3981C82.4707 37.3258 82.5404 37.3546 82.5917 37.406C82.643 37.4573 82.6719 37.527 82.6719 37.5996C82.6719 37.6722 82.643 37.7418 82.5917 37.7931C82.5404 37.8445 82.4707 37.8733 82.3981 37.8733H82.4118Z" fill="#003350"/>
<path d="M79.069 43.8547H59.0853C59.0127 43.8547 58.943 43.8258 58.8917 43.7745C58.8404 43.7232 58.8115 43.6535 58.8115 43.5809C58.8115 43.5083 58.8404 43.4387 58.8917 43.3874C58.943 43.336 59.0127 43.3072 59.0853 43.3072H79.069C79.1416 43.3072 79.2113 43.336 79.2626 43.3874C79.3139 43.4387 79.3428 43.5083 79.3428 43.5809C79.3428 43.6535 79.3139 43.7232 79.2626 43.7745C79.2113 43.8258 79.1416 43.8547 79.069 43.8547Z" fill="#003350"/>
<path d="M82.4111 39.3679H59.0794C59.0068 39.3679 58.9372 39.3391 58.8858 39.2878C58.8345 39.2364 58.8057 39.1668 58.8057 39.0942C58.8057 39.0216 58.8345 38.952 58.8858 38.9006C58.9372 38.8493 59.0068 38.8204 59.0794 38.8204H82.4111C82.4837 38.8204 82.5534 38.8493 82.6047 38.9006C82.656 38.952 82.6849 39.0216 82.6849 39.0942C82.6849 39.1668 82.656 39.2364 82.6047 39.2878C82.5534 39.3391 82.4837 39.3679 82.4111 39.3679Z" fill="#003350"/>
<path d="M82.4111 40.8654H59.0794C59.0068 40.8654 58.9372 40.8365 58.8858 40.7852C58.8345 40.7339 58.8057 40.6642 58.8057 40.5916C58.8057 40.519 58.8345 40.4494 58.8858 40.3981C58.9372 40.3467 59.0068 40.3179 59.0794 40.3179H82.4111C82.4837 40.3179 82.5534 40.3467 82.6047 40.3981C82.656 40.4494 82.6849 40.519 82.6849 40.5916C82.6849 40.6642 82.656 40.7339 82.6047 40.7852C82.5534 40.8365 82.4837 40.8654 82.4111 40.8654Z" fill="#003350"/>
<path d="M82.4111 42.3601H59.0794C59.0068 42.3601 58.9372 42.3312 58.8858 42.2799C58.8345 42.2285 58.8057 42.1589 58.8057 42.0863C58.8057 42.0137 58.8345 41.9441 58.8858 41.8927C58.9372 41.8414 59.0068 41.8126 59.0794 41.8126H82.4111C82.4837 41.8126 82.5534 41.8414 82.6047 41.8927C82.656 41.9441 82.6849 42.0137 82.6849 42.0863C82.6849 42.1589 82.656 42.2285 82.6047 42.2799C82.5534 42.3312 82.4837 42.3601 82.4111 42.3601Z" fill="#003350"/>
<path d="M82.4118 52.9295H62.4144C62.3418 52.9295 62.2721 52.9007 62.2208 52.8493C62.1695 52.798 62.1406 52.7284 62.1406 52.6558C62.1406 52.5832 62.1695 52.5135 62.2208 52.4622C62.2721 52.4109 62.3418 52.382 62.4144 52.382H82.3981C82.4707 52.382 82.5404 52.4109 82.5917 52.4622C82.643 52.5135 82.6719 52.5832 82.6719 52.6558C82.6719 52.7284 82.643 52.798 82.5917 52.8493C82.5404 52.9007 82.4707 52.9295 82.3981 52.9295H82.4118Z" fill="#003350"/>
<path d="M79.069 58.911H59.0853C59.0127 58.911 58.943 58.8821 58.8917 58.8308C58.8404 58.7794 58.8115 58.7098 58.8115 58.6372C58.8115 58.5646 58.8404 58.495 58.8917 58.4436C58.943 58.3923 59.0127 58.3635 59.0853 58.3635H79.069C79.1416 58.3635 79.2113 58.3923 79.2626 58.4436C79.3139 58.495 79.3428 58.5646 79.3428 58.6372C79.3428 58.7098 79.3139 58.7794 79.2626 58.8308C79.2113 58.8821 79.1416 58.911 79.069 58.911Z" fill="#003350"/>
<path d="M82.4111 54.4242H59.0794C59.0068 54.4242 58.9372 54.3954 58.8858 54.344C58.8345 54.2927 58.8057 54.2231 58.8057 54.1505C58.8057 54.0779 58.8345 54.0082 58.8858 53.9569C58.9372 53.9056 59.0068 53.8767 59.0794 53.8767H82.4111C82.4837 53.8767 82.5534 53.9056 82.6047 53.9569C82.656 54.0082 82.6849 54.0779 82.6849 54.1505C82.6849 54.2231 82.656 54.2927 82.6047 54.344C82.5534 54.3954 82.4837 54.4242 82.4111 54.4242Z" fill="#003350"/>
<path d="M82.4111 55.9216H59.0794C59.0068 55.9216 58.9372 55.8927 58.8858 55.8414C58.8345 55.7901 58.8057 55.7204 58.8057 55.6478C58.8057 55.5752 58.8345 55.5056 58.8858 55.4543C58.9372 55.4029 59.0068 55.3741 59.0794 55.3741H82.4111C82.4837 55.3741 82.5534 55.4029 82.6047 55.4543C82.656 55.5056 82.6849 55.5752 82.6849 55.6478C82.6849 55.7204 82.656 55.7901 82.6047 55.8414C82.5534 55.8927 82.4837 55.9216 82.4111 55.9216Z" fill="#003350"/>
<path d="M82.4111 57.4163H59.0794C59.0068 57.4163 58.9372 57.3875 58.8858 57.3362C58.8345 57.2848 58.8057 57.2152 58.8057 57.1426C58.8057 57.07 58.8345 57.0004 58.8858 56.949C58.9372 56.8977 59.0068 56.8688 59.0794 56.8688H82.4111C82.4837 56.8688 82.5534 56.8977 82.6047 56.949C82.656 57.0004 82.6849 57.07 82.6849 57.1426C82.6849 57.2152 82.656 57.2848 82.6047 57.3362C82.5534 57.3875 82.4837 57.4163 82.4111 57.4163Z" fill="#003350"/>
<path d="M82.4113 30.3206H79.6108V34.049H82.4113V30.3206Z" fill="#003350"/>
<path d="M60.6352 33.4249C61.4924 33.4249 62.1873 32.73 62.1873 31.8727C62.1873 31.0155 61.4924 30.3206 60.6352 30.3206C59.7779 30.3206 59.083 31.0155 59.083 31.8727C59.083 32.73 59.7779 33.4249 60.6352 33.4249Z" fill="#003350"/>
<path d="M58.9926 45.8121C59.0001 45.8937 59.0378 45.9695 59.0983 46.0248C59.1588 46.08 59.2378 46.1106 59.3197 46.1106C59.4017 46.1106 59.4806 46.08 59.5412 46.0248C59.6017 45.9695 59.6394 45.8937 59.6468 45.8121C59.651 45.7666 59.6456 45.7207 59.6311 45.6775C59.6166 45.6342 59.5931 45.5944 59.5624 45.5607C59.5316 45.5269 59.4941 45.5 59.4523 45.4816C59.4105 45.4631 59.3654 45.4536 59.3197 45.4536C59.274 45.4536 59.2289 45.4631 59.1871 45.4816C59.1453 45.5 59.1078 45.5269 59.0771 45.5607C59.0463 45.5944 59.0229 45.6342 59.0083 45.6775C58.9938 45.7207 58.9884 45.7666 58.9926 45.8121V45.8121Z" fill="#003350"/>
<path d="M58.9922 47.3067C58.9917 47.3719 59.0105 47.4358 59.0464 47.4902C59.0823 47.5446 59.1336 47.5872 59.1937 47.6124C59.2539 47.6376 59.3201 47.6443 59.3841 47.6317C59.4481 47.6191 59.5069 47.5878 59.553 47.5417C59.5991 47.4956 59.6304 47.4368 59.643 47.3728C59.6556 47.3088 59.6489 47.2426 59.6237 47.1824C59.5985 47.1223 59.5559 47.071 59.5015 47.0351C59.447 46.9992 59.3832 46.9804 59.318 46.9809C59.2316 46.9809 59.1487 47.0152 59.0876 47.0763C59.0265 47.1374 58.9922 47.2203 58.9922 47.3067V47.3067Z" fill="#003350"/>
<path d="M58.9926 48.8041C59.0001 48.8857 59.0378 48.9615 59.0983 49.0168C59.1588 49.072 59.2378 49.1026 59.3197 49.1026C59.4017 49.1026 59.4806 49.072 59.5412 49.0168C59.6017 48.9615 59.6394 48.8857 59.6468 48.8041C59.651 48.7586 59.6456 48.7128 59.6311 48.6695C59.6166 48.6262 59.5931 48.5864 59.5624 48.5527C59.5316 48.5189 59.4941 48.492 59.4523 48.4736C59.4105 48.4551 59.3654 48.4456 59.3197 48.4456C59.274 48.4456 59.2289 48.4551 59.1871 48.4736C59.1453 48.492 59.1078 48.5189 59.0771 48.5527C59.0463 48.5864 59.0229 48.6262 59.0083 48.6695C58.9938 48.7128 58.9884 48.7586 58.9926 48.8041V48.8041Z" fill="#003350"/>
<path d="M58.9926 50.2988C59.0001 50.3804 59.0378 50.4562 59.0983 50.5114C59.1588 50.5667 59.2378 50.5973 59.3197 50.5973C59.4017 50.5973 59.4806 50.5667 59.5412 50.5114C59.6017 50.4562 59.6394 50.3804 59.6468 50.2988C59.651 50.2533 59.6456 50.2074 59.6311 50.1642C59.6166 50.1209 59.5931 50.0811 59.5624 50.0474C59.5316 50.0136 59.4941 49.9867 59.4523 49.9683C59.4105 49.9498 59.3654 49.9403 59.3197 49.9403C59.274 49.9403 59.2289 49.9498 59.1871 49.9683C59.1453 49.9867 59.1078 50.0136 59.0771 50.0474C59.0463 50.0811 59.0229 50.1209 59.0083 50.1642C58.9938 50.2074 58.9884 50.2533 58.9926 50.2988V50.2988Z" fill="#003350"/>
<path d="M64.0132 46.0858H60.4544C60.3818 46.0858 60.3122 46.0569 60.2608 46.0056C60.2095 45.9543 60.1807 45.8846 60.1807 45.812C60.1807 45.7394 60.2095 45.6698 60.2608 45.6184C60.3122 45.5671 60.3818 45.5383 60.4544 45.5383H64.0132C64.0858 45.5383 64.1554 45.5671 64.2067 45.6184C64.2581 45.6698 64.2869 45.7394 64.2869 45.812C64.2869 45.8846 64.2581 45.9543 64.2067 46.0056C64.1554 46.0569 64.0858 46.0858 64.0132 46.0858Z" fill="#003350"/>
<path d="M67.3553 47.5805H60.4486C60.376 47.5805 60.3063 47.5516 60.255 47.5003C60.2036 47.4489 60.1748 47.3793 60.1748 47.3067C60.1748 47.2341 60.2036 47.1645 60.255 47.1131C60.3063 47.0618 60.376 47.033 60.4486 47.033H67.3553C67.4279 47.033 67.4975 47.0618 67.5488 47.1131C67.6002 47.1645 67.629 47.2341 67.629 47.3067C67.629 47.3793 67.6002 47.4489 67.5488 47.5003C67.4975 47.5516 67.4279 47.5805 67.3553 47.5805V47.5805Z" fill="#003350"/>
<path d="M63.249 49.0779H60.4486C60.376 49.0779 60.3063 49.0491 60.255 48.9977C60.2036 48.9464 60.1748 48.8767 60.1748 48.8041C60.1748 48.7315 60.2036 48.6619 60.255 48.6106C60.3063 48.5592 60.376 48.5304 60.4486 48.5304H63.249C63.3216 48.5304 63.3912 48.5592 63.4426 48.6106C63.4939 48.6619 63.5228 48.7315 63.5228 48.8041C63.5228 48.8767 63.4939 48.9464 63.4426 48.9977C63.3912 49.0491 63.3216 49.0779 63.249 49.0779V49.0779Z" fill="#003350"/>
<path d="M66.2603 50.5725H60.4486C60.376 50.5725 60.3063 50.5437 60.255 50.4923C60.2036 50.441 60.1748 50.3714 60.1748 50.2988C60.1748 50.2262 60.2036 50.1565 60.255 50.1052C60.3063 50.0539 60.376 50.025 60.4486 50.025H66.2603C66.3329 50.025 66.4025 50.0539 66.4538 50.1052C66.5052 50.1565 66.534 50.2262 66.534 50.2988C66.534 50.3714 66.5052 50.441 66.4538 50.4923C66.4025 50.5437 66.3329 50.5725 66.2603 50.5725V50.5725Z" fill="#003350"/>
<path opacity="0.5" d="M86.1509 60.9258L80.4404 66.6362V60.9258H86.1509Z" fill="#003350"/>
<path opacity="0.2" d="M82.4113 30.3206L79.6108 34.049H82.4113V30.3206Z" fill="black"/>
<path opacity="0.2" d="M61.5405 30.9666H59.7256V32.7816H61.5405V30.9666Z" fill="black"/>
<path opacity="0.4" d="M86.148 28.1332H84.5356V60.9258H86.148V28.1332Z" fill="black"/>
<path d="M85.3431 34.3173C85.1855 34.3173 85.0344 34.2547 84.923 34.1433C84.8116 34.0319 84.749 33.8808 84.749 33.7232V30.3862C84.749 30.2287 84.8116 30.0776 84.923 29.9662C85.0344 29.8548 85.1855 29.7922 85.3431 29.7922V29.7922C85.5006 29.7922 85.6517 29.8548 85.7631 29.9662C85.8745 30.0776 85.9371 30.2287 85.9371 30.3862V33.7369C85.9335 33.8921 85.8694 34.0397 85.7583 34.1481C85.6473 34.2566 85.4983 34.3173 85.3431 34.3173V34.3173Z" fill="#003350"/>
<path opacity="0.4" d="M85.3431 34.3173C85.1855 34.3173 85.0344 34.2547 84.923 34.1433C84.8116 34.0319 84.749 33.8808 84.749 33.7232V30.3862C84.749 30.2287 84.8116 30.0776 84.923 29.9662C85.0344 29.8548 85.1855 29.7922 85.3431 29.7922V29.7922C85.5006 29.7922 85.6517 29.8548 85.7631 29.9662C85.8745 30.0776 85.9371 30.2287 85.9371 30.3862V33.7369C85.9335 33.8921 85.8694 34.0397 85.7583 34.1481C85.6473 34.2566 85.4983 34.3173 85.3431 34.3173V34.3173Z" fill="white"/>
<path d="M22.9477 42.1383H32.507C32.8747 42.139 33.227 42.2856 33.4867 42.5458C33.7464 42.806 33.8922 43.1586 33.8922 43.5262V52.8173C33.8922 53.1847 33.7463 53.537 33.4865 53.7968C33.2267 54.0565 32.8744 54.2025 32.507 54.2025H28.6253L29.0441 57.0029L27.1278 54.2025H22.9477C22.7657 54.2028 22.5854 54.1672 22.4172 54.0978C22.2489 54.0283 22.0961 53.9263 21.9674 53.7976C21.8387 53.6689 21.7367 53.516 21.6672 53.3478C21.5977 53.1796 21.5621 52.9993 21.5625 52.8173V43.5262C21.5621 43.3441 21.5977 43.1637 21.6672 42.9953C21.7366 42.8269 21.8386 42.6739 21.9672 42.545C22.0959 42.4161 22.2487 42.3138 22.417 42.244C22.5852 42.1742 22.7655 42.1383 22.9477 42.1383V42.1383Z" fill="#003350"/>
<path opacity="0.6" d="M22.9477 42.1383H32.507C32.8747 42.139 33.227 42.2856 33.4867 42.5458C33.7464 42.806 33.8922 43.1586 33.8922 43.5262V52.8173C33.8922 53.1847 33.7463 53.537 33.4865 53.7968C33.2267 54.0565 32.8744 54.2025 32.507 54.2025H28.6253L29.0441 57.0029L27.1278 54.2025H22.9477C22.7657 54.2028 22.5854 54.1672 22.4172 54.0978C22.2489 54.0283 22.0961 53.9263 21.9674 53.7976C21.8387 53.6689 21.7367 53.516 21.6672 53.3478C21.5977 53.1796 21.5621 52.9993 21.5625 52.8173V43.5262C21.5621 43.3441 21.5977 43.1637 21.6672 42.9953C21.7366 42.8269 21.8386 42.6739 21.9672 42.545C22.0959 42.4161 22.2487 42.3138 22.417 42.244C22.5852 42.1742 22.7655 42.1383 22.9477 42.1383V42.1383Z" fill="white"/>
<path d="M26.9385 46.2391V46.9809L27.3217 47.0165C27.3684 47.2601 27.4613 47.4924 27.5955 47.7009L27.3518 47.9965L27.8747 48.5194L28.1731 48.2758C28.382 48.4092 28.6142 48.5021 28.8575 48.5495L28.8931 48.93H29.6322L29.6705 48.5495C29.9135 48.5011 30.1455 48.4083 30.3549 48.2758L30.6505 48.5194L31.1734 47.9965L30.9297 47.7009C31.0628 47.4918 31.1556 47.2597 31.2035 47.0165L31.584 46.9809V46.2391L31.2035 46.2035C31.1556 45.9603 31.0628 45.7282 30.9297 45.5191L31.1734 45.2235L30.6587 44.6979L30.3631 44.9442C30.1537 44.8117 29.9217 44.7189 29.6787 44.6705L29.6404 44.2872H28.9013L28.8657 44.6705C28.6224 44.7179 28.3902 44.8108 28.1813 44.9442L27.8829 44.6979L27.3737 45.2235L27.6174 45.5191C27.4832 45.7276 27.3903 45.9599 27.3436 46.2035L26.9385 46.2391ZM29.2708 45.6067C29.4698 45.6062 29.6644 45.6647 29.83 45.7749C29.9956 45.8851 30.1248 46.0419 30.2012 46.2256C30.2776 46.4093 30.2977 46.6116 30.2591 46.8067C30.2204 47.0018 30.1246 47.1811 29.984 47.3218C29.8433 47.4624 29.664 47.5582 29.4689 47.5969C29.2737 47.6355 29.0715 47.6154 28.8878 47.539C28.7041 47.4626 28.5473 47.3335 28.4371 47.1678C28.3269 47.0022 28.2684 46.8076 28.2689 46.6086C28.2696 46.3431 28.3754 46.0887 28.5632 45.901C28.7509 45.7132 29.0053 45.6074 29.2708 45.6067V45.6067Z" fill="#F5F5F5"/>
<path d="M27.4179 51.6457C27.6126 51.6063 27.7982 51.5312 27.9654 51.4239L28.1981 51.6156L28.6087 51.2049L28.4171 50.9722C28.5243 50.8051 28.5995 50.6194 28.6388 50.4247L28.9372 50.3974V49.8225L28.6388 49.7951C28.6006 49.6001 28.5253 49.4143 28.4171 49.2476L28.6087 49.0149L28.1981 48.6043L27.9654 48.7959C27.7994 48.6864 27.6133 48.611 27.4179 48.5742L27.3905 48.2731H26.8102L26.7801 48.5742C26.5846 48.611 26.3985 48.6864 26.2326 48.7959L26.0026 48.6043L25.592 49.0149L25.7836 49.2476C25.6734 49.4135 25.5971 49.5996 25.5591 49.7951L25.2607 49.8225V50.4028L25.5591 50.4302C25.5982 50.6254 25.6744 50.8113 25.7836 50.9777L25.592 51.2104L26.0026 51.621L26.2326 51.4294C26.3997 51.5366 26.5854 51.6118 26.7801 51.6511L26.8102 51.9495H27.3905L27.4179 51.6457ZM26.3229 50.1181C26.3251 49.9622 26.3734 49.8105 26.4619 49.6821C26.5503 49.5536 26.6748 49.4543 26.8197 49.3967C26.9646 49.339 27.1233 49.3256 27.2758 49.3581C27.4283 49.3907 27.5677 49.4677 27.6764 49.5795C27.7851 49.6913 27.8582 49.8328 27.8865 49.9861C27.9148 50.1394 27.897 50.2977 27.8354 50.4409C27.7737 50.5841 27.671 50.7059 27.5401 50.7907C27.4093 50.8755 27.2563 50.9196 27.1003 50.9175C26.9958 50.9179 26.8922 50.8974 26.7956 50.8572C26.6991 50.817 26.6115 50.758 26.5381 50.6835C26.4647 50.6091 26.4069 50.5207 26.368 50.4236C26.3292 50.3266 26.3101 50.2227 26.3119 50.1181H26.3229Z" fill="#F5F5F5"/>
<path d="M25.9064 48.3716L26.068 48.5659L26.4704 48.2922L26.3472 48.0704C26.4643 47.9538 26.5573 47.8152 26.6209 47.6626L26.8728 47.6872L26.9631 47.2081L26.7195 47.137C26.7164 46.9734 26.683 46.8119 26.6209 46.6606L26.8153 46.4991L26.5415 46.0967L26.3198 46.2172C26.2033 46.0998 26.0646 46.0068 25.9119 45.9434L25.9366 45.6916L25.4575 45.6067L25.3863 45.8476C25.2225 45.8502 25.0607 45.8846 24.91 45.9489L24.7485 45.7545L24.3461 46.0283L24.4665 46.25C24.3504 46.3675 24.2575 46.5059 24.1928 46.6579L23.9409 46.636L23.8506 47.1151L24.0915 47.1835C24.0945 47.3482 24.1288 47.5108 24.1928 47.6626L23.9984 47.8241L24.2722 48.2265L24.4939 48.1033C24.6115 48.2193 24.7499 48.3121 24.9018 48.377L24.8799 48.6289L25.3589 48.7192L25.4274 48.4756C25.5921 48.4704 25.7545 48.4352 25.9064 48.3716V48.3716ZM24.754 47.0384C24.7863 46.8663 24.8856 46.7141 25.0301 46.6153C25.1746 46.5165 25.3525 46.4791 25.5246 46.5114C25.6966 46.5437 25.8488 46.6431 25.9476 46.7876C26.0465 46.9321 26.0838 47.11 26.0515 47.282C26.0355 47.3672 26.0029 47.4485 25.9555 47.521C25.9081 47.5936 25.8469 47.6562 25.7754 47.7051C25.7038 47.7541 25.6233 47.7884 25.5385 47.8062C25.4536 47.8241 25.3661 47.825 25.2809 47.809C25.1957 47.793 25.1145 47.7604 25.0419 47.713C24.9693 47.6656 24.9068 47.6044 24.8578 47.5328C24.8089 47.4613 24.7746 47.3808 24.7567 47.296C24.7389 47.2111 24.738 47.1236 24.754 47.0384V47.0384Z" fill="#F5F5F5"/>
<path d="M38.6985 76.1353C38.6985 76.1353 39.3719 82.1961 39.5909 82.9188C39.8099 83.6415 42.8951 87.5014 42.8951 87.5014L42.0219 87.9586C42.0219 87.9586 38.7369 84.5805 38.214 83.5786C37.6911 82.5767 36.9082 77.348 36.9082 77.348L38.6985 76.1353Z" fill="#EBB376"/>
<path d="M38.0823 73.4362C39.2183 74.0384 39.5906 82.4507 39.5906 82.4507L40.1655 83.335L38.419 84.5887C37.9985 83.8954 37.6324 83.1705 37.324 82.4206C36.9763 81.4844 36.1523 76.8635 36.1523 76.8635L38.0823 73.4362Z" fill="#263238"/>
<path opacity="0.1" d="M38.0823 73.4362C39.2183 74.0384 39.5906 82.4507 39.5906 82.4507L40.1655 83.335L38.419 84.5887C37.9985 83.8954 37.6324 83.1705 37.324 82.4206C36.9763 81.4844 36.1523 76.8635 36.1523 76.8635L38.0823 73.4362Z" fill="white"/>
<path d="M38.1611 84.5805L40.165 82.9927L40.5948 83.8934L38.747 85.2101L38.1611 84.5805Z" fill="#003350"/>
<path opacity="0.4" d="M38.1611 84.5805L40.165 82.9927L40.5948 83.8934L38.747 85.2101L38.1611 84.5805Z" fill="white"/>
<path d="M33.6037 84.2821L35.6513 87.5206C39.711 86.5762 52.7224 84.5915 54.3183 89.0563C56.3057 94.6025 41.953 99.0263 34.0115 99.2973C26.0701 99.5683 19.6944 95.046 24.7177 83.4664L33.6037 84.2821Z" fill="#003350"/>
<path opacity="0.2" d="M33.6037 84.2821L35.6513 87.5206C39.711 86.5762 52.7224 84.5915 54.3183 89.0563C56.3057 94.6025 41.953 99.0263 34.0115 99.2973C26.0701 99.5683 19.6944 95.046 24.7177 83.4664L33.6037 84.2821Z" fill="black"/>
<path d="M52.0129 96.9075C52.0043 96.9128 51.9943 96.9157 51.9842 96.9157C51.974 96.9157 51.9641 96.9128 51.9554 96.9075C51.9479 96.902 51.9425 96.8942 51.94 96.8853C51.9375 96.8763 51.9381 96.8668 51.9417 96.8582C51.9664 96.7679 52.2292 96.0041 52.4892 95.9247C52.5175 95.9178 52.547 95.9184 52.5749 95.9266C52.6028 95.9347 52.628 95.9502 52.648 95.9713C52.6852 96.0019 52.7137 96.0419 52.7305 96.0871C52.7473 96.1322 52.7519 96.1811 52.7438 96.2286C52.6999 96.371 52.6129 96.4963 52.4947 96.5872C52.3446 96.7089 52.1832 96.8161 52.0129 96.9075V96.9075ZM52.0814 96.7597C52.3291 96.65 52.5299 96.456 52.648 96.2122C52.6544 96.1795 52.6514 96.1456 52.6393 96.1146C52.6272 96.0836 52.6065 96.0567 52.5796 96.037C52.5721 96.028 52.5621 96.0214 52.5509 96.018C52.5398 96.0146 52.5278 96.0146 52.5166 96.0178C52.4951 96.0271 52.4749 96.039 52.4564 96.0534C52.2928 96.2623 52.1676 96.4987 52.0868 96.7515L52.0814 96.7597Z" fill="#003350"/>
<path d="M52.0132 96.9075C52.0047 96.9117 51.995 96.9126 51.9859 96.9101C51.9768 96.9075 51.969 96.9018 51.9639 96.8938C51.9392 96.8719 51.5724 96.4093 51.6326 96.0972C51.6395 96.0584 51.6542 96.0214 51.6759 95.9884C51.6975 95.9555 51.7257 95.9273 51.7586 95.9056C51.7863 95.879 51.8223 95.8626 51.8606 95.8591C51.8989 95.8556 51.9372 95.8652 51.9694 95.8864C52.1637 96.0205 52.1391 96.642 52.046 96.8746V96.8993L52.0132 96.9075ZM51.8051 96.0014C51.7725 96.0298 51.7504 96.0684 51.7421 96.1109C51.7519 96.3443 51.8375 96.5682 51.9858 96.7487C52.046 96.475 52.0268 96.0506 51.9146 95.9713C51.9146 95.9713 51.879 95.9466 51.8215 95.9877L51.8051 96.0014Z" fill="#003350"/>
<path d="M38.0522 98.1996C38.0572 98.1905 38.0649 98.1833 38.0742 98.1789C38.0835 98.1745 38.094 98.1731 38.1042 98.1749C38.1132 98.1761 38.1216 98.1802 38.1281 98.1866C38.1345 98.1931 38.1386 98.2015 38.1398 98.2105C38.1589 98.3009 38.2985 99.0975 38.1042 99.3055C38.0837 99.3258 38.058 99.3398 38.0299 99.3461C38.0018 99.3524 37.9725 99.3507 37.9454 99.3411C37.8982 99.3323 37.8541 99.3113 37.8175 99.28C37.781 99.2488 37.7534 99.2085 37.7374 99.1632C37.7063 99.018 37.7216 98.8667 37.7812 98.7307C37.8538 98.5451 37.9446 98.3672 38.0522 98.1996V98.1996ZM38.0522 98.3611C37.8885 98.5758 37.8061 98.8415 37.8195 99.1112C37.8297 99.143 37.8487 99.1712 37.8744 99.1926C37.9001 99.2139 37.9314 99.2275 37.9646 99.2316C37.9751 99.2367 37.987 99.2382 37.9984 99.2357C38.0098 99.2332 38.0201 99.227 38.0275 99.2179C38.0435 99.2006 38.0556 99.1801 38.0631 99.1577C38.1128 98.8947 38.1147 98.6248 38.0686 98.3611H38.0522Z" fill="#003350"/>
<path d="M43.2561 94.181L39.9875 95.3444L38.4189 95.9029L38.8214 97.622L40.3407 97.2962L44.0527 96.5051L43.2561 94.181Z" fill="#EBB376"/>
<path d="M39.2487 97.7014L38.9749 95.6756C38.9713 95.6486 38.9622 95.6226 38.9483 95.5992C38.9344 95.5758 38.9159 95.5554 38.8939 95.5393C38.8719 95.5232 38.8469 95.5117 38.8204 95.5055C38.7939 95.4993 38.7664 95.4985 38.7395 95.5032L37.7403 95.6702C37.7403 95.6702 36.3716 95.7988 36.0978 96.1465C35.3067 97.1676 35.7994 101.663 36.3278 101.821C36.5194 101.879 36.722 101.616 36.8068 101.433C37.0806 100.852 37.5432 99.3384 37.7704 98.8566C38.0442 98.2954 38.7669 98.0217 39.0954 97.9231C39.1437 97.9114 39.186 97.8823 39.2143 97.8415C39.2425 97.8006 39.2548 97.7507 39.2487 97.7014V97.7014Z" fill="#263238"/>
<path d="M38.0652 98.1831C38.0726 98.1785 38.0812 98.1761 38.0899 98.1761C38.0986 98.1761 38.1071 98.1785 38.1145 98.1831C38.1474 98.1831 38.6921 98.4186 38.7907 98.7306C38.8148 98.8068 38.8079 98.8894 38.7715 98.9606C38.76 98.9974 38.7364 99.0292 38.7047 99.051C38.6729 99.0729 38.6348 99.0834 38.5963 99.081C38.3636 99.0564 38.0817 98.5007 38.0488 98.2598V98.2352C38.0461 98.2258 38.0462 98.2159 38.0492 98.2067C38.0521 98.1974 38.0577 98.1892 38.0652 98.1831V98.1831ZM38.6866 98.8785C38.7002 98.8367 38.7002 98.7916 38.6866 98.7498C38.6237 98.5582 38.3198 98.3885 38.1638 98.3118C38.2404 98.5719 38.4676 98.9442 38.6045 98.9579C38.6045 98.9579 38.6456 98.9579 38.6757 98.9004V98.8785H38.6866Z" fill="#003350"/>
<path opacity="0.2" d="M43.2559 94.181L39.9873 95.3444L40.3404 97.2962L44.0525 96.5051L43.2559 94.181Z" fill="black"/>
<path d="M40.9179 97.5919L41.8596 97.6575L41.2299 94.4246L40.165 95.0159L40.9179 97.5919Z" fill="#003350"/>
<path opacity="0.6" d="M40.9179 97.5919L41.8596 97.6575L41.2299 94.4246L40.165 95.0159L40.9179 97.5919Z" fill="white"/>
<path opacity="0.2" d="M27.2881 85.0267L32.1827 90.4552C32.1827 90.4552 37.5948 90.3347 44.1648 93.5458C44.1648 93.5458 51.2138 90.6331 51.8626 88.2132C52.7112 85.0432 35.6511 87.5206 35.6511 87.5206L27.2881 85.0267Z" fill="black"/>
<path d="M50.245 88.8593V89.6641C50.245 89.8694 50.0013 89.9543 49.7987 89.9543H33.7269C33.5216 89.9543 33.2725 89.8694 33.2725 89.6641V88.8593H50.245Z" fill="#263238"/>
<path opacity="0.4" d="M50.245 88.8593V89.6641C50.245 89.8694 50.0013 89.9543 49.7987 89.9543H33.7269C33.5216 89.9543 33.2725 89.8694 33.2725 89.6641V88.8593H50.245Z" fill="white"/>
<path opacity="0.2" d="M50.2455 88.8593V89.6641C50.2455 89.8694 50.0019 89.9543 49.7993 89.9543H39.1997C38.9944 89.9543 38.748 89.8694 38.748 89.6641V88.8593H50.2455Z" fill="black"/>
<path d="M52.9328 80.5099L51.0166 89.1877C50.9812 89.3266 50.9013 89.45 50.789 89.539C50.6768 89.628 50.5384 89.6777 50.3951 89.6805H39.9488C39.8834 89.6794 39.8192 89.6629 39.7612 89.6325C39.7033 89.6021 39.6533 89.5585 39.6152 89.5053C39.5772 89.4521 39.5521 89.3907 39.5421 89.326C39.532 89.2614 39.5373 89.1952 39.5574 89.133L41.4736 80.5208C41.5122 80.3897 41.5948 80.2759 41.7075 80.1986C41.8202 80.1213 41.9561 80.0853 42.0923 80.0965H52.5441C52.8343 80.0992 52.9958 80.2279 52.9328 80.5099Z" fill="#263238"/>
<path opacity="0.4" d="M52.933 80.5098L51.0167 89.1877C50.9814 89.3266 50.9015 89.45 50.7892 89.539C50.6769 89.628 50.5386 89.6777 50.3953 89.6805H40.3049C40.2394 89.6791 40.1751 89.6625 40.1171 89.6321C40.0591 89.6018 40.0089 89.5583 39.9704 89.5053C39.932 89.4523 39.9063 89.3911 39.8955 89.3265C39.8847 89.2619 39.8889 89.1956 39.908 89.133L41.8242 80.5208C41.8638 80.3927 41.9451 80.2815 42.0553 80.2051C42.1655 80.1287 42.2981 80.0914 42.4319 80.0992H52.5278C52.8344 80.0992 52.9959 80.2279 52.933 80.5098Z" fill="white"/>
<path opacity="0.2" d="M47.7811 84.92C47.7811 85.6646 46.9845 86.2668 46.4123 86.2668C45.8402 86.2668 45.4816 85.6646 45.6486 84.92C45.8155 84.1754 46.3959 83.5978 46.968 83.5759C46.8011 84.3205 47.1569 84.92 47.74 84.92C47.7537 84.921 47.7674 84.921 47.7811 84.92V84.92Z" fill="black"/>
<path d="M45.5254 97.8985L48.9473 98.4624L50.5898 98.7335L51.0688 97.0362L49.5824 96.5818L45.9524 95.4786L45.5254 97.8985Z" fill="#EBB376"/>
<path d="M50.7349 96.7569L49.9958 98.6732C49.984 98.6989 49.9778 98.7268 49.9775 98.755C49.9773 98.7833 49.9831 98.8113 49.9945 98.8372C50.0058 98.863 50.0226 98.8862 50.0436 98.9051C50.0646 98.924 50.0894 98.9383 50.1163 98.9469L51.0717 99.2837C51.0717 99.2837 52.3227 99.8312 52.7278 99.656C53.9132 99.1468 55.657 94.9721 55.2737 94.5806C55.1341 94.4355 54.8275 94.5806 54.666 94.6874C54.1513 95.0652 53.0071 96.1656 52.5773 96.475C52.0708 96.8363 51.2989 96.7241 50.9649 96.6529C50.9204 96.6406 50.8731 96.6443 50.8311 96.6633C50.7891 96.6823 50.755 96.7154 50.7349 96.7569Z" fill="#263238"/>
<path opacity="0.2" d="M45.5254 97.8985L48.9473 98.4624L49.5824 96.5818L45.9524 95.4786L45.5254 97.8985Z" fill="black"/>
<path d="M49.0018 96.2286C49.0018 96.2286 35.0405 88.3829 30.2335 88.6074C25.4264 88.8319 24.7229 93.075 26.7103 95.7249C28.6977 98.3748 32.366 99.0263 32.366 99.0263C32.366 99.0263 29.8666 95.4977 30.228 94.504C30.5893 93.5103 32.0019 94.8982 32.0019 94.8982C32.0019 94.8982 40.7728 97.7287 48.4543 98.3912L49.0018 96.2286Z" fill="#003350"/>
<path d="M49.2181 96.0124L48.4297 95.4813L47.4141 98.5993H48.6322L49.2181 96.0124Z" fill="#003350"/>
<path opacity="0.6" d="M49.2181 96.0124L48.4297 95.4813L47.4141 98.5993H48.6322L49.2181 96.0124Z" fill="white"/>
<path d="M24.7178 83.4664L33.6064 84.2876C33.6064 84.2876 34.9998 81.4023 36.0702 80.2772C37.1405 79.1521 38.085 73.4334 38.085 73.4334C37.3622 73.0837 36.6179 72.7801 35.8567 72.5246C33.6639 71.7895 31.3693 71.4034 29.0567 71.3803H29.0184C28.3559 71.3803 27.9727 71.4132 27.9727 71.4132C27.7035 71.5948 27.4857 71.8428 27.3403 72.1331C26.3876 73.7756 25.6294 77.6081 25.1804 80.3593C24.8765 82.1387 24.7178 83.4664 24.7178 83.4664Z" fill="#263238"/>
<path opacity="0.2" d="M25.167 80.362C27.127 79.4641 29.8016 77.9448 29.662 76.4036C29.5114 74.7119 28.1399 73.0091 27.3269 72.1359C26.3742 73.7784 25.6159 77.6109 25.167 80.362Z" fill="black"/>
<path d="M29.4893 71.3912C29.4893 71.3912 30.5021 74.7255 33.2725 75.0869C36.0428 75.4482 36.5027 72.76 36.5027 72.76C36.5027 72.76 32.9358 70.8027 29.4893 71.3912Z" fill="#263238"/>
<path opacity="0.1" d="M29.4893 71.3912C29.4893 71.3912 30.5021 74.7255 33.2725 75.0869C36.0428 75.4482 36.5027 72.76 36.5027 72.76C36.5027 72.76 32.9358 70.8027 29.4893 71.3912Z" fill="white"/>
<path d="M30.0693 71.4843C30.0693 71.4843 31.3751 74.5722 33.7294 74.5722C36.0836 74.5722 36.1575 72.8394 36.1575 72.8394C36.1575 72.8394 33.8033 71.2955 30.0693 71.4843Z" fill="#003350"/>
<path opacity="0.4" d="M30.0693 71.4843C30.0693 71.4843 31.3751 74.5722 33.7294 74.5722C36.0836 74.5722 36.1575 72.8394 36.1575 72.8394C36.1575 72.8394 33.8033 71.2955 30.0693 71.4843Z" fill="white"/>
<path d="M34.3323 71.9661C34.3488 72.5136 34.6636 72.6505 34.6636 72.6505C34.6908 72.82 34.6787 72.9936 34.6283 73.1577C34.5779 73.3219 34.4905 73.4723 34.3729 73.5974C34.2552 73.7225 34.1104 73.8189 33.9496 73.8792C33.7888 73.9395 33.6163 73.9621 33.4454 73.9453C31.7016 73.7674 31.1514 71.6677 31.1514 71.6677C32.4188 71.164 32.7035 69.7651 32.7583 68.9302C32.7737 68.7133 32.7737 68.4956 32.7583 68.2787L35.129 69.7706C34.9288 70.1037 34.7522 70.4504 34.6006 70.8081C34.434 71.1721 34.3428 71.566 34.3323 71.9661V71.9661Z" fill="#EBB376"/>
<path opacity="0.2" d="M34.9837 69.5873C34.8184 69.9423 34.6776 70.3081 34.5621 70.6823C34.4338 71.0597 34.3835 71.4592 34.4143 71.8567C33.0811 71.9607 32.5501 69.0179 32.5501 69.0179V68.9987C32.5441 68.7811 32.5221 68.5643 32.4844 68.3499L34.9837 69.5873Z" fill="black"/>
<path d="M36.5002 63.0118C36.5002 63.0118 38.2413 61.0079 36.158 59.3298C34.0748 57.6517 29.9603 58.4073 29.2021 62.1987C28.4438 65.9902 29.4758 67.5916 29.4758 67.5916C29.4758 67.5916 29.4758 65.1771 30.1711 64.4736C30.1711 64.4736 29.9631 65.6288 30.1711 66.3214C30.3792 67.014 30.1711 66.576 30.1711 66.576C30.1711 66.576 30.8117 63.5511 33.8996 64.4188C36.9875 65.2866 36.5002 63.0118 36.5002 63.0118Z" fill="#263238"/>
<path d="M36.9159 63.6633C39.2099 64.3641 39.574 65.815 39.021 68.2295C38.3312 71.2407 37.0363 73.157 34.3673 71.6404C30.7264 69.5955 33.108 62.5026 36.9159 63.6633Z" fill="#EBB376"/>
<path d="M37.5781 67.6491C37.6562 68.0479 37.7821 68.4357 37.9531 68.8043C37.8576 68.8787 37.7434 68.9252 37.6231 68.9387C37.5028 68.9522 37.3811 68.9322 37.2715 68.881L37.5781 67.6491Z" fill="#D58745"/>
<path d="M36.2315 67.0359C36.1768 67.2248 36.0317 67.3507 35.9058 67.3097C35.7798 67.2686 35.7196 67.0907 35.7716 66.9018C35.8236 66.7129 35.9715 66.587 36.0974 66.628C36.2233 66.6691 36.2835 66.8443 36.2315 67.0359Z" fill="#263238"/>
<path d="M36.043 66.6225L36.5001 66.576C36.5001 66.576 36.199 66.8662 36.043 66.6225Z" fill="#263238"/>
<path d="M38.5999 67.6546C38.5479 67.8435 38.4028 67.9694 38.2769 67.9284C38.1509 67.8873 38.0907 67.7094 38.1427 67.5205C38.1947 67.3316 38.3426 67.2057 38.4685 67.2467C38.5944 67.2878 38.6546 67.4657 38.5999 67.6546Z" fill="#263238"/>
<path d="M38.4131 67.2412L38.8702 67.1947C38.8702 67.1947 38.5664 67.4849 38.4131 67.2412Z" fill="#263238"/>
<path d="M35.5881 65.5878C35.5671 65.5868 35.5468 65.5794 35.5302 65.5665C35.5136 65.5535 35.5015 65.5357 35.4954 65.5155C35.4894 65.4954 35.4898 65.4738 35.4966 65.4539C35.5034 65.434 35.5163 65.4166 35.5333 65.4044C35.715 65.303 35.9178 65.2458 36.1256 65.2372C36.3334 65.2287 36.5403 65.269 36.7296 65.3551C36.753 65.3658 36.7713 65.3853 36.7805 65.4094C36.7897 65.4334 36.7891 65.4601 36.7789 65.4837C36.7738 65.4959 36.7664 65.5069 36.757 65.5162C36.7476 65.5254 36.7364 65.5327 36.7242 65.5375C36.7119 65.5423 36.6988 65.5447 36.6857 65.5444C36.6725 65.5441 36.6595 65.5411 36.6475 65.5357C36.4884 65.4652 36.3154 65.4315 36.1414 65.4372C35.9674 65.4429 35.797 65.4878 35.6428 65.5686C35.6274 65.5812 35.608 65.588 35.5881 65.5878Z" fill="#263238"/>
<path d="M39.2427 66.4227C39.2281 66.4223 39.2138 66.419 39.2007 66.4128C39.1875 66.4067 39.1757 66.398 39.166 66.3871C39.0783 66.2608 38.9629 66.1562 38.8287 66.0813C38.6944 66.0063 38.5448 65.963 38.3913 65.9546C38.3653 65.9554 38.3401 65.9462 38.3207 65.9289C38.3013 65.9115 38.2894 65.8874 38.2873 65.8615C38.2865 65.8486 38.2884 65.8356 38.2926 65.8234C38.2969 65.8111 38.3036 65.7999 38.3122 65.7902C38.3209 65.7805 38.3313 65.7727 38.343 65.7671C38.3547 65.7615 38.3674 65.7582 38.3803 65.7575C38.5649 65.7627 38.7458 65.8106 38.9088 65.8975C39.0717 65.9845 39.2122 66.108 39.3193 66.2585C39.338 66.2774 39.3485 66.303 39.3485 66.3296C39.3485 66.3563 39.338 66.3819 39.3193 66.4008C39.3086 66.4093 39.2963 66.4157 39.2832 66.4194C39.27 66.4232 39.2562 66.4243 39.2427 66.4227Z" fill="#263238"/>
<path d="M33.2316 66.7649C33.2316 66.7649 34.8741 65.2072 35.1479 63.7044C35.1479 63.7044 40.2588 63.2335 39.0762 67.9146C39.0762 67.9146 40.7707 63.9535 36.8561 62.6614C32.9414 61.3693 31.2086 67.1399 32.7224 69.4777C32.7224 69.4777 32.2105 67.7394 33.2316 66.7649Z" fill="#263238"/>
<path d="M36.7435 69.913C36.4382 69.916 36.1421 69.8088 35.9093 69.6113C35.6765 69.4137 35.5227 69.1389 35.476 68.8372C35.4736 68.8109 35.4813 68.7846 35.4976 68.7637C35.5139 68.7429 35.5375 68.729 35.5636 68.725C35.5896 68.7226 35.6156 68.7304 35.636 68.7467C35.6564 68.7631 35.6697 68.7867 35.6731 68.8126C35.7111 69.0686 35.8416 69.3018 36.0398 69.4682C36.238 69.6346 36.4902 69.7228 36.749 69.7159C36.7751 69.7159 36.8002 69.7263 36.8186 69.7448C36.8371 69.7633 36.8475 69.7883 36.8475 69.8145C36.8475 69.8406 36.8371 69.8657 36.8186 69.8842C36.8002 69.9026 36.7751 69.913 36.749 69.913H36.7435Z" fill="#263238"/>
<path d="M32.8348 66.305C32.8313 66.3199 32.8329 66.3356 32.8394 66.3495C32.8458 66.3634 32.8568 66.3747 32.8704 66.3817H32.8868L35.2219 66.9292C35.1844 67.1511 35.2219 67.3793 35.3285 67.5776C35.435 67.7759 35.6046 67.933 35.8105 68.0242C36.0782 68.1575 36.3854 68.1879 36.6741 68.1097C36.9627 68.0315 37.2126 67.8501 37.3763 67.5999C37.405 67.5512 37.4289 67.4999 37.4475 67.4466C37.4892 67.4124 37.5374 67.387 37.5891 67.372C37.6409 67.3569 37.6951 67.3525 37.7486 67.3589C37.7778 67.3719 37.8037 67.3911 37.8245 67.4153C37.8453 67.4394 37.8605 67.4679 37.8691 67.4986C37.8372 67.7178 37.8777 67.9414 37.9844 68.1356C38.0911 68.3297 38.2582 68.4838 38.4604 68.5744C38.7285 68.7068 39.0358 68.7365 39.3243 68.6578C39.6128 68.5792 39.8625 68.3976 40.0262 68.1474C40.0968 68.0255 40.1407 67.8901 40.155 67.7501C40.1693 67.61 40.1536 67.4685 40.1091 67.335C40.0646 67.2014 39.9922 67.0789 39.8967 66.9754C39.8013 66.8719 39.6849 66.7899 39.5554 66.7348C39.2877 66.6015 38.9804 66.5711 38.6918 66.6493C38.4032 66.7275 38.1533 66.9089 37.9895 67.1591C37.9608 67.2078 37.937 67.2591 37.9184 67.3124C37.8854 67.2783 37.8452 67.2521 37.8006 67.2358C37.6987 67.2096 37.5908 67.2213 37.4968 67.2686C37.5336 67.0464 37.4955 66.8182 37.3885 66.6199C37.2814 66.4217 37.1115 66.2647 36.9055 66.1736C36.6378 66.0403 36.3305 66.0099 36.0419 66.0881C35.7533 66.1663 35.5034 66.3477 35.3396 66.5979C35.3023 66.662 35.272 66.7299 35.2493 66.8005L32.9252 66.253C32.9063 66.248 32.8862 66.2506 32.8693 66.2604C32.8523 66.2701 32.84 66.2862 32.8348 66.305V66.305ZM38.1182 67.2111C38.2616 66.9927 38.4799 66.8343 38.732 66.7657C38.9842 66.6971 39.2527 66.7231 39.4869 66.8388C39.6003 66.8873 39.702 66.9593 39.7854 67.05C39.8688 67.1407 39.9321 67.2481 39.9709 67.365C40.0097 67.482 40.0232 67.6059 40.0106 67.7285C39.998 67.8511 39.9594 67.9696 39.8976 68.0762C39.7542 68.2946 39.5356 68.4529 39.2834 68.521C39.0311 68.5891 38.7627 68.5623 38.5288 68.4457C38.4156 68.3976 38.3139 68.3259 38.2305 68.2354C38.1471 68.145 38.0839 68.0378 38.045 67.9211C38.0062 67.8043 37.9926 67.6806 38.0053 67.5582C38.0179 67.4358 38.0564 67.3175 38.1182 67.2111V67.2111ZM35.4683 66.6636C35.6117 66.4452 35.83 66.2868 36.0821 66.2182C36.3343 66.1496 36.6028 66.1756 36.837 66.2913C36.9504 66.3398 37.0521 66.4118 37.1355 66.5025C37.2189 66.5932 37.2822 66.7006 37.321 66.8175C37.3598 66.9345 37.3733 67.0584 37.3607 67.181C37.3481 67.3036 37.3095 67.4221 37.2477 67.5287C37.1047 67.7476 36.8864 67.9064 36.6341 67.975C36.3818 68.0436 36.1131 68.0173 35.8789 67.901C35.7655 67.8522 35.6637 67.78 35.5803 67.689C35.4969 67.598 35.4337 67.4904 35.3949 67.3732C35.3561 67.256 35.3425 67.132 35.3552 67.0092C35.3679 66.8864 35.4064 66.7677 35.4683 66.6609V66.6636Z" fill="#263238"/>
<g opacity="0.3">
<path opacity="0.3" d="M32.8348 66.305C32.8313 66.3199 32.8329 66.3356 32.8394 66.3495C32.8458 66.3634 32.8568 66.3747 32.8704 66.3817H32.8868L35.2219 66.9292C35.1844 67.1511 35.2219 67.3793 35.3285 67.5776C35.435 67.7759 35.6046 67.933 35.8105 68.0242C36.0782 68.1575 36.3854 68.1879 36.6741 68.1097C36.9627 68.0315 37.2126 67.8501 37.3763 67.5999C37.405 67.5512 37.4289 67.4999 37.4475 67.4466C37.4892 67.4124 37.5374 67.387 37.5891 67.372C37.6409 67.3569 37.6951 67.3525 37.7486 67.3589C37.7778 67.3719 37.8037 67.3911 37.8245 67.4153C37.8453 67.4394 37.8605 67.4679 37.8691 67.4986C37.8372 67.7178 37.8777 67.9414 37.9844 68.1356C38.0911 68.3297 38.2582 68.4838 38.4604 68.5744C38.7285 68.7068 39.0358 68.7365 39.3243 68.6578C39.6128 68.5792 39.8625 68.3976 40.0262 68.1474C40.0968 68.0255 40.1407 67.8901 40.155 67.7501C40.1693 67.61 40.1536 67.4685 40.1091 67.335C40.0646 67.2014 39.9922 67.0789 39.8967 66.9754C39.8013 66.8719 39.6849 66.7899 39.5554 66.7348C39.2877 66.6015 38.9804 66.5711 38.6918 66.6493C38.4032 66.7275 38.1533 66.9089 37.9895 67.1591C37.9608 67.2078 37.937 67.2591 37.9184 67.3124C37.8854 67.2783 37.8452 67.2521 37.8006 67.2358C37.6987 67.2096 37.5908 67.2213 37.4968 67.2686C37.5336 67.0464 37.4955 66.8182 37.3885 66.6199C37.2814 66.4217 37.1115 66.2647 36.9055 66.1736C36.6378 66.0403 36.3305 66.0099 36.0419 66.0881C35.7533 66.1663 35.5034 66.3477 35.3396 66.5979C35.3023 66.662 35.272 66.7299 35.2493 66.8005L32.9252 66.253C32.9063 66.248 32.8862 66.2506 32.8693 66.2604C32.8523 66.2701 32.84 66.2862 32.8348 66.305V66.305ZM38.1182 67.2111C38.2616 66.9927 38.4799 66.8343 38.732 66.7657C38.9842 66.6971 39.2527 66.7231 39.4869 66.8388C39.6003 66.8873 39.702 66.9593 39.7854 67.05C39.8688 67.1407 39.9321 67.2481 39.9709 67.365C40.0097 67.482 40.0232 67.6059 40.0106 67.7285C39.998 67.8511 39.9594 67.9696 39.8976 68.0762C39.7542 68.2946 39.5356 68.4529 39.2834 68.521C39.0311 68.5891 38.7627 68.5623 38.5288 68.4457C38.4156 68.3976 38.3139 68.3259 38.2305 68.2354C38.1471 68.145 38.0839 68.0378 38.045 67.9211C38.0062 67.8043 37.9926 67.6806 38.0053 67.5582C38.0179 67.4358 38.0564 67.3175 38.1182 67.2111V67.2111ZM35.4683 66.6636C35.6117 66.4452 35.83 66.2868 36.0821 66.2182C36.3343 66.1496 36.6028 66.1756 36.837 66.2913C36.9504 66.3398 37.0521 66.4118 37.1355 66.5025C37.2189 66.5932 37.2822 66.7006 37.321 66.8175C37.3598 66.9345 37.3733 67.0584 37.3607 67.181C37.3481 67.3036 37.3095 67.4221 37.2477 67.5287C37.1047 67.7476 36.8864 67.9064 36.6341 67.975C36.3818 68.0436 36.1131 68.0173 35.8789 67.901C35.7655 67.8522 35.6637 67.78 35.5803 67.689C35.4969 67.598 35.4337 67.4904 35.3949 67.3732C35.3561 67.256 35.3425 67.132 35.3552 67.0092C35.3679 66.8864 35.4064 66.7677 35.4683 66.6609V66.6636Z" fill="white"/>
</g>
<path d="M33.4591 67.3617C33.5177 67.0898 33.4662 66.8058 33.3159 66.5719C33.1656 66.3379 32.9287 66.173 32.657 66.1134C31.9234 65.9738 31.1377 67.3288 32.7994 68.2185C33.0375 68.3472 33.2565 68.1419 33.4591 67.3617Z" fill="#EBB376"/>
<path d="M29.0181 74.4107C29.0181 74.4107 29.2919 80.2635 29.7874 81.5775C30.2829 82.8915 35.4513 87.7314 35.4513 87.7314C35.4513 87.7314 36.8939 87.4111 37.1321 87.5042C37.3702 87.5972 38.7472 88.8729 38.7472 88.8729H34.7669L34.4192 88.2597C34.4192 88.2597 29.0701 84.2958 28.4816 83.3514C28.0463 82.6533 26.6475 75.544 26.6475 75.544L29.0181 74.4107Z" fill="#EBB376"/>
<path d="M27.9591 71.4159C28.8871 70.9341 29.3279 72.4862 29.8945 75.6262C30.2316 77.6108 30.3864 79.6221 30.3572 81.635L31.151 83.0448L29.1472 84.8899C28.205 83.9798 27.4831 82.8665 27.0366 81.635C26.4179 79.7461 24.7124 73.1104 27.9591 71.4159Z" fill="#263238"/>
<path opacity="0.1" d="M27.9591 71.4159C28.8871 70.9341 29.3279 72.4862 29.8945 75.6262C30.2316 77.6108 30.3864 79.6221 30.3572 81.635L31.151 83.0448L29.1472 84.8899C28.205 83.9798 27.4831 82.8665 27.0366 81.635C26.4179 79.7461 24.7124 73.1104 27.9591 71.4159Z" fill="white"/>
<path d="M28.624 84.8898L31.1507 82.6314L31.7475 83.4663L29.4891 85.6837L28.624 84.8898Z" fill="#003350"/>
<path opacity="0.4" d="M28.624 84.8898L31.1507 82.6314L31.7475 83.4663L29.4891 85.6837L28.624 84.8898Z" fill="white"/>
</svg>