<svg width="223" height="223" viewBox="0 0 223 223" fill="none" xmlns="http://www.w3.org/2000/svg"><path d="M183.141 53.0383C176.973 42.7803 162.982 31.6303 151.127 40.2203C148.887 41.874 147.056 44.0192 145.775 46.4911C141.012 55.3486 141.003 66.9714 132.721 73.7327C125.183 79.8831 114.319 80.6903 104.997 79.6735C91.3452 78.1838 77.6307 73.4295 64.0099 77.7021C60.5142 78.7913 57.2053 80.4082 54.1979 82.4966C39.6048 92.6298 33.1734 112.923 38.9313 129.697C46.714 152.367 73.8843 160.609 95.3637 162.893C114.626 164.94 134.612 161.555 151.582 152.189C168.552 142.823 182.307 127.404 188.546 109.06C194.786 90.7164 193.14 69.6295 183.141 53.0383Z" fill="#003350"></path><path opacity="0.9" d="M183.141 53.0383C176.973 42.7803 162.982 31.6303 151.127 40.2203C148.887 41.874 147.056 44.0192 145.775 46.4911C141.012 55.3486 141.003 66.9714 132.721 73.7327C125.183 79.8831 114.319 80.6903 104.997 79.6735C91.3452 78.1838 77.6307 73.4295 64.0099 77.7021C60.5142 78.7913 57.2053 80.4082 54.1979 82.4966C39.6048 92.6298 33.1734 112.923 38.9313 129.697C46.714 152.367 73.8843 160.609 95.3637 162.893C114.626 164.94 134.612 161.555 151.582 152.189C168.552 142.823 182.307 127.404 188.546 109.06C194.786 90.7164 193.14 69.6295 183.141 53.0383Z" fill="white"></path><path d="M111.5 190.692C159.259 190.692 197.975 188.431 197.975 185.643C197.975 182.855 159.259 180.594 111.5 180.594C63.7415 180.594 25.0254 182.855 25.0254 185.643C25.0254 188.431 63.7415 190.692 111.5 190.692Z" fill="#F5F5F5"></path><path d="M161.136 62.2259C161.136 62.2259 159.985 59.5812 156.283 59.5812C152.582 59.5812 149.491 61.7844 149.665 64.6076C149.839 67.4308 147.725 67.1676 147.372 69.9016C147.02 72.6356 148.34 73.3403 148.429 74.4909C148.518 75.6416 147.02 75.2848 146.048 77.2249C145.075 79.165 143.844 81.899 147.988 85.5161C152.131 89.1331 163.87 88.5176 166.425 86.3099C168.981 84.1022 168.896 79.8697 166.425 78.7279C163.955 77.5862 166.251 77.7557 166.515 75.2001C166.778 72.6445 164.485 71.6722 164.664 69.6429C164.842 67.6136 165.466 62.4043 161.136 62.2259Z" fill="#263238"></path><path d="M139.598 99.2707L135.945 97.2771C135.945 97.2771 134.91 94.6011 134.362 94.3156C133.813 94.0302 129.844 94.106 129.34 94.106C128.836 94.106 128.974 97.8212 129.215 98.4411C129.456 99.0611 133.84 99.2662 134.268 99.3331L138.728 102.567L139.598 99.2707Z" fill="#B97964"></path><path d="M145.74 79.2988C142.988 79.2988 140.753 98.6909 140.753 98.6909L136.989 97.2771L134.639 100.689C134.639 100.689 138.871 106.099 142.988 105.394C147.104 104.69 149.232 83.4867 149.232 83.4867L145.74 79.2988Z" fill="#003350"></path><path opacity="0.2" d="M149.223 83.4868C149.223 83.4868 149.169 84.0398 149.058 84.9764C148.487 89.811 146.444 104.806 142.988 105.394C142.66 105.452 142.326 105.47 141.993 105.448C138.216 105.265 134.639 100.689 134.639 100.689L136.989 97.2815L140.753 98.6909C140.753 98.6909 142.983 79.281 145.74 79.2988L149.223 83.4868Z" fill="white"></path><path opacity="0.2" d="M149.057 84.9764C148.487 89.811 146.444 104.806 142.987 105.394C142.659 105.452 142.325 105.47 141.993 105.448C141.904 92.9955 145.695 81.9882 145.695 81.9882L149.057 84.9764Z" fill="black"></path><path d="M147.755 107.968C147.755 107.968 142.92 133.729 141.631 144.308C139.945 158.107 133.055 178.293 133.055 178.293L135.811 179.007C135.811 179.007 145.525 161.849 147.407 146.417C155.123 130.642 155.747 111.215 155.747 111.215L147.755 107.968Z" fill="#B97964"></path><path d="M127.926 184.537C128.373 184.338 128.852 184.223 129.34 184.198C129.34 184.198 131.035 183.199 132.712 179.328H134.603C134.922 179.332 135.231 179.434 135.491 179.62C135.75 179.806 135.946 180.066 136.052 180.367C136.083 180.451 136.101 180.54 136.106 180.63C136.088 181.086 136.039 181.541 135.959 181.99C135.682 183.498 135.314 184.987 134.857 186.45L134.536 186.366L135.12 183.551C135.312 182.592 134.304 183.516 133.84 184.483C133.376 185.451 132.658 186.419 130.571 185.942C128.145 185.326 127.164 184.974 127.926 184.537Z" fill="#263238"></path><path d="M152.773 107.557C152.773 107.557 153.376 133.76 154.299 144.375C155.507 158.227 152.961 179.404 152.961 179.404L155.806 179.528C155.806 179.528 161.76 160.734 160.422 145.244C164.708 128.212 161.314 109.078 161.314 109.078L152.773 107.557Z" fill="#B97964"></path><path d="M148.518 185.402C148.939 185.149 149.403 184.975 149.887 184.889C149.887 184.889 151.461 183.716 152.714 179.684L154.588 179.47C154.907 179.44 155.229 179.51 155.507 179.67C155.786 179.829 156.008 180.071 156.144 180.362C156.184 180.442 156.211 180.528 156.224 180.617C156.253 181.073 156.253 181.53 156.224 181.986C156.11 183.507 155.903 185.021 155.605 186.517L155.279 186.473L155.551 183.609C155.64 182.637 154.744 183.663 154.382 184.675C154.021 185.688 153.419 186.727 151.292 186.459C148.816 186.16 147.804 185.915 148.518 185.402Z" fill="#263238"></path><path d="M133.055 178.293C133.055 178.293 130.678 183.226 129.34 184.198C129.34 184.198 131.16 185.282 133.055 182.86C135.504 179.738 136.106 180.63 136.106 180.63C136.057 180.091 135.958 179.558 135.811 179.038C135.441 177.999 133.055 178.293 133.055 178.293Z" fill="#B97964"></path><path d="M153.228 178.253C153.228 178.253 152.559 180.077 151.667 182.084C151.257 183.125 150.652 184.077 149.883 184.889C149.883 184.889 151.43 185.393 152.269 184.421C153.107 183.449 154.535 179.961 156.14 180.345C156.055 180.059 155.935 179.785 155.783 179.528C155.543 179.131 153.228 178.253 153.228 178.253Z" fill="#B97964"></path><path d="M146.101 103.668C146.101 103.668 144.187 122.739 141.342 141.859C139.673 152.754 137.117 163.494 133.697 173.971L139.344 174.444C139.344 174.444 150.164 147.622 153.46 132.096C153.46 132.096 154.633 159.619 152.75 174.912L157.692 174.676C157.692 174.676 169.734 122.877 160.752 104.208L146.101 103.668Z" fill="#003350"></path><path opacity="0.4" d="M157.692 174.68L152.75 174.912C154.633 159.623 153.46 132.096 153.46 132.096C152.626 136.017 151.314 140.651 149.82 145.396C145.391 159.45 139.344 174.444 139.344 174.444L133.697 173.971C137.117 163.494 139.674 152.754 141.342 141.859C144.187 122.739 146.101 103.668 146.101 103.668L160.752 104.221C169.747 122.877 157.692 174.68 157.692 174.68Z" fill="white"></path><path opacity="0.2" d="M153.46 132.096C152.626 136.017 151.315 140.651 149.821 145.396C149.25 136.476 151.52 120.451 151.52 120.451L153.46 132.096Z" fill="black"></path><path d="M160.72 103.294L160.76 105.448L146.02 104.596L145.976 102.049L160.72 103.294Z" fill="#263238"></path><path d="M149.208 104.968L152.429 105.195L152.601 102.752L149.38 102.526L149.208 104.968Z" fill="white"></path><path d="M155.636 106.209L156.367 106.232L156.487 102.51L155.756 102.487L155.636 106.209Z" fill="#003350"></path><path opacity="0.4" d="M155.636 106.209L156.367 106.232L156.487 102.51L155.756 102.487L155.636 106.209Z" fill="white"></path><path d="M146.631 105.383L147.362 105.406L147.482 101.684L146.751 101.661L146.631 105.383Z" fill="#003350"></path><path opacity="0.4" d="M146.631 105.383L147.362 105.406L147.482 101.684L146.751 101.661L146.631 105.383Z" fill="white"></path><path d="M146.03 101.461L160.748 102.732C160.891 99.0832 161.416 95.4598 162.313 91.9206C162.666 90.5113 163.107 88.9369 163.674 87.1172C163.977 86.1449 164.311 85.1013 164.686 83.9952C164.967 83.1433 165.27 82.2379 165.605 81.2835C163.606 80.6454 161.564 80.1521 159.494 79.8073C157.31 79.4194 155.102 79.1869 152.885 79.1115C150.021 79.0892 146.73 79.4103 146.73 79.4103C146.73 79.4103 146.262 79.5218 145.967 82.5591C145.704 85.3912 145.441 91.091 146.03 101.461Z" fill="#003350"></path><path d="M146.003 102.321L160.721 103.294C160.952 99.6364 161.216 96.2825 162.317 91.9206C162.67 90.5113 163.111 88.9369 163.678 87.1172C163.981 86.1449 164.315 85.1013 164.69 83.9952C164.971 83.1433 165.274 82.238 165.609 81.2835C163.61 80.6454 161.568 80.1521 159.499 79.8073C157.314 79.4194 155.106 79.1869 152.889 79.1115C150.025 79.0892 146.734 79.4103 146.734 79.4103C146.734 79.4103 146.266 79.5218 145.971 82.5591C145.704 85.3912 145.396 91.9518 146.003 102.321Z" fill="#263238"></path><g opacity="0.1"><path opacity="0.1" d="M146.03 101.461L160.748 102.732C160.891 99.0832 161.416 95.4598 162.313 91.9206C162.666 90.5113 163.107 88.9369 163.674 87.1172C163.977 86.1449 164.311 85.1013 164.686 83.9952C164.967 83.1433 165.27 82.2379 165.605 81.2835C163.606 80.6454 161.564 80.1521 159.494 79.8073C157.31 79.4194 155.102 79.1869 152.885 79.1115C150.021 79.0892 146.73 79.4103 146.73 79.4103C146.73 79.4103 146.262 79.5218 145.967 82.5591C145.704 85.3912 145.441 91.091 146.03 101.461Z" fill="white"></path></g><path d="M154.102 82.345C157.732 81.899 158.82 80.3291 158.82 80.3291C156.519 78.157 158.432 74.3928 158.432 74.3928L154.066 75.209C154.164 75.817 154.22 76.4309 154.235 77.0465C154.267 79.7002 153.071 79.7225 153.071 79.7225C152.304 81.172 154.102 82.345 154.102 82.345Z" fill="#B97964"></path><path opacity="0.2" d="M154.066 75.209C154.164 75.817 154.221 76.4309 154.236 77.0465C157.184 77.0465 158.433 74.3928 158.433 74.3928L154.066 75.209Z" fill="black"></path><path d="M156.479 62.9975C152.684 62.7923 151.35 64.7547 150.855 68.6528C150.24 73.5231 151.136 77.0554 155.939 76.2704C162.464 75.2045 162.79 63.332 156.479 62.9975Z" fill="#B97964"></path><path d="M153.321 68.577C152.987 69.1273 152.587 69.635 152.13 70.0889C152.232 70.2518 152.378 70.3833 152.55 70.4691C152.722 70.5548 152.915 70.5915 153.107 70.5751L153.321 68.577Z" fill="#A24E3F"></path><path d="M155.654 68.3941C155.654 68.7019 155.779 68.9695 155.984 68.9873C156.189 69.0051 156.381 68.7643 156.408 68.4521C156.435 68.1399 156.283 67.8723 156.074 67.8589C155.864 67.8455 155.69 68.0819 155.654 68.3941Z" fill="#263238"></path><path d="M156.166 67.8812L155.511 67.5601C155.511 67.5601 155.805 68.1577 156.166 67.8812Z" fill="#263238"></path><path d="M151.796 68.0239C151.774 68.3361 151.921 68.5993 152.126 68.6171C152.331 68.635 152.523 68.3941 152.572 68.0819C152.621 67.7697 152.447 67.5066 152.238 67.4887C152.028 67.4709 151.823 67.7117 151.796 68.0239Z" fill="#263238"></path><path d="M152.3 67.511L151.645 67.1944C151.645 67.1944 151.939 67.792 152.3 67.511Z" fill="#263238"></path><path d="M155.846 65.7716C156.148 65.7513 156.45 65.8007 156.73 65.9159C157.01 66.0311 157.26 66.2091 157.46 66.4362" stroke="#2E353A" stroke-width="0.72468" stroke-linecap="round" stroke-linejoin="round"></path><path d="M153.094 65.4595C152.838 65.3808 152.568 65.3608 152.303 65.4009C152.038 65.4411 151.786 65.5403 151.564 65.6914" stroke="#2E353A" stroke-width="0.72468" stroke-linecap="round" stroke-linejoin="round"></path><path d="M153.58 72.0959C153.736 72.5322 153.86 72.9794 153.95 73.4339C154.032 73.4384 154.114 73.4384 154.196 73.4339C155.306 73.3848 155.806 72.9879 156.024 72.5776C156.125 72.3708 156.174 72.1428 156.167 71.913C156.168 71.7821 156.152 71.6516 156.118 71.525C155.446 71.8622 154.71 72.0509 153.959 72.0781C153.727 72.0959 153.58 72.0959 153.58 72.0959Z" fill="#263238"></path><path d="M153.959 72.0736L154.079 72.4661C155.123 72.417 155.863 72.2386 156.167 71.9086C156.168 71.7776 156.151 71.6471 156.118 71.5206C155.446 71.8578 154.71 72.0464 153.959 72.0736Z" fill="white"></path><path d="M154.195 73.4295C155.306 73.3804 155.805 72.9834 156.024 72.5731C155.601 72.5998 155.185 72.701 154.797 72.8719C154.544 72.9916 154.334 73.1863 154.195 73.4295Z" fill="#DE5753"></path><path d="M160.279 69.625C160.279 69.625 158.673 66.4094 159.074 64.0144C159.074 64.0144 151.72 60.5311 150.93 68.1443C150.93 68.1443 150.565 61.325 157.099 61.5301C163.633 61.7353 163.084 71.2842 159.556 73.9423C159.556 73.9423 161.269 71.6365 160.279 69.625Z" fill="#263238"></path><path d="M160.662 62.6362C160.662 62.6362 157.692 59.9915 154.989 60.491C152.287 60.9905 152.759 64.5496 156.327 65.901C159.895 67.2523 160.622 68.9917 160.622 68.9917L163.709 66.2265L160.662 62.6362Z" fill="#263238"></path><path d="M154.196 61.606C154.196 61.606 152.929 61.6907 153.282 63.5728C153.634 65.4549 156.31 66.4005 158.839 67.2835C161.368 68.1666 161.162 69.1612 161.162 69.1612" stroke="#263238" stroke-width="0.5" stroke-miterlimit="10"></path><path d="M159.614 70.3922C159.674 69.9551 159.905 69.5598 160.256 69.293C160.608 69.0262 161.051 68.9098 161.488 68.9694C162.661 69.1612 163.089 71.6053 160.127 72.029C159.704 72.087 159.49 71.6633 159.614 70.3922Z" fill="#B97964"></path><path d="M162.184 80.726C162.184 80.726 157.924 84.1825 153.959 84.129C149.994 84.0755 148.607 79.611 148.607 79.611C148.607 79.611 154.762 77.7958 162.184 80.726Z" fill="#B97964"></path><path d="M159.588 79.5173C158.165 89.1955 158.241 99.0349 159.811 108.69L164.043 108.217L166.046 81.0471L159.588 79.5173Z" fill="#003350"></path><path opacity="0.2" d="M166.046 81.0471L165.832 83.9283L164.757 98.5169L164.043 108.217L159.811 108.69C159.761 108.382 159.712 108.075 159.668 107.771C158.941 102.989 158.579 98.1583 158.584 93.321V92.826C158.587 88.371 158.923 83.9224 159.588 79.5173L161.55 79.9633L166.046 81.0471Z" fill="white"></path><path d="M151.457 78.942C151.457 78.942 146.734 92.8081 146.047 107.04L144.504 106.594C144.504 106.594 143.371 91.1981 145.726 79.3211L151.457 78.942Z" fill="#003350"></path><path opacity="0.2" d="M151.457 78.942C150.121 83.0918 149.012 87.3112 148.135 91.5816C147.894 92.7368 147.657 93.9454 147.439 95.1942C147.029 97.5045 146.672 99.9486 146.409 102.451C146.248 103.972 146.123 105.51 146.047 107.058L144.504 106.594C144.504 106.594 144.357 104.618 144.281 101.532C144.228 99.4134 144.205 96.7686 144.281 93.8875C144.364 89.0009 144.846 84.1293 145.722 79.3211L149.642 79.0669L151.457 78.942Z" fill="white"></path><path opacity="0.2" d="M160.163 84.7668L161.661 86.8853L158.584 92.826C158.587 88.371 158.922 83.9224 159.587 79.5173L161.55 79.9633L162.808 82.7642L160.163 84.7668Z" fill="white"></path><path opacity="0.2" d="M151.457 78.942C150.121 83.0918 149.012 87.3112 148.135 91.5816L147.02 85.4848L149.223 83.5001L147.813 81.2969L149.66 79.0669L151.457 78.942Z" fill="white"></path><path opacity="0.2" d="M165.832 83.9283L164.757 98.517C163.503 101.639 161.8 105.122 159.668 107.771C158.941 102.989 158.579 98.1584 158.584 93.3211C160.533 90.1411 163.312 86.0245 165.72 84.0175L165.832 83.9283Z" fill="black"></path><path opacity="0.2" d="M147.438 95.1809C147.028 97.4912 146.671 99.9352 146.408 102.437C145.708 102.138 144.99 101.822 144.294 101.51C144.24 99.3911 144.218 96.7463 144.294 93.8652L147.438 95.1809Z" fill="black"></path><path d="M132.56 96.6125C132.56 96.6125 129.242 95.2745 130.656 91.8403C130.656 91.8403 129.697 92.7323 127.467 91.6263C127.467 91.6263 129.79 92.7368 129.465 93.4593C129.193 94.0614 126.138 94.387 126.138 94.387C126.138 94.387 129.576 94.1506 129.942 94.891C130.17 95.3593 127.859 98.1289 127.859 98.1289C127.859 98.1289 130.29 95.7785 130.807 96.0818C131.325 96.3851 130.642 98.343 130.642 98.343C130.642 98.343 131.302 96.6527 131.681 96.7062C132.061 96.7597 132.003 97.8881 132.003 97.8881C132.003 97.8881 132.016 96.6883 132.56 96.6125Z" fill="#003350"></path><path d="M135.227 89.1509C135.227 89.1509 132.461 86.8897 130.129 89.7976C130.129 89.7976 130.454 88.5221 128.398 87.1216C128.398 87.1216 130.495 88.6157 130.972 87.978C131.364 87.4517 130.169 84.6196 130.169 84.6196C130.169 84.6196 131.627 87.7416 132.453 87.7014C132.974 87.6747 134.277 84.3163 134.277 84.3163C134.277 84.3163 133.385 87.581 133.915 87.8843C134.446 88.1876 135.811 86.6444 135.811 86.6444C135.811 86.6444 134.656 88.0404 134.883 88.3481C135.111 88.6559 136.074 88.0582 136.074 88.0582C136.074 88.0582 135.017 88.6202 135.227 89.1509Z" fill="#003350"></path><path opacity="0.7" d="M132.56 96.6125C132.56 96.6125 129.242 95.2745 130.656 91.8403C130.656 91.8403 129.697 92.7323 127.467 91.6263C127.467 91.6263 129.79 92.7368 129.465 93.4593C129.193 94.0614 126.138 94.387 126.138 94.387C126.138 94.387 129.576 94.1506 129.942 94.891C130.17 95.3593 127.859 98.1289 127.859 98.1289C127.859 98.1289 130.29 95.7785 130.807 96.0818C131.325 96.3851 130.642 98.343 130.642 98.343C130.642 98.343 131.302 96.6527 131.681 96.7062C132.061 96.7597 132.003 97.8881 132.003 97.8881C132.003 97.8881 132.016 96.6883 132.56 96.6125Z" fill="white"></path><path opacity="0.7" d="M135.227 89.1509C135.227 89.1509 132.461 86.8897 130.129 89.7976C130.129 89.7976 130.454 88.5221 128.398 87.1216C128.398 87.1216 130.495 88.6157 130.972 87.978C131.364 87.4517 130.169 84.6196 130.169 84.6196C130.169 84.6196 131.627 87.7416 132.453 87.7014C132.974 87.6747 134.277 84.3163 134.277 84.3163C134.277 84.3163 133.385 87.581 133.915 87.8843C134.446 88.1876 135.811 86.6444 135.811 86.6444C135.811 86.6444 134.656 88.0404 134.883 88.3481C135.111 88.6559 136.074 88.0582 136.074 88.0582C136.074 88.0582 135.017 88.6202 135.227 89.1509Z" fill="white"></path><path d="M145.65 95.8142L139.661 91.7422C139.661 91.7422 137.725 86.0423 137.261 85.9442C136.797 85.8461 133.595 87.581 133.439 88.0895C133.283 88.5979 135.174 92.6699 135.669 93.1872C136.164 93.7046 137.413 93.7581 137.413 93.7581L143.246 98.343L145.65 95.8142Z" fill="#B97964"></path><path d="M166.046 81.0471C164.338 80.9356 158.045 97.7498 157.104 99.1592C156.163 100.569 141.989 93.1025 141.989 93.1025L139.875 97.7766C139.875 97.7766 155.311 106.955 159.575 105.631C162.661 104.672 165.574 94.9266 166.867 90.6896C168.932 83.9417 167.607 81.1452 166.046 81.0471Z" fill="#003350"></path><path opacity="0.2" d="M166.046 81.0471C164.338 80.9356 158.045 97.7498 157.104 99.1592C156.163 100.569 141.989 93.1025 141.989 93.1025L139.875 97.7766C139.875 97.7766 155.311 106.955 159.575 105.631C162.661 104.672 165.574 94.9266 166.867 90.6896C168.932 83.9417 167.607 81.1452 166.046 81.0471Z" fill="white"></path><path d="M89.4496 182.365H85.0342C84.9622 182.365 84.8924 182.39 84.8365 182.436C84.7805 182.481 84.7417 182.544 84.7265 182.615L84.0084 185.848C83.9793 185.988 84.0066 186.133 84.0843 186.253C84.162 186.372 84.2839 186.456 84.4232 186.486C84.4616 186.493 84.5008 186.493 84.5392 186.486C85.9664 186.486 87.01 186.379 88.8029 186.379C89.909 186.379 93.2406 186.49 94.766 186.49C96.2913 186.49 96.492 184.987 95.8676 184.845C93.0667 184.238 90.9616 183.391 90.0696 182.588C89.986 182.512 89.8882 182.453 89.7818 182.415C89.6754 182.377 89.5626 182.36 89.4496 182.365Z" fill="#263238"></path><path d="M108.173 182.249H103.758C103.686 182.249 103.616 182.274 103.56 182.32C103.504 182.365 103.465 182.428 103.45 182.499L102.732 185.732C102.703 185.872 102.73 186.017 102.808 186.137C102.886 186.256 103.008 186.34 103.147 186.37C103.185 186.375 103.224 186.375 103.263 186.37C104.694 186.343 105.734 186.259 107.527 186.259C108.633 186.259 111.964 186.374 113.49 186.374C115.015 186.374 115.216 184.867 114.591 184.729C111.79 184.118 109.685 183.27 108.793 182.468C108.624 182.316 108.401 182.237 108.173 182.249Z" fill="#263238"></path><path d="M87.1085 100.524H106.398C108.231 110.537 113.476 151.069 109.359 182.646L102.919 183.351C102.919 183.351 103.918 134.826 98.1649 119.327C97.5003 127.623 96.7109 136.449 96.0285 141.141C94.3516 152.701 90.5695 182.824 90.5695 182.824L84.04 182.998C84.04 182.998 85.4717 153.781 86.0961 142.412C86.7874 130.094 87.0818 103.057 87.1085 100.524Z" fill="#263238"></path><path opacity="0.2" d="M87.1085 100.524H106.398C108.231 110.537 113.476 151.069 109.359 182.646L102.919 183.351C102.919 183.351 103.918 134.826 98.1649 119.327C97.5003 127.623 96.7109 136.449 96.0285 141.141C94.3516 152.701 90.5695 182.824 90.5695 182.824L84.04 182.998C84.04 182.998 85.4717 153.781 86.0961 142.412C86.7874 130.094 87.0818 103.057 87.1085 100.524Z" fill="white"></path><path opacity="0.2" d="M98.1641 119.332C99.1135 122.048 99.8341 124.84 100.318 127.676C100.858 120.295 98.6993 112.468 98.6993 112.468L98.1641 119.332Z" fill="black"></path><path d="M106.558 100.756H87.1436V103.066L106.808 102.825L106.558 100.756Z" fill="#263238"></path><path d="M93.3878 103.82H94.0791V99.7167H93.3878V103.82Z" fill="#263238"></path><path d="M103.209 103.82H103.9V99.7167H103.209V103.82Z" fill="#263238"></path><path d="M97.7095 102.937H101.3V100.35H97.7095V102.937Z" fill="white"></path><path opacity="0.2" d="M93.3878 103.82H94.0791V99.7167H93.3878V103.82Z" fill="white"></path><path opacity="0.2" d="M103.209 103.82H103.9V99.7167H103.209V103.82Z" fill="white"></path><path d="M126.735 77.1134L128.368 75.4364C128.368 75.4364 129.019 72.9165 129.394 72.4527C129.768 71.9888 132.609 70.6687 132.609 70.6687C132.609 70.6687 133.586 70.7177 133.724 70.9006C133.862 71.0835 133.399 75.3294 132.979 75.8869C132.56 76.4444 130.513 76.9127 130.232 77.0063C129.951 77.1 127.065 80.0347 127.065 80.0347L126.735 77.1134Z" fill="#EBB376"></path><path d="M104.636 67.1497C107.682 67.5199 113.681 81.3682 115.973 82.6036C118.266 83.8391 127.355 76.0787 127.355 76.0787L129.648 78.9018C129.648 78.9018 119.327 89.927 115.269 88.7138C111.21 87.5007 105.456 77.0688 103.713 73.8041C101.969 70.5393 104.636 67.1497 104.636 67.1497Z" fill="#003350"></path><path opacity="0.6" d="M129.648 78.9018C129.648 78.9018 119.328 89.9269 115.269 88.7138C113.485 88.1742 111.407 85.8862 109.471 83.2102C107.361 80.1979 105.44 77.058 103.718 73.8085C103.341 73.0643 103.137 72.245 103.12 71.4113C103.103 70.5775 103.274 69.7507 103.619 68.9917C103.88 68.3436 104.223 67.732 104.641 67.172C107.687 67.5422 113.686 81.395 115.978 82.6304C118.27 83.8658 127.36 76.1009 127.36 76.1009L129.648 78.9018Z" fill="white"></path><path opacity="0.2" d="M109.466 83.1879C107.356 80.1756 105.435 77.0357 103.713 73.7862C103.336 73.042 103.132 72.2227 103.115 71.389C103.098 70.5553 103.269 69.7284 103.615 68.9694C105.349 71.1058 108.877 76.2348 109.466 83.1879Z" fill="black"></path><path d="M104.637 67.1497C104.637 67.1497 92.3671 66.5699 83.2285 68.8802C83.2285 68.8802 87.2425 89.1955 87.1087 100.756H106.559C106.559 100.756 107.825 79.0758 104.637 67.1497Z" fill="#003350"></path><path opacity="0.6" d="M106.559 100.756H87.1132C87.1132 99.4981 87.1132 98.1423 87.024 96.7151C86.8545 93.379 86.4754 89.6817 86.016 86.1048L85.8822 85.0611C85.57 82.7375 85.2355 80.4896 84.9099 78.438C84.0179 72.9299 83.2285 68.8802 83.2285 68.8802C92.3671 66.5744 104.637 67.1498 104.637 67.1498C107.821 79.0803 106.559 100.756 106.559 100.756Z" fill="white"></path><path opacity="0.2" d="M98.9496 88.4284C98.9496 88.4284 95.5912 96.4341 87.0236 96.7151C86.8541 93.379 86.475 89.6817 86.0156 86.1048L98.9496 88.4284Z" fill="black"></path><path d="M90.3916 67.957C92.1756 69.5581 96.4706 68.965 96.4706 68.965C96.4706 68.965 99.1466 68.2291 98.598 67.3861C97.0102 67.123 96.2431 66.3826 95.922 65.4371C95.7455 64.8493 95.6909 64.2316 95.7614 63.6219C95.7863 63.2836 95.831 62.947 95.8952 62.6139L90.5432 58.6624C91.2613 61.267 92.1176 66.066 90.3916 67.957Z" fill="#EBB376"></path><path opacity="0.2" d="M91.7959 61.1733C92.0055 64.3756 94.6369 65.2587 95.9258 65.4371C95.7493 64.8493 95.6947 64.2316 95.7653 63.6219L91.7959 61.1733Z" fill="black"></path><path d="M99.5922 50.3623C99.5922 50.3623 101.082 55.1791 98.7492 57.4671C96.4166 59.7551 95.043 50.5808 95.043 50.5808L99.5922 50.3623Z" fill="#263238"></path><path d="M91.7424 62.5247C92.4128 63.2534 93.3036 63.7421 94.2783 63.9161C95.253 64.0901 96.2579 63.9398 97.139 63.4881C98.2897 62.9242 99.1827 61.9435 99.6366 60.7452C99.699 60.5801 99.7526 60.4107 99.8016 60.2367C100.636 57.03 100.248 51.7003 96.7733 50.2062C96.0062 49.8727 95.1667 49.7408 94.3343 49.8232C93.502 49.9055 92.7045 50.1992 92.0176 50.6765C91.3308 51.1538 90.7773 51.7987 90.4099 52.5501C90.0425 53.3014 89.8732 54.1343 89.9182 54.9695C90.0565 58.5508 89.9673 60.656 91.7424 62.5247Z" fill="#EBB376"></path><path d="M95.3329 56.08C95.3061 56.3699 95.4756 56.6108 95.6674 56.6152C95.8592 56.6197 96.0153 56.3833 96.0242 56.0934C96.0331 55.8035 95.877 55.5627 95.6897 55.5582C95.5024 55.5537 95.3418 55.7857 95.3329 56.08Z" fill="#263238"></path><path d="M98.6287 56.1469C98.602 56.4368 98.7759 56.6777 98.9632 56.6821C99.1505 56.6866 99.3111 56.4502 99.32 56.1603C99.3289 55.8704 99.1728 55.6296 98.9855 55.6251C98.7982 55.6206 98.6376 55.8704 98.6287 56.1469Z" fill="#263238"></path><path d="M97.5811 56.2673C97.9072 57.1671 98.3575 58.0168 98.9191 58.7917C98.7151 58.9303 98.4834 59.0229 98.24 59.0629C97.9966 59.103 97.7474 59.0896 97.5098 59.0236L97.5811 56.2673Z" fill="#D58745"></path><path d="M94.3288 54.9918C94.36 54.9969 94.3921 54.9939 94.4218 54.9829C94.4515 54.972 94.4779 54.9535 94.4983 54.9293C94.6275 54.7581 94.7946 54.6191 94.9865 54.5232C95.1784 54.4273 95.3898 54.377 95.6044 54.3763C95.6266 54.3788 95.6492 54.3768 95.6707 54.3705C95.6922 54.3642 95.7123 54.3537 95.7297 54.3396C95.7471 54.3255 95.7616 54.3081 95.7722 54.2883C95.7828 54.2686 95.7895 54.247 95.7917 54.2247C95.7954 54.1792 95.7812 54.1341 95.752 54.0991C95.7228 54.064 95.681 54.0419 95.6356 54.0373C95.3644 54.0303 95.0954 54.0882 94.851 54.2061C94.6066 54.324 94.394 54.4986 94.2307 54.7153C94.2024 54.7505 94.189 54.7953 94.1931 54.8402C94.1973 54.8851 94.2187 54.9267 94.253 54.9561C94.2757 54.9729 94.3014 54.985 94.3288 54.9918Z" fill="#263238"></path><path d="M100.07 55.0364C100.101 55.0473 100.136 55.0473 100.168 55.0364C100.209 55.0178 100.242 54.9835 100.259 54.9409C100.276 54.8984 100.275 54.8509 100.257 54.8089C100.147 54.5594 99.9796 54.3398 99.7677 54.1683C99.5559 53.9968 99.3062 53.8785 99.0393 53.8233C98.995 53.8169 98.9499 53.8283 98.914 53.8551C98.878 53.8818 98.8541 53.9217 98.8475 53.966C98.8432 54.0105 98.8554 54.055 98.8816 54.0912C98.9079 54.1273 98.9466 54.1526 98.9902 54.1622C99.2 54.2103 99.3953 54.3073 99.5604 54.4452C99.7255 54.5832 99.8557 54.7583 99.9402 54.9561C99.9531 54.9794 99.9718 54.999 99.9944 55.0131C100.017 55.0271 100.043 55.0352 100.07 55.0364Z" fill="#263238"></path><path d="M92.6341 50.5541L92.8704 52.1284C92.6075 52.2637 92.4052 52.493 92.3035 52.7706C92.2019 53.0483 92.2084 53.354 92.3219 53.627C92.866 54.9382 92.1702 57.0166 91.1756 57.8685C91.1756 57.8685 91.1266 57.2931 90.6449 57.4448C90.1632 57.5964 90.3818 60.5668 91.3674 61.985C90.1077 60.6855 89.2071 59.081 88.7539 57.3288C87.9288 54.4432 88.0135 52.3024 88.5799 51.1606L92.6341 50.5541Z" fill="#263238"></path><path d="M88.3075 57.8729C88.4926 58.2828 88.7576 58.6516 89.0869 58.9579C89.4161 59.2643 89.8032 59.5019 90.2253 59.6569C91.3492 60.0628 92.0093 59.0727 91.7595 57.9666C91.5365 56.9854 90.6936 55.5582 89.5295 55.6429C88.3655 55.7277 87.8615 56.865 88.3075 57.8729Z" fill="#EBB376"></path><path d="M97.7816 59.9022C97.6318 60.3163 97.514 60.7412 97.4292 61.1733H97.1973C96.1448 61.1243 95.672 60.7541 95.4669 60.3572C95.3703 60.1619 95.3228 59.946 95.3286 59.7283C95.3278 59.6062 95.3443 59.4845 95.3777 59.367C96.0141 59.683 96.7103 59.8609 97.4203 59.8889L97.7816 59.9022Z" fill="#263238"></path><path d="M97.4199 59.8799L97.3084 60.2501C96.3183 60.2011 95.627 60.036 95.3282 59.7194C95.3274 59.5972 95.3439 59.4756 95.3772 59.3581C96.0137 59.6741 96.7098 59.852 97.4199 59.8799Z" fill="white"></path><path d="M97.1973 61.1644C96.1447 61.1154 95.672 60.7452 95.4668 60.3483C95.8671 60.3742 96.2597 60.4708 96.6264 60.6337C96.8672 60.747 97.0668 60.9325 97.1973 61.1644Z" fill="#DE5753"></path><path d="M93.727 51.0937C93.727 51.0937 93.9633 52.9759 91.6129 53.9481C89.2625 54.9204 88.4062 55.7321 88.4062 55.7321C88.4062 55.7321 86.8184 51.116 89.6996 49.4123C89.6996 49.4123 89.7576 48.5203 92.2284 47.6774C94.6992 46.8344 98.2405 47.2314 99.8461 50.2062C101.05 52.4362 99.9353 54.0284 99.9353 54.0284C99.9353 54.0284 99.6989 52.735 97.4065 52.4407C96.0964 52.2655 94.8405 51.8058 93.727 51.0937Z" fill="#263238"></path><path d="M98.2273 68.7063L97.7099 71.244C97.7099 71.244 100.667 83.5715 101.278 89.976L100.203 91.0554L98.5083 89.976C98.5083 89.976 98.3566 76.9528 96.8625 71.4849L94.1865 69.2905L96.2961 68.6082L98.2273 68.7063Z" fill="#263238"></path><path d="M90.9843 65.562L96.1133 67.8723L96.4122 66.0169L98.2943 66.6815C98.6235 66.7969 98.9042 67.0199 99.0911 67.3144C99.278 67.609 99.3602 67.9579 99.3246 68.3049L99.1105 70.3387L96.5103 68.9159L95.2124 70.749L89.0576 67.7831L90.9843 65.562Z" fill="#003350"></path><path opacity="0.7" d="M90.9843 65.562L96.1133 67.8723L96.4122 66.0169L98.2943 66.6815C98.6235 66.7969 98.9042 67.0199 99.0911 67.3144C99.278 67.609 99.3602 67.9579 99.3246 68.3049L99.1105 70.3387L96.5103 68.9159L95.2124 70.749L89.0576 67.7831L90.9843 65.562Z" fill="white"></path><path d="M104.596 85.186L110.768 84.0398C110.768 84.0398 111.915 82.8935 112.445 82.8935C112.976 82.8935 119.858 85.0076 119.858 85.0076C119.858 85.0076 118.002 86.8629 117.119 87.2153C116.236 87.5676 112.182 86.6845 112.182 86.6845L106.183 88.2723L104.596 85.186Z" fill="#EBB376"></path><path d="M83.2282 68.8802C86.0469 67.8544 90.2125 84.5437 91.0956 85.8684C91.9787 87.193 108.565 83.9238 108.565 83.9238L109.903 87.8085C109.903 87.8085 95.8767 92.6609 90.0564 91.6931C84.2361 90.7253 82.9204 82.2513 81.4977 77.2249C80.075 72.1985 81.1721 69.6206 83.2282 68.8802Z" fill="#003350"></path><path opacity="0.7" d="M83.2282 68.8802C86.0469 67.8544 90.2125 84.5437 91.0956 85.8684C91.9787 87.193 108.565 83.9238 108.565 83.9238L109.903 87.8085C109.903 87.8085 95.8767 92.6609 90.0564 91.6931C84.2361 90.7253 82.9204 82.2513 81.4977 77.2249C80.075 72.1985 81.1721 69.6206 83.2282 68.8802Z" fill="white"></path><path d="M127.788 68.8669C127.915 68.5882 128.101 68.3398 128.331 68.1383C128.562 67.9368 128.833 67.7868 129.126 67.6983C129.667 67.5388 130.243 67.5497 130.777 67.7296C131.314 67.9042 131.782 68.2446 132.115 68.7018C132.2 68.8142 132.273 68.9353 132.333 69.0631C132.397 69.1885 132.447 69.32 132.485 69.4556L132.543 69.6518L132.569 69.8391L132.619 70.2138C132.702 71.2313 132.382 72.2408 131.727 73.0236C131.106 73.7614 130.299 74.3191 129.389 74.6381C128.521 74.9486 127.604 75.0997 126.682 75.0841C126.234 75.0842 125.787 75.0514 125.344 74.986C124.94 74.906 124.53 74.8642 124.118 74.8611C123.751 74.8569 123.393 74.9745 123.101 75.1956C122.971 75.2835 122.872 75.4102 122.819 75.5575C122.765 75.7049 122.759 75.8654 122.802 76.0163C122.857 76.1526 122.96 76.2641 123.091 76.3298C123.223 76.3955 123.374 76.4109 123.516 76.3731C123.598 76.3414 123.671 76.288 123.726 76.2185C123.781 76.149 123.816 76.0659 123.827 75.9782C123.838 75.8904 123.826 75.8011 123.791 75.7199C123.756 75.6387 123.699 75.5685 123.627 75.5167C123.748 75.5445 123.857 75.6107 123.938 75.7056C124.018 75.8005 124.066 75.9189 124.073 76.043C124.081 76.1831 124.051 76.3228 123.987 76.4475C123.923 76.5722 123.826 76.6774 123.707 76.7521C123.583 76.8285 123.443 76.8733 123.297 76.8826C123.152 76.892 123.006 76.8655 122.873 76.8057C122.605 76.7001 122.389 76.4935 122.271 76.2303C122.172 75.9686 122.158 75.6825 122.23 75.412C122.302 75.1416 122.457 74.9006 122.673 74.7228C123.06 74.3931 123.543 74.1975 124.051 74.1653C124.507 74.1442 124.964 74.1651 125.416 74.2278C125.829 74.2687 126.245 74.2761 126.66 74.2501C127.477 74.2168 128.282 74.0386 129.037 73.7238C129.765 73.4367 130.405 72.9629 130.893 72.3501C131.359 71.7299 131.563 70.9519 131.463 70.1826C131.441 69.981 131.378 69.7859 131.279 69.6089C131.18 69.4319 131.047 69.2765 130.887 69.1518C130.727 69.0271 130.543 68.9357 130.348 68.883C130.152 68.8302 129.947 68.8171 129.746 68.8446C128.908 68.9917 128.297 69.7366 127.927 70.4502L127.788 68.8669Z" fill="#003350"></path><path d="M116.201 64.9197C116.27 64.6188 116.274 64.3064 116.212 64.0039C116.149 63.7014 116.023 63.4159 115.84 63.167C115.507 62.7081 115.039 62.365 114.502 62.1858C113.969 61.9949 113.39 61.9778 112.847 62.1367C112.71 62.1728 112.579 62.2252 112.455 62.2928C112.328 62.35 112.208 62.4218 112.098 62.5069L111.928 62.6273L111.79 62.7611L111.522 63.0242C110.837 63.7812 110.478 64.7781 110.523 65.7984C110.564 66.7613 110.861 67.6959 111.384 68.5056C111.879 69.2856 112.511 69.97 113.248 70.526C113.606 70.8038 113.985 71.0529 114.381 71.2708C114.748 71.4586 115.099 71.6764 115.429 71.9219C115.719 72.1486 115.93 72.4607 116.031 72.8139C116.079 72.9636 116.078 73.1241 116.03 73.2735C115.982 73.4229 115.889 73.5537 115.764 73.648C115.638 73.7218 115.489 73.7472 115.345 73.7193C115.201 73.6914 115.073 73.6121 114.983 73.4963C114.937 73.4196 114.913 73.3319 114.913 73.2425C114.913 73.1531 114.937 73.0653 114.982 72.9884C115.028 72.9116 115.094 72.8486 115.173 72.8061C115.251 72.7636 115.34 72.7432 115.429 72.747C115.316 72.6907 115.187 72.6733 115.063 72.6975C114.939 72.7217 114.826 72.7861 114.743 72.8808C114.649 72.9861 114.586 73.1147 114.56 73.2529C114.534 73.3912 114.546 73.5339 114.595 73.6658C114.647 73.8024 114.731 73.9243 114.841 74.0207C114.951 74.1171 115.082 74.1852 115.224 74.2188C115.501 74.298 115.798 74.2677 116.054 74.1341C116.292 73.9872 116.479 73.7692 116.587 73.5107C116.695 73.2523 116.719 72.9664 116.656 72.6935C116.553 72.1951 116.29 71.744 115.907 71.409C115.558 71.1147 115.183 70.852 114.787 70.6241C114.436 70.4031 114.102 70.1556 113.788 69.8837C113.162 69.3577 112.633 68.7251 112.227 68.015C111.823 67.3409 111.606 66.571 111.598 65.785C111.607 65.0102 111.917 64.2694 112.463 63.72C112.606 63.5741 112.776 63.4581 112.963 63.3789C113.151 63.2997 113.352 63.2589 113.556 63.2589C113.76 63.2589 113.962 63.2997 114.149 63.3789C114.337 63.4581 114.507 63.5741 114.649 63.72C115.22 64.3489 115.251 65.3122 115.095 66.1016L116.201 64.9197Z" fill="#003350"></path><g opacity="0.2"><path opacity="0.2" d="M127.787 68.8668C127.914 68.5881 128.1 68.3397 128.33 68.1382C128.561 67.9367 128.832 67.7868 129.125 67.6983C129.666 67.5388 130.242 67.5497 130.776 67.7295C131.313 67.9042 131.781 68.2446 132.114 68.7018C132.199 68.8142 132.272 68.9353 132.332 69.0631C132.396 69.1885 132.446 69.32 132.484 69.4556L132.542 69.6518L132.568 69.8391L132.618 70.2138C132.701 71.2312 132.381 72.2408 131.726 73.0236C131.105 73.7614 130.298 74.319 129.389 74.6381C128.52 74.9486 127.603 75.0997 126.681 75.0841C126.234 75.0841 125.786 75.0513 125.343 74.986C124.939 74.906 124.529 74.8642 124.117 74.8611C123.75 74.8568 123.392 74.9745 123.1 75.1956C122.97 75.2835 122.871 75.4101 122.818 75.5575C122.764 75.7049 122.758 75.8654 122.801 76.0162C122.856 76.1525 122.959 76.264 123.09 76.3298C123.222 76.3955 123.373 76.4109 123.515 76.373C123.597 76.3414 123.67 76.288 123.725 76.2185C123.78 76.1489 123.815 76.0659 123.826 75.9781C123.837 75.8903 123.825 75.8011 123.79 75.7199C123.755 75.6386 123.698 75.5684 123.626 75.5167C123.747 75.5444 123.856 75.6107 123.937 75.7056C124.017 75.8005 124.065 75.9188 124.072 76.043C124.08 76.1831 124.051 76.3228 123.986 76.4475C123.922 76.5722 123.825 76.6774 123.706 76.7521C123.582 76.8285 123.442 76.8733 123.296 76.8826C123.151 76.8919 123.005 76.8655 122.872 76.8056C122.604 76.7 122.388 76.4935 122.27 76.2303C122.171 75.9686 122.157 75.6824 122.229 75.412C122.301 75.1416 122.456 74.9005 122.672 74.7228C123.059 74.393 123.542 74.1975 124.05 74.1653C124.506 74.1441 124.963 74.165 125.415 74.2278C125.828 74.2686 126.244 74.2761 126.659 74.2501C127.476 74.2167 128.281 74.0385 129.036 73.7238C129.764 73.4366 130.404 72.9629 130.892 72.3501C131.358 71.7299 131.563 70.9519 131.462 70.1825C131.44 69.981 131.377 69.7859 131.278 69.6089C131.179 69.4319 131.046 69.2764 130.886 69.1518C130.726 69.0271 130.542 68.9357 130.347 68.8829C130.151 68.8302 129.946 68.8171 129.745 68.8445C128.907 68.9917 128.296 69.7365 127.926 70.4501L127.787 68.8668Z" fill="black"></path><path opacity="0.2" d="M116.201 64.9197C116.27 64.6188 116.274 64.3064 116.212 64.0039C116.149 63.7014 116.023 63.4159 115.84 63.167C115.507 62.7081 115.039 62.365 114.502 62.1858C113.969 61.9949 113.39 61.9778 112.847 62.1367C112.71 62.1728 112.579 62.2252 112.455 62.2928C112.328 62.35 112.208 62.4218 112.098 62.5069L111.928 62.6273L111.79 62.7611L111.522 63.0242C110.837 63.7812 110.478 64.7781 110.523 65.7984C110.564 66.7613 110.861 67.6959 111.384 68.5056C111.879 69.2856 112.511 69.97 113.248 70.526C113.606 70.8038 113.985 71.0529 114.381 71.2708C114.748 71.4586 115.099 71.6764 115.429 71.9219C115.719 72.1486 115.93 72.4607 116.031 72.8139C116.079 72.9636 116.078 73.1241 116.03 73.2735C115.982 73.4229 115.889 73.5537 115.764 73.648C115.638 73.7218 115.489 73.7472 115.345 73.7193C115.201 73.6914 115.073 73.6121 114.983 73.4963C114.937 73.4196 114.913 73.3319 114.913 73.2425C114.913 73.1531 114.937 73.0653 114.982 72.9884C115.028 72.9116 115.094 72.8486 115.173 72.8061C115.251 72.7636 115.34 72.7432 115.429 72.747C115.316 72.6907 115.187 72.6733 115.063 72.6975C114.939 72.7217 114.826 72.7861 114.743 72.8808C114.649 72.9861 114.586 73.1147 114.56 73.2529C114.534 73.3912 114.546 73.5339 114.595 73.6658C114.647 73.8024 114.731 73.9243 114.841 74.0207C114.951 74.1171 115.082 74.1852 115.224 74.2188C115.501 74.298 115.798 74.2677 116.054 74.1341C116.292 73.9872 116.479 73.7692 116.587 73.5107C116.695 73.2523 116.719 72.9664 116.656 72.6935C116.553 72.1951 116.29 71.744 115.907 71.409C115.558 71.1147 115.183 70.852 114.787 70.6241C114.436 70.4031 114.102 70.1556 113.788 69.8837C113.162 69.3577 112.633 68.7251 112.227 68.015C111.823 67.3409 111.606 66.571 111.598 65.785C111.607 65.0102 111.917 64.2694 112.463 63.72C112.606 63.5741 112.776 63.4581 112.963 63.3789C113.151 63.2997 113.352 63.2589 113.556 63.2589C113.76 63.2589 113.962 63.2997 114.149 63.3789C114.337 63.4581 114.507 63.5741 114.649 63.72C115.22 64.3489 115.251 65.3122 115.095 66.1016L116.201 64.9197Z" fill="black"></path></g><path d="M121.313 75.3294C124.082 75.0216 126.839 72.921 128.373 69.6919L129.077 68.2068L115.568 63.5996L115.22 65.2052C114.466 68.7018 115.367 72.0424 117.37 73.978C117.632 74.2374 117.817 74.5644 117.905 74.9226C117.992 75.2809 117.978 75.6564 117.865 76.0073L116.911 78.9955C116.8 79.3492 116.565 79.6511 116.25 79.846C115.934 80.0409 115.559 80.1158 115.193 80.057C114.526 79.9426 113.839 80.0758 113.262 80.4316L112.558 80.8776L120.929 83.732L120.648 82.9471C120.408 82.3132 119.945 81.7885 119.346 81.4708C119.02 81.295 118.768 81.0073 118.637 80.6607C118.506 80.3142 118.504 79.9319 118.632 79.5842L119.703 76.6317C119.825 76.2875 120.04 75.9837 120.324 75.7539C120.608 75.5241 120.95 75.3772 121.313 75.3294Z" fill="#003350"></path><path d="M112.357 80.0302L121.607 83.179L120.934 86.3055L110.983 82.9159L112.357 80.0302Z" fill="#263238"></path><path opacity="0.2" d="M114.466 80.7483L119.497 82.4609L118.823 85.5829L113.097 83.6339L114.466 80.7483Z" fill="white"></path><path d="M118.189 83.0018L115.183 81.9779L114.784 83.1474L117.79 84.1712L118.189 83.0018Z" fill="white"></path><path opacity="0.3" d="M117.856 73.7684C118.102 74.0661 118.267 74.4229 118.335 74.8037C118.402 75.1845 118.369 75.5762 118.239 75.9404L117.093 79.3166C116.865 79.9767 116.589 80.164 115.795 80.2086C115.329 80.1996 114.868 80.3102 114.457 80.5297L115.862 81.0114C116.027 80.9418 116.201 80.8982 116.379 80.8821H116.607C116.759 80.8717 116.904 80.8166 117.025 80.7237C117.145 80.6309 117.236 80.5044 117.285 80.3603L119.153 74.8745C119.22 74.6798 119.242 74.4722 119.215 74.268C119.189 74.0638 119.116 73.8684 119.002 73.697L118.765 73.3358C117.773 71.8232 117.406 69.9842 117.744 68.2068L118.328 64.951L116.299 64.2597L115.853 68.0284C115.594 69.8347 116.406 72.2208 117.856 73.7684Z" fill="white"></path><path d="M94.3559 80.5387L92.786 80.106L91.2696 80.8286L90.9307 77.2427L94.0214 76.9528L94.3559 80.5387Z" fill="#003350"></path><path opacity="0.2" d="M94.3559 80.5387L92.786 80.106L91.2696 80.8286L90.9307 77.2427L94.0214 76.9528L94.3559 80.5387Z" fill="white"></path><path d="M92.2063 74.1252L92.5318 74.2991L92.8708 74.1475L93.1429 74.3973L93.513 74.3348L93.7137 74.6426L94.0839 74.6738L94.2043 75.0261L94.5567 75.1465L94.5834 75.5167L94.8956 75.7174L94.8287 76.0831L95.0785 76.3597L94.9269 76.6986L95.1008 77.0242L94.8689 77.3141L94.9536 77.6754L94.6548 77.8984L94.6503 78.2685L94.3069 78.4113L94.2088 78.7681L93.8431 78.8171L93.6602 79.1427L93.29 79.0981L93.0314 79.3657L92.6835 79.2364L92.3668 79.4281L92.0635 79.2141L91.7112 79.3256L91.4704 79.0401L91.1002 79.058L90.9352 78.7235L90.5739 78.6521L90.4981 78.2864L90.1636 78.1258L90.1814 77.7512L89.9004 77.5103L90.0119 77.158L89.7979 76.8547L89.9896 76.5381L89.8603 76.1902L90.1279 75.9315L90.0878 75.5658L90.4089 75.3784L90.4624 75.0127L90.8192 74.9146L90.9619 74.5712L91.3321 74.5667L91.5551 74.2724L91.9164 74.3571L92.2063 74.1252Z" fill="#003350"></path><path opacity="0.4" d="M93.0185 78.9351C94.2165 78.6188 94.9312 77.3913 94.6149 76.1934C94.2986 74.9954 93.0711 74.2807 91.8732 74.597C90.6752 74.9133 89.9605 76.1408 90.2768 77.3387C90.5931 78.5367 91.8206 79.2514 93.0185 78.9351Z" fill="white"></path><path d="M92.5139 76.5916L92.4871 76.993L92.8082 76.9662V77.2873L92.4782 77.3141L92.447 77.8181L92.1303 77.8493L92.166 77.3453L91.8939 77.3721L91.8583 77.8716L91.546 77.9028L91.5773 77.3988L91.2695 77.43V77.1089L91.5817 77.0777L91.613 76.6763L91.3008 76.7075V76.3864L91.613 76.3552L91.6531 75.7798L91.9653 75.7531L91.9251 76.324H92.1972L92.2373 75.7486L92.554 75.7174L92.5139 76.2927L92.8394 76.2615V76.5826L92.5139 76.5916ZM92.1972 76.6228H91.9251L91.8984 77.0286L92.1704 77.0019L92.1972 76.6228Z" fill="#003350"></path><path d="M93.4869 77.7199L93.3397 76.1099L93.0721 76.1366L93.0498 75.9181C93.1259 75.8998 93.1964 75.863 93.255 75.811C93.3187 75.7628 93.3655 75.6957 93.3888 75.6193H93.6073L93.8036 77.7065L93.4869 77.7199Z" fill="#003350"></path></svg>