<svg width="200" height="30" viewBox="0 0 200 30" fill="none" xmlns="http://www.w3.org/2000/svg">
  <path d="M44.0345 7.47363C44.9117 7.47363 45.7538 7.54381 46.5609 7.71925C47.3679 7.89469 48.1047 8.1403 48.7363 8.56135C49.3679 8.94732 49.8942 9.50872 50.2451 10.1403C50.631 10.807 50.8065 11.6491 50.8065 12.6666C50.8065 13.9999 50.4556 15.0877 49.7188 15.9649C48.9819 16.8421 47.9644 17.4035 46.5959 17.5789C46.9117 18.1052 48.5258 20.7719 51.403 25.614H47.5082L43.2977 17.9298H40.9468V25.614H37.7188V7.47363C41.5082 7.47363 43.6135 7.47363 44.0345 7.47363ZM44.8416 15.1228C45.2626 15.0877 45.7187 14.9824 46.1047 14.807C46.4907 14.6666 46.8065 14.3859 47.0521 14.0701C47.2977 13.7192 47.403 13.2631 47.403 12.6666C47.403 12.1403 47.2977 11.7192 47.0521 11.3684C46.8416 11.0526 46.5258 10.807 46.1749 10.6315C45.7889 10.4561 45.403 10.3508 44.9819 10.3157C44.5609 10.2807 44.1398 10.2456 43.7188 10.2456C43.5433 10.2456 42.5959 10.2456 40.9117 10.2456V15.1578H43.438C44.0696 15.1578 44.5258 15.1228 44.8416 15.1228ZM58.3854 22.7017C59.017 23.228 59.7538 23.4736 60.631 23.4736C61.403 23.4736 62.0345 23.3333 62.5609 23.0175C63.0872 22.7017 63.5433 22.3157 63.9293 21.8245C64.1398 21.9999 65.9293 23.3333 66.1398 23.5087C65.4381 24.3859 64.631 25.0175 63.7188 25.4035C62.8416 25.7894 61.8942 25.9649 60.9117 25.9649C59.9995 25.9649 59.1223 25.8245 58.3152 25.5087C57.5082 25.1929 56.7714 24.7719 56.1749 24.2105C55.5784 23.6491 55.0872 22.9824 54.7363 22.1754C54.3854 21.3684 54.21 20.4912 54.21 19.5087C54.21 18.5263 54.3854 17.6491 54.7363 16.8421C55.0872 16.035 55.5784 15.3684 56.1749 14.807C56.7714 14.2456 57.4731 13.7894 58.3152 13.5087C59.1223 13.1929 59.9995 13.0526 60.9117 13.0526C61.7538 13.0526 62.5609 13.1929 63.2626 13.5087C63.9644 13.7894 64.5959 14.2456 65.0872 14.807C65.5784 15.3684 65.9995 16.0701 66.2802 16.8771C66.5609 17.7192 66.7012 18.6666 66.7012 19.7543C66.7012 19.8245 66.7012 20.1052 66.7012 20.5964H57.2977C57.6135 21.6491 57.9995 22.3859 58.3854 22.7017ZM62.7714 16.1052C62.21 15.5789 61.4731 15.3333 60.4907 15.3333C59.5784 15.3333 58.8416 15.614 58.3152 16.1403C57.7889 16.6666 57.438 17.3684 57.3328 18.2806C57.7538 18.2806 59.8591 18.2806 63.6486 18.2806C63.438 17.1578 63.1573 16.4561 62.7714 16.1052ZM73.6486 13.3333V15.2631C73.6837 15.2631 73.6837 15.2631 73.7188 15.2631C73.9995 14.6666 74.4205 14.1754 75.0521 13.7192C75.6486 13.2631 76.4907 13.0526 77.5082 13.0526C79.438 13.0526 80.7363 13.8245 81.3679 15.3333C81.824 14.5614 82.3503 13.9649 83.0521 13.614C83.7188 13.2631 84.5258 13.0526 85.4381 13.0526C86.2451 13.0526 86.9468 13.1929 87.5082 13.4736C88.0696 13.7543 88.5258 14.1403 88.8767 14.5964C89.2275 15.0877 89.4731 15.6491 89.6486 16.2807C89.7889 16.9122 89.8591 17.614 89.8591 18.3508C89.8591 18.8421 89.8591 21.2982 89.8591 25.6842H86.7714C86.7714 21.5087 86.7714 19.1929 86.7714 18.7017C86.7714 18.3157 86.7363 17.9649 86.6661 17.614C86.5959 17.2982 86.4907 16.9824 86.3152 16.7017C86.1398 16.421 85.8942 16.2105 85.6135 16.0701C85.3328 15.9298 84.9468 15.8245 84.4907 15.8245C83.9995 15.8245 83.6135 15.9298 83.2626 16.1052C82.9468 16.2807 82.6661 16.5263 82.4556 16.807C82.2451 17.0877 82.1047 17.4385 81.9995 17.8245C81.8942 18.2105 81.8591 18.5964 81.8591 18.9824C81.8591 19.4385 81.8591 21.6491 81.8591 25.6491H78.7714C78.7714 21.2631 78.7714 18.807 78.7714 18.3157C78.7714 17.5438 78.5959 16.9473 78.2802 16.4912C77.9644 16.035 77.403 15.8245 76.6661 15.8245C76.1398 15.8245 75.7188 15.8947 75.3679 16.0701C75.017 16.2456 74.7363 16.4561 74.4907 16.7719C74.2451 17.0526 74.1047 17.4035 73.9995 17.7543C73.8942 18.1403 73.8591 18.5263 73.8591 18.9473C73.8591 19.4035 73.8591 21.6491 73.8591 25.6491H70.7714V13.3333H73.6486ZM94.3503 16.8421C94.7012 16.035 95.1574 15.3684 95.7889 14.807C96.3854 14.2456 97.0872 13.7894 97.9293 13.5087C98.7363 13.1929 99.6135 13.0526 100.561 13.0526C101.473 13.0526 102.35 13.1929 103.192 13.5087C103.999 13.8245 104.736 14.2456 105.333 14.807C105.929 15.3684 106.421 16.035 106.771 16.8421C107.122 17.6491 107.298 18.5263 107.298 19.5087C107.298 20.4912 107.122 21.3684 106.771 22.1754C106.421 22.9824 105.929 23.6491 105.333 24.2105C104.736 24.7719 104.035 25.1929 103.192 25.5087C102.385 25.8245 101.508 25.9649 100.561 25.9649C99.6486 25.9649 98.7714 25.8245 97.9293 25.5087C97.1223 25.1929 96.3854 24.7719 95.7889 24.2105C95.1924 23.6491 94.7012 22.9824 94.3503 22.1754C93.9995 21.3684 93.824 20.4912 93.824 19.5087C93.824 18.5263 93.9995 17.614 94.3503 16.8421ZM97.1573 20.8771C97.2977 21.2982 97.5433 21.7192 97.8591 22.0701C98.1749 22.421 98.5609 22.7017 98.9819 22.8771C99.4381 23.0877 99.9293 23.1929 100.491 23.1929C101.052 23.1929 101.543 23.0877 101.999 22.8771C102.421 22.6666 102.806 22.3859 103.122 22.0701C103.438 21.7192 103.684 21.3333 103.824 20.8771C103.999 20.421 104.07 19.9649 104.07 19.4736C104.07 18.9824 103.999 18.5263 103.824 18.1052C103.649 17.6842 103.438 17.2631 103.122 16.9122C102.806 16.5614 102.421 16.2807 101.999 16.1052C101.543 15.8947 101.052 15.7894 100.491 15.7894C99.9293 15.7894 99.4381 15.8947 98.9819 16.1052C98.5609 16.3157 98.1749 16.5964 97.8591 16.9122C97.5433 17.2631 97.2977 17.6491 97.1573 18.1052C96.9819 18.5613 96.9117 19.0175 96.9117 19.5087C96.9117 19.9649 96.9819 20.421 97.1573 20.8771ZM109.929 13.3333H112.456V9.75433H115.543V13.3333H118.912V15.9649H115.543C115.543 19.1929 115.543 20.9824 115.543 21.3333C115.543 21.9649 115.649 22.421 115.894 22.807C116.14 23.1578 116.596 23.3333 117.263 23.3333C117.543 23.3333 117.824 23.2982 118.175 23.228C118.491 23.1578 118.771 23.0526 118.947 22.9473C118.947 23.1929 118.947 25.2631 118.947 25.5438C118.631 25.6842 118.21 25.7894 117.754 25.8596C117.333 25.9298 116.912 25.9298 116.526 25.9298C115.719 25.9298 115.052 25.8596 114.526 25.6491C113.999 25.4736 113.613 25.1929 113.298 24.8421C113.017 24.4561 112.806 24.035 112.666 23.4736C112.561 22.9122 112.491 22.2806 112.491 21.5789C112.491 21.1929 112.491 19.3333 112.491 15.9298H109.964V13.3333H109.929ZM126.175 22.7017C126.806 23.228 127.543 23.4736 128.421 23.4736C129.192 23.4736 129.824 23.3333 130.35 23.0175C130.877 22.7017 131.333 22.3157 131.719 21.8245C131.929 21.9999 133.684 23.3333 133.929 23.5087C133.192 24.3859 132.421 25.0175 131.508 25.4035C130.631 25.7894 129.684 25.9649 128.701 25.9649C127.789 25.9649 126.912 25.8245 126.07 25.5087C125.263 25.1929 124.526 24.7719 123.929 24.2105C123.333 23.6491 122.842 22.9824 122.491 22.1754C122.14 21.3684 121.964 20.4912 121.964 19.5087C121.964 18.5263 122.14 17.6491 122.491 16.8421C122.842 16.035 123.333 15.3684 123.929 14.807C124.526 14.2456 125.228 13.7894 126.07 13.5087C126.877 13.1929 127.754 13.0526 128.701 13.0526C129.543 13.0526 130.35 13.1929 131.052 13.5087C131.754 13.7894 132.385 14.2456 132.877 14.807C133.368 15.3684 133.789 16.0701 134.07 16.8771C134.35 17.6842 134.491 18.6666 134.491 19.7543C134.491 19.8245 134.491 20.1052 134.491 20.5964H125.087C125.403 21.6491 125.754 22.3859 126.175 22.7017ZM130.561 16.1052C129.999 15.5789 129.263 15.3333 128.28 15.3333C127.368 15.3333 126.631 15.614 126.105 16.1403C125.578 16.6666 125.228 17.3684 125.122 18.2806C125.543 18.2806 127.649 18.2806 131.438 18.2806C131.192 17.1578 130.912 16.4561 130.561 16.1052ZM154.421 7.47363H157.228V25.614H155.368V9.92977H155.333L148.771 25.6491H147.789L141.228 9.96486H141.192V25.6491H139.333V7.47363H142.14L148.28 22.2456L154.421 7.47363ZM172.771 17.7543C172.561 17.1929 172.245 16.6666 171.859 16.2456C171.473 15.8245 170.982 15.4736 170.456 15.228C169.894 14.9824 169.263 14.8421 168.561 14.8421C167.859 14.8421 167.228 14.9824 166.666 15.228C166.14 15.4736 165.649 15.8245 165.263 16.2456C164.877 16.6666 164.561 17.1929 164.35 17.7543C164.14 18.3157 164.035 18.9473 164.035 19.614C164.035 20.2806 164.14 20.9122 164.35 21.4736C164.561 22.0701 164.877 22.5613 165.263 22.9824C165.649 23.4035 166.105 23.7543 166.666 23.9999C167.228 24.2456 167.859 24.3859 168.561 24.3859C169.263 24.3859 169.894 24.2456 170.456 23.9999C170.982 23.7543 171.473 23.4035 171.859 22.9824C172.245 22.5613 172.561 22.035 172.771 21.4736C172.982 20.8771 173.087 20.2806 173.087 19.614C173.122 18.9824 172.982 18.3508 172.771 17.7543ZM174.491 22.1403C174.175 22.8771 173.754 23.5789 173.157 24.1403C172.596 24.7017 171.929 25.1578 171.157 25.4736C170.385 25.7894 169.508 25.9298 168.596 25.9298C167.684 25.9298 166.806 25.7894 166.035 25.4736C165.263 25.1578 164.596 24.7017 164.035 24.1403C163.473 23.5789 163.017 22.8771 162.701 22.1403C162.385 21.3684 162.21 20.5263 162.21 19.614C162.21 18.7017 162.385 17.8596 162.701 17.0877C163.017 16.3508 163.438 15.6491 164.035 15.0877C164.596 14.5263 165.263 14.0701 166.035 13.7543C166.806 13.4385 167.649 13.2982 168.596 13.2982C169.543 13.2982 170.385 13.4385 171.157 13.7543C171.929 14.0701 172.596 14.5263 173.157 15.0877C173.719 15.6491 174.175 16.3508 174.491 17.0877C174.806 17.8596 174.947 18.7017 174.947 19.614C174.947 20.5263 174.806 21.3684 174.491 22.1403ZM179.438 15.7543C179.403 15.0526 179.403 14.3508 179.368 13.614C179.473 13.614 180.035 13.614 181.052 13.614V15.8596C181.087 15.8596 181.087 15.8596 181.122 15.8596C181.228 15.5087 181.403 15.1929 181.649 14.9122C181.894 14.5964 182.14 14.3508 182.456 14.1052C182.806 13.8596 183.157 13.6491 183.543 13.5438C183.964 13.4035 184.421 13.3333 184.982 13.3333C185.473 13.3333 185.859 13.3684 186.245 13.4736C186.21 13.6491 185.929 14.9824 185.894 15.1578C185.684 15.0877 185.333 15.0175 184.912 15.0175C184.245 15.0175 183.719 15.1228 183.228 15.4035C182.771 15.6491 182.385 15.9649 182.07 16.3508C181.754 16.7368 181.543 17.1578 181.403 17.5789C181.263 18.035 181.192 18.4561 181.192 18.8771C181.192 19.3333 181.192 21.5789 181.192 25.6491H179.508V17.3684C179.473 16.6666 179.473 16.1403 179.438 15.7543ZM197.403 15.9298C196.701 15.228 195.754 14.8771 194.526 14.8771C193.999 14.8771 193.438 14.9824 192.947 15.1929C192.421 15.4035 191.999 15.6842 191.613 16.0701C191.228 16.421 190.912 16.8421 190.701 17.2982C190.456 17.7543 190.35 18.2456 190.35 18.7368C190.877 18.7368 193.578 18.7368 198.456 18.7368C198.21 17.3333 197.859 16.421 197.403 15.9298ZM190.701 21.7894C190.912 22.3157 191.263 22.7719 191.649 23.1578C192.035 23.5438 192.491 23.8596 193.017 24.0701C193.543 24.2806 194.07 24.421 194.701 24.421C195.614 24.421 196.385 24.2105 197.052 23.7894C197.719 23.3684 198.21 22.8771 198.561 22.3508C198.701 22.4561 199.754 23.3333 199.859 23.4385C199.157 24.3508 198.35 24.9824 197.473 25.4035C196.596 25.7894 195.684 25.9999 194.701 25.9999C193.824 25.9999 192.982 25.8596 192.245 25.5438C191.508 25.228 190.842 24.7719 190.28 24.2105C189.719 23.6491 189.298 22.9824 188.982 22.2105C188.666 21.4385 188.526 20.5964 188.526 19.6842C188.526 18.7719 188.666 17.9298 188.982 17.1578C189.298 16.3859 189.719 15.7192 190.245 15.1578C190.806 14.5964 191.438 14.1403 192.175 13.8245C192.912 13.5087 193.719 13.3684 194.561 13.3684C195.473 13.3684 196.28 13.5438 197.017 13.8596C197.719 14.1754 198.35 14.6315 198.842 15.1578C199.333 15.6842 199.684 16.3157 199.964 17.0526C200.21 17.7894 200.35 18.5614 200.35 19.3684C200.35 19.4035 200.35 19.6842 200.35 20.1403H190.35C190.421 20.8771 190.561 21.4385 190.701 21.7894Z" fill="white"/>
  <path d="M13.5785 18.9826C9.57852 16.6668 4.80659 15.8949 0.280273 16.9124C5.85922 9.96508 19.8943 -1.78931 24.1399 0.666831C28.4206 3.12297 25.2627 21.1581 22.0347 29.4739C20.6311 25.0528 17.6136 21.2984 13.5785 18.9826ZM8.13992 28.4212C6.84168 27.6493 7.78904 22.1054 8.80659 19.544C9.22764 20.9124 10.175 22.0703 11.4031 22.7721C12.6311 23.4739 14.1048 23.7195 15.5083 23.4037C13.754 25.544 9.43817 29.1931 8.13992 28.4212Z" fill="#10B8EF"/>
  <path d="M13.5785 18.9826C9.57852 16.6668 4.80659 15.8949 0.280273 16.9124C5.85922 9.96508 19.8943 -1.78931 24.1399 0.666831C28.4206 3.12297 25.2627 21.1581 22.0347 29.4739C20.6311 25.0528 17.6136 21.2984 13.5785 18.9826ZM8.13992 28.4212C6.84168 27.6493 7.78904 22.1054 8.80659 19.544C9.22764 20.9124 10.175 22.0703 11.4031 22.7721C12.6311 23.4739 14.1048 23.7195 15.5083 23.4037C13.754 25.544 9.43817 29.1931 8.13992 28.4212Z" fill="#10B8EF"/>
</svg>