<svg width="137" height="102" viewBox="0 0 137 102" fill="none" xmlns="http://www.w3.org/2000/svg">
<path d="M136.875 89.6257H0V89.6942H136.875V89.6257Z" fill="#EBEBEB"/>
<path d="M90.6709 94.775H88.292V94.8434H90.6709V94.775Z" fill="#EBEBEB"/>
<path d="M47.4188 91.3723H41.0732V91.4407H47.4188V91.3723Z" fill="#EBEBEB"/>
<path d="M125.589 92.8395H110.075V92.908H125.589V92.8395Z" fill="#EBEBEB"/>
<path d="M27.2077 92.8395H11.6943V92.908H27.2077V92.8395Z" fill="#EBEBEB"/>
<path d="M64.8787 77.4164H12.0203C11.6062 77.4157 11.2094 77.2507 10.9168 76.9577C10.6243 76.6646 10.46 76.2674 10.46 75.8533V1.54936C10.4636 1.13765 10.6295 0.743986 10.9216 0.453876C11.2138 0.163767 11.6086 0.000644251 12.0203 -6.10352e-05H64.8787C65.2933 -6.10352e-05 65.6909 0.164624 65.984 0.457764C66.2772 0.750905 66.4418 1.14849 66.4418 1.56305V75.8533C66.4418 76.2679 66.2772 76.6655 65.984 76.9586C65.6909 77.2518 65.2933 77.4164 64.8787 77.4164V77.4164ZM12.0203 0.0546892C11.6244 0.0554143 11.2449 0.213208 10.9652 0.493435C10.6855 0.773663 10.5284 1.15343 10.5284 1.54936V75.8533C10.5284 76.2493 10.6855 76.629 10.9652 76.9093C11.2449 77.1895 11.6244 77.3473 12.0203 77.348H64.8787C65.2749 77.3473 65.6547 77.1896 65.9348 76.9094C66.215 76.6293 66.3727 76.2495 66.3734 75.8533V1.54936C66.3727 1.15317 66.215 0.773418 65.9348 0.493268C65.6547 0.213119 65.2749 0.0554128 64.8787 0.0546892H12.0203Z" fill="#EBEBEB"/>
<path d="M124.093 77.4164H71.2321C70.8177 77.4157 70.4206 77.2508 70.1276 76.9578C69.8346 76.6648 69.6697 76.2677 69.6689 75.8533V1.54936C69.6733 1.1374 69.8398 0.743739 70.1324 0.453705C70.425 0.163671 70.8201 0.000636559 71.2321 -6.10352e-05H124.093C124.504 0.0013637 124.899 0.164805 125.19 0.454837C125.482 0.744869 125.647 1.13812 125.651 1.54936V75.8533C125.651 76.2669 125.487 76.6637 125.195 76.9567C124.903 77.2497 124.507 77.415 124.093 77.4164V77.4164ZM71.2321 0.0546892C70.8359 0.0554128 70.4561 0.213119 70.176 0.493268C69.8958 0.773418 69.7381 1.15317 69.7374 1.54936V75.8533C69.7381 76.2495 69.8958 76.6293 70.176 76.9094C70.4561 77.1896 70.8359 77.3473 71.2321 77.348H124.093C124.489 77.3473 124.869 77.1896 125.149 76.9094C125.429 76.6293 125.587 76.2495 125.588 75.8533V1.54936C125.587 1.15317 125.429 0.773418 125.149 0.493268C124.869 0.213119 124.489 0.0554128 124.093 0.0546892H71.2321Z" fill="#EBEBEB"/>
<path d="M51.6788 89.6257C52.6464 89.6257 53.4308 88.8413 53.4308 87.8737C53.4308 86.9061 52.6464 86.1217 51.6788 86.1217C50.7112 86.1217 49.9268 86.9061 49.9268 87.8737C49.9268 88.8413 50.7112 89.6257 51.6788 89.6257Z" fill="#E0E0E0"/>
<path d="M58.2754 89.6257C59.243 89.6257 60.0274 88.8413 60.0274 87.8737C60.0274 86.9061 59.243 86.1217 58.2754 86.1217C57.3078 86.1217 56.5234 86.9061 56.5234 87.8737C56.5234 88.8413 57.3078 89.6257 58.2754 89.6257Z" fill="#E0E0E0"/>
<path d="M24.0898 87.8737C24.0898 87.5272 24.1926 87.1885 24.3851 86.9003C24.5776 86.6122 24.8512 86.3877 25.1714 86.2551C25.4915 86.1225 25.8438 86.0878 26.1836 86.1554C26.5235 86.223 26.8357 86.3898 27.0807 86.6349C27.3257 86.8799 27.4926 87.1921 27.5602 87.5319C27.6278 87.8718 27.5931 88.224 27.4605 88.5442C27.3279 88.8643 27.1033 89.1379 26.8152 89.3304C26.5271 89.523 26.1884 89.6257 25.8418 89.6257C25.3774 89.625 24.9322 89.4402 24.6038 89.1118C24.2754 88.7834 24.0906 88.3381 24.0898 87.8737Z" fill="#E0E0E0"/>
<path d="M32.4258 89.6257C33.3934 89.6257 34.1778 88.8413 34.1778 87.8737C34.1778 86.9061 33.3934 86.1217 32.4258 86.1217C31.4582 86.1217 30.6738 86.9061 30.6738 87.8737C30.6738 88.8413 31.4582 89.6257 32.4258 89.6257Z" fill="#E0E0E0"/>
<path d="M52.9597 88.1146H61.9141L61.9141 50.745H52.9597L52.9597 88.1146Z" fill="#EBEBEB"/>
<path d="M52.9625 50.7451H23.7178V88.1147H52.9625V50.7451Z" fill="#F5F5F5"/>
<path d="M51.3721 52.278H25.3057V86.5816H51.3721V52.278Z" fill="#EBEBEB"/>
<path d="M50.7203 66.7047H25.9541V85.9465H50.7203V66.7047Z" fill="#F5F5F5"/>
<path d="M50.7203 53.0007H25.9541V66.2174H50.7203V53.0007Z" fill="#F5F5F5"/>
<path d="M34.0328 67.0305H42.645C42.7314 67.0305 42.8142 66.9961 42.8753 66.935C42.9364 66.8739 42.9707 66.7911 42.9707 66.7047C42.97 66.6188 42.9354 66.5366 42.8744 66.4761C42.8133 66.4156 42.7309 66.3817 42.645 66.3817H34.0328C33.9901 66.3813 33.9478 66.3894 33.9083 66.4055C33.8688 66.4215 33.8329 66.4453 33.8026 66.4753C33.7723 66.5053 33.7483 66.5411 33.7319 66.5804C33.7155 66.6198 33.707 66.662 33.707 66.7047V66.7047C33.707 66.7911 33.7414 66.8739 33.8024 66.935C33.8635 66.9961 33.9464 67.0305 34.0328 67.0305Z" fill="#EBEBEB"/>
<path d="M34.0328 53.3265H42.645C42.7311 53.3258 42.8136 53.2912 42.8745 53.2303C42.9355 53.1694 42.97 53.0869 42.9707 53.0008V53.0008C42.97 52.9146 42.9355 52.8321 42.8745 52.7712C42.8136 52.7103 42.7311 52.6757 42.645 52.675H34.0328C33.9464 52.675 33.8635 52.7093 33.8024 52.7704C33.7414 52.8315 33.707 52.9144 33.707 53.0008V53.0008C33.707 53.0871 33.7414 53.17 33.8024 53.2311C33.8635 53.2922 33.9464 53.3265 34.0328 53.3265V53.3265Z" fill="#EBEBEB"/>
<path d="M80.0089 69.3162H116.886L116.886 6.86017L80.0089 6.86017V69.3162Z" fill="#E6E6E6"/>
<path d="M76.0563 5.60089H119.273C119.369 5.60374 119.459 5.64364 119.526 5.71213C119.592 5.78061 119.629 5.8723 119.629 5.96772V5.96772C119.628 6.06406 119.59 6.15625 119.522 6.22437C119.454 6.2925 119.361 6.33109 119.265 6.3318H76.0563C75.9595 6.33181 75.8666 6.29354 75.7979 6.22533C75.7291 6.15713 75.6902 6.06453 75.6895 5.96772V5.96772C75.6895 5.87043 75.7281 5.77713 75.7969 5.70833C75.8657 5.63954 75.959 5.60089 76.0563 5.60089V5.60089Z" fill="#F5F5F5"/>
<path d="M78.4405 69.3162H116.152L116.152 6.86017L78.4405 6.86017V69.3162Z" fill="#EBEBEB"/>
<path d="M113.962 67.1262V9.05017L80.6329 9.05017V67.1262H113.962Z" fill="#FAFAFA"/>
<path d="M101.887 67.1262L98.0495 9.05017H91.9805L95.8184 67.1262H101.887Z" fill="white"/>
<path d="M94.5118 67.1262L90.6765 9.05017H88.3086L92.1466 67.1262H94.5118Z" fill="white"/>
<path d="M80.9092 67.129V9.05292H80.63V67.129H80.9092Z" fill="#E6E6E6"/>
<g opacity="0.4">
<path opacity="0.4" d="M113.937 87.5699H117.707L117.707 4.94392H113.937L113.937 87.5699Z" fill="#F0F0F0"/>
<path opacity="0.4" d="M112.47 87.5699H115.407L115.407 4.94392H112.47L112.47 87.5699Z" fill="#E6E6E6"/>
<path opacity="0.4" d="M110.168 87.5699H113.938L113.937 4.94392H110.168L110.168 87.5699Z" fill="#F0F0F0"/>
<path opacity="0.4" d="M108.698 87.5699H111.636L111.636 4.94392H108.698L108.698 87.5699Z" fill="#E6E6E6"/>
<path opacity="0.4" d="M106.398 87.5699H110.168L110.168 4.94392H106.398L106.398 87.5699Z" fill="#F0F0F0"/>
</g>
<g opacity="0.4">
<path opacity="0.4" d="M82.0335 87.5699H84.207L84.207 4.94392H82.0335L82.0335 87.5699Z" fill="#F0F0F0"/>
<path opacity="0.4" d="M81.191 87.5699H82.8828L82.8828 4.94392H81.191L81.191 87.5699Z" fill="#E6E6E6"/>
<path opacity="0.4" d="M79.8626 87.5699H82.0361L82.0361 4.94392H79.8626L79.8626 87.5699Z" fill="#F0F0F0"/>
<path opacity="0.4" d="M79.0172 87.5699H80.709L80.709 4.94392H79.0172L79.0172 87.5699Z" fill="#E6E6E6"/>
<path opacity="0.4" d="M77.6897 87.5699H79.8633L79.8633 4.94392H77.6897L77.6897 87.5699Z" fill="#F0F0F0"/>
</g>
<path d="M33.6193 43.4852H28.8779V50.7423H33.6193V43.4852Z" fill="#E0E0E0"/>
<path d="M25.9572 50.7451H28.8809V43.4879H25.9572V50.7451Z" fill="#EBEBEB"/>
<path d="M39.0694 42.5407H33.6218L31.6562 50.745H37.1039L39.0694 42.5407Z" fill="#E6E6E6"/>
<path d="M31.2644 42.5407H33.6213L31.6558 50.745H29.2988L31.2644 42.5407Z" fill="#F0F0F0"/>
<path d="M41.558 43.2498H36.291V50.745H41.558V43.2498Z" fill="#EBEBEB"/>
<path d="M33.622 50.7451H36.291V43.2498H33.622V50.7451Z" fill="#F5F5F5"/>
<path d="M43.368 44.4625H39.5547V50.745H43.368V44.4625Z" fill="#E0E0E0"/>
<path d="M36.8856 50.7451H39.5547V44.4625H36.8856V50.7451Z" fill="#E6E6E6"/>
<path d="M48.8859 43.4852H44.1445V50.7423H48.8859V43.4852Z" fill="#E0E0E0"/>
<path d="M41.218 50.7451H44.1416V43.4879H41.218V50.7451Z" fill="#EBEBEB"/>
<path d="M54.334 42.5407H48.8864L46.9209 50.745H52.3685L54.334 42.5407Z" fill="#E6E6E6"/>
<path d="M46.5292 42.5407H48.8862L46.9207 50.745H44.5664L46.5292 42.5407Z" fill="#F0F0F0"/>
<path d="M56.8199 43.2498H51.5557V50.745H56.8199V43.2498Z" fill="#EBEBEB"/>
<path d="M48.8866 50.7451H51.5557V43.2498H48.8866V50.7451Z" fill="#F5F5F5"/>
<path d="M58.6317 44.4625H54.8184V50.745H58.6317V44.4625Z" fill="#E0E0E0"/>
<path d="M52.1493 50.7451H54.8184V44.4625H52.1493V50.7451Z" fill="#E6E6E6"/>
<path d="M35.4723 28.1306L53.3975 28.1306V5.60093L35.4723 5.60093V28.1306Z" fill="#F0F0F0"/>
<path d="M31.5172 28.1306L52.7109 28.1306V5.60093L31.5172 5.60093L31.5172 28.1306Z" fill="#F5F5F5"/>
<path d="M33.293 7.37754V26.3566H50.9362V7.37754H33.293Z" fill="white"/>
<path d="M44.9098 19.664C46.4546 18.1192 46.4546 15.6146 44.9098 14.0698C43.365 12.525 40.8604 12.525 39.3156 14.0698C37.7709 15.6146 37.7709 18.1192 39.3156 19.664C40.8604 21.2088 43.365 21.2088 44.9098 19.664Z" fill="#F5F5F5"/>
<path d="M68.4377 101.988C97.7516 101.988 121.515 100.601 121.515 98.8895C121.515 97.178 97.7516 95.7906 68.4377 95.7906C39.1239 95.7906 15.3604 97.178 15.3604 98.8895C15.3604 100.601 39.1239 101.988 68.4377 101.988Z" fill="#F5F5F5"/>
<path d="M91.4323 71.1751H33.6108C32.9583 71.1577 32.3333 70.9089 31.8473 70.4731C31.3614 70.0373 31.0462 69.443 30.9582 68.7962L25.234 19.1626C25.1911 18.8634 25.2137 18.5585 25.3004 18.269C25.3871 17.9795 25.5357 17.7123 25.736 17.4859C25.9363 17.2596 26.1835 17.0796 26.4603 16.9583C26.7371 16.837 27.037 16.7775 27.3392 16.7837H85.136C85.7893 16.7984 86.4158 17.0462 86.9023 17.4825C87.3888 17.9188 87.7032 18.5147 87.7887 19.1626L93.5128 68.7907C93.5562 69.0882 93.5348 69.3916 93.4499 69.68C93.3651 69.9684 93.2188 70.2351 93.0211 70.4616C92.8235 70.6881 92.5791 70.8692 92.3048 70.9924C92.0306 71.1155 91.7329 71.1779 91.4323 71.1751V71.1751Z" fill="#003350"/>
<path d="M91.731 71.175H34.7335C34.0806 71.1597 33.4548 70.9115 32.9689 70.4753C32.4829 70.0391 32.1689 69.4435 32.0836 68.7961L26.3595 19.1625C26.3161 18.8635 26.3383 18.5586 26.4247 18.2691C26.511 17.9795 26.6594 17.7123 26.8595 17.4859C27.0595 17.2595 27.3065 17.0794 27.5832 16.9581C27.86 16.8368 28.1598 16.7773 28.4619 16.7836H85.4594C86.1118 16.801 86.7369 17.0498 87.2228 17.4856C87.7087 17.9214 88.0239 18.5157 88.112 19.1625L93.8361 68.7906C93.8799 69.0902 93.8579 69.3957 93.7717 69.6859C93.6854 69.9761 93.5369 70.244 93.3365 70.471C93.1361 70.698 92.8887 70.8785 92.6114 71.0001C92.3341 71.1217 92.0337 71.1814 91.731 71.175V71.175Z" fill="#003350"/>
<path opacity="0.8" d="M91.731 71.175H34.7335C34.0806 71.1597 33.4548 70.9115 32.9689 70.4753C32.4829 70.0391 32.1689 69.4435 32.0836 68.7961L26.3595 19.1625C26.3161 18.8635 26.3383 18.5586 26.4247 18.2691C26.511 17.9795 26.6594 17.7123 26.8595 17.4859C27.0595 17.2595 27.3065 17.0794 27.5832 16.9581C27.86 16.8368 28.1598 16.7773 28.4619 16.7836H85.4594C86.1118 16.801 86.7369 17.0498 87.2228 17.4856C87.7087 17.9214 88.0239 18.5157 88.112 19.1625L93.8361 68.7906C93.8799 69.0902 93.8579 69.3957 93.7717 69.6859C93.6854 69.9761 93.5369 70.244 93.3365 70.471C93.1361 70.698 92.8887 70.8785 92.6114 71.0001C92.3341 71.1217 92.0337 71.1814 91.731 71.175V71.175Z" fill="white"/>
<path d="M85.5966 17.9826H28.5991H28.4047C26.932 18.1058 27.3316 20.3533 28.8236 20.3533H85.9196C87.4115 20.3533 87.2884 18.1058 85.7909 17.9826H85.5966Z" fill="#003350"/>
<path d="M29.6713 19.8441C29.4906 19.8392 29.3175 19.7701 29.1831 19.6492C29.0487 19.5283 28.9617 19.3635 28.9377 19.1844C28.9253 19.0978 28.932 19.0095 28.9572 18.9257C28.9824 18.842 29.0256 18.7647 29.0837 18.6993C29.1418 18.6339 29.2134 18.582 29.2936 18.5471C29.3738 18.5122 29.4607 18.4952 29.5481 18.4972C29.7286 18.5015 29.9017 18.57 30.0361 18.6904C30.1706 18.8109 30.2577 18.9753 30.2818 19.1542C30.2941 19.241 30.2874 19.3293 30.2622 19.4132C30.237 19.4971 30.1939 19.5745 30.1359 19.6401C30.0778 19.7057 30.0062 19.7579 29.926 19.7932C29.8458 19.8284 29.7589 19.8457 29.6713 19.8441ZM29.5481 18.7491C29.4969 18.7474 29.4459 18.7568 29.3987 18.7767C29.3515 18.7965 29.309 18.8263 29.2744 18.8641C29.2427 18.9017 29.2189 18.9454 29.2043 18.9924C29.1898 19.0394 29.1847 19.0888 29.1895 19.1378C29.2051 19.255 29.2618 19.3629 29.3495 19.4421C29.4373 19.5214 29.5504 19.5668 29.6686 19.5703C29.7198 19.572 29.7708 19.5626 29.818 19.5428C29.8653 19.5229 29.9077 19.4931 29.9423 19.4554C30.0055 19.3788 30.036 19.2805 30.0272 19.1816V19.1816C30.011 19.0652 29.9539 18.9583 29.8661 18.88C29.7784 18.8018 29.6657 18.7573 29.5481 18.7546V18.7491Z" fill="#FAFAFA"/>
<path d="M31.5276 19.8441C31.3464 19.8398 31.1726 19.771 31.0377 19.6501C30.9027 19.5291 30.8153 19.364 30.7912 19.1844C30.7788 19.0978 30.7855 19.0095 30.8107 18.9257C30.8359 18.842 30.8791 18.7647 30.9372 18.6993C30.9953 18.6339 31.0669 18.582 31.1471 18.5471C31.2273 18.5122 31.3142 18.4952 31.4017 18.4972C31.5823 18.5019 31.7554 18.5705 31.8902 18.6908C32.025 18.8111 32.1128 18.9753 32.138 19.1542C32.1489 19.2413 32.1413 19.3296 32.1158 19.4136C32.0904 19.4975 32.0476 19.5752 31.9902 19.6415C31.932 19.7063 31.8606 19.7579 31.7808 19.7929C31.701 19.8278 31.6147 19.8453 31.5276 19.8441V19.8441ZM31.4017 18.7491C31.3505 18.7476 31.2995 18.7571 31.2523 18.7769C31.2051 18.7967 31.1627 18.8265 31.1279 18.8641C31.0962 18.9017 31.0724 18.9454 31.0579 18.9924C31.0433 19.0394 31.0382 19.0888 31.043 19.1378C31.0587 19.2555 31.1158 19.3637 31.2041 19.443C31.2924 19.5223 31.4062 19.5675 31.5248 19.5703C31.5759 19.5718 31.6267 19.5619 31.6736 19.5415C31.7205 19.5211 31.7623 19.4906 31.796 19.4521C31.8297 19.4137 31.8545 19.3683 31.8687 19.3192C31.8829 19.2701 31.886 19.2184 31.878 19.1679V19.1679C31.8589 19.0544 31.801 18.9511 31.7141 18.8757C31.6272 18.8003 31.5167 18.7574 31.4017 18.7546V18.7491Z" fill="#FAFAFA"/>
<path d="M33.3812 19.8441C33.2 19.8399 33.0263 19.7711 32.8913 19.6501C32.7563 19.5292 32.6689 19.364 32.6448 19.1844C32.6335 19.0973 32.6408 19.0089 32.6663 18.9248C32.6918 18.8408 32.7349 18.7632 32.7927 18.6971C32.8511 18.6328 32.9226 18.5817 33.0024 18.5472C33.0822 18.5128 33.1684 18.4957 33.2553 18.4973C33.4359 18.502 33.609 18.5706 33.7439 18.6909C33.8787 18.8112 33.9665 18.9754 33.9917 19.1543C34.004 19.241 33.9973 19.3294 33.9721 19.4133C33.9469 19.4972 33.9038 19.5746 33.8458 19.6402C33.7877 19.7058 33.7161 19.758 33.6359 19.7932C33.5557 19.8284 33.4688 19.8458 33.3812 19.8441ZM33.2553 18.7491C33.2045 18.7478 33.1539 18.7576 33.1073 18.7778C33.0607 18.7981 33.019 18.8284 32.9854 18.8665C32.9517 18.9046 32.9268 18.9496 32.9124 18.9984C32.898 19.0472 32.8945 19.0985 32.9022 19.1488C32.9172 19.2663 32.9737 19.3744 33.0616 19.4538C33.1495 19.5331 33.2629 19.5784 33.3812 19.5813C33.4323 19.5828 33.4831 19.5729 33.53 19.5525C33.5769 19.5321 33.6186 19.5016 33.6524 19.4631C33.6861 19.4247 33.7109 19.3793 33.7251 19.3302C33.7393 19.2811 33.7424 19.2294 33.7344 19.1789V19.1789C33.7181 19.0628 33.6609 18.9562 33.5731 18.8784C33.4853 18.8006 33.3726 18.7567 33.2553 18.7546V18.7491Z" fill="#FAFAFA"/>
<path d="M90.0283 67.2384H35.5302C35.294 67.2328 35.0675 67.1431 34.8914 66.9856C34.7153 66.8281 34.6011 66.613 34.5693 66.3789L29.6418 23.756C29.6259 23.6476 29.6337 23.5371 29.6649 23.4322C29.696 23.3272 29.7497 23.2303 29.8222 23.1482C29.8946 23.0661 29.9841 23.0008 30.0844 22.9568C30.1847 22.9129 30.2934 22.8913 30.4028 22.8937H84.9147C85.1513 22.8994 85.3781 22.9894 85.5542 23.1475C85.7304 23.3056 85.8443 23.5214 85.8755 23.756L90.803 66.3789C90.8188 66.4882 90.8103 66.5996 90.7782 66.7052C90.746 66.8109 90.6911 66.9082 90.6171 66.9902C90.5432 67.0722 90.4521 67.137 90.3504 67.1799C90.2486 67.2228 90.1387 67.2428 90.0283 67.2384V67.2384Z" fill="white"/>
<path d="M72.3711 47.9289L73.4619 46.7326C73.4619 46.7326 73.8971 44.9351 74.1474 44.6042C74.3978 44.2734 76.2963 43.3317 76.2963 43.3317C76.2963 43.3317 76.949 43.3667 77.0414 43.4971C77.1338 43.6275 76.8238 46.6563 76.5437 47.054C76.2635 47.4517 74.8955 47.7857 74.7077 47.8525C74.52 47.9193 72.5916 50.0127 72.5916 50.0127L72.3711 47.9289Z" fill="#FFC3BD"/>
<path d="M74.7143 49.1543C74.7143 49.1543 66.8131 56.7203 63.7059 55.8877C62.3401 55.5174 60.749 53.9473 59.2671 52.1109C57.6519 50.0437 56.1808 47.8889 54.8624 45.659C54.5744 45.1482 54.4182 44.586 54.4052 44.0139C54.3922 43.4417 54.5228 42.8743 54.7873 42.3534C54.9867 41.9087 55.2495 41.4889 55.5692 41.1047C57.9013 41.3587 62.4938 50.8652 64.2488 51.713C66.0039 52.5608 72.9626 47.2322 72.9626 47.2322L74.7143 49.1543Z" fill="#496573"/>
<path opacity="0.2" d="M59.0912 52.2399C57.5344 50.1955 56.1166 48.0644 54.8458 45.859C54.5683 45.3538 54.4177 44.7978 54.4051 44.232C54.3926 43.6661 54.5185 43.1049 54.7734 42.5898C56.0536 44.0397 58.6568 47.5208 59.0912 52.2399Z" fill="black"/>
<path d="M45.0303 41.7943C46.2083 42.9361 49.0445 42.5131 49.0445 42.5131C49.0445 42.5131 50.8116 41.9883 50.4494 41.3872C49.4009 41.1996 48.8943 40.6716 48.6823 39.9973C48.5657 39.5781 48.5296 39.1377 48.5762 38.7029C48.5927 38.4616 48.6222 38.2216 48.6646 37.9841L45.1304 35.1661C45.6046 37.0236 46.1701 40.4458 45.0303 41.7943Z" fill="#FFC3BD"/>
<path opacity="0.2" d="M45.8115 35.9086C45.9701 38.6963 47.9609 39.4651 48.9361 39.6204C48.8026 39.1086 48.7612 38.5709 48.8146 38.0401L45.8115 35.9086Z" fill="black"/>
<path d="M45.6429 37.0647C46.1532 37.5985 46.8312 37.9565 47.5731 38.084C48.315 38.2114 49.0799 38.1013 49.7505 37.7704C50.6264 37.3573 51.3061 36.6389 51.6516 35.7611C51.6991 35.6402 51.7399 35.5161 51.7772 35.3886C52.412 33.0396 52.1167 29.1354 49.4722 28.0409C48.8883 27.7966 48.2493 27.7 47.6158 27.7603C46.9822 27.8206 46.3752 28.0358 45.8524 28.3854C45.3296 28.735 44.9083 29.2075 44.6287 29.7579C44.349 30.3083 44.2202 30.9184 44.2544 31.5302C44.3597 34.1537 44.2918 35.6958 45.6429 37.0647Z" fill="#FFC3BD"/>
<path d="M50.5011 32.9296C50.471 33.3366 50.6667 33.6748 50.8774 33.6811C51.0881 33.6874 51.2688 33.3554 51.2788 32.9483C51.2888 32.5413 51.1132 32.2031 50.9025 32.1968C50.6918 32.1905 50.5112 32.5413 50.5011 32.9296Z" fill="#263238"/>
<path d="M47.9757 32.6722C47.9456 33.0794 48.1413 33.4176 48.352 33.4239C48.5627 33.4301 48.7434 33.0982 48.7534 32.691C48.7634 32.2839 48.5878 31.9457 48.3771 31.9394C48.1664 31.9332 47.9858 32.2839 47.9757 32.6722Z" fill="#263238"/>
<path d="M49.7969 32.9393C50.1583 33.6502 50.6576 34.3217 51.2801 34.934C51.0539 35.0435 50.797 35.1167 50.5273 35.1483C50.2575 35.18 49.9812 35.1694 49.7178 35.1173L49.7969 32.9393Z" fill="#BE701A"/>
<path d="M48.2209 32.1949C48.2362 32.1989 48.2518 32.1965 48.2663 32.188C48.2808 32.1795 48.2937 32.1652 48.3037 32.1465C48.3668 32.0137 48.4484 31.9059 48.542 31.8315C48.6357 31.7571 48.739 31.7181 48.8437 31.7175C48.8546 31.7195 48.8656 31.7179 48.8761 31.713C48.8866 31.7082 48.8964 31.7 48.9049 31.6891C48.9134 31.6781 48.9205 31.6646 48.9257 31.6493C48.9308 31.634 48.9341 31.6172 48.9352 31.5999C48.937 31.5647 48.93 31.5297 48.9158 31.5025C48.9015 31.4754 48.8811 31.4582 48.8589 31.4547V31.4547C48.7265 31.4492 48.5952 31.4941 48.4759 31.5855C48.3566 31.677 48.2527 31.8124 48.173 31.9804C48.1592 32.0077 48.1526 32.0425 48.1547 32.0773C48.1567 32.1122 48.1672 32.1444 48.1839 32.1672V32.1672C48.195 32.1802 48.2075 32.1896 48.2209 32.1949V32.1949Z" fill="#263238"/>
<path d="M51.95 32.187C51.9674 32.2002 51.9864 32.2002 52.0038 32.187C52.0267 32.1644 52.0447 32.1228 52.0539 32.0711C52.063 32.0195 52.0626 31.9619 52.0527 31.9109V31.9109C51.9926 31.608 51.9006 31.3414 51.7845 31.1333C51.6683 30.9252 51.5313 30.7816 51.3849 30.7145C51.3606 30.7068 51.3359 30.7206 51.3162 30.7531C51.2965 30.7855 51.2834 30.834 51.2798 30.8877V30.8877C51.2774 30.9418 51.2841 30.9958 51.2985 31.0397C51.3129 31.0836 51.3341 31.1143 51.358 31.1259V31.1259C51.4731 31.1843 51.5802 31.302 51.6708 31.4695C51.7613 31.6369 51.8327 31.8494 51.8791 32.0895C51.8861 32.1178 51.8964 32.1416 51.9088 32.1587C51.9212 32.1757 51.9354 32.1855 51.95 32.187V32.187Z" fill="#263238"/>
<path d="M46.3969 28.4846L46.5923 29.6093C46.375 29.706 46.2078 29.8698 46.1238 30.0681C46.0398 30.2664 46.0452 30.4848 46.1389 30.6799C46.5886 31.6166 46.0136 33.1014 45.1916 33.7099C45.1916 33.7099 45.1511 33.2989 44.753 33.4073C44.3549 33.5156 44.5355 35.6376 45.3501 36.6508C44.309 35.7224 43.5647 34.5762 43.1901 33.3244C42.5082 31.263 42.5782 29.7336 43.0464 28.9179L46.3969 28.4846Z" fill="#263238"/>
<path d="M42.8238 33.8103C42.9816 34.1063 43.2074 34.3728 43.4881 34.5941C43.7688 34.8154 44.0987 34.987 44.4585 35.099C45.4165 35.3922 45.9792 34.677 45.7663 33.8779C45.5762 33.1691 44.8577 32.1381 43.8654 32.1993C42.8732 32.2605 42.4436 33.0821 42.8238 33.8103Z" fill="#FFC3BD"/>
<path d="M49.7177 35.3861C49.67 35.5562 49.6325 35.7308 49.6055 35.9084H49.5317C49.1965 35.8882 49.046 35.7361 48.9807 35.573C48.9499 35.4928 48.9348 35.4041 48.9367 35.3146C48.9364 35.2644 48.9417 35.2144 48.9523 35.1661C49.1549 35.296 49.3766 35.3691 49.6027 35.3806L49.7177 35.3861Z" fill="#263238"/>
<path d="M49.7177 35.9084C49.2425 35.8638 49.0291 35.5271 48.9365 35.1661C49.1172 35.1897 49.2945 35.2776 49.46 35.4257C49.5687 35.5287 49.6588 35.6974 49.7177 35.9084V35.9084Z" fill="#BE701A"/>
<path d="M47.0262 29.6762C47.0262 29.6762 47.2044 31.0002 45.4327 31.6842C43.661 32.3681 43.0155 32.9391 43.0155 32.9391C43.0155 32.9391 41.8187 29.6919 43.9905 28.4934C43.9905 28.4934 44.0342 27.8659 45.8966 27.2729C47.7591 26.6799 50.4284 26.9592 51.6387 29.0518C52.5464 30.6206 51.706 31.7406 51.706 31.7406C51.706 31.7406 51.5278 30.8308 49.7998 30.6237C48.8123 30.5005 47.8656 30.1771 47.0262 29.6762V29.6762Z" fill="#263238"/>
<path d="M55.9668 53.8221L60.3898 53.0312C60.3898 53.0312 61.2112 52.2402 61.5915 52.2402C61.9718 52.2402 66.9029 53.699 66.9029 53.699C66.9029 53.699 65.5735 54.9793 64.9407 55.2225C64.3079 55.4656 61.4029 54.8562 61.4029 54.8562L57.1045 55.9519L55.9668 53.8221Z" fill="#FFC3BD"/>
<path d="M57.341 64.86H42.5227C42.5227 63.9726 42.5227 63.016 42.4548 62.0091C42.3256 59.6553 42.0367 57.0467 41.6867 54.5231L41.5847 53.7868C41.3468 52.1473 41.0919 50.5614 40.8438 49.1139C40.1641 45.2278 39.5625 42.3706 39.5625 42.3706C46.5264 40.7437 55.8761 41.1497 55.8761 41.1497C58.3028 49.5671 57.341 64.86 57.341 64.86Z" fill="#5E707A"/>
<path d="M50.825 41.9181L50.483 43.7645C50.483 43.7645 52.4374 52.7336 52.8412 57.3933L52.1308 58.1786L51.0107 57.3933C51.0107 57.3933 50.9104 47.918 49.9229 43.9397L48.1543 42.3432L49.5486 41.8467L50.825 41.9181Z" fill="#263238"/>
<path d="M44.9335 39.6202L48.8328 41.2733L49.06 39.9457L50.4908 40.4212C50.7411 40.5038 50.9545 40.6634 51.0966 40.8742C51.2387 41.0849 51.3012 41.3346 51.2741 41.5829L51.1113 43.0382L49.1346 42.0201L48.1479 43.3318L43.4688 41.2095L44.9335 39.6202Z" fill="#496573"/>
<path d="M39.7234 41.8805C41.77 41.1185 44.7945 53.5155 45.4356 54.4994C46.0768 55.4834 58.1197 53.055 58.1197 53.055L59.0912 55.9406C59.0912 55.9406 48.907 59.5451 44.6811 58.8261C40.4553 58.1072 39.5 51.8126 38.467 48.079C37.434 44.3453 38.2306 42.4304 39.7234 41.8805Z" fill="#496573"/>
<path opacity="0.5" d="M88.2903 65.1415H37.3317L37.2715 64.6269H88.2328L88.2903 65.1415Z" fill="#003350"/>
<path d="M37.849 64.8787C37.8594 64.9477 37.8546 65.0181 37.8348 65.085C37.8151 65.1518 37.7809 65.2136 37.7347 65.2658C37.6885 65.318 37.6314 65.3594 37.5674 65.3872C37.5034 65.4149 37.4341 65.4282 37.3644 65.4262C37.2142 65.4224 37.0703 65.3652 36.9584 65.2648C36.8466 65.1645 36.7741 65.0276 36.754 64.8787C36.744 64.8099 36.7492 64.7397 36.7691 64.673C36.789 64.6063 36.8232 64.5448 36.8693 64.4927C36.9155 64.4406 36.9724 64.3991 37.0361 64.3713C37.0999 64.3434 37.1689 64.3297 37.2385 64.3312C37.3889 64.3345 37.5331 64.3915 37.6451 64.492C37.757 64.5924 37.8294 64.7296 37.849 64.8787V64.8787Z" fill="#003350"/>
<path d="M75.4426 41.2678L54.4131 29.1078L57.6132 56.8497L75.4426 41.2678Z" fill="#09769A"/>
<path d="M55.4892 56.8497H57.6135L54.4134 29.1078H52.2891L55.4892 56.8497Z" fill="#003350"/>
<path d="M91.725 27.3448C91.8755 27.7089 91.985 28.0155 92.0973 28.3522C92.2095 28.6889 92.308 29.0065 92.4093 29.335C92.5982 29.9947 92.7625 30.6599 92.913 31.3251C93.0636 31.9903 93.1868 32.6583 93.3018 33.329C93.3538 33.6657 93.4085 34.0024 93.4468 34.3391L93.5125 34.8455L93.529 34.9797L93.5454 35.1631C93.5454 35.289 93.5454 35.3876 93.5454 35.5025C93.5363 35.8913 93.4951 36.2786 93.4222 36.6605C93.3538 37.0191 93.2771 37.3668 93.1895 37.7035C93.0116 38.3796 92.8063 39.0284 92.5818 39.669C92.1309 40.9414 91.6081 42.1871 91.0159 43.4002L89.8279 42.9513C90.1509 41.6865 90.4657 40.4054 90.7477 39.1434C90.8873 38.5138 91.0214 37.8842 91.1145 37.2655C91.1665 36.9562 91.2048 36.6496 91.2322 36.3539C91.2603 36.0811 91.2686 35.8066 91.2568 35.5327C91.2549 35.4803 91.2495 35.4282 91.2404 35.3766V35.3136L91.2185 35.2014L91.1227 34.7278L90.9174 33.7861C90.7723 33.1592 90.6217 32.5351 90.4602 31.9137C90.2987 31.2923 90.1208 30.6791 89.9346 30.0713C89.8416 29.7675 89.7485 29.4636 89.6609 29.1652C89.5733 28.8668 89.4556 28.5548 89.3652 28.3029L91.725 27.3448Z" fill="#FFC3BD"/>
<path d="M91.0759 43.2086L91.4948 44.9853L90.3833 46.2993C90.3833 46.2993 88.9051 42.0096 90.4655 42.2149L91.0759 43.2086Z" fill="#FFC3BD"/>
<path d="M85.1112 96.4748C85.3347 96.4687 85.5568 96.4384 85.7737 96.3845C85.7854 96.3816 85.7959 96.3754 85.8042 96.3667C85.8124 96.3579 85.818 96.347 85.8202 96.3352C85.8222 96.324 85.8207 96.3124 85.8158 96.3021C85.8109 96.2918 85.8029 96.2833 85.7929 96.2777C85.708 96.2203 84.9525 95.7302 84.6595 95.8589C84.6267 95.8739 84.5983 95.8972 84.5772 95.9264C84.5561 95.9557 84.543 95.99 84.5391 96.0259C84.5257 96.0826 84.5276 96.1418 84.5444 96.1975C84.5612 96.2533 84.5924 96.3036 84.6349 96.3434C84.773 96.4425 84.9419 96.4891 85.1112 96.4748ZM85.6067 96.2996C85.1687 96.3872 84.8402 96.3708 84.7143 96.2558C84.6876 96.2285 84.6682 96.1948 84.6582 96.1579C84.6481 96.121 84.6476 96.0822 84.6568 96.0451C84.6565 96.0288 84.6611 96.0129 84.6698 95.9993C84.6786 95.9856 84.6912 95.9749 84.7061 95.9684C84.8621 95.9 85.2974 96.1108 85.6067 96.2996V96.2996Z" fill="#003350"/>
<path d="M85.7605 96.3846C85.7704 96.3874 85.7808 96.3874 85.7906 96.3846C85.7998 96.38 85.8074 96.3729 85.8127 96.3642C85.818 96.3555 85.8208 96.3455 85.8208 96.3353C85.8208 96.3025 85.8208 95.5825 85.547 95.3389C85.5134 95.308 85.4734 95.2849 85.4299 95.2712C85.3864 95.2575 85.3404 95.2535 85.2951 95.2595C85.2478 95.2604 85.2022 95.2775 85.1659 95.3078C85.1295 95.3382 85.1047 95.38 85.0953 95.4265C85.0351 95.7002 85.4868 96.2477 85.7222 96.3873L85.7605 96.3846ZM85.3444 95.369C85.3933 95.3689 85.4403 95.3875 85.4758 95.421C85.6373 95.5661 85.6894 95.9685 85.7003 96.2094C85.4621 96.0205 85.1829 95.6126 85.2185 95.4401C85.2185 95.4128 85.2404 95.3799 85.3171 95.369H85.3444Z" fill="#003350"/>
<path d="M86.3049 18.5629C85.9983 20.0494 85.355 23.0661 86.387 24.0598C86.387 24.0598 85.9655 25.5709 83.1978 25.5709C80.1565 25.5709 81.7607 24.0598 81.7607 24.0598C83.4223 23.6629 83.4031 22.431 83.1157 21.2758L86.3049 18.5629Z" fill="#FFC3BD"/>
<path d="M79.9561 16.1073C79.9378 16.1093 79.9193 16.1069 79.9022 16.1002C79.885 16.0935 79.8697 16.0828 79.8576 16.069C79.7598 15.9569 79.637 15.8694 79.499 15.8138C79.3611 15.7581 79.2119 15.7358 79.0637 15.7487C79.0482 15.7515 79.0323 15.7511 79.017 15.7476C79.0017 15.7441 78.9872 15.7375 78.9745 15.7283C78.9617 15.7192 78.9509 15.7075 78.9427 15.6941C78.9346 15.6807 78.9291 15.6657 78.9268 15.6502C78.9228 15.6191 78.9307 15.5877 78.949 15.5622C78.9673 15.5368 78.9946 15.5193 79.0254 15.5133C79.2126 15.4937 79.4018 15.5192 79.577 15.5878C79.7523 15.6564 79.9086 15.766 80.0328 15.9075C80.0552 15.9301 80.0677 15.9606 80.0677 15.9924C80.0677 16.0242 80.0552 16.0547 80.0328 16.0772C80.0112 16.0954 79.9843 16.106 79.9561 16.1073V16.1073Z" fill="#263238"/>
<path d="M79.4526 17.6075C79.3423 18.0927 79.1664 18.5606 78.9297 18.9982C79.0433 19.0543 79.1678 19.085 79.2944 19.0883C79.4211 19.0916 79.5469 19.0674 79.6633 19.0174L79.4526 17.6075Z" fill="#ED847E"/>
<path d="M79.5788 17.2461C79.6089 17.446 79.5295 17.6239 79.3981 17.6458C79.2667 17.6677 79.1244 17.5199 79.1079 17.3201C79.0915 17.1202 79.1572 16.9423 79.2886 16.9204C79.42 16.8985 79.5514 17.0354 79.5788 17.2461Z" fill="#263238"/>
<path d="M79.3486 16.9122L78.8477 16.8492C78.8477 16.8492 79.1488 17.186 79.3486 16.9122Z" fill="#263238"/>
<path d="M88.6784 96.5269H86.1709L86.4228 90.7152H88.933L88.6784 96.5269Z" fill="#FFC3BD"/>
<path d="M85.9737 96.0369H88.7933C88.8411 96.0364 88.8875 96.0534 88.9238 96.0846C88.9601 96.1158 88.9837 96.1592 88.9904 96.2066L89.2915 98.4377C89.2964 98.4943 89.2896 98.5513 89.2713 98.6051C89.2531 98.6589 89.2238 98.7084 89.1855 98.7503C89.1472 98.7922 89.1005 98.8258 89.0486 98.8488C88.9966 98.8718 88.9404 98.8837 88.8836 98.8839C87.9009 98.8674 87.4273 98.81 86.1899 98.81C85.4262 98.81 84.312 98.8866 83.2581 98.8866C82.2041 98.8866 82.1631 97.8464 82.5983 97.7533C84.5693 97.329 84.8841 96.7459 85.5521 96.1902C85.6701 96.091 85.8195 96.0367 85.9737 96.0369Z" fill="#263238"/>
<g opacity="0.2">
<path opacity="0.2" d="M88.9329 90.718H86.4226L86.2939 93.7128H88.8042L88.9329 90.718Z" fill="black"/>
</g>
<path d="M78.3061 28.793C77.5917 30.0609 76.8104 31.29 75.9655 32.4749C75.5467 33.0717 75.1142 33.6603 74.6406 34.2324C74.1677 34.8238 73.6575 35.3843 73.113 35.9105L73.0063 36.0145L72.8804 36.1267C72.7955 36.2034 72.7106 36.2718 72.6258 36.3375C72.4622 36.4685 72.2913 36.5901 72.1138 36.7016C71.7803 36.9154 71.4338 37.1083 71.0763 37.2792C70.4005 37.607 69.7036 37.8896 68.9904 38.1251C67.6021 38.5827 66.1783 38.9243 64.7336 39.1462L64.4297 37.9143C65.7273 37.4298 67.0358 36.9014 68.2622 36.3211C68.8708 36.0401 69.4638 35.7267 70.0388 35.3821C70.3098 35.2213 70.5712 35.0449 70.8217 34.8538C70.9395 34.7607 71.0572 34.6704 71.1557 34.5801C71.2075 34.5363 71.2569 34.4897 71.3036 34.4404L71.3692 34.372L71.4486 34.2844C72.3288 33.2609 73.1374 32.178 73.8686 31.0432C74.2546 30.4711 74.6187 29.8798 74.9882 29.2939C75.3578 28.7081 75.7219 28.1004 76.0832 27.5255L78.3061 28.793Z" fill="#FFC3BD"/>
<path d="M64.9194 37.6515L63.6738 38.0512L64.465 39.888C64.465 39.888 66.1567 39.1133 66.2799 38.0402L66.0281 37.8377C65.8727 37.7182 65.6903 37.6387 65.497 37.6062C65.3036 37.5738 65.1053 37.5893 64.9194 37.6515V37.6515Z" fill="#FFC3BD"/>
<path d="M62.1709 38.5111L63.0086 40.1536L64.4649 39.899L63.6738 38.0621L62.1709 38.5111Z" fill="#FFC3BD"/>
<path d="M86.1984 15.475C86.4174 17.9552 86.5597 19.0009 85.5085 20.46C83.9262 22.65 80.8356 22.4091 79.883 20.0494C79.0261 17.9251 78.8153 14.224 81.0738 12.8635C81.5654 12.5595 82.127 12.3872 82.7045 12.3634C83.282 12.3396 83.8559 12.4649 84.3709 12.7273C84.8859 12.9898 85.3246 13.3805 85.6446 13.8617C85.9647 14.343 86.1554 14.8986 86.1984 15.475V15.475Z" fill="#FFC3BD"/>
<path d="M80.4627 17.4925C79.9508 16.9697 80.0028 15.4969 80.2027 15.0835C80.0917 15.0562 79.988 15.0053 79.8984 14.9343C79.8089 14.8633 79.7356 14.7739 79.6837 14.6721C79.6318 14.5703 79.6023 14.4585 79.5974 14.3444C79.5925 14.2302 79.6122 14.1163 79.6552 14.0104C79.814 13.5642 80.5914 12.6253 82.1901 12.138C84.0406 11.5741 87.0875 12.3488 87.8075 14.8755C88.5274 17.4022 86.8712 20.9911 85.6722 21.2922C84.4732 21.5933 83.1592 21.0376 80.4627 17.4925Z" fill="#263238"/>
<path d="M85.1356 10.9116C85.0248 10.7649 84.8738 10.6533 84.701 10.5905C84.5281 10.5277 84.3408 10.5162 84.1616 10.5575C83.9824 10.5988 83.8189 10.6911 83.691 10.8233C83.5631 10.9554 83.4762 11.1217 83.4407 11.3022C83.4053 11.4827 83.4228 11.6695 83.4912 11.8402C83.5596 12.0109 83.676 12.1582 83.8263 12.2642C83.9765 12.3703 84.1543 12.4305 84.338 12.4378C84.5218 12.445 84.7037 12.3989 84.8619 12.305C85.0828 12.1564 85.2358 11.9262 85.2871 11.6649C85.3384 11.4037 85.2839 11.1327 85.1356 10.9116V10.9116Z" fill="#263238"/>
<path d="M86.4777 10.4243C86.5086 10.2355 86.4843 10.0418 86.4075 9.86656C86.3308 9.69131 86.205 9.54202 86.0452 9.43671C85.8855 9.3314 85.6987 9.27458 85.5074 9.2731C85.3161 9.27162 85.1285 9.32555 84.9671 9.42838C84.8058 9.5312 84.6777 9.67853 84.5983 9.85257C84.5188 10.0266 84.4915 10.2199 84.5195 10.4092C84.5475 10.5984 84.6297 10.7755 84.7561 10.9191C84.8826 11.0626 85.0479 11.1665 85.2321 11.2182C85.5025 11.277 85.7851 11.2265 86.0184 11.0778C86.2517 10.9291 86.4168 10.6942 86.4777 10.4243V10.4243Z" fill="#263238"/>
<path d="M88.7088 14.1774C88.8529 14.2914 88.9609 14.4446 89.0199 14.6186C89.0789 14.7926 89.0863 14.9799 89.0413 15.158C88.9962 15.3361 88.9006 15.4974 88.766 15.6225C88.6314 15.7475 88.4636 15.8309 88.2826 15.8627C88.1017 15.8945 87.9154 15.8734 87.7462 15.8017C87.5771 15.7301 87.4322 15.6111 87.3291 15.459C87.226 15.3069 87.1691 15.1283 87.1653 14.9446C87.1614 14.761 87.2107 14.5801 87.3072 14.4238C87.4615 14.2067 87.6951 14.0591 87.9575 14.013C88.2198 13.9669 88.4897 14.0259 88.7088 14.1774V14.1774Z" fill="#263238"/>
<path d="M89.2069 12.8963C89.396 12.8699 89.5886 12.8988 89.7616 12.9795C89.9346 13.0602 90.0805 13.1892 90.1817 13.3511C90.2829 13.5129 90.335 13.7006 90.3319 13.8915C90.3287 14.0823 90.2703 14.2682 90.1638 14.4266C90.0572 14.585 89.9071 14.7091 89.7315 14.784C89.5559 14.8589 89.3624 14.8813 89.1744 14.8486C88.9863 14.8159 88.8118 14.7294 88.6718 14.5996C88.5318 14.4698 88.4324 14.3023 88.3857 14.1172C88.3341 13.8466 88.3914 13.5665 88.5452 13.3379C88.699 13.1093 88.9368 12.9506 89.2069 12.8963V12.8963Z" fill="#263238"/>
<path d="M88.3118 10.282C88.4199 10.1114 88.4763 9.91312 88.4742 9.71115C88.4721 9.50918 88.4115 9.31215 88.2998 9.14386C88.1881 8.97557 88.0301 8.84323 87.8448 8.76282C87.6595 8.68242 87.4549 8.65739 87.2557 8.69077C87.0565 8.72415 86.8712 8.8145 86.7223 8.95091C86.5733 9.08732 86.4671 9.26395 86.4163 9.45945C86.3656 9.65496 86.3726 9.86097 86.4364 10.0526C86.5002 10.2442 86.6182 10.4133 86.776 10.5393C86.8935 10.624 87.0266 10.6846 87.1676 10.7176C87.3086 10.7505 87.4548 10.7551 87.5976 10.7312C87.7404 10.7073 87.8771 10.6552 87.9997 10.5781C88.1223 10.501 88.2284 10.4004 88.3118 10.282Z" fill="#263238"/>
<path d="M89.65 11.7137C89.8377 11.593 89.9864 11.4207 90.0782 11.2173C90.17 11.014 90.201 10.7884 90.1674 10.5679C90.1338 10.3473 90.037 10.1412 89.8888 9.97449C89.7406 9.80773 89.5473 9.68746 89.3323 9.62819C89.1172 9.56892 88.8895 9.57319 88.6768 9.64049C88.4641 9.70779 88.2755 9.83524 88.1336 10.0074C87.9918 10.1796 87.9029 10.3892 87.8776 10.6109C87.8523 10.8325 87.8917 11.0568 87.9911 11.2565C88.1507 11.5368 88.415 11.7424 88.726 11.8281C89.037 11.9138 89.3693 11.8727 89.65 11.7137V11.7137Z" fill="#263238"/>
<path d="M89.9155 13.2138C90.0769 13.1588 90.2189 13.0583 90.3245 12.9245C90.4301 12.7907 90.4947 12.6292 90.5106 12.4594C90.5266 12.2897 90.4931 12.119 90.4143 11.9679C90.3354 11.8167 90.2146 11.6916 90.0662 11.6075C89.9179 11.5235 89.7485 11.4841 89.5783 11.4941C89.4081 11.5042 89.2445 11.5632 89.1071 11.6641C88.9696 11.7649 88.8643 11.9034 88.8038 12.0628C88.7432 12.2221 88.73 12.3956 88.7658 12.5623C88.8329 12.8005 88.9913 13.0025 89.2066 13.1245C89.4219 13.2465 89.6767 13.2786 89.9155 13.2138V13.2138Z" fill="#263238"/>
<path d="M87.827 15.152C89.3244 14.3444 89.954 12.6061 89.2341 11.2675C88.5141 9.92885 86.7183 9.49906 85.2182 10.3039C83.718 11.1087 83.0911 12.8498 83.8111 14.1884C84.531 15.527 86.3296 15.9568 87.827 15.152Z" fill="#263238"/>
<path d="M81.6047 16.9724C81.6684 17.5191 81.5633 18.0722 81.3036 18.5574C80.9504 19.2227 80.4084 19.0913 80.2086 18.5164C80.0197 18.0017 79.9786 17.0327 80.4823 16.5536C80.986 16.0745 81.5143 16.3455 81.6047 16.9724Z" fill="#FFC3BD"/>
<path d="M80.7558 18.7025C80.8051 18.8859 80.7558 19.0584 80.6381 19.0885C80.5204 19.1186 80.3944 18.9954 80.3452 18.8147C80.2959 18.6341 80.3451 18.4589 80.4629 18.4287C80.5806 18.3986 80.7175 18.5191 80.7558 18.7025Z" fill="white"/>
<path d="M81.2539 39.8442C81.2539 39.8442 82.5405 57.0659 83.9531 66.7703C85.0974 74.6105 85.8693 92.9326 85.8693 92.9326H89.2912C89.2912 92.9326 91.0952 75.2374 90.5505 67.4738C89.1817 47.8542 91.9603 44.383 88.741 39.8251L81.2539 39.8442Z" fill="#003350"/>
<path opacity="0.2" d="M84.7169 50.1427C84.7854 54.249 83.7013 57.9473 83.0142 59.2011C82.6446 55.8394 82.3107 52.3327 82.0342 49.2393C83.121 45.7353 84.6512 46.2637 84.7169 50.1427Z" fill="black"/>
<path d="M85.4096 93.001H89.7677L90.0113 91.4707L85.4014 91.3147L85.4096 93.001Z" fill="#263238"/>
<path d="M81.7332 95.5852C81.741 95.5786 81.7471 95.5701 81.7509 95.5606C81.7547 95.551 81.7561 95.5407 81.7551 95.5305C81.754 95.5182 81.7488 95.5067 81.7403 95.4978C81.7319 95.4888 81.7207 95.483 81.7085 95.4812C81.5826 95.4566 80.4766 95.2567 80.2275 95.5031C80.2045 95.5265 80.1877 95.5553 80.1786 95.5868C80.1695 95.6184 80.1685 95.6517 80.1755 95.6838C80.1832 95.7368 80.204 95.7872 80.2361 95.8302C80.2681 95.8732 80.3103 95.9075 80.3589 95.9302C80.6902 96.0862 81.3554 95.7851 81.7277 95.5907L81.7332 95.5852ZM80.3233 95.5852C80.4766 95.462 81.0707 95.5058 81.5114 95.5852C80.9995 95.8343 80.5971 95.9274 80.4164 95.8426C80.3846 95.8272 80.3572 95.8042 80.3366 95.7755C80.316 95.7468 80.303 95.7134 80.2987 95.6783C80.2954 95.6658 80.2954 95.6527 80.2988 95.6402C80.3021 95.6277 80.3087 95.6163 80.3179 95.6071L80.3233 95.5852Z" fill="#003350"/>
<path d="M81.7327 95.5852C81.7372 95.5763 81.7396 95.5665 81.7396 95.5565C81.7396 95.5465 81.7372 95.5366 81.7327 95.5277C81.7327 95.5003 81.4781 94.8734 81.1003 94.7065C81.0459 94.6828 80.9872 94.6706 80.9278 94.6706C80.8685 94.6706 80.8098 94.6828 80.7554 94.7065C80.6021 94.7694 80.5802 94.8625 80.5884 94.9309C80.6212 95.2047 81.3439 95.5633 81.6834 95.6044C81.6926 95.6062 81.7021 95.6053 81.7108 95.6019C81.7195 95.5985 81.7271 95.5927 81.7327 95.5852V95.5852ZM80.7554 94.8433C80.7739 94.8276 80.7953 94.8155 80.8183 94.8077C80.8583 94.7895 80.9017 94.7801 80.9456 94.7801C80.9896 94.7801 81.033 94.7895 81.0729 94.8077C81.3114 94.9633 81.4945 95.1904 81.5958 95.4565C81.2509 95.3662 80.7444 95.0733 80.7253 94.909C80.7225 94.8954 80.7198 94.8707 80.7554 94.8433Z" fill="#003350"/>
<path d="M84.5059 95.1445L82.1024 95.6756L81.6753 93.3077L81.1223 90.2033L81.0566 89.842L83.4602 89.3082L83.5341 89.7161L84.0734 92.7218L84.5059 95.1445Z" fill="#FFC3BD"/>
<path opacity="0.2" d="M84.0731 92.7218L81.675 93.3076L81.1221 90.2033L83.5338 89.716L84.0731 92.7218Z" fill="black"/>
<path d="M78.5661 39.8442C78.5661 39.8442 74.5557 59.9758 74.5557 65.7683C74.5557 70.9094 80.9039 92.2537 80.9039 92.2537L84.3149 91.7062C84.3149 91.7062 82.3521 77.1454 80.9724 66.9947C82.0427 56.0666 87.296 45.7107 85.6261 39.8387L78.5661 39.8442Z" fill="#003350"/>
<path d="M81.7743 95.2129L84.4872 94.4081C84.5331 94.3929 84.583 94.395 84.6274 94.4142C84.6719 94.4334 84.7077 94.4683 84.7281 94.5121L85.6615 96.5516C85.6833 96.6053 85.6934 96.6629 85.6911 96.7208C85.6888 96.7787 85.6742 96.8354 85.6483 96.8872C85.6224 96.939 85.5858 96.9846 85.5409 97.0212C85.496 97.0577 85.4438 97.0843 85.3878 97.0991C84.4351 97.3728 83.9643 97.444 82.7707 97.7999C82.0371 98.0189 80.5397 98.5472 79.5268 98.8483C78.5139 99.1495 78.158 98.1694 78.5632 97.9559C80.3371 96.9868 80.9202 96.2094 81.402 95.4922C81.4893 95.3581 81.6212 95.2593 81.7743 95.2129Z" fill="#263238"/>
<path d="M80.564 92.9216L84.8126 91.8923L84.6347 90.2142L80.085 91.312L80.564 92.9216Z" fill="#263238"/>
<path d="M87.5995 27.4406C87.5502 25.9979 88.4864 24.1556 90.6956 24.6292C91.7386 24.8482 92.8144 28.6068 92.8144 28.6068L90.0085 31.9109C89.0394 31.462 87.6433 28.3549 87.5995 27.4406Z" fill="#263238"/>
<path opacity="0.2" d="M89.5457 27.8266C89.5553 29.1959 89.7151 30.56 90.022 31.8945L90.0056 31.911C89.4307 31.6372 88.708 30.4354 88.207 29.3131L89.5457 27.8266Z" fill="black"/>
<path d="M77.5115 24.7031C77.5115 24.7031 76.3125 25.122 78.5627 39.8443H88.7517C88.6203 35.6969 88.6422 33.1401 90.7063 24.6292C89.2822 24.334 87.8384 24.1437 86.3865 24.0598C84.8463 23.9502 83.3003 23.9502 81.7601 24.0598C79.77 24.2405 77.5115 24.7031 77.5115 24.7031Z" fill="#263238"/>
<path d="M80.3369 24.3828C80.3369 24.3828 81.1582 23.4712 81.9 23.3481C82.6419 23.2249 85.8311 22.8006 87.991 23.1099C87.9249 23.6151 87.8335 24.1167 87.7172 24.6128L80.3369 24.3828Z" fill="#263238"/>
<path opacity="0.2" d="M77.5829 29.7401L79.1569 29.9427C79.0584 31.1362 78.2891 32.5652 77.6705 33.3235C77.5391 32.2285 77.4432 31.2731 77.3721 30.4382C77.4843 30.0084 77.5829 29.7401 77.5829 29.7401Z" fill="black"/>
<path d="M77.512 24.7031C76.261 25.007 74.6924 28.4289 74.6924 28.4289L77.1917 32.3709C77.1917 32.3709 80.3672 30.0002 80.3371 26.5674C80.3234 25.1275 79.0286 24.3336 77.512 24.7031Z" fill="#263238"/>
<path d="M88.9106 39.2475L89.3595 40.1591C89.3951 40.2303 89.3103 40.3014 89.1926 40.3014H78.5163C78.426 40.3014 78.3493 40.2576 78.3438 40.2001L78.2617 39.2886C78.2617 39.2229 78.3356 39.1708 78.4369 39.1708H88.7546C88.7849 39.1697 88.815 39.1761 88.8422 39.1895C88.8695 39.2029 88.893 39.2228 88.9106 39.2475Z" fill="#003350"/>
<path opacity="0.2" d="M88.9106 39.2475L89.3595 40.1591C89.3951 40.2303 89.3103 40.3014 89.1926 40.3014H78.5163C78.426 40.3014 78.3493 40.2576 78.3438 40.2001L78.2617 39.2886C78.2617 39.2229 78.3356 39.1708 78.4369 39.1708H88.7546C88.7849 39.1697 88.815 39.1761 88.8422 39.1895C88.8695 39.2029 88.893 39.2228 88.9106 39.2475Z" fill="black"/>
<path d="M87.5119 40.4H87.7856C87.8404 40.4 87.8842 40.3726 87.8815 40.337L87.7638 39.1462C87.7638 39.1134 87.7145 39.0833 87.6597 39.0833H87.386C87.3312 39.0833 87.2874 39.1134 87.2902 39.1462L87.4106 40.3316C87.4106 40.3726 87.4571 40.4 87.5119 40.4Z" fill="#003350"/>
<path d="M80.8135 40.3999H81.0872C81.142 40.3999 81.1858 40.3726 81.183 40.337L81.0626 39.1516C81.0626 39.1188 81.0133 39.0887 80.9585 39.0887H80.6848C80.63 39.0887 80.5863 39.1188 80.589 39.1516L80.7067 40.337C80.7122 40.3726 80.756 40.3999 80.8135 40.3999Z" fill="#003350"/>
</svg>