<svg width="137" height="102" viewBox="0 0 137 102" fill="none" xmlns="http://www.w3.org/2000/svg">
<path d="M136.875 89.6257H0V89.6942H136.875V89.6257Z" fill="#EBEBEB"/>
<path d="M123.16 94.0304H114.094V94.0988H123.16V94.0304Z" fill="#EBEBEB"/>
<path d="M90.6719 94.7749H88.293V94.8433H90.6719V94.7749Z" fill="#EBEBEB"/>
<path d="M113.82 91.49H108.566V91.5584H113.82V91.49Z" fill="#EBEBEB"/>
<path d="M26.1846 91.9498H14.3613V92.0183H26.1846V91.9498Z" fill="#EBEBEB"/>
<path d="M30.3559 91.9498H28.623V92.0183H30.3559V91.9498Z" fill="#EBEBEB"/>
<path d="M61.6351 93.1051H35.9902V93.1735H61.6351V93.1051Z" fill="#EBEBEB"/>
<path d="M64.8787 77.4165H12.0203C11.6062 77.4158 11.2094 77.2508 10.9168 76.9577C10.6243 76.6646 10.46 76.2675 10.46 75.8534V1.54942C10.4636 1.13771 10.6295 0.744047 10.9216 0.453937C11.2138 0.163828 11.6086 0.000705286 12.0203 0H64.8787C65.2933 0 65.6909 0.164685 65.984 0.457825C66.2772 0.750966 66.4418 1.14855 66.4418 1.56311V75.8534C66.4418 76.268 66.2772 76.6655 65.984 76.9587C65.6909 77.2518 65.2933 77.4165 64.8787 77.4165V77.4165ZM12.0203 0.0547502C11.6244 0.0554754 11.2449 0.213269 10.9652 0.493496C10.6855 0.773724 10.5284 1.15349 10.5284 1.54942V75.8534C10.5284 76.2493 10.6855 76.6291 10.9652 76.9093C11.2449 77.1895 11.6244 77.3473 12.0203 77.3481H64.8787C65.2749 77.3473 65.6547 77.1896 65.9348 76.9095C66.215 76.6293 66.3727 76.2496 66.3734 75.8534V1.54942C66.3727 1.15323 66.215 0.773479 65.9348 0.493329C65.6547 0.21318 65.2749 0.0554738 64.8787 0.0547502H12.0203Z" fill="#EBEBEB"/>
<path d="M124.093 77.4165H71.2321C70.8177 77.4158 70.4206 77.2509 70.1276 76.9579C69.8346 76.6649 69.6697 76.2677 69.6689 75.8534V1.54942C69.6733 1.13746 69.8398 0.7438 70.1324 0.453766C70.425 0.163732 70.8201 0.000697594 71.2321 0H124.093C124.504 0.00142473 124.899 0.164866 125.19 0.454898C125.482 0.74493 125.647 1.13818 125.651 1.54942V75.8534C125.651 76.267 125.487 76.6638 125.195 76.9567C124.903 77.2497 124.507 77.415 124.093 77.4165V77.4165ZM71.2321 0.0547502C70.8359 0.0554738 70.4561 0.21318 70.176 0.493329C69.8958 0.773479 69.7381 1.15323 69.7374 1.54942V75.8534C69.7381 76.2496 69.8958 76.6293 70.176 76.9095C70.4561 77.1896 70.8359 77.3473 71.2321 77.3481H124.093C124.489 77.3473 124.869 77.1896 125.149 76.9095C125.429 76.6293 125.587 76.2496 125.588 75.8534V1.54942C125.587 1.15323 125.429 0.773479 125.149 0.493329C124.869 0.21318 124.489 0.0554738 124.093 0.0547502H71.2321Z" fill="#EBEBEB"/>
<path d="M40.9068 39.2804H39.0645V89.6942H40.9068V39.2804Z" fill="#F5F5F5"/>
<path d="M48.191 45.6807H46.3486V89.6942H48.191V45.6807Z" fill="#F5F5F5"/>
<path d="M55.4068 52.0809H53.5645V89.6942H55.4068V52.0809Z" fill="#F5F5F5"/>
<path d="M62.6255 47.8131H60.7832V89.6941H62.6255V47.8131Z" fill="#F5F5F5"/>
<path d="M69.8443 45.6807H68.002V89.6942H69.8443V45.6807Z" fill="#F5F5F5"/>
<path d="M77.0611 41.4128H75.2188V89.6941H77.0611V41.4128Z" fill="#F5F5F5"/>
<path d="M84.2798 43.5481H82.4375V89.6941H84.2798V43.5481Z" fill="#F5F5F5"/>
<path d="M91.4986 41.4128H89.6562V89.6941H91.4986V41.4128Z" fill="#F5F5F5"/>
<path d="M98.7144 37.1451H96.8721V89.6915H98.7144V37.1451Z" fill="#F5F5F5"/>
<path d="M105.933 32.8801H104.091V89.6942H105.933V32.8801Z" fill="#F5F5F5"/>
<path d="M113.149 28.6123H111.307V89.6941H113.149V28.6123Z" fill="#F5F5F5"/>
<path d="M54.476 49.0834C54.3734 49.0793 54.2759 49.0374 54.2023 48.9657L38.7792 33.9286C38.7012 33.8524 38.6566 33.7483 38.6553 33.6392C38.654 33.5301 38.6961 33.425 38.7724 33.3469C38.8486 33.2689 38.9527 33.2243 39.0618 33.223C39.1709 33.2217 39.276 33.2638 39.3541 33.3401L54.528 48.1363L75.8997 32.5325C75.9824 32.4735 76.084 32.447 76.1849 32.4581C76.2859 32.4692 76.3793 32.5172 76.4472 32.5927L83.4443 40.5151L112.407 23.9203C112.454 23.8935 112.506 23.8763 112.559 23.8695C112.613 23.8627 112.667 23.8665 112.719 23.8807C112.771 23.895 112.82 23.9193 112.863 23.9524C112.906 23.9855 112.941 24.0267 112.968 24.0736C112.995 24.1205 113.012 24.1723 113.019 24.2259C113.026 24.2795 113.022 24.3339 113.008 24.386C112.994 24.4381 112.969 24.4869 112.936 24.5296C112.903 24.5723 112.862 24.608 112.815 24.6348L83.562 41.3993C83.4798 41.4457 83.3842 41.4626 83.291 41.4472C83.1979 41.4317 83.1129 41.3849 83.0501 41.3144L76.0804 33.4304L54.7279 49.004C54.655 49.0575 54.5664 49.0854 54.476 49.0834V49.0834Z" fill="#F0F0F0"/>
<path d="M52.7379 89.3794L39.2776 36.2966L39.9511 33.6439H39.2503V18.4836H37.4435V33.6439H36.7427L37.4161 36.2966L23.9531 89.3794H25.8174L37.4435 43.5318V89.6586H39.2503V43.5318L50.8764 89.3794H52.7379Z" fill="#E0E0E0"/>
<path d="M48.4885 35.7691C49.8107 30.1673 46.3413 24.5543 40.7395 23.2322C35.1377 21.91 29.5247 25.3794 28.2026 30.9812C26.8804 36.583 30.3498 42.196 35.9516 43.5181C41.5534 44.8403 47.1664 41.3709 48.4885 35.7691Z" fill="#E6E6E6"/>
<path d="M38.3471 42.2752C43.2607 42.2752 47.2439 38.2919 47.2439 33.3783C47.2439 28.4647 43.2607 24.4814 38.3471 24.4814C33.4335 24.4814 29.4502 28.4647 29.4502 33.3783C29.4502 38.2919 33.4335 42.2752 38.3471 42.2752Z" fill="#F5F5F5"/>
<path d="M38.347 40.3425C42.1932 40.3425 45.3112 37.2245 45.3112 33.3783C45.3112 29.532 42.1932 26.4141 38.347 26.4141C34.5008 26.4141 31.3828 29.532 31.3828 33.3783C31.3828 37.2245 34.5008 40.3425 38.347 40.3425Z" fill="#E6E6E6"/>
<path d="M40.5323 38.6503C43.4446 37.444 44.8276 34.1051 43.6213 31.1928C42.415 28.2805 39.0762 26.8975 36.1638 28.1038C33.2515 29.3102 31.8685 32.649 33.0749 35.5613C34.2812 38.4736 37.62 39.8566 40.5323 38.6503Z" fill="#F5F5F5"/>
<path d="M42.2014 34.285C42.704 32.1558 41.3853 30.0224 39.2561 29.5199C37.1269 29.0173 34.9935 30.336 34.491 32.4652C33.9884 34.5944 35.3071 36.7278 37.4363 37.2304C39.5655 37.7329 41.6989 36.4142 42.2014 34.285Z" fill="#E6E6E6"/>
<path d="M39.4365 36.005C40.8878 35.4038 41.5769 33.74 40.9758 32.2887C40.3747 30.8375 38.7109 30.1483 37.2596 30.7494C35.8083 31.3506 35.1192 33.0144 35.7203 34.4656C36.3214 35.9169 37.9852 36.6061 39.4365 36.005Z" fill="#F5F5F5"/>
<path d="M39.636 33.3783C39.636 33.634 39.5601 33.8839 39.418 34.0964C39.2759 34.309 39.0739 34.4746 38.8377 34.5723C38.6014 34.67 38.3415 34.6954 38.0908 34.6454C37.8401 34.5953 37.6098 34.4719 37.4292 34.291C37.2486 34.11 37.1258 33.8795 37.0763 33.6287C37.0267 33.3779 37.0527 33.118 37.1509 32.8819C37.2491 32.6459 37.4152 32.4443 37.628 32.3026C37.8408 32.161 38.0909 32.0856 38.3466 32.0862C38.5161 32.0862 38.684 32.1196 38.8406 32.1846C38.9973 32.2496 39.1395 32.3448 39.2593 32.4648C39.379 32.5848 39.474 32.7273 39.5386 32.884C39.6032 33.0408 39.6363 33.2087 39.636 33.3783Z" fill="#E6E6E6"/>
<path d="M24.9711 24.7826L25.253 26.666L23.293 27.3257L25.253 28.355L27.2076 27.6679L26.8654 25.8119L24.9711 24.7826Z" fill="#E6E6E6"/>
<path d="M38.3468 33.652C38.3031 33.6515 38.2601 33.6412 38.2209 33.6219L24.1967 26.4333C24.1343 26.399 24.0877 26.3417 24.0668 26.2737C24.0458 26.2056 24.0523 26.1321 24.0847 26.0687C24.1171 26.0053 24.1729 25.957 24.2404 25.9341C24.3078 25.9112 24.3815 25.9155 24.4458 25.946L38.47 33.1237C38.5345 33.1565 38.5833 33.2135 38.6059 33.2823C38.6285 33.351 38.6229 33.4259 38.5904 33.4905C38.5692 33.5377 38.5351 33.5779 38.492 33.6065C38.4489 33.6351 38.3985 33.6509 38.3468 33.652V33.652Z" fill="#E0E0E0"/>
<path d="M57.6465 21.67C57.6452 21.2934 57.7323 20.9217 57.9008 20.5848C58.0694 20.248 58.3146 19.9554 58.6169 19.7306C58.9192 19.5059 59.27 19.3552 59.6411 19.2908C60.0122 19.2263 60.3932 19.2499 60.7536 19.3596C60.6465 18.6332 60.6974 17.8924 60.9025 17.1874C61.1077 16.4825 61.4625 15.83 61.9426 15.2746C62.4227 14.7191 63.0169 14.2737 63.6847 13.9686C64.3525 13.6636 65.0783 13.5061 65.8125 13.5068C66.1275 13.5067 66.4418 13.536 66.7514 13.5944C67.2552 12.7665 68.0146 12.1248 68.915 11.7662C69.8154 11.4077 70.808 11.3516 71.7431 11.6065C72.6782 11.8615 73.505 12.4136 74.0988 13.1795C74.6926 13.9455 75.0212 14.8838 75.0351 15.8529H75.1118C76.2037 15.8529 77.2509 16.2866 78.0231 17.0588C78.7952 17.8309 79.229 18.8781 79.229 19.9701C79.229 21.062 78.7952 22.1092 78.0231 22.8814C77.2509 23.6535 76.2037 24.0873 75.1118 24.0873H59.9898C59.3612 24.0694 58.7643 23.8067 58.3266 23.3552C57.8889 22.9036 57.6448 22.2989 57.6465 21.67Z" fill="#F0F0F0"/>
<path d="M100.595 20.345C100.595 20.0365 100.717 19.7405 100.936 19.5224C101.154 19.3042 101.45 19.1816 101.758 19.1816C101.871 19.1826 101.984 19.1992 102.092 19.2309C102.075 19.113 102.066 18.9941 102.065 18.875C102.065 18.5128 102.144 18.1551 102.298 17.8273C102.452 17.4994 102.676 17.2095 102.955 16.9782C103.233 16.7468 103.56 16.5798 103.91 16.4889C104.261 16.398 104.627 16.3855 104.983 16.4523C105.227 16.0542 105.593 15.7461 106.028 15.5744C106.462 15.4027 106.94 15.3766 107.39 15.5001C107.84 15.6236 108.238 15.89 108.524 16.2593C108.81 16.6285 108.968 17.0805 108.974 17.5473H109.01C109.536 17.5473 110.041 17.7564 110.413 18.1286C110.785 18.5008 110.995 19.0056 110.995 19.532C110.995 20.0584 110.785 20.5632 110.413 20.9354C110.041 21.3076 109.536 21.5167 109.01 21.5167H101.725C101.421 21.5088 101.132 21.3815 100.92 21.1623C100.709 20.9432 100.592 20.6496 100.595 20.345V20.345Z" fill="#F0F0F0"/>
<path d="M25.9299 21.7932C25.9299 21.6905 25.9502 21.5889 25.9896 21.494C26.029 21.3992 26.0867 21.3131 26.1594 21.2406C26.2321 21.1681 26.3185 21.1107 26.4134 21.0716C26.5084 21.0326 26.6102 21.0127 26.7129 21.013C26.7889 21.0128 26.8645 21.0239 26.9373 21.0459C26.9254 20.9661 26.919 20.8856 26.9182 20.805C26.9217 20.3705 27.0959 19.9548 27.4032 19.6475C27.7105 19.3403 28.1262 19.1661 28.5607 19.1625C28.6636 19.1629 28.7662 19.173 28.8673 19.1926C29.0297 18.9234 29.2755 18.7146 29.5674 18.5977C29.8593 18.4808 30.1813 18.4623 30.4847 18.545C30.788 18.6276 31.0561 18.8069 31.2484 19.0557C31.4406 19.3045 31.5465 19.6091 31.55 19.9235H31.5747C31.9181 19.9391 32.2424 20.0865 32.48 20.335C32.7175 20.5836 32.8501 20.9142 32.8501 21.258C32.8501 21.6019 32.7175 21.9325 32.48 22.181C32.2424 22.4296 31.9181 22.577 31.5747 22.5926H26.691C26.5885 22.5901 26.4875 22.5674 26.3938 22.5259C26.3001 22.4844 26.2155 22.4248 26.1448 22.3506C26.0741 22.2763 26.0188 22.1889 25.9819 22.0933C25.945 21.9976 25.9274 21.8957 25.9299 21.7932V21.7932Z" fill="#F0F0F0"/>
<path d="M68.4377 101.988C97.7516 101.988 121.515 100.601 121.515 98.8895C121.515 97.178 97.7516 95.7906 68.4377 95.7906C39.1239 95.7906 15.3604 97.178 15.3604 98.8895C15.3604 100.601 39.1239 101.988 68.4377 101.988Z" fill="#F5F5F5"/>
<path d="M37.8809 46.6907L39.7588 45.6176C39.7588 45.6176 40.4815 44.5035 40.6977 44.4515C40.914 44.3994 43.2956 44.4515 43.2956 44.4515C43.2956 44.4515 42.937 45.9954 42.8987 46.2993C42.8604 46.6031 40.5882 46.2993 40.5882 46.2993L38.7486 47.3943L37.8809 46.6907Z" fill="#EBB376"/>
<path d="M20.3913 96.6338L18.4257 96.2423C18.3907 96.2421 18.3566 96.254 18.3292 96.2759C18.3018 96.2978 18.2827 96.3285 18.2752 96.3628L17.7468 98.3283C17.7357 98.3955 17.75 98.4644 17.787 98.5216C17.8239 98.5788 17.8809 98.6202 17.9467 98.6376H18.0042C18.6995 98.6376 19.2059 98.5829 20.0765 98.5829C20.624 98.5829 22.2336 98.6404 22.9755 98.6404C23.7173 98.6404 23.8159 97.9067 23.523 97.841C22.1542 97.5426 21.1359 97.132 20.7006 96.746C20.6163 96.6693 20.5051 96.629 20.3913 96.6338V96.6338Z" fill="#263238"/>
<path d="M44.4452 96.568H42.299C42.2638 96.5673 42.2295 96.579 42.2019 96.601C42.1744 96.623 42.1555 96.654 42.1485 96.6885L41.7981 98.2762C41.7878 98.3434 41.8028 98.4119 41.8403 98.4686C41.8777 98.5252 41.9349 98.566 42.0006 98.5828H42.0581C42.7535 98.5691 43.2572 98.5281 44.1304 98.5281C44.6779 98.5281 46.2876 98.5828 47.0294 98.5828C47.7713 98.5828 47.8671 97.8519 47.5633 97.7835C46.1945 97.4878 45.1762 97.0745 44.7409 96.6885C44.7022 96.6496 44.6561 96.6188 44.6053 96.5981C44.5545 96.5774 44.5001 96.5672 44.4452 96.568V96.568Z" fill="#263238"/>
<path d="M24.1802 60.4084L33.2687 58.1034C35.33 62.6038 42.8937 81.082 44.7279 96.4558L41.6509 97.236C41.6509 97.236 36.2033 74.564 31.6344 67.9447C31.6344 67.9447 31.3908 78.0078 30.8953 79.4723C30.4874 80.6768 21.1334 96.7925 21.1334 96.7925L18.0947 96.4503C18.0947 96.4503 25.7324 80.0034 26.1813 77.953C26.4989 76.5569 25.1082 66.3022 25.1082 66.3022C24.8646 65.3879 24.4977 61.6019 24.4977 61.6019C24.4977 61.6019 24.224 60.5973 24.1802 60.4084Z" fill="#003350"/>
<path opacity="0.2" d="M31.6368 67.9502C32.408 69.1169 33.081 70.3457 33.6488 71.6239C33.0192 68.0816 31.0674 64.6515 31.0674 64.6515L31.6368 67.9502Z" fill="black"/>
<path opacity="0.3" d="M24.1802 60.4084L33.2687 58.1034C35.33 62.6038 42.8937 81.082 44.7279 96.4558L41.6509 97.236C41.6509 97.236 36.2033 74.564 31.6344 67.9447C31.6344 67.9447 31.3908 78.0078 30.8953 79.4723C30.4874 80.6768 21.1334 96.7925 21.1334 96.7925L18.0947 96.4503C18.0947 96.4503 25.7324 80.0034 26.1813 77.953C26.4989 76.5569 25.1082 66.3022 25.1082 66.3022C24.8646 65.3879 24.4977 61.6019 24.4977 61.6019C24.4977 61.6019 24.224 60.5973 24.1802 60.4084Z" fill="black"/>
<path d="M39.9806 46.8468C39.9806 46.8468 35.8361 49.6445 34.7438 49.7924C34.3085 49.8526 33.4106 49.7048 32.4826 49.5186C31.0755 49.2175 29.6082 48.7959 29.6082 48.7959L29.4248 47.408L29.2305 45.9243C29.559 45.8148 33.8459 47.5668 34.4865 47.8405C35.127 48.1143 39.2689 45.6505 39.2689 45.6505L39.9806 46.8468Z" fill="#263238"/>
<path d="M27.1637 59.7678L27.432 60.819L24.4974 61.602L24.2236 60.5124L27.1637 59.7678Z" fill="black"/>
<path d="M31.7926 58.5934L32.0472 59.5898L27.7575 60.7341L27.4893 59.6856L31.7926 58.5934Z" fill="black"/>
<path d="M33.736 59.1409L32.37 59.505L32.1182 58.5113L33.3719 58.1937L33.736 59.1409Z" fill="black"/>
<path d="M29.4594 60.2809L31.1523 59.8516L30.8428 58.631L29.1499 59.0603L29.4594 60.2809Z" fill="white"/>
<path d="M33.3702 58.191L24.2215 60.5124C23.7752 59.3052 23.3208 58.0897 22.8773 56.9044C22.5516 56.0366 22.2313 55.1852 21.9192 54.3613C21.8407 54.1496 21.7614 53.9415 21.6811 53.7371L21.4073 53.0089C21.2047 52.476 21.0095 51.9623 20.8215 51.4677L20.3178 50.151L20.0796 49.5268L19.6279 48.3497L29.2338 45.9133C32.4011 51.4403 33.3702 58.191 33.3702 58.191Z" fill="#263238"/>
<path d="M23.1148 48.1142C24.103 48.5878 25.9262 47.7528 25.9262 47.7528C25.9262 47.7528 26.5312 47.0849 26.1699 46.7892C25.4362 46.8851 25.4827 46.6442 25.2172 46.2691C25.0654 46.0324 24.9612 45.7683 24.9106 45.4917C24.8778 45.3389 24.8531 45.1845 24.8367 45.029L21.9541 43.9943C22.6084 45.0509 23.624 47.052 23.1148 48.1142Z" fill="#EBB376"/>
<path opacity="0.2" d="M22.8301 44.9387C23.3502 46.3212 24.6259 46.3622 25.2172 46.2691C25.0653 46.0324 24.9612 45.7683 24.9106 45.4917L22.8301 44.9387Z" fill="black"/>
<path d="M26.5859 39.6937C26.5859 39.6937 27.3387 41.9659 26.2519 43.0745C25.1651 44.1832 24.4287 39.8388 24.4287 39.8388L26.5859 39.6937Z" fill="#263238"/>
<path d="M22.9729 45.5493C23.2981 45.8886 23.7256 46.112 24.1899 46.1852C24.6542 46.2583 25.1296 46.1773 25.5435 45.9544C26.086 45.674 26.5011 45.1972 26.7042 44.6213C26.7315 44.5446 26.7562 44.4625 26.7781 44.3803C27.1449 42.8501 26.9149 40.3234 25.2478 39.6445C24.8804 39.493 24.4803 39.438 24.0856 39.4848C23.6909 39.5316 23.3148 39.6786 22.9929 39.9118C22.6711 40.145 22.4143 40.4567 22.2469 40.8172C22.0795 41.1777 22.0072 41.575 22.0367 41.9714C22.1353 43.6768 22.1134 44.6787 22.9729 45.5493Z" fill="#EBB376"/>
<path d="M24.6182 42.4558C24.6182 42.5927 24.6893 42.7049 24.7824 42.7049C24.8755 42.7049 24.9439 42.5927 24.9467 42.4558C24.9494 42.319 24.8728 42.204 24.7824 42.204C24.6921 42.204 24.6182 42.3162 24.6182 42.4558Z" fill="#263238"/>
<path d="M26.1836 42.4558C26.1836 42.5954 26.2575 42.7076 26.3478 42.7076C26.4382 42.7076 26.5094 42.5927 26.5121 42.4558C26.5148 42.3189 26.4354 42.2067 26.3478 42.2067C26.2602 42.2067 26.1836 42.3244 26.1836 42.4558Z" fill="#263238"/>
<path d="M25.6852 42.5243C25.8488 42.9482 26.0709 43.3472 26.3449 43.7096C26.2499 43.7777 26.141 43.8241 26.026 43.8453C25.9111 43.8666 25.7928 43.8624 25.6797 43.8328L25.6852 42.5243Z" fill="#D58745"/>
<path d="M26.7562 41.8153C26.743 41.822 26.7285 41.8255 26.7137 41.8255C26.699 41.8255 26.6844 41.822 26.6713 41.8153C26.5904 41.753 26.4959 41.7107 26.3956 41.6916C26.2952 41.6726 26.1918 41.6775 26.0937 41.7058C26.0737 41.7134 26.0516 41.7128 26.0321 41.704C26.0125 41.6953 25.9973 41.6792 25.9897 41.6592C25.9821 41.6392 25.9827 41.6171 25.9914 41.5976C26.0001 41.5781 26.0162 41.5628 26.0362 41.5552C26.159 41.5164 26.2893 41.5079 26.4161 41.5303C26.5429 41.5527 26.6623 41.6054 26.7644 41.6839C26.7734 41.6897 26.7811 41.6972 26.787 41.706C26.793 41.7149 26.7972 41.7248 26.7992 41.7353C26.8012 41.7458 26.8012 41.7566 26.7989 41.767C26.7967 41.7775 26.7924 41.7873 26.7863 41.7961V41.7961C26.7771 41.8037 26.767 41.8102 26.7562 41.8153V41.8153Z" fill="#263238"/>
<path d="M24.3085 41.8344C24.2928 41.8324 24.2778 41.8267 24.2647 41.818C24.2496 41.8027 24.2412 41.782 24.2412 41.7605C24.2412 41.739 24.2496 41.7184 24.2647 41.703V41.703C24.3604 41.6154 24.4758 41.5523 24.6012 41.5189C24.7265 41.4855 24.8581 41.483 24.9846 41.5114C25.0046 41.5177 25.0214 41.5315 25.0316 41.5498C25.0418 41.5681 25.0446 41.5896 25.0394 41.61V41.61C25.033 41.6307 25.019 41.6481 25.0002 41.6588C24.9813 41.6695 24.9591 41.6726 24.9381 41.6674V41.6674C24.8383 41.6474 24.7351 41.6513 24.637 41.6789C24.539 41.7065 24.4489 41.757 24.3742 41.8262C24.3644 41.8321 24.3535 41.8358 24.3422 41.8372C24.3309 41.8387 24.3194 41.8377 24.3085 41.8344V41.8344Z" fill="#263238"/>
<path d="M23.285 39.8579L23.4492 40.1727C22.9017 40.3835 23.0386 41.0296 23.1755 41.317C23.4492 41.9357 23.1344 42.9294 22.6718 43.3427C22.6718 43.3427 22.6416 43.069 22.4144 43.1456C22.1872 43.2223 22.3186 44.6403 22.8004 45.2973C22.8004 45.2973 22.0914 44.7142 21.637 43.2415C21.2181 41.8727 21.1196 40.7312 21.3797 40.1837L23.285 39.8579Z" fill="#263238"/>
<path d="M21.2922 43.3729C21.3853 43.564 21.5152 43.7349 21.6744 43.8759C21.8336 44.0168 22.0191 44.1249 22.2202 44.1941C22.7677 44.3748 23.0414 43.9012 22.9319 43.3729C22.8169 42.9102 22.4036 42.2395 21.8369 42.2915C21.7174 42.3049 21.6032 42.3478 21.5044 42.4164C21.4057 42.4851 21.3257 42.5773 21.2716 42.6846C21.2175 42.792 21.1911 42.9112 21.1947 43.0313C21.1982 43.1515 21.2318 43.2689 21.2922 43.3729V43.3729Z" fill="#EBB376"/>
<path d="M23.268 46.2336C24.0728 46.7975 25.6414 46.9809 26.4106 45.9598C27.1798 44.9387 26.9335 43.299 26.9335 43.299C26.8451 43.6652 26.6768 44.0073 26.4407 44.3009C26.0055 43.7753 25.2663 44.0737 25.2663 44.0737C25.1106 43.871 24.8871 43.731 24.6367 43.6795C24.2781 43.6439 23.268 43.7041 23.268 43.7041C22.9449 43.4988 22.9312 42.5845 22.9312 42.5845L22.7341 42.7487C22.7341 42.7487 22.4604 45.6669 23.268 46.2336Z" fill="#263238"/>
<path d="M25.4196 40.4382C25.4196 40.4382 27.3359 39.5075 27.1086 38.5767C26.8814 37.646 26.323 38.7081 26.323 38.7081C26.323 38.7081 26.5803 38.0019 26.0766 37.8869C25.5729 37.7719 25.7317 38.2236 25.4579 38.4946C25.1842 38.7656 22.5288 38.3714 21.672 38.9025C20.8151 39.4336 21.4694 41.2704 21.4694 41.2704C21.9754 40.7624 22.6187 40.4131 23.3204 40.2652C24.0221 40.1174 24.7516 40.1775 25.4196 40.4382V40.4382Z" fill="#263238"/>
<path opacity="0.2" d="M23.268 46.2336C24.0728 46.7975 25.6414 46.9809 26.4106 45.9598C27.1798 44.9387 26.9335 43.299 26.9335 43.299C26.8451 43.6652 26.6768 44.0073 26.4407 44.3009C26.0055 43.7753 25.2663 44.0737 25.2663 44.0737C25.1106 43.871 24.8871 43.731 24.6367 43.6795C24.2781 43.6439 23.268 43.7041 23.268 43.7041C22.9449 43.4988 22.9312 42.5845 22.9312 42.5845L22.7341 42.7487C22.7341 42.7487 22.4604 45.6669 23.268 46.2336Z" fill="white"/>
<path d="M25.3492 44.5939C25.2019 44.7911 25.0692 44.9988 24.9522 45.2153L24.8291 45.1688C24.2816 44.9689 24.0845 44.6952 24.0407 44.4488C24.0229 44.3295 24.0332 44.2076 24.0708 44.0929C24.0907 44.0266 24.1192 43.9631 24.1556 43.9041C24.4436 44.179 24.7871 44.389 25.163 44.52C25.2753 44.5693 25.3492 44.5939 25.3492 44.5939Z" fill="#263238"/>
<path d="M25.1626 44.5227L25.0394 44.7034C24.5193 44.5145 24.1771 44.3119 24.0703 44.0956C24.0903 44.0292 24.1188 43.9657 24.1552 43.9067C24.4431 44.1817 24.7866 44.3917 25.1626 44.5227V44.5227Z" fill="white"/>
<path d="M24.8284 45.1687C24.2809 44.9689 24.0838 44.6951 24.04 44.4487C24.2491 44.5301 24.4426 44.6467 24.6122 44.7937C24.7219 44.8928 24.7976 45.0241 24.8284 45.1687V45.1687Z" fill="#DE5753"/>
<path d="M26.2876 47.7556L26.1261 49.1736L29.0826 55.4726L28.7897 56.3076L27.8233 55.8614L25.7154 49.4364L24.166 48.388L25.2939 47.7693L26.2876 47.7556Z" fill="#003350"/>
<path d="M23.1808 46.7866L25.1381 47.5941L25.2175 46.2692L26.6602 46.625L26.7834 48.6426L25.3955 48.0759L24.8151 49.368L22.3486 47.72L23.1808 46.7866Z" fill="#263238"/>
<path opacity="0.2" d="M23.1808 46.7866L25.1381 47.5941L25.2175 46.2692L26.6602 46.625L26.7834 48.6426L25.3955 48.0759L24.8151 49.368L22.3486 47.72L23.1808 46.7866Z" fill="white"/>
<path opacity="0.2" d="M21.4039 53.0088C21.2013 52.4759 21.006 51.9622 20.818 51.4676L20.3143 50.1509L20.0762 49.5267C20.3499 49.3926 21.048 49.472 21.2423 49.8005C21.9541 51.0433 21.4039 53.0088 21.4039 53.0088Z" fill="black"/>
<path opacity="0.2" d="M24.8346 54.3996C24.7176 54.9374 24.4809 55.4419 24.1421 55.8756C23.8032 56.3092 23.3709 56.6609 22.8773 56.9044C22.5515 56.0366 22.2312 55.1852 21.9191 54.3612C21.8407 54.1495 21.7613 53.9415 21.681 53.7371L21.4072 53.0089L24.5773 53.4113L24.8346 54.3996Z" fill="black"/>
<path opacity="0.2" d="M32.4826 49.5077C31.0755 49.2066 29.6082 48.785 29.6082 48.785L29.4248 47.3971C29.4248 47.3971 32.0117 47.6736 32.4826 49.5077Z" fill="black"/>
<path d="M19.6245 81.8512C19.5387 81.8541 19.4541 81.83 19.3827 81.7823C19.3113 81.7346 19.2567 81.6657 19.2265 81.5853C19.1962 81.5049 19.192 81.4171 19.2143 81.3342C19.2366 81.2513 19.2843 81.1774 19.3508 81.123C23.9197 77.3727 23.8321 71.4952 23.7472 65.8095C23.6815 61.5225 23.6213 57.471 25.6388 54.7171C28.4694 50.8463 39.8546 44.7061 41.7408 44.5309C43.0904 44.3967 84.2541 32.9567 105.834 26.926C105.939 26.8966 106.051 26.9101 106.146 26.9635C106.241 27.0169 106.311 27.1058 106.34 27.2107C106.37 27.3156 106.356 27.4279 106.303 27.5229C106.249 27.6179 106.161 27.6877 106.056 27.7171C103.502 28.4316 43.5092 45.1933 41.8174 45.3494C40.1941 45.4999 28.9238 51.6155 26.3013 55.2044C24.448 57.7366 24.5055 61.6539 24.5684 65.7985C24.6506 71.4049 24.7464 77.7614 19.8709 81.7609C19.8011 81.8175 19.7144 81.8493 19.6245 81.8512V81.8512Z" fill="#263238"/>
<path opacity="0.4" d="M106.069 27.7144L100.441 29.2912C84.9604 33.611 43.2273 45.2235 41.8311 45.3521C40.2078 45.5027 28.9375 51.6183 26.315 55.2071C24.4617 57.7393 24.5192 61.6567 24.5821 65.8013C24.6643 71.4077 24.7601 77.7641 19.8846 81.7636C19.8079 81.8273 19.7104 81.8604 19.6108 81.8567C19.525 81.8596 19.4405 81.8354 19.3691 81.7878C19.2977 81.7401 19.243 81.6712 19.2128 81.5908C19.1826 81.5104 19.1783 81.4226 19.2006 81.3397C19.2229 81.2568 19.2706 81.1829 19.3371 81.1285C23.906 77.3781 23.8184 71.5007 23.7335 65.815C23.6678 61.528 23.6076 57.4765 25.6251 54.7226C28.4557 50.8518 39.841 44.7116 41.7271 44.5364C42.9973 44.4104 79.4663 34.2872 101.755 28.0676L105.82 26.9315C105.925 26.9021 106.037 26.9156 106.132 26.969C106.227 27.0224 106.297 27.1113 106.327 27.2162C106.356 27.3211 106.343 27.4334 106.289 27.5284C106.236 27.6234 106.147 27.6932 106.042 27.7226L106.069 27.7144Z" fill="white"/>
<path opacity="0.2" d="M106.07 27.7145L100.441 29.2913C100.836 28.8285 101.287 28.4165 101.783 28.0649L105.848 26.9288C105.953 26.8994 106.065 26.9129 106.16 26.9663C106.255 27.0197 106.325 27.1086 106.354 27.2135C106.384 27.3184 106.37 27.4307 106.317 27.5257C106.264 27.6207 106.175 27.6906 106.07 27.72V27.7145Z" fill="black"/>
<path d="M22.4229 53.6002L24.5745 53.4113C24.5745 53.4113 25.6996 52.6995 25.9159 52.7461C26.1322 52.7926 28.2756 53.8411 28.2756 53.8411C28.2756 53.8411 27.3038 55.0921 27.1423 55.3522C26.9808 55.6123 25.0454 54.3858 25.0454 54.3858L22.9129 54.6131L22.4229 53.6002Z" fill="#EBB376"/>
<path d="M19.6248 48.3496C18.6475 49.0477 16.1016 54.7389 16.3726 55.6177C16.6436 56.4964 24.5659 54.7636 24.5659 54.7636L24.2155 53.2826H19.9533L20.9661 51.6839C20.9661 51.6839 21.5903 51.0762 21.207 49.6636C20.9306 48.6453 19.6248 48.3496 19.6248 48.3496Z" fill="#263238"/>
<path d="M112.725 28.7245L111.005 17.7745L101.95 24.1776L104.961 25.4532C102.054 32.1163 92.6231 51.6374 76.3952 66.0312C55.675 84.4135 26.674 93.4582 26.3838 93.5458L27.988 98.7826C29.2198 98.4049 58.3961 89.3164 80.0388 70.1183C97.285 54.8211 106.981 34.6457 110.025 27.583L112.725 28.7245Z" fill="#003350"/>
<path opacity="0.4" d="M111.082 26.8083L111.005 17.7745L101.95 24.1776L104.961 25.4532C102.054 32.1163 92.6231 51.6374 76.3952 66.0312C55.675 84.4135 26.674 93.4582 26.3838 93.5458L26.893 96.8664C28.1248 96.4886 57.3011 88.2214 78.9438 69.0233C96.19 53.7261 105.339 33.277 108.383 26.2142L111.082 26.8083Z" fill="white"/>
<path d="M109.5 29.1872C109.457 29.1875 109.415 29.1811 109.374 29.168L104.115 27.468C104.061 27.454 104.01 27.4291 103.966 27.3947C103.922 27.3604 103.885 27.3174 103.858 27.2683C103.831 27.2193 103.815 27.1653 103.809 27.1096C103.804 27.0538 103.81 26.9976 103.827 26.9444C103.845 26.8911 103.873 26.842 103.909 26.7999C103.946 26.7578 103.991 26.7237 104.042 26.6997C104.092 26.6757 104.147 26.6622 104.203 26.6602C104.259 26.6582 104.315 26.6676 104.367 26.6879L109.626 28.3851C109.719 28.4148 109.799 28.477 109.851 28.5605C109.903 28.644 109.923 28.7432 109.908 28.8403C109.892 28.9373 109.843 29.0256 109.768 29.0893C109.693 29.1529 109.598 29.1877 109.5 29.1872V29.1872Z" fill="#263238"/>
<path opacity="0.4" d="M109.5 29.1872C109.457 29.1875 109.415 29.1811 109.374 29.168L104.115 27.468C104.061 27.454 104.01 27.4291 103.966 27.3947C103.922 27.3604 103.885 27.3174 103.858 27.2683C103.831 27.2193 103.815 27.1653 103.809 27.1096C103.804 27.0538 103.81 26.9976 103.827 26.9444C103.845 26.8911 103.873 26.842 103.909 26.7999C103.946 26.7578 103.991 26.7237 104.042 26.6997C104.092 26.6757 104.147 26.6622 104.203 26.6602C104.259 26.6582 104.315 26.6676 104.367 26.6879L109.626 28.3851C109.719 28.4148 109.799 28.477 109.851 28.5605C109.903 28.644 109.923 28.7432 109.908 28.8403C109.892 28.9373 109.843 29.0256 109.768 29.0893C109.693 29.1529 109.598 29.1877 109.5 29.1872V29.1872Z" fill="white"/>
</svg>