<svg width="137" height="118" viewBox="0 0 137 118" fill="none" xmlns="http://www.w3.org/2000/svg">
<path d="M136.875 104.682H0V104.75H136.875V104.682Z" fill="#EBEBEB"/>
<path d="M123.16 109.087H114.094V109.155H123.16V109.087Z" fill="#EBEBEB"/>
<path d="M90.6714 109.831H88.2925V109.9H90.6714V109.831Z" fill="#EBEBEB"/>
<path d="M113.82 106.546H108.566V106.615H113.82V106.546Z" fill="#EBEBEB"/>
<path d="M26.1846 107.006H14.3613V107.075H26.1846V107.006Z" fill="#EBEBEB"/>
<path d="M30.3559 107.006H28.623V107.075H30.3559V107.006Z" fill="#EBEBEB"/>
<path d="M61.6351 108.161H35.9902V108.23H61.6351V108.161Z" fill="#EBEBEB"/>
<path d="M64.8787 92.4728H12.0203C11.6062 92.472 11.2094 92.307 10.9168 92.014C10.6243 91.7209 10.46 91.3238 10.46 90.9097V16.6057C10.4636 16.194 10.6295 15.8003 10.9216 15.5102C11.2138 15.2201 11.6086 15.057 12.0203 15.0563H64.8787C65.2933 15.0563 65.6909 15.221 65.984 15.5141C66.2772 15.8072 66.4418 16.2048 66.4418 16.6194V90.9097C66.4418 91.3242 66.2772 91.7218 65.984 92.015C65.6909 92.3081 65.2933 92.4728 64.8787 92.4728V92.4728ZM12.0203 15.111C11.6244 15.1117 11.2449 15.2695 10.9652 15.5498C10.6855 15.83 10.5284 16.2098 10.5284 16.6057V90.9097C10.5284 91.3056 10.6855 91.6854 10.9652 91.9656C11.2449 92.2458 11.6244 92.4036 12.0203 92.4043H64.8787C65.2749 92.4036 65.6547 92.2459 65.9348 91.9658C66.215 91.6856 66.3727 91.3059 66.3734 90.9097V16.6057C66.3727 16.2095 66.215 15.8298 65.9348 15.5496C65.6547 15.2695 65.2749 15.1117 64.8787 15.111H12.0203Z" fill="#EBEBEB"/>
<path d="M124.094 92.4728H71.2325C70.8182 92.472 70.421 92.3071 70.1281 92.0142C69.8351 91.7212 69.6702 91.324 69.6694 90.9097V16.6057C69.6738 16.1937 69.8403 15.8001 70.1329 15.51C70.4255 15.22 70.8206 15.057 71.2325 15.0563H124.094C124.505 15.0577 124.899 15.2211 125.191 15.5112C125.482 15.8012 125.648 16.1945 125.651 16.6057V90.9097C125.651 91.3233 125.487 91.72 125.195 92.013C124.903 92.306 124.507 92.4713 124.094 92.4728V92.4728ZM71.2325 15.111C70.8364 15.1117 70.4566 15.2695 70.1764 15.5496C69.8963 15.8298 69.7386 16.2095 69.7379 16.6057V90.9097C69.7386 91.3059 69.8963 91.6856 70.1764 91.9658C70.4566 92.2459 70.8364 92.4036 71.2325 92.4043H124.094C124.49 92.4036 124.87 92.2459 125.15 91.9658C125.43 91.6856 125.588 91.3059 125.588 90.9097V16.6057C125.588 16.2095 125.43 15.8298 125.15 15.5496C124.87 15.2695 124.49 15.1117 124.094 15.111H71.2325Z" fill="#EBEBEB"/>
<path d="M20.7119 79.549H40.2029C40.653 79.549 41.0987 79.6376 41.5145 79.8098C41.9303 79.9821 42.3082 80.2345 42.6264 80.5528C42.9447 80.8711 43.1971 81.2489 43.3694 81.6647C43.5416 82.0805 43.6303 82.5262 43.6303 82.9763V100.496C43.6303 101.405 43.2692 102.277 42.6264 102.92C41.9837 103.563 41.1119 103.924 40.2029 103.924H20.7119V79.5599V79.549Z" fill="#F0F0F0"/>
<path d="M20.8734 79.549H20.5504C18.6575 79.549 17.123 81.0834 17.123 82.9763V100.485C17.123 102.378 18.6575 103.913 20.5504 103.913H20.8734C22.7663 103.913 24.3008 102.378 24.3008 100.485V82.9763C24.3008 81.0834 22.7663 79.549 20.8734 79.549Z" fill="#F5F5F5"/>
<path d="M23.3212 103.913H48.7607V88.5362H23.3212L23.3212 103.913Z" fill="#F0F0F0"/>
<path d="M21.232 104.682H67.0824C67.2686 104.681 67.4468 104.607 67.5781 104.475C67.7095 104.343 67.7832 104.165 67.7832 103.978V103.913H40.2139L20.5313 103.978C20.5312 104.165 20.605 104.343 20.7363 104.475C20.8677 104.607 21.0459 104.681 21.232 104.682Z" fill="#E0E0E0"/>
<path d="M41.3145 69.4422H64.983C65.5952 69.4307 66.2028 69.5498 66.7653 69.7918C67.3278 70.0337 67.8323 70.3929 68.245 70.8452C68.6577 71.2975 68.9692 71.8327 69.1587 72.415C69.3481 72.9973 69.4113 73.6132 69.3438 74.2218L67.7834 92.0156H34.5557L36.1133 74.2218C36.2457 72.9269 36.8481 71.7254 37.8066 70.8446C38.765 69.9638 40.0131 69.4649 41.3145 69.4422V69.4422Z" fill="#E0E0E0"/>
<path d="M37.5748 69.4422H61.7059C62.2882 69.4326 62.866 69.5469 63.4007 69.7777C63.9355 70.0085 64.415 70.3504 64.8075 70.7807C65.2 71.211 65.4965 71.7198 65.6773 72.2735C65.858 72.8272 65.9189 73.4129 65.856 73.9919L64.2764 92.0129H31.0459L32.6254 73.9919C32.7511 72.7595 33.3243 71.6158 34.2363 70.7774C35.1484 69.939 36.3361 69.4639 37.5748 69.4422V69.4422Z" fill="#F5F5F5"/>
<path d="M25.3602 87.132H45.511C46.0831 87.132 46.6317 87.3592 47.0363 87.7638C47.4408 88.1683 47.6681 88.717 47.6681 89.2891V91.2355C47.6685 91.519 47.6129 91.7998 47.5047 92.0618C47.3964 92.3238 47.2376 92.562 47.0373 92.7626C46.8369 92.9632 46.599 93.1223 46.3371 93.2309C46.0752 93.3395 45.7945 93.3954 45.511 93.3954H25.3602C24.5296 93.3954 23.7331 93.0654 23.1458 92.4781C22.5585 91.8908 22.2285 91.0942 22.2285 90.2637V90.2637C22.2285 89.4331 22.5585 88.6365 23.1458 88.0492C23.7331 87.4619 24.5296 87.132 25.3602 87.132V87.132Z" fill="#E0E0E0"/>
<path d="M48.873 79.549H68.364C69.273 79.549 70.1448 79.91 70.7876 80.5528C71.4303 81.1956 71.7914 82.0673 71.7914 82.9763V100.496C71.7914 101.405 71.4303 102.277 70.7876 102.92C70.1448 103.563 69.273 103.924 68.364 103.924H48.873V79.5599V79.549Z" fill="#F0F0F0"/>
<path d="M49.0346 79.549H48.7115C46.8187 79.549 45.2842 81.0834 45.2842 82.9763V100.485C45.2842 102.378 46.8187 103.913 48.7115 103.913H49.0346C50.9274 103.913 52.4619 102.378 52.4619 100.485V82.9763C52.4619 81.0834 50.9274 79.549 49.0346 79.549Z" fill="#F5F5F5"/>
<path d="M102.659 66.1572H83.9209V104.682H102.659V66.1572Z" fill="#F0F0F0"/>
<path d="M86.7241 101.682V69.1575H86.2916V101.682H86.7241Z" fill="#E6E6E6"/>
<path d="M99.8969 69.1575H86.2915V69.705H99.8969V69.1575Z" fill="#E6E6E6"/>
<path d="M121.83 66.1572H103.091V104.682H121.83V66.1572Z" fill="#F0F0F0"/>
<path d="M121.832 104.682H124.312V66.1572H121.832V104.682Z" fill="#E0E0E0"/>
<path d="M105.895 101.682V69.1575H105.462V101.682H105.895Z" fill="#E6E6E6"/>
<path d="M103.094 104.682V66.5952H102.662V104.682H103.094Z" fill="#E6E6E6"/>
<path d="M119.067 69.1575H105.462V69.705H119.067V69.1575Z" fill="#E6E6E6"/>
<path d="M101.838 74.679H100.907V83.1926H101.838V74.679Z" fill="#E0E0E0"/>
<path d="M104.843 74.679H103.913V83.1926H104.843V74.679Z" fill="#E0E0E0"/>
<path d="M116.648 25.9844H21.1035V60.0635H116.648V25.9844Z" fill="#E0E0E0"/>
<path d="M115.772 25.9844H20.2275V60.0635H115.772V25.9844Z" fill="#F0F0F0"/>
<path d="M112.905 57.1974V28.8506L23.0934 28.8506V57.1974L112.905 57.1974Z" fill="#FAFAFA"/>
<path d="M37.6738 57.1974L43.6252 28.8506H56.7624L50.8111 57.1974H37.6738Z" fill="white"/>
<path d="M56.3545 57.1974L62.3058 28.8506H68.8758L62.9218 57.1974H56.3545Z" fill="white"/>
<path d="M96.4639 57.1974L102.415 28.8506H108.985L103.031 57.1974H96.4639Z" fill="white"/>
<path d="M68.4377 117.045C97.7516 117.045 121.515 115.657 121.515 113.946C121.515 112.234 97.7516 110.847 68.4377 110.847C39.1239 110.847 15.3604 112.234 15.3604 113.946C15.3604 115.657 39.1239 117.045 68.4377 117.045Z" fill="#F5F5F5"/>
<path d="M45.4431 31.6564C46.1329 30.0768 40.0228 28.6451 38.175 33.5124C36.4997 37.928 33.7184 39.0558 35.0269 42.1136C36.4422 45.4233 44.4494 45.8202 47.926 42.1519C50.7456 39.1763 47.6851 37.9225 48.0793 35.1248C48.4735 32.3271 47.6468 31.4155 45.4431 31.6564Z" fill="#263238"/>
<path d="M34.3124 41.1336C33.9949 39.409 34.6355 38.6972 35.4458 37.7966C36.5408 36.6855 37.2909 35.2813 37.6057 33.7533C37.7689 32.9189 38.1861 32.1553 38.8001 31.5673C39.4142 30.9792 40.195 30.5953 41.0357 30.4683C42.8425 30.1343 44.756 30.7256 45.2624 31.4757C45.3431 31.5814 45.389 31.7095 45.3939 31.8423C45.3988 31.9751 45.3625 32.1062 45.2898 32.2176L45.0599 32.0698C45.1042 32.0036 45.1257 31.9248 45.1213 31.8453C45.1168 31.7658 45.0866 31.6898 45.0352 31.629C44.5863 30.9611 42.7631 30.4273 41.0878 30.7393C39.8915 30.9611 38.3503 31.6728 37.8739 33.8135C37.5496 35.3872 36.7766 36.8333 35.6483 37.9773C34.8599 38.8533 34.2796 39.4884 34.5835 41.0816L34.3124 41.1336Z" fill="#263238"/>
<path d="M30.5483 39.8223L30.3786 39.2748C30.2614 38.9028 30.0491 38.5678 29.7627 38.303L29.2152 37.8048C29.042 37.6447 28.8183 37.5502 28.5829 37.5377C28.3474 37.5252 28.1149 37.5955 27.9258 37.7364L27.34 38.1744C27.2329 38.2544 27.1428 38.3549 27.0748 38.47C27.0069 38.5851 26.9625 38.7125 26.9441 38.8449C26.9258 38.9773 26.9339 39.1121 26.968 39.2413C27.0022 39.3706 27.0616 39.4917 27.1429 39.5979L27.5207 40.0906C27.5207 40.0906 28.4076 41.5908 29.6915 42.1109L29.9871 41.859C30.27 41.6119 30.474 41.2871 30.5738 40.925C30.6735 40.5629 30.6647 40.1794 30.5483 39.8223Z" fill="#FFC3BD"/>
<path d="M41.189 49.3269L41.0138 49.461L40.8715 49.5651L40.5977 49.7567C40.4143 49.8771 40.2282 49.9894 40.0502 50.0989C39.6778 50.313 39.2939 50.5067 38.9005 50.6792C38.0914 51.0361 37.2407 51.2899 36.3683 51.4348C35.4472 51.5896 34.5071 51.5951 33.5843 51.4512C33.112 51.3769 32.6481 51.2568 32.1991 51.0926C32.0868 51.057 31.9746 51.0105 31.8651 50.9639L31.7009 50.8955L31.6187 50.8599L31.5284 50.8216L31.4134 50.7668C31.1745 50.6444 30.9542 50.4887 30.7592 50.3042C30.6189 50.1737 30.4898 50.0318 30.3732 49.8799C30.0635 49.4599 29.8129 48.9993 29.6286 48.5111C29.4643 48.106 29.3384 47.7173 29.2262 47.3367C29.022 46.6004 28.8566 45.8539 28.7307 45.1002C28.4806 43.6437 28.3406 42.1704 28.3118 40.6928C28.278 40.4162 28.3508 40.1371 28.5156 39.9124C28.6803 39.6876 28.9245 39.5341 29.1985 39.4832C29.4725 39.4322 29.7555 39.4876 29.9901 39.6381C30.2246 39.7886 30.3929 40.0229 30.4608 40.2932V40.3233C30.9371 41.6345 31.3943 42.9786 31.8761 44.2543C32.1252 44.8894 32.3661 45.5218 32.6398 46.0967C32.7712 46.3841 32.9136 46.6578 33.0477 46.896C33.139 47.0705 33.2563 47.2302 33.3954 47.3696C33.3954 47.3696 33.3954 47.3696 33.3762 47.3313C33.3132 47.2658 33.239 47.2121 33.1572 47.1725L33.1052 47.1451C33.0888 47.1451 33.0559 47.126 33.0751 47.1314H33.1189L33.2037 47.1533C33.2602 47.1709 33.3179 47.1846 33.3762 47.1944C33.6073 47.2405 33.8416 47.2689 34.077 47.2793C34.5699 47.2943 35.0625 47.2428 35.5416 47.126C36.0673 46.9934 36.5789 46.81 37.0691 46.5785C37.3237 46.4635 37.5755 46.3293 37.8219 46.1952C37.9451 46.1268 38.0655 46.0529 38.1805 45.9817L38.4543 45.8065L38.6678 45.6723C39.1488 45.3666 39.7296 45.259 40.2882 45.3724C40.8468 45.4857 41.3398 45.811 41.6636 46.2801C41.9874 46.7492 42.1169 47.3255 42.0248 47.888C41.9328 48.4505 41.6263 48.9554 41.1699 49.2968L41.189 49.3269Z" fill="#FFC3BD"/>
<path d="M45.9902 112.752C47.723 112.18 49.1821 111.008 48.8892 108.952C48.7605 108.071 51.5884 107.726 51.5884 107.726C51.2681 110.527 51.6185 111.011 51.9552 111.643C52.2919 112.276 52.2727 113.051 51.6814 113.119C50.9806 113.204 50.8246 113.119 49.9541 113.242C48.9357 113.376 48.276 113.907 46.242 113.907C45.1443 113.907 45.4427 112.933 45.9902 112.752Z" fill="#003350"/>
<path d="M51.26 82.8394C51.4598 68.8125 50.165 61.1666 50.165 61.1666L39.7871 61.684C39.7871 61.684 41.3228 74.5174 44.0494 83.97C44.7776 89.0426 46.4173 97.6219 47.5534 103.384C49.2391 103.24 50.9057 102.925 52.5274 102.443C52.9244 97.381 52.9955 90.0637 51.26 82.8394Z" fill="#003350"/>
<path d="M51.4851 109.1C51.4851 109.1 51.8903 106.45 52.164 102.443C50.7869 102.922 49.3582 103.238 47.9072 103.384C48.4985 106.883 48.9201 109.111 48.9201 109.111C49.7497 109.41 50.6581 109.406 51.4851 109.1V109.1Z" fill="#FFC3BD"/>
<path d="M46.9872 101.706C47.0775 102.188 47.3294 103.395 47.5785 103.82C47.5929 103.844 47.6127 103.865 47.6364 103.881C47.6602 103.896 47.6872 103.906 47.7154 103.91C49.6508 104.154 51.5834 103.765 52.3691 103.415C52.3911 103.406 52.4109 103.392 52.4274 103.375C52.4439 103.358 52.4567 103.338 52.4649 103.316C52.6839 102.736 52.7633 101.515 52.7879 101C52.7893 100.972 52.7843 100.944 52.7733 100.919C52.7623 100.893 52.7457 100.87 52.7245 100.852C52.7034 100.834 52.6784 100.821 52.6515 100.814C52.6245 100.807 52.5963 100.806 52.5689 100.811C50.7752 101.144 48.9635 101.37 47.1432 101.49C47.1183 101.493 47.0943 101.501 47.0726 101.514C47.051 101.526 47.0322 101.543 47.0176 101.564C47.0029 101.584 46.9926 101.607 46.9874 101.632C46.9821 101.656 46.9821 101.682 46.9872 101.706V101.706Z" fill="#263238"/>
<path d="M39.9242 45.1906C38.3858 45.4643 36.0397 46.7646 36.0397 46.7646C36.0397 46.7646 34.8051 49.7211 36.2834 51.8509C37.7397 52.1958 38.4734 51.9139 38.4734 51.9139L39.9242 45.1906Z" fill="#263238"/>
<path opacity="0.2" d="M36.2832 51.851C37.7396 52.1959 38.4732 51.914 38.4732 51.914L38.4212 47.9254C37.433 49.2558 36.609 50.5753 36.2832 51.851Z" fill="black"/>
<path opacity="0.2" d="M51.2055 74.5639C50.0448 71.7252 48.7965 69.3873 48.3175 67.2521C47.4962 73.0583 48.1423 78.3992 51.2658 82.2262C51.3014 79.4011 51.2712 76.8443 51.2055 74.5639Z" fill="black"/>
<path d="M67.0696 96.8253L62.9278 99.7708C59.547 95.3662 54.4771 88.6374 53.2507 85.7083C50.1355 78.276 43.8721 61.892 43.8721 61.892L52.0024 60.0032C52.0024 60.0032 57.1325 64.7664 60.4422 82.7408C63.2125 86.6774 65.5449 92.4699 67.0696 96.8253Z" fill="#003350"/>
<path d="M66.8311 110.787C67.8631 108.769 67.8768 106.546 66.7627 104.794C66.2836 104.044 68.7172 102.563 68.7172 102.563C69.5768 105.249 70.2776 105.405 70.8744 105.821C71.4712 106.237 71.5314 107.132 71.0277 107.436C70.478 107.759 70.0098 108.204 69.6589 108.736C69.0348 109.557 68.6844 110.685 67.7892 111.389C67.2171 111.835 66.3767 111.671 66.8311 110.787Z" fill="#003350"/>
<path d="M69.1689 103.795C69.1689 103.795 68.4544 101.282 67.0528 97.5178C65.9943 98.5204 64.823 99.3968 63.5625 100.129C65.5417 103.075 66.9899 105.191 66.9899 105.191C67.8313 104.936 68.5856 104.453 69.1689 103.795V103.795Z" fill="#FFC3BD"/>
<path d="M62.0319 98.9797C62.3057 99.3794 63.0393 100.379 63.4417 100.661C63.4653 100.677 63.4923 100.688 63.5207 100.693C63.5492 100.698 63.5783 100.696 63.606 100.688C65.4675 100.113 67.0689 98.9605 67.6547 98.3117C67.6712 98.2943 67.6836 98.2736 67.6912 98.2509C67.6987 98.2282 67.7013 98.2041 67.6986 98.1803C67.6602 97.5644 67.2277 96.4174 67.0388 95.9383C67.0285 95.9129 67.0126 95.8902 66.9923 95.8717C66.972 95.8533 66.9479 95.8396 66.9216 95.8317C66.8953 95.8238 66.8676 95.8219 66.8406 95.8262C66.8135 95.8304 66.7877 95.8407 66.7651 95.8562C65.2712 96.8985 63.7173 97.8518 62.1113 98.7114C62.087 98.7222 62.0652 98.7381 62.0476 98.7581C62.0301 98.7781 62.017 98.8016 62.0095 98.8272C62.0019 98.8527 62 98.8796 62.0039 98.9059C62.0078 98.9322 62.0173 98.9574 62.0319 98.9797V98.9797Z" fill="#263238"/>
<path d="M37.5752 49.2749C37.9475 51.6976 36.5049 53.5755 38.725 54.6924C38.3554 56.5348 38.9029 60.214 39.7817 61.6731C41.0163 62.3437 47.0552 61.3528 51.9909 60.0004C51.9197 57.8926 50.1869 53.7453 50.6687 46.8413C50.6946 46.4636 50.6409 46.0847 50.511 45.7291C50.3812 45.3735 50.178 45.0492 49.9147 44.7772C49.6515 44.5051 49.334 44.2915 48.9829 44.15C48.6317 44.0085 48.2548 43.9424 47.8765 43.956C47.4494 43.956 46.995 43.997 46.5351 44.0381C44.9182 44.1419 43.3108 44.3614 41.7253 44.6951C41.2134 44.8155 40.685 44.9524 40.1841 45.0948C39.3132 45.3519 38.5668 45.9192 38.0861 46.6895C37.6053 47.4599 37.4236 48.3797 37.5752 49.2749V49.2749Z" fill="#263238"/>
<path d="M41.0625 47.4326C41.0625 47.4326 42.6092 46.8686 43.4195 48.2538C44.7691 47.4955 46.6662 44.2899 46.532 44.0463C44.2736 44.6677 41.0625 47.4326 41.0625 47.4326Z" fill="white"/>
<path d="M41.0632 47.4326C41.0632 47.4326 39.8889 47.2929 39.5576 48.3332C39.5576 46.2801 40.9428 44.988 41.5478 44.7471C41.337 45.2836 41.0632 47.4326 41.0632 47.4326Z" fill="white"/>
<path d="M45.9415 38.6123C45.769 40.2137 45.7417 42.787 46.5355 44.049C46.5355 44.049 43.5243 46.1103 41.0605 47.4325C40.2858 45.6395 41.5451 44.747 41.5451 44.747C42.7195 44.2981 42.7085 42.7952 42.5497 41.6455L45.9415 38.6123Z" fill="#FFC3BD"/>
<path opacity="0.2" d="M42.5547 41.6455L44.4709 39.9209C44.5353 40.2428 44.5145 40.5759 44.4107 40.8872C44.0788 41.7844 43.4409 42.5358 42.6094 43.0088C42.6396 42.5537 42.6213 42.0967 42.5547 41.6455V41.6455Z" fill="black"/>
<path d="M46.5597 35.6367C46.286 38.2373 46.2449 39.3406 44.9036 40.6272C42.8833 42.5626 39.8091 41.6756 39.3026 39.0531C38.8455 36.6907 39.3464 32.8363 41.8868 31.8973C44.4272 30.9583 46.8116 33.0388 46.5597 35.6367Z" fill="#FFC3BD"/>
<path d="M45.9904 37.5392C45.589 37.155 45.3544 36.6286 45.337 36.0732C45.3196 35.5178 45.5208 34.9777 45.8973 34.5691C46.5817 33.8765 47.5398 35.3109 47.5398 35.3109L45.9904 37.5392Z" fill="#263238"/>
<path d="M42.8182 36.3566C42.8182 36.5701 42.6896 36.7371 42.5445 36.7316C42.3994 36.7262 42.3009 36.5482 42.3091 36.3374C42.3173 36.1267 42.4377 35.9569 42.5828 35.9624C42.7279 35.9679 42.8265 36.1349 42.8182 36.3566Z" fill="#263238"/>
<path d="M40.206 36.2937C40.206 36.5045 40.08 36.6715 39.9322 36.666C39.7844 36.6606 39.6886 36.4854 39.6968 36.2718C39.705 36.0583 39.8227 35.8941 39.9705 35.8995C40.1184 35.905 40.2142 36.0802 40.206 36.2937Z" fill="#263238"/>
<path d="M40.031 35.9132L39.5273 35.7462C39.5273 35.7462 39.7737 36.1541 40.031 35.9132Z" fill="#263238"/>
<path d="M40.8496 36.3759C40.638 36.8532 40.3617 37.299 40.0283 37.7008C40.1335 37.7819 40.2551 37.839 40.3846 37.8684C40.5142 37.8977 40.6485 37.8984 40.7784 37.8705L40.8496 36.3759Z" fill="#ED847E"/>
<path d="M41.9804 38.7027C41.8616 38.7195 41.7415 38.725 41.6217 38.7191C41.6055 38.7184 41.5902 38.7115 41.579 38.6997C41.5678 38.688 41.5615 38.6724 41.5615 38.6562C41.5619 38.6479 41.5639 38.6398 41.5673 38.6323C41.5708 38.6248 41.5758 38.618 41.5819 38.6124C41.588 38.6068 41.5951 38.6025 41.6029 38.5997C41.6107 38.5968 41.619 38.5956 41.6272 38.5959C41.8908 38.6117 42.1544 38.5654 42.3969 38.4608C42.6393 38.3562 42.8539 38.1962 43.0233 37.9937C43.0278 37.9869 43.0335 37.9812 43.0402 37.9767C43.0469 37.9722 43.0544 37.9691 43.0623 37.9675C43.0702 37.966 43.0784 37.9661 43.0862 37.9677C43.0941 37.9694 43.1016 37.9727 43.1082 37.9773C43.115 37.9819 43.1209 37.9879 43.1254 37.9948C43.1299 38.0018 43.1331 38.0095 43.1346 38.0177C43.1361 38.0258 43.136 38.0342 43.1343 38.0423C43.1326 38.0504 43.1293 38.058 43.1246 38.0649C42.8408 38.4183 42.4303 38.6472 41.9804 38.7027Z" fill="#263238"/>
<path d="M46.9929 37.8158C46.8913 38.0308 46.745 38.2216 46.5637 38.3755C46.3824 38.5295 46.1704 38.6429 45.9417 38.7082C45.3586 38.8533 45.0876 38.2127 45.2683 37.5721C45.4298 36.9945 45.9307 36.2253 46.5056 36.3649C47.0805 36.5045 47.2749 37.2546 46.9929 37.8158Z" fill="#FFC3BD"/>
<path d="M45.2128 31.9384C43.37 33.0881 41.3008 33.8267 39.1465 34.1038C39.1465 32.234 42.8038 30.1344 45.2128 31.9384Z" fill="#263238"/>
<path d="M43.8003 32.1656C43.376 33.808 47.6328 36.8193 46.8116 39.7156C48.2022 37.5502 47.2003 32.6775 47.2003 32.6775C47.2003 32.6775 43.6142 30.4081 43.8003 32.1656Z" fill="#263238"/>
<path d="M43.3626 34.9606C43.346 34.9582 43.3301 34.9524 43.3159 34.9434C43.3017 34.9345 43.2896 34.9226 43.2805 34.9085C43.1959 34.7766 43.0815 34.6664 42.9464 34.587C42.8113 34.5075 42.6594 34.4611 42.503 34.4514C42.4867 34.4521 42.4705 34.4496 42.4552 34.4438C42.44 34.4381 42.426 34.4294 42.4143 34.4181C42.4025 34.4068 42.3931 34.3933 42.3867 34.3783C42.3803 34.3633 42.3771 34.3472 42.3771 34.3309C42.3763 34.3143 42.379 34.2977 42.3848 34.2821C42.3907 34.2665 42.3996 34.2523 42.4112 34.2403C42.4227 34.2282 42.4365 34.2187 42.4518 34.2121C42.4671 34.2056 42.4836 34.2023 42.5003 34.2023C42.6979 34.2109 42.8906 34.2668 43.0621 34.3654C43.2336 34.464 43.3789 34.6024 43.4858 34.7689C43.4951 34.7824 43.5016 34.7975 43.505 34.8135C43.5083 34.8295 43.5085 34.846 43.5054 34.862C43.5024 34.8781 43.4962 34.8934 43.4872 34.907C43.4781 34.9206 43.4665 34.9323 43.4529 34.9414C43.4399 34.9504 43.4252 34.9567 43.4097 34.96C43.3942 34.9633 43.3782 34.9635 43.3626 34.9606V34.9606Z" fill="#263238"/>
<path d="M39.0511 34.8702C39.0192 34.868 38.9891 34.8544 38.9663 34.8319C38.9547 34.8204 38.9455 34.8068 38.9392 34.7918C38.9329 34.7767 38.9297 34.7606 38.9297 34.7443C38.9297 34.728 38.9329 34.7119 38.9392 34.6968C38.9455 34.6818 38.9547 34.6681 38.9663 34.6567C39.1028 34.5132 39.2718 34.4046 39.4589 34.3398C39.6461 34.275 39.8461 34.256 40.0421 34.2844C40.0742 34.2916 40.1022 34.3111 40.1202 34.3388C40.1381 34.3664 40.1444 34.3999 40.1379 34.4322C40.1347 34.4483 40.1282 34.4636 40.119 34.4771C40.1098 34.4907 40.0979 34.5023 40.0842 34.5112C40.0704 34.5202 40.055 34.5262 40.0388 34.5291C40.0227 34.532 40.0061 34.5316 39.9901 34.528C39.8347 34.5082 39.6768 34.5254 39.5293 34.5782C39.3819 34.631 39.249 34.7179 39.1415 34.8319C39.1176 34.8561 39.0851 34.8699 39.0511 34.8702V34.8702Z" fill="#263238"/>
<path d="M42.6424 35.9761L42.1387 35.8119C42.1387 35.8119 42.3823 36.2198 42.6424 35.9761Z" fill="#263238"/>
<path opacity="0.2" d="M50.6029 48.1799C50.5537 49.6415 50.6022 51.1048 50.748 52.5599C49.3792 51.1145 47.6601 48.3852 47.5479 47.0165L50.6029 48.1799Z" fill="black"/>
<path d="M59.541 43.0389L59.8394 41.3005L62.5413 42.3435C62.5413 42.3435 61.9144 43.9614 60.7619 44.6759L60.4417 44.4733C60.1905 44.3205 59.9784 44.1113 59.8221 43.8623C59.6658 43.6134 59.5695 43.3314 59.541 43.0389V43.0389Z" fill="#FFC3BD"/>
<path d="M61.5254 40.3315L62.415 40.816C62.6094 40.9215 62.7542 41.0996 62.8178 41.3114C62.8813 41.5232 62.8586 41.7515 62.7545 41.9466L62.5437 42.3436L59.8418 41.3006L60.4851 40.5313C60.6092 40.3837 60.7804 40.2833 60.9698 40.2469C61.1592 40.2105 61.3554 40.2404 61.5254 40.3315V40.3315Z" fill="#FFC3BD"/>
<path d="M50.1212 45.0236L50.4662 45.3794L50.8412 45.76C51.0958 46.0091 51.3504 46.2637 51.6132 46.5046C52.1333 46.9946 52.6699 47.449 53.2091 47.8733C53.7178 48.2722 54.258 48.6292 54.8243 48.9409C55.2573 49.1844 55.7284 49.3529 56.2177 49.4392L55.4813 49.576C55.3006 49.6636 55.3115 49.702 55.3499 49.6718C55.4238 49.6223 55.4918 49.5645 55.5524 49.4994C55.7527 49.291 55.9358 49.0667 56.0999 48.8287C56.4722 48.3004 56.85 47.7008 57.1949 47.0794C57.5399 46.458 57.9067 45.8202 58.2598 45.1632L59.3138 43.2141V43.1977C59.4374 42.9654 59.6395 42.7846 59.8841 42.6877C60.1287 42.5908 60.3998 42.584 60.649 42.6686C60.8981 42.7532 61.109 42.9236 61.2441 43.1494C61.3791 43.3752 61.4294 43.6417 61.3861 43.9012C61.2601 44.6896 61.0877 45.4342 60.896 46.1925C60.7044 46.9508 60.4991 47.7008 60.2254 48.4537C59.9571 49.2299 59.6389 49.9879 59.2727 50.723C59.0603 51.1369 58.8198 51.5357 58.5527 51.9166C58.3842 52.1516 58.1955 52.3714 57.9888 52.5736C57.6827 52.8789 57.3213 53.1232 56.9239 53.2936C56.7289 53.3767 56.5199 53.4222 56.308 53.4277H56.1875C55.1059 53.434 54.0353 53.2091 53.0476 52.768C52.6117 52.5816 52.1859 52.3723 51.772 52.1411C51.3759 51.9075 50.9936 51.6657 50.6249 51.4156C49.9086 50.914 49.2263 50.3653 48.5828 49.7731C48.268 49.483 47.9559 49.19 47.6575 48.8807C47.5097 48.7274 47.3591 48.5741 47.214 48.4126C47.0689 48.2511 46.9403 48.1033 46.7623 47.8979C46.3688 47.4623 46.1645 46.8882 46.1943 46.302C46.224 45.7157 46.4855 45.1652 46.9211 44.7717C47.3567 44.3782 47.9308 44.1739 48.5171 44.2036C49.1034 44.2334 49.6538 44.4949 50.0473 44.9305L50.1212 45.0236Z" fill="#FFC3BD"/>
<path d="M47.997 43.9696C50.0036 44.0298 51.9992 46.4334 51.9992 46.4334C51.9992 46.4334 51.2273 49.6225 49.029 50.9968C47.7917 50.0332 46.7432 49.2612 46.7432 49.2612C44.994 46.6962 45.5771 44.9934 47.997 43.9696Z" fill="#263238"/>
<path d="M39.382 61.4952C39.5299 62.352 39.7078 63.0254 39.7653 63.2307C39.7708 63.2525 39.7807 63.273 39.7944 63.2908C39.808 63.3087 39.8251 63.3237 39.8447 63.3348C40.1376 63.4963 41.4735 64.156 43.9263 64.0109C46.6638 63.8631 50.6797 62.3684 52.7629 60.7779C52.7933 60.7544 52.8151 60.7216 52.825 60.6845C52.8349 60.6474 52.8323 60.6081 52.8177 60.5726C52.6568 60.2159 52.4692 59.8718 52.2565 59.5433C52.2357 59.5118 52.2053 59.4878 52.1698 59.475C52.1342 59.4622 52.0955 59.4612 52.0594 59.4721C51.1615 59.7459 45.5086 61.3638 39.5545 61.2926C39.5292 61.2927 39.5043 61.2982 39.4813 61.3089C39.4584 61.3195 39.4381 61.335 39.4217 61.3542C39.4053 61.3735 39.3933 61.396 39.3864 61.4203C39.3796 61.4447 39.3781 61.4702 39.382 61.4952V61.4952Z" fill="#003350"/>
<path opacity="0.3" d="M39.382 61.4952C39.5299 62.352 39.7078 63.0254 39.7653 63.2307C39.7708 63.2525 39.7807 63.273 39.7944 63.2908C39.808 63.3087 39.8251 63.3237 39.8447 63.3348C40.1376 63.4963 41.4735 64.156 43.9263 64.0109C46.6638 63.8631 50.6797 62.3684 52.7629 60.7779C52.7933 60.7544 52.8151 60.7216 52.825 60.6845C52.8349 60.6474 52.8323 60.6081 52.8177 60.5726C52.6568 60.2159 52.4692 59.8718 52.2565 59.5433C52.2357 59.5118 52.2053 59.4878 52.1698 59.475C52.1342 59.4622 52.0955 59.4612 52.0594 59.4721C51.1615 59.7459 45.5086 61.3638 39.5545 61.2926C39.5292 61.2927 39.5043 61.2982 39.4813 61.3089C39.4584 61.3195 39.4381 61.335 39.4217 61.3542C39.4053 61.3735 39.3933 61.396 39.3864 61.4203C39.3796 61.4447 39.3781 61.4702 39.382 61.4952V61.4952Z" fill="white"/>
<path d="M94.2444 105.78H58.2025C57.5359 105.786 56.8752 105.654 56.262 105.392C55.6488 105.131 55.0964 104.745 54.6395 104.26C54.1826 103.774 53.8311 103.2 53.6071 102.572C53.3831 101.944 53.2914 101.276 53.3379 100.611L57.7179 25.6996C57.8179 24.3091 58.4357 23.0067 59.4495 22.0498C60.4632 21.0928 61.799 20.5509 63.1929 20.5312H99.2431C99.9097 20.5251 100.57 20.6569 101.184 20.9185C101.797 21.1801 102.349 21.5657 102.806 22.0512C103.263 22.5366 103.614 23.1114 103.838 23.7392C104.062 24.3671 104.154 25.0346 104.108 25.6996L99.7139 100.611C99.6141 102.001 98.997 103.302 97.9844 104.259C96.9718 105.216 95.6374 105.759 94.2444 105.78V105.78Z" fill="#003350"/>
<path opacity="0.8" d="M94.2444 105.78H58.2025C57.5359 105.786 56.8752 105.654 56.262 105.392C55.6488 105.131 55.0964 104.745 54.6395 104.26C54.1826 103.774 53.8311 103.2 53.6071 102.572C53.3831 101.944 53.2914 101.276 53.3379 100.611L57.7179 25.6996C57.8179 24.3091 58.4357 23.0067 59.4495 22.0498C60.4632 21.0928 61.799 20.5509 63.1929 20.5312H99.2431C99.9097 20.5251 100.57 20.6569 101.184 20.9185C101.797 21.1801 102.349 21.5657 102.806 22.0512C103.263 22.5366 103.614 23.1114 103.838 23.7392C104.062 24.3671 104.154 25.0346 104.108 25.6996L99.7139 100.611C99.6141 102.001 98.997 103.302 97.9844 104.259C96.9718 105.216 95.6374 105.759 94.2444 105.78V105.78Z" fill="white"/>
<path d="M94.0308 104.28H58.9908C58.5224 104.284 58.0582 104.192 57.6273 104.008C57.1964 103.824 56.8082 103.554 56.487 103.213C56.1659 102.872 55.9188 102.468 55.7612 102.027C55.6037 101.586 55.5392 101.117 55.5717 100.65L59.9517 26.0637C60.0219 25.0891 60.454 24.176 61.1632 23.5039C61.8723 22.8317 62.8072 22.449 63.7842 22.431H98.8242C99.2927 22.4269 99.7569 22.5197 100.188 22.7036C100.619 22.8875 101.007 23.1586 101.328 23.4997C101.649 23.8409 101.896 24.2448 102.054 24.686C102.211 25.1273 102.276 25.5963 102.243 26.0637L97.8633 100.65C97.793 101.624 97.3608 102.537 96.6516 103.208C95.9424 103.88 95.0075 104.262 94.0308 104.28V104.28Z" fill="#003350"/>
<path d="M93.6529 103.88H58.6129C58.1444 103.884 57.6801 103.791 57.2492 103.607C56.8183 103.423 56.4301 103.152 56.109 102.811C55.7879 102.47 55.5408 102.066 55.3833 101.625C55.2258 101.184 55.1612 100.715 55.1937 100.247L59.5737 25.6614C59.6439 24.6868 60.0761 23.7737 60.7852 23.1015C61.4944 22.4293 62.4293 22.0467 63.4062 22.0287H98.4462C98.9147 22.0245 99.379 22.1173 99.8099 22.3013C100.241 22.4852 100.629 22.7562 100.95 23.0974C101.271 23.4386 101.518 23.8424 101.676 24.2837C101.833 24.7249 101.898 25.194 101.865 25.6614L97.4854 100.247C97.4151 101.222 96.983 102.135 96.2739 102.807C95.5647 103.479 94.6298 103.862 93.6529 103.88V103.88Z" fill="white"/>
<path opacity="0.1" d="M92.6289 101.107H59.9514C59.6619 101.109 59.3749 101.052 59.1086 100.938C58.8423 100.825 58.6024 100.657 58.4039 100.446C58.2054 100.236 58.0527 99.9861 57.9553 99.7134C57.8579 99.4407 57.818 99.1509 57.838 98.862L59.6776 67.7503C59.7208 67.1466 59.9888 66.5811 60.4287 66.1654C60.8687 65.7498 61.4486 65.5143 62.0538 65.5056H94.7176C95.0072 65.503 95.2941 65.5603 95.5604 65.674C95.8267 65.7876 96.0666 65.9551 96.2651 66.1659C96.4636 66.3767 96.6163 66.6263 96.7137 66.899C96.8111 67.1716 96.851 67.4615 96.831 67.7503L95.0051 98.862C94.9619 99.4657 94.6939 100.031 94.254 100.447C93.814 100.863 93.2341 101.098 92.6289 101.107V101.107Z" fill="#003350"/>
<path opacity="0.1" d="M85.3714 27.5611H75.8477C75.7442 27.5621 75.6416 27.5417 75.5464 27.5011C75.4512 27.4606 75.3654 27.4007 75.2944 27.3254C75.2235 27.25 75.1688 27.1608 75.134 27.0634C75.0992 26.9659 75.085 26.8623 75.0921 26.759V26.759C75.1072 26.5425 75.2031 26.3396 75.3608 26.1906C75.5185 26.0415 75.7265 25.9571 75.9435 25.9542H85.4645C85.5692 25.9516 85.6732 25.971 85.7699 26.011C85.8667 26.0511 85.9539 26.111 86.0261 26.1868C86.0983 26.2626 86.1539 26.3527 86.1891 26.4512C86.2244 26.5498 86.2387 26.6546 86.231 26.759V26.759C86.2158 26.9767 86.1186 27.1804 85.9591 27.3293C85.7996 27.4781 85.5896 27.561 85.3714 27.5611Z" fill="#003350"/>
<path opacity="0.1" d="M89.1602 57.5884C95.0248 51.8933 95.4251 42.7932 90.0545 37.2628C84.6839 31.7323 75.576 31.8657 69.7114 37.5608C63.8469 43.2558 63.4465 52.3559 68.8172 57.8864C74.1878 63.4168 83.2957 63.2834 89.1602 57.5884Z" fill="#003350"/>
<path d="M69.3682 57.096C68.1699 55.8203 67.2482 54.3107 66.6607 52.6619C66.0733 51.0132 65.8329 49.2608 65.9546 47.5148H66.2283C66.1097 49.2233 66.3451 50.9379 66.9198 52.5512C67.4945 54.1646 68.3961 55.6419 69.5681 56.8907L69.3682 57.096Z" fill="#003350"/>
<path d="M92.9162 47.6325L92.6424 47.616C92.7172 46.4101 92.6251 45.1997 92.3687 44.019L92.6424 43.9587C92.9042 45.1646 92.9963 46.4011 92.9162 47.6325V47.6325Z" fill="#003350"/>
<path d="M91.5748 41.6374C90.9048 40.1509 89.9464 38.8123 88.7552 37.6991C87.564 36.5858 86.1636 35.7202 84.6353 35.1522L84.7311 34.8949C86.2943 35.4745 87.7266 36.3595 88.9443 37.4983C90.1621 38.6371 91.141 40.0069 91.8239 41.5279L91.5748 41.6374Z" fill="#003350"/>
<path d="M87.9094 56.3001C93.0201 51.3371 93.3696 43.4072 88.6899 38.5883C84.0102 33.7693 76.0735 33.8861 70.9628 38.8491C65.852 43.8121 65.5026 51.742 70.1823 56.5609C74.862 61.3799 82.7987 61.2631 87.9094 56.3001Z" fill="#003350"/>
<path d="M78.0436 49.275C78.6459 49.1409 78.9279 48.6262 79.0565 48.0404C79.0702 47.9775 79.0812 47.9172 79.0921 47.857V47.8023C79.1249 47.5581 79.1432 47.3122 79.1468 47.0659C78.5638 47.0082 78.0223 46.738 77.6256 46.3069C77.2288 45.8758 77.0044 45.3139 76.9952 44.728C76.965 43.5664 77.2227 42.4153 77.7453 41.3773C77.6107 41.395 77.4832 41.4478 77.3757 41.5306C77.3653 41.5386 77.3533 41.5441 77.3405 41.547C77.3278 41.5498 77.3146 41.5498 77.3018 41.5471C77.278 41.543 77.2566 41.5303 77.2416 41.5115C77.227 41.4909 77.2209 41.4655 77.2244 41.4406C77.228 41.4156 77.241 41.393 77.2607 41.3773C77.4309 41.2487 77.6387 41.1794 77.852 41.1802C77.8931 41.1145 77.9314 41.0461 77.9725 40.9831C77.7973 40.9831 77.6275 40.9831 77.4633 40.9831C77.644 39.7184 80.0776 38.6563 81.7365 39.6144C82.4756 39.7622 83.6966 40.8189 83.6966 40.8189C83.7211 41.4919 83.7019 42.1659 83.6391 42.8364C83.5296 43.9807 83.2586 45.3248 82.5988 46.0749C82.763 45.6912 82.8234 45.2711 82.774 44.8567C82.6159 45.0131 82.4196 45.1254 82.2046 45.1825C82.1266 45.3502 82.0351 45.5114 81.9309 45.6643C81.6736 46.8387 81.4901 48.4018 81.8816 49.3024C82.2347 49.3243 82.5769 49.3572 82.9027 49.3927L82.9821 49.4064C83.197 49.2802 83.4037 49.1403 83.6008 48.9876C86.0645 47.0713 83.4502 44.8211 84.0661 42.7598C84.6821 40.6984 84.162 39.9155 82.4784 39.8498C83.1765 38.7357 78.7417 36.9563 76.7926 40.4137C75.0269 43.5482 74.4575 45.114 75.0926 47.5641C75.3313 48.3649 75.8723 49.0413 76.601 49.4502C76.7251 49.4163 76.8513 49.3907 76.9788 49.3736C77.3264 49.3407 77.6878 49.3024 78.0436 49.275Z" fill="#263238"/>
<path d="M74.2136 54.093C74.1131 53.9153 74.0218 53.7326 73.9399 53.5455C73.7537 54.093 73.5703 54.6405 73.3924 55.188C73.2226 55.6808 73.0611 56.1735 72.8914 56.6444L72.6368 57.3096L72.5273 57.5833C72.489 57.6573 72.5273 57.6135 72.5273 57.6354C72.4106 57.7713 72.2814 57.8959 72.1413 58.0077C72.1112 58.0378 72.0729 58.0651 72.04 58.0925C72.7975 58.6034 73.6125 59.0233 74.4682 59.3436C74.4874 58.0925 74.6407 56.7922 74.8049 56.4445C73.8194 55.7602 73.9672 55.0238 74.2136 54.093Z" fill="#FFC3BD"/>
<path d="M75.172 50.4001L75.1035 50.496C75.1254 50.4631 75.15 50.433 75.1747 50.4029L75.172 50.4001Z" fill="#263238"/>
<path d="M74.5392 52.2343C74.5351 51.6317 74.7178 51.0426 75.062 50.548C74.5372 51.3736 74.1057 52.255 73.7754 53.176C73.7754 53.176 73.8247 53.3211 73.9287 53.5483C74.0106 53.7353 74.102 53.918 74.2024 54.0958C74.3976 53.4932 74.5109 52.8671 74.5392 52.2343V52.2343Z" fill="#263238"/>
<path d="M84.0823 56.2064C83.7578 55.7295 83.4696 55.229 83.22 54.709C83.1379 54.7528 83.053 54.7966 82.9654 54.8349C82.1442 53.9671 81.4434 53.2663 81.4434 53.2663C80.4196 51.131 81.0519 49.9156 82.9928 49.4201C83.294 49.4821 83.5815 49.598 83.8414 49.7623C83.5855 49.5823 83.2912 49.4642 82.9819 49.4174L82.9025 49.4037C82.5767 49.3681 82.2345 49.3352 81.8814 49.3133C81.958 49.5132 80.2006 52.0508 79.0974 52.4533C78.6457 51.3145 77.3782 51.2378 77.3782 51.2378C77.3782 51.2378 76.1956 50.9942 75.8288 51.7388C76.0697 50.2003 77.5507 49.39 78.0434 49.275C77.6875 49.3051 77.3262 49.3435 76.9785 49.3873C76.851 49.4044 76.7248 49.43 76.6008 49.4639C76.0374 49.6184 75.5379 49.9483 75.1745 50.4056C75.1499 50.4357 75.1252 50.4658 75.1033 50.4987L75.0623 50.5507C74.7181 51.0453 74.5354 51.6344 74.5394 52.237C74.5145 52.8684 74.4049 53.4935 74.2137 54.0958C73.9673 55.0156 73.8195 55.7629 74.7858 56.4473C74.6215 56.7949 74.4682 58.0898 74.4491 59.3463C75.8095 59.8507 77.2495 60.1066 78.7004 60.1018C80.5582 60.099 82.3937 59.6966 84.0823 58.922C84.0353 57.903 84.0435 56.8823 84.107 55.8642V55.8642C84.0988 55.9737 84.0878 56.0941 84.0823 56.2064Z" fill="#263238"/>
<path d="M77.3784 51.2378C77.3784 51.2378 78.6459 51.3145 79.0976 52.4533C80.1926 52.0372 81.9583 49.5132 81.8816 49.3134C81.8816 49.3134 79.3877 50.5233 77.3784 51.2378Z" fill="white"/>
<path d="M78.0491 49.275C77.5564 49.3927 76.0754 50.203 75.8345 51.7388C76.2013 50.9942 77.3839 51.2378 77.3839 51.2378C77.0006 49.7979 78.0491 49.275 78.0491 49.275Z" fill="white"/>
<path d="M81.9309 45.6752C81.6929 46.0203 81.392 46.3175 81.0439 46.5512C80.8975 46.6565 80.7417 46.7481 80.5785 46.8249C80.2199 47.4005 79.6852 47.845 79.0537 48.0924V48.0458C78.9251 48.6317 78.6431 49.1408 78.0409 49.2805C78.0409 49.2805 76.9924 49.8061 77.3702 51.246C79.3823 50.5315 81.8734 49.3297 81.8734 49.3297C81.4901 48.4154 81.6735 46.8496 81.9309 45.6752Z" fill="#FFC3BD"/>
<path d="M79.062 48.0377C79.0757 47.9747 79.0867 47.9145 79.0976 47.8542C79.0867 47.9063 79.0757 47.9747 79.062 48.0377Z" fill="#263238"/>
<path opacity="0.2" d="M79.062 48.0377C79.0757 47.9747 79.0867 47.9145 79.0976 47.8542C79.0867 47.9063 79.0757 47.9747 79.062 48.0377Z" fill="black"/>
<path d="M79.1602 47.0631C79.1566 47.3094 79.1383 47.5553 79.1055 47.7995C79.1395 47.5555 79.1578 47.3095 79.1602 47.0631V47.0631Z" fill="#263238"/>
<path opacity="0.2" d="M79.1602 47.0631C79.1566 47.3094 79.1383 47.5553 79.1055 47.7995C79.1395 47.5555 79.1578 47.3095 79.1602 47.0631V47.0631Z" fill="black"/>
<path d="M80.5782 46.8113C80.1373 47.0225 79.6465 47.1078 79.1602 47.0577C79.1578 47.304 79.1395 47.55 79.1054 47.794V47.8488C79.1054 47.909 79.0835 47.9692 79.0698 48.0322V48.0787C79.6952 47.8284 80.2238 47.3841 80.5782 46.8113V46.8113Z" fill="#FFC3BD"/>
<path opacity="0.2" d="M80.5782 46.8113C80.1373 47.0225 79.6465 47.1078 79.1602 47.0577C79.1578 47.304 79.1395 47.55 79.1054 47.794V47.8488C79.1054 47.909 79.0835 47.9692 79.0698 48.0322V48.0787C79.6952 47.8284 80.2238 47.3841 80.5782 46.8113V46.8113Z" fill="black"/>
<path d="M80.5781 46.8112C80.7413 46.7345 80.8971 46.6428 81.0435 46.5375C81.3916 46.3038 81.6925 46.0067 81.9304 45.6615C82.0346 45.5086 82.1262 45.3475 82.2042 45.1797C82.1522 45.1797 82.1002 45.2071 82.0509 45.2125C81.5937 45.2536 81.465 44.739 81.6731 44.2791C81.7435 44.1235 81.8357 43.9788 81.9468 43.8493C81.8274 43.4584 81.8566 43.0372 82.029 42.6667C81.6129 41.8126 81.1721 41.0242 81.1311 40.452C80.1068 40.7686 79.0438 40.9427 77.972 40.9694C77.9309 41.0324 77.8926 41.1008 77.8516 41.1665C77.9444 41.1661 78.0367 41.18 78.1253 41.2076C78.1368 41.2118 78.1474 41.2183 78.1564 41.2267C78.1654 41.2351 78.1727 41.2452 78.1778 41.2564C78.1829 41.2676 78.1857 41.2797 78.1861 41.292C78.1865 41.3043 78.1844 41.3165 78.18 41.328C78.1714 41.3514 78.154 41.3705 78.1315 41.3812C78.109 41.3919 78.0832 41.3935 78.0596 41.3855C77.9612 41.3557 77.8574 41.3482 77.7557 41.3636C77.2402 42.4024 76.9891 43.5524 77.0248 44.7116C77.0341 45.2974 77.2584 45.8594 77.6552 46.2905C78.052 46.7216 78.5935 46.9917 79.1765 47.0494V47.0494C79.6567 47.099 80.1413 47.0167 80.5781 46.8112ZM79.9676 41.4348C80.1167 41.4641 80.2565 41.5293 80.3747 41.6247C80.493 41.72 80.5863 41.8428 80.6465 41.9823C80.6571 42.0053 80.6585 42.0314 80.6504 42.0554C80.6422 42.0793 80.6252 42.0992 80.6027 42.111C80.5799 42.1204 80.5543 42.1204 80.5316 42.111C80.5192 42.1076 80.5079 42.1014 80.4984 42.0928C80.4888 42.0842 80.4815 42.0736 80.4768 42.0617C80.4271 41.9511 80.3513 41.8543 80.2559 41.7794C80.1606 41.7046 80.0485 41.654 79.9293 41.6319C79.9046 41.6278 79.8824 41.6145 79.8672 41.5947C79.8519 41.5749 79.8448 41.55 79.8472 41.5251C79.8483 41.5111 79.8525 41.4975 79.8595 41.4853C79.8664 41.4731 79.876 41.4625 79.8875 41.4544C79.899 41.4463 79.9121 41.4409 79.926 41.4384C79.9398 41.436 79.9541 41.4366 79.9676 41.4403V41.4348ZM79.8718 42.7871C79.9175 42.8214 79.9513 42.8692 79.9685 42.9237C79.9857 42.9782 79.9854 43.0367 79.9676 43.091C79.9375 43.2498 79.828 43.3647 79.724 43.3401C79.62 43.3155 79.5597 43.1758 79.5899 43.0171C79.605 42.9366 79.6464 42.8634 79.7076 42.809C79.6223 42.7638 79.5554 42.6902 79.5187 42.601L79.8718 42.7871ZM77.6271 42.6721C77.6418 42.5929 77.6822 42.5208 77.742 42.4668C77.6581 42.4194 77.5926 42.3452 77.5559 42.256L77.9145 42.4394C77.9587 42.475 77.9913 42.5228 78.0084 42.5769C78.0254 42.631 78.0261 42.6889 78.0103 42.7433C77.9775 42.9021 77.8707 43.0171 77.7667 42.9952C77.6627 42.9733 77.597 42.8364 77.6271 42.6776V42.6721ZM78.2622 44.0026C78.1607 44.0086 78.0591 43.9923 77.9645 43.955C77.8699 43.9176 77.7847 43.86 77.7147 43.7863C78.0078 43.5207 78.2638 43.2169 78.4757 42.8829L78.2622 44.0026ZM78.7905 44.7362C78.7784 44.733 78.7679 44.7252 78.7613 44.7145C78.7547 44.7039 78.7524 44.691 78.7549 44.6787C78.7576 44.6668 78.7648 44.6564 78.775 44.6497C78.7853 44.6431 78.7977 44.6407 78.8097 44.6431C79.0073 44.6857 79.2121 44.6811 79.4076 44.6297C79.603 44.5784 79.7836 44.4817 79.9348 44.3475C79.9391 44.343 79.9443 44.3394 79.95 44.3369C79.9557 44.3344 79.9618 44.333 79.968 44.3329C79.9743 44.3328 79.9805 44.3339 79.9863 44.3362C79.9921 44.3384 79.9974 44.3418 80.0019 44.3461C80.0063 44.3504 80.0099 44.3556 80.0124 44.3613C80.0149 44.367 80.0163 44.3731 80.0164 44.3794C80.0166 44.3856 80.0155 44.3918 80.0132 44.3976C80.0109 44.4034 80.0075 44.4087 80.0032 44.4132C79.7487 44.6475 79.4128 44.7732 79.067 44.7636C78.9744 44.7628 78.882 44.7555 78.7905 44.7417V44.7362Z" fill="#FFC3BD"/>
<path d="M82.3988 43.5262C82.2838 43.2525 82.1524 42.9595 82.0182 42.6858C81.8459 43.0564 81.8166 43.4776 81.9361 43.8684C82.0575 43.7156 82.2171 43.5976 82.3988 43.5262V43.5262Z" fill="#263238"/>
<path d="M79.7021 42.8172C79.6409 42.8716 79.5995 42.9448 79.5844 43.0252C79.5543 43.184 79.6145 43.3291 79.7186 43.3483C79.8226 43.3674 79.9321 43.2579 79.9622 43.0992C79.9799 43.0448 79.9802 42.9863 79.963 42.9318C79.9459 42.8774 79.9121 42.8296 79.8664 42.7953C79.8433 42.8129 79.816 42.8242 79.7872 42.828C79.7584 42.8319 79.729 42.8281 79.7021 42.8172Z" fill="#263238"/>
<path d="M78.0188 42.7515C78.0346 42.697 78.0339 42.6391 78.0169 42.5851C77.9998 42.531 77.9672 42.4832 77.923 42.4476C77.8993 42.465 77.8717 42.4764 77.8426 42.4807C77.8135 42.4849 77.7838 42.4821 77.756 42.4723C77.6962 42.5262 77.6558 42.5984 77.6411 42.6776C77.6109 42.8364 77.6712 42.9814 77.7752 43.0033C77.8792 43.0252 77.9723 42.9103 78.0188 42.7515Z" fill="#263238"/>
<path d="M77.9094 42.4477L77.5508 42.2643C77.5874 42.3534 77.653 42.4277 77.7369 42.4751C77.7656 42.4855 77.7965 42.4884 77.8267 42.4836C77.8568 42.4788 77.8853 42.4665 77.9094 42.4477Z" fill="#263238"/>
<path d="M77.7178 43.8C77.7878 43.8737 77.873 43.9313 77.9676 43.9686C78.0622 44.006 78.1638 44.0222 78.2653 44.0162L78.4815 42.8966C78.2688 43.2307 78.0118 43.5346 77.7178 43.8V43.8Z" fill="#ED847E"/>
<path d="M79.9982 44.3474C79.989 44.3386 79.9768 44.3336 79.964 44.3336C79.9512 44.3336 79.939 44.3386 79.9298 44.3474C79.7792 44.4808 79.5996 44.577 79.4051 44.6283C79.2107 44.6797 79.0069 44.6847 78.8101 44.6431C78.7982 44.6406 78.7857 44.643 78.7755 44.6497C78.7652 44.6563 78.758 44.6667 78.7554 44.6787C78.7529 44.691 78.7552 44.7038 78.7618 44.7145C78.7684 44.7252 78.7788 44.7329 78.791 44.7362C78.8815 44.7516 78.973 44.7608 79.0647 44.7635C79.4105 44.7732 79.7464 44.6474 80.001 44.4131C80.0087 44.4038 80.0127 44.3919 80.0121 44.3798C80.0116 44.3676 80.0067 44.3561 79.9982 44.3474V44.3474Z" fill="#263238"/>
<path d="M82.399 43.5262C82.2173 43.5976 82.0577 43.7156 81.9363 43.8684C81.8252 43.998 81.733 44.1427 81.6626 44.2982C81.4545 44.7581 81.5832 45.2728 82.0404 45.2317C82.0896 45.2317 82.1416 45.2098 82.1937 45.1989C82.4086 45.1418 82.6049 45.0295 82.763 44.8731C82.7057 44.4092 82.5832 43.9558 82.399 43.5262Z" fill="#FFC3BD"/>
<path d="M81.1833 40.0551C81.1997 39.6609 81.4242 39.5651 81.7308 39.6253C80.0718 38.6562 77.6382 39.7184 77.4575 40.994C77.6218 40.994 77.7915 40.994 77.9667 40.994C79.0385 40.9674 80.1015 40.7933 81.1258 40.4767C81.1099 40.3335 81.1296 40.1887 81.1833 40.0551V40.0551Z" fill="#263238"/>
<path d="M81.1835 40.0551C81.1316 40.1854 81.1119 40.3262 81.126 40.4657C81.1671 41.0461 81.6078 41.8345 82.0239 42.6803C82.158 42.9541 82.2976 43.2278 82.4044 43.5208C82.5886 43.9503 82.7112 44.4037 82.7685 44.8676C82.8178 45.282 82.7574 45.7021 82.5933 46.0858C83.253 45.3357 83.524 43.9916 83.6335 42.8473C83.6963 42.1768 83.7155 41.5028 83.691 40.8298C83.691 40.8298 82.4701 39.7731 81.731 39.6253C81.4244 39.5651 81.1999 39.6609 81.1835 40.0551Z" fill="#263238"/>
<path d="M79.9348 41.6291C80.054 41.6512 80.1661 41.7018 80.2615 41.7766C80.3568 41.8515 80.4326 41.9483 80.4823 42.0589C80.487 42.0708 80.4944 42.0815 80.5039 42.09C80.5134 42.0986 80.5248 42.1048 80.5371 42.1082C80.5599 42.1176 80.5855 42.1176 80.6083 42.1082C80.6307 42.0964 80.6477 42.0765 80.6559 42.0526C80.6641 42.0286 80.6627 42.0025 80.6521 41.9795C80.5918 41.84 80.4985 41.7173 80.3803 41.6219C80.262 41.5265 80.1223 41.4613 79.9732 41.432C79.9482 41.4289 79.9229 41.4358 79.9029 41.4511C79.8829 41.4665 79.8698 41.4891 79.8664 41.5141C79.8613 41.5384 79.8654 41.5637 79.8781 41.585C79.8908 41.6063 79.9111 41.6221 79.9348 41.6291V41.6291Z" fill="#263238"/>
<path d="M78.0432 41.3992C78.0668 41.4071 78.0926 41.4056 78.1151 41.3949C78.1375 41.3841 78.155 41.3651 78.1636 41.3417C78.168 41.3302 78.1701 41.3179 78.1697 41.3057C78.1693 41.2934 78.1665 41.2813 78.1614 41.27C78.1563 41.2588 78.149 41.2488 78.14 41.2404C78.131 41.232 78.1204 41.2255 78.1089 41.2212C78.0203 41.1937 77.9279 41.1798 77.8351 41.1802C77.6218 41.1794 77.414 41.2486 77.2438 41.3773C77.2241 41.393 77.2111 41.4156 77.2075 41.4405C77.204 41.4655 77.2101 41.4909 77.2247 41.5114C77.2397 41.5303 77.2611 41.5429 77.2849 41.547C77.2977 41.5498 77.3109 41.5498 77.3236 41.5469C77.3364 41.5441 77.3484 41.5385 77.3588 41.5306C77.4663 41.4478 77.5938 41.3949 77.7284 41.3773C77.8336 41.3602 77.9413 41.3677 78.0432 41.3992Z" fill="#263238"/>
<path d="M79.7022 42.8173C79.7291 42.8282 79.7584 42.832 79.7872 42.8281C79.816 42.8243 79.8433 42.813 79.8664 42.7954V42.7954L79.5078 42.6119C79.5465 42.7011 79.6153 42.7738 79.7022 42.8173V42.8173Z" fill="#263238"/>
<path d="M84.0825 56.2064C84.0825 56.0942 84.099 55.9737 84.1044 55.8587C83.9511 55.6151 83.7951 55.3687 83.6336 55.1251L83.3188 54.657L83.2202 54.709C83.4698 55.229 83.758 55.7296 84.0825 56.2064V56.2064Z" fill="#263238"/>
<path opacity="0.2" d="M84.0825 56.2064C84.0825 56.0942 84.099 55.9737 84.1044 55.8587C83.9511 55.6151 83.7951 55.3687 83.6336 55.1251L83.3188 54.657L83.2202 54.709C83.4698 55.229 83.758 55.7296 84.0825 56.2064V56.2064Z" fill="black"/>
<path d="M84.8952 58.473V58.5168C85.9871 57.9268 86.9929 57.19 87.8846 56.3268C87.7351 55.8852 87.5596 55.4528 87.359 55.032C87.0934 54.4595 86.7983 53.9012 86.4748 53.3594C86.201 52.8885 85.9109 52.4396 85.6125 51.9906C85.3387 52.5627 84.5613 53.9397 83.3267 54.6487L83.6415 55.1168C83.803 55.3605 83.959 55.6068 84.1123 55.8505C84.2465 56.064 84.3861 56.2803 84.4983 56.4938C84.7091 56.8633 84.9062 57.2356 85.0458 57.5888L85.0184 57.7749C84.9856 58.0022 84.9445 58.2348 84.8952 58.473Z" fill="#FFC3BD"/>
<path d="M81.4435 53.2662C81.4435 53.2662 82.1443 53.967 82.9655 54.8348C83.0531 54.7965 83.138 54.7527 83.2201 54.7089L83.3187 54.6569C84.5533 53.9479 85.3253 52.5709 85.6045 51.9988C85.6839 51.8373 85.7249 51.7387 85.7249 51.7387C85.7249 51.7387 84.9311 50.4247 83.8415 49.7622C83.5816 49.598 83.2941 49.482 82.9929 49.42C81.052 49.9155 80.4197 51.131 81.4435 53.2662Z" fill="#263238"/>
<path d="M94.5698 25.8064H98.427C98.5323 25.8047 98.6332 25.7635 98.7097 25.691C98.7862 25.6186 98.8328 25.5201 98.8403 25.415V25.415C98.8437 25.3649 98.8367 25.3147 98.8198 25.2674C98.8028 25.2202 98.7763 25.177 98.7419 25.1405C98.7074 25.1039 98.6658 25.075 98.6196 25.0553C98.5734 25.0357 98.5237 25.0258 98.4735 25.0263H94.6136C94.5087 25.028 94.4082 25.0688 94.3317 25.1407C94.2553 25.2126 94.2084 25.3104 94.2003 25.415V25.415C94.1964 25.4655 94.2032 25.5163 94.2201 25.564C94.2371 25.6118 94.2638 25.6555 94.2986 25.6924C94.3334 25.7292 94.3754 25.7584 94.4221 25.778C94.4689 25.7977 94.5192 25.8074 94.5698 25.8064V25.8064Z" fill="#003350"/>
<path d="M94.4903 27.1505H98.3475C98.4528 27.1487 98.5537 27.1075 98.6302 27.0351C98.7067 26.9626 98.7533 26.8641 98.7608 26.759V26.759C98.7646 26.7087 98.7579 26.6582 98.7412 26.6106C98.7244 26.5631 98.6979 26.5195 98.6634 26.4827C98.629 26.4459 98.5872 26.4166 98.5408 26.3968C98.4944 26.377 98.4444 26.3671 98.394 26.3676H94.5369C94.431 26.3687 94.3295 26.4096 94.2524 26.4821C94.1753 26.5546 94.1283 26.6535 94.1208 26.759C94.1178 26.8094 94.1251 26.8598 94.1424 26.9072C94.1596 26.9546 94.1863 26.998 94.221 27.0346C94.2556 27.0713 94.2973 27.1005 94.3437 27.1204C94.39 27.1404 94.4399 27.1506 94.4903 27.1505Z" fill="#003350"/>
<path d="M63.2856 27.1505H67.1428C67.2484 27.1488 67.3496 27.1077 67.4266 27.0353C67.5035 26.9629 67.5507 26.8644 67.5589 26.759V26.759C67.5623 26.7086 67.5552 26.658 67.5381 26.6104C67.521 26.5629 67.4943 26.5193 67.4596 26.4826C67.4249 26.4458 67.383 26.4166 67.3365 26.3968C67.2899 26.377 67.2398 26.3671 67.1893 26.3676H63.3322C63.2266 26.3687 63.1254 26.4097 63.0487 26.4823C62.9721 26.5549 62.9257 26.6537 62.9188 26.759C62.9154 26.8092 62.9224 26.8596 62.9393 26.907C62.9562 26.9544 62.9827 26.9978 63.0171 27.0345C63.0515 27.0712 63.0931 27.1005 63.1393 27.1204C63.1855 27.1404 63.2353 27.1506 63.2856 27.1505Z" fill="#003350"/>
<path d="M94.4109 28.4919H98.2763C98.3821 28.4908 98.4836 28.4499 98.5607 28.3774C98.6378 28.3049 98.6848 28.206 98.6924 28.1004C98.6954 28.0501 98.688 27.9997 98.6708 27.9523C98.6535 27.9049 98.6268 27.8615 98.5922 27.8249C98.5576 27.7882 98.5158 27.759 98.4695 27.7391C98.4231 27.7191 98.3732 27.7089 98.3228 27.709H94.4575C94.3518 27.7107 94.2506 27.7518 94.1737 27.8242C94.0967 27.8966 94.0495 27.9951 94.0414 28.1004V28.1004C94.038 28.1509 94.045 28.2015 94.0621 28.2491C94.0792 28.2966 94.1059 28.3402 94.1406 28.3769C94.1753 28.4137 94.2172 28.4429 94.2638 28.4627C94.3103 28.4824 94.3604 28.4924 94.4109 28.4919Z" fill="#003350"/>
<path d="M89.3414 77.6054H66.0069C65.5712 77.6095 65.1392 77.5233 64.7384 77.3524C64.3375 77.1815 63.9763 76.9294 63.6775 76.6122C63.3788 76.2949 63.1489 75.9192 63.0023 75.5088C62.8558 75.0984 62.7957 74.6621 62.826 74.2273C62.8916 73.3187 63.2955 72.4678 63.9579 71.8424C64.6203 71.217 65.493 70.8626 66.4039 70.8493H89.7383C90.1741 70.8452 90.606 70.9313 91.0069 71.1023C91.4078 71.2732 91.769 71.5252 92.0677 71.8425C92.3665 72.1598 92.5964 72.5354 92.7429 72.9459C92.8895 73.3563 92.9495 73.7926 92.9193 74.2273C92.8537 75.1359 92.4498 75.9869 91.7874 76.6123C91.125 77.2377 90.2523 77.592 89.3414 77.6054V77.6054Z" fill="white"/>
<path d="M88.8097 86.6856H65.4726C65.0368 86.6889 64.605 86.6021 64.2043 86.4308C63.8036 86.2594 63.4426 86.0071 63.144 85.6897C62.8453 85.3723 62.6155 84.9966 62.4688 84.5862C62.3221 84.1759 62.2618 83.7396 62.2916 83.3048V83.3048C62.3592 82.3977 62.7639 81.5487 63.4261 80.925C64.0883 80.3014 64.9599 79.9482 65.8695 79.935H89.2067C89.6425 79.9309 90.0744 80.017 90.4753 80.188C90.8761 80.3589 91.2373 80.6109 91.5361 80.9282C91.8349 81.2455 92.0647 81.6211 92.2113 82.0315C92.3578 82.442 92.4179 82.8783 92.3877 83.313C92.3201 84.2204 91.9154 85.0697 91.2533 85.6938C90.5912 86.3179 89.7195 86.6717 88.8097 86.6856Z" fill="white"/>
<path d="M88.276 95.7633H64.9415C64.5057 95.7673 64.0738 95.6812 63.6729 95.5103C63.2721 95.3393 62.9109 95.0873 62.6121 94.77C62.3134 94.4528 62.0835 94.0771 61.9369 93.6667C61.7904 93.2563 61.7303 92.82 61.7605 92.3852V92.3852C61.8262 91.4763 62.2299 90.6251 62.8922 89.9992C63.5546 89.3734 64.4273 89.0185 65.3384 89.0044H88.6729C89.1088 89.0007 89.5408 89.0872 89.9417 89.2584C90.3426 89.4297 90.7037 89.6819 91.0024 89.9994C91.3011 90.3169 91.531 90.6928 91.6775 91.1033C91.824 91.5139 91.8841 91.9503 91.8539 92.3852V92.3852C91.7882 93.2938 91.3843 94.1448 90.722 94.7701C90.0596 95.3955 89.1868 95.7499 88.276 95.7633V95.7633Z" fill="white"/>
<path d="M67.8194 75.4381C68.5298 74.7482 68.5789 73.6464 67.9291 72.9772C67.2792 72.308 66.1765 72.3247 65.466 73.0146C64.7556 73.7045 64.7065 74.8063 65.3564 75.4755C66.0062 76.1447 67.109 76.1279 67.8194 75.4381Z" fill="#003350"/>
<path d="M66.4364 81.6596L66.6664 82.5274C66.6796 82.5751 66.7083 82.6171 66.7479 82.6468C66.7875 82.6765 66.8359 82.6922 66.8854 82.6916H67.7969C67.8484 82.6921 67.8982 82.7094 67.9389 82.7409C67.9795 82.7724 68.0087 82.8163 68.0221 82.8659C68.0354 82.9156 68.0322 82.9683 68.0128 83.0159C67.9934 83.0635 67.9589 83.1034 67.9147 83.1296L67.1454 83.6771C67.1017 83.7062 67.0682 83.7483 67.0495 83.7973C67.0309 83.8464 67.028 83.9001 67.0414 83.9509L67.2713 84.8187C67.285 84.8685 67.283 84.9213 67.2656 84.97C67.2482 85.0186 67.2163 85.0607 67.1741 85.0906C67.132 85.1205 67.0817 85.1367 67.03 85.137C66.9784 85.1373 66.9279 85.1218 66.8854 85.0924L66.1791 84.5449C66.139 84.5168 66.0912 84.5017 66.0422 84.5017C65.9932 84.5017 65.9454 84.5168 65.9053 84.5449L65.1361 85.0924C65.0958 85.1245 65.0459 85.1421 64.9944 85.1425C64.9429 85.1428 64.8927 85.1258 64.852 85.0942C64.8113 85.0627 64.7824 85.0184 64.7698 84.9684C64.7573 84.9184 64.7619 84.8657 64.783 84.8187L65.1142 83.9509C65.1345 83.9039 65.1386 83.8514 65.1257 83.8018C65.1128 83.7522 65.0837 83.7083 65.043 83.6771L64.3367 83.1296C64.2979 83.0962 64.2702 83.0516 64.2576 83.0019C64.245 82.9522 64.2481 82.8999 64.2663 82.852C64.2846 82.8041 64.3172 82.763 64.3597 82.7343C64.4022 82.7056 64.4525 82.6907 64.5037 82.6916H65.4153C65.467 82.6917 65.5175 82.676 65.56 82.6466C65.6025 82.6173 65.6351 82.5757 65.6535 82.5274L65.9738 81.6596C65.9883 81.6095 66.0188 81.5655 66.0605 81.5342C66.1022 81.5029 66.1529 81.486 66.2051 81.486C66.2572 81.486 66.308 81.5029 66.3497 81.5342C66.3914 81.5655 66.4218 81.6095 66.4364 81.6596V81.6596Z" fill="#003350"/>
<path d="M67.0687 91.4654L66.9237 93.9018C66.9167 94.004 66.8714 94.0997 66.7967 94.1698C66.7221 94.2399 66.6236 94.2791 66.5212 94.2796H64.3887C64.3416 94.2768 64.2955 94.2646 64.2531 94.2438C64.2107 94.2229 64.173 94.1937 64.1421 94.158C64.1112 94.1222 64.0878 94.0807 64.0733 94.0357C64.0588 93.9908 64.0534 93.9434 64.0575 93.8963L64.2354 90.8632C64.2416 90.761 64.2863 90.6649 64.3605 90.5944C64.4346 90.5238 64.5327 90.4839 64.6351 90.4827H66.1681L67.0687 91.4654Z" fill="#003350"/>
<path d="M66.1544 90.4881L67.077 91.4654H66.4775C66.4287 91.4659 66.3804 91.4563 66.3355 91.4372C66.2907 91.4181 66.2503 91.3899 66.2168 91.3544C66.1834 91.3189 66.1577 91.2769 66.1413 91.2309C66.1249 91.185 66.1182 91.1362 66.1216 91.0876L66.1544 90.4881ZM65.9108 89.8174L65.8725 90.4716L65.8369 91.0712C65.8322 91.1585 65.845 91.2459 65.8746 91.3282C65.9042 91.4104 65.9501 91.4859 66.0094 91.5502C66.0696 91.6137 66.1422 91.6643 66.2227 91.6986C66.3032 91.733 66.3899 91.7505 66.4775 91.7501H67.7312L67.2823 91.271L66.3625 90.2937L65.9108 89.8174V89.8174Z" fill="white"/>
<path opacity="0.2" d="M88.5581 73.8687H71.0956C71.0249 73.8692 70.9549 73.8552 70.8899 73.8275C70.8249 73.7997 70.7663 73.7589 70.7177 73.7075C70.6692 73.6562 70.6318 73.5954 70.6078 73.5289C70.5837 73.4624 70.5737 73.3917 70.5782 73.3212V73.3212C70.5898 73.1737 70.6559 73.0359 70.7638 72.9346C70.8716 72.8333 71.0134 72.776 71.1613 72.7737H88.6211C88.6917 72.7732 88.7618 72.7872 88.8268 72.8149C88.8918 72.8427 88.9504 72.8835 88.9989 72.9348C89.0474 72.9862 89.0849 73.047 89.1089 73.1135C89.1329 73.18 89.143 73.2507 89.1384 73.3212V73.3212C89.1275 73.4684 89.0619 73.6063 88.9545 73.7076C88.8471 73.8089 88.7057 73.8664 88.5581 73.8687V73.8687Z" fill="#003350"/>
<path opacity="0.2" d="M85.2486 75.6864H70.9917C70.9209 75.6868 70.8508 75.6728 70.7856 75.6451C70.7205 75.6174 70.6617 75.5766 70.613 75.5253C70.5642 75.474 70.5265 75.4132 70.5022 75.3468C70.4779 75.2803 70.4675 75.2095 70.4716 75.1388V75.1388C70.4832 74.9914 70.5493 74.8535 70.6572 74.7523C70.765 74.651 70.9068 74.5936 71.0547 74.5913H85.3116C85.3825 74.5905 85.4528 74.6042 85.5181 74.6318C85.5835 74.6593 85.6424 74.7001 85.6912 74.7515C85.7401 74.8029 85.7777 74.8638 85.8019 74.9305C85.8261 74.9972 85.8362 75.0681 85.8317 75.1388V75.1388C85.8195 75.2861 85.7532 75.4236 85.6454 75.5247C85.5377 75.6259 85.3963 75.6835 85.2486 75.6864Z" fill="#003350"/>
<path opacity="0.2" d="M87.9832 83.6635H83.1652C83.0171 83.6651 82.875 83.7223 82.767 83.8237C82.6591 83.9251 82.5931 84.0633 82.5821 84.211C82.5776 84.2815 82.5877 84.3522 82.6117 84.4187C82.6357 84.4851 82.6731 84.5459 82.7216 84.5973C82.7702 84.6487 82.8288 84.6895 82.8938 84.7172C82.9588 84.7449 83.0288 84.759 83.0995 84.7585H87.9175C88.0656 84.7568 88.2077 84.6996 88.3157 84.5983C88.4236 84.4969 88.4896 84.3587 88.5006 84.211V84.211C88.5051 84.1404 88.495 84.0697 88.471 84.0033C88.447 83.9368 88.4096 83.876 88.361 83.8246C88.3125 83.7733 88.2539 83.7324 88.1889 83.7047C88.1239 83.677 88.0539 83.6629 87.9832 83.6635V83.6635Z" fill="#003350"/>
<path opacity="0.2" d="M80.3482 83.6635H70.5233C70.3752 83.6651 70.2331 83.7223 70.1251 83.8237C70.0172 83.9251 69.9512 84.0633 69.9402 84.211V84.211C69.9353 84.2816 69.945 84.3525 69.9689 84.4191C69.9928 84.4858 70.0302 84.5468 70.0788 84.5982C70.1274 84.6497 70.1862 84.6905 70.2514 84.7181C70.3166 84.7457 70.3868 84.7594 70.4576 84.7585H80.2852C80.4331 84.7562 80.5749 84.6988 80.6827 84.5976C80.7906 84.4963 80.8567 84.3585 80.8683 84.211V84.211C80.8728 84.1402 80.8627 84.0693 80.8385 84.0026C80.8144 83.936 80.7767 83.875 80.7278 83.8236C80.679 83.7722 80.6201 83.7315 80.5547 83.7039C80.4894 83.6764 80.4191 83.6626 80.3482 83.6635V83.6635Z" fill="#003350"/>
<path opacity="0.2" d="M84.8872 81.8512H70.6276C70.4795 81.8528 70.3374 81.91 70.2294 82.0114C70.1215 82.1128 70.0555 82.251 70.0445 82.3987V82.3987C70.04 82.4692 70.0501 82.5399 70.0741 82.6064C70.0981 82.6729 70.1355 82.7337 70.1841 82.785C70.2326 82.8364 70.2912 82.8772 70.3562 82.905C70.4212 82.9327 70.4912 82.9467 70.5619 82.9462H84.8188C84.9667 82.9439 85.1084 82.8865 85.2163 82.7853C85.3241 82.684 85.3903 82.5462 85.4019 82.3987C85.4064 82.3284 85.3964 82.2579 85.3726 82.1916C85.3487 82.1254 85.3115 82.0647 85.2633 82.0134C85.215 81.962 85.1568 81.9212 85.0921 81.8933C85.0274 81.8654 84.9577 81.8511 84.8872 81.8512V81.8512Z" fill="#003350"/>
<path opacity="0.2" d="M87.4492 92.741H69.9894C69.8417 92.7439 69.7003 92.8015 69.5926 92.9026C69.4849 93.0037 69.4185 93.1412 69.4063 93.2885C69.4018 93.3592 69.4119 93.4302 69.4361 93.4968C69.4603 93.5635 69.498 93.6244 69.5468 93.6758C69.5956 93.7272 69.6546 93.768 69.7199 93.7956C69.7852 93.8231 69.8556 93.8369 69.9265 93.836H87.3862C87.5339 93.8337 87.6753 93.7762 87.7827 93.6749C87.8901 93.5735 87.9557 93.4357 87.9666 93.2885V93.2885C87.9711 93.218 87.961 93.1472 87.937 93.0808C87.913 93.0143 87.8756 92.9535 87.827 92.9021C87.7785 92.8508 87.7199 92.81 87.6549 92.7822C87.5899 92.7545 87.5199 92.7405 87.4492 92.741V92.741Z" fill="#003350"/>
<path opacity="0.2" d="M84.3533 90.926H70.0963C69.9484 90.9283 69.8067 90.9857 69.6989 91.0869C69.591 91.1882 69.5248 91.3261 69.5133 91.4735V91.4735C69.5087 91.5441 69.5188 91.6148 69.5428 91.6812C69.5668 91.7477 69.6043 91.8085 69.6528 91.8599C69.7013 91.9113 69.7599 91.9521 69.825 91.9798C69.89 92.0075 69.96 92.0216 70.0306 92.021H84.2903C84.4379 92.0187 84.5793 91.9612 84.6867 91.8599C84.7941 91.7586 84.8597 91.6208 84.8706 91.4735V91.4735C84.8751 91.403 84.8651 91.3323 84.8411 91.2658C84.8171 91.1994 84.7796 91.1386 84.7311 91.0872C84.6825 91.0358 84.6239 90.995 84.5589 90.9673C84.4939 90.9396 84.4239 90.9255 84.3533 90.926V90.926Z" fill="#003350"/>
</svg>