<svg width="137" height="108" viewBox="0 0 137 108" fill="none" xmlns="http://www.w3.org/2000/svg">
<path d="M136.875 89.6257H0V89.6942H136.875V89.6257Z" fill="#EBEBEB"/>
<path d="M47.4188 91.3723H41.0732V91.4408H47.4188V91.3723Z" fill="#EBEBEB"/>
<path d="M125.589 92.8396H110.075V92.908H125.589V92.8396Z" fill="#EBEBEB"/>
<path d="M27.2077 92.8396H11.6943V92.908H27.2077V92.8396Z" fill="#EBEBEB"/>
<path d="M64.8787 77.4165H12.0203C11.6062 77.4158 11.2094 77.2508 10.9168 76.9577C10.6243 76.6646 10.46 76.2675 10.46 75.8534V1.54942C10.4636 1.13771 10.6295 0.744047 10.9216 0.453937C11.2138 0.163828 11.6086 0.000705286 12.0203 0H64.8787C65.2933 0 65.6909 0.164685 65.984 0.457825C66.2772 0.750966 66.4418 1.14855 66.4418 1.56311V1.56311V75.8534C66.4418 76.268 66.2772 76.6655 65.984 76.9587C65.6909 77.2518 65.2933 77.4165 64.8787 77.4165V77.4165ZM12.0203 0.0547502C11.6244 0.0554754 11.2449 0.213269 10.9652 0.493496C10.6855 0.773724 10.5284 1.15349 10.5284 1.54942V75.8534C10.5284 76.2493 10.6855 76.6291 10.9652 76.9093C11.2449 77.1895 11.6244 77.3473 12.0203 77.3481H64.8787C65.2747 77.3466 65.654 77.1887 65.934 76.9087C66.214 76.6287 66.372 76.2494 66.3734 75.8534V1.54942C66.372 1.15346 66.214 0.774118 65.934 0.494124C65.654 0.21413 65.2747 0.0561927 64.8787 0.0547502H12.0203Z" fill="#EBEBEB"/>
<path d="M124.093 77.4165H71.2321C70.8179 77.4151 70.4212 77.2499 70.1284 76.9571C69.8355 76.6643 69.6704 76.2675 69.6689 75.8534V1.54942C69.6733 1.13746 69.8398 0.7438 70.1324 0.453766C70.425 0.163732 70.8201 0.000697594 71.2321 0H124.093C124.504 0.00142473 124.899 0.164866 125.19 0.454898C125.482 0.74493 125.647 1.13818 125.651 1.54942V75.8534C125.651 76.0583 125.611 76.2613 125.533 76.4507C125.455 76.6402 125.34 76.8124 125.196 76.9575C125.051 77.1027 124.879 77.2179 124.69 77.2967C124.501 77.3754 124.298 77.4161 124.093 77.4165V77.4165ZM71.2321 0.0547502C70.8361 0.0561927 70.4567 0.21413 70.1768 0.494124C69.8968 0.774118 69.7388 1.15346 69.7374 1.54942V75.8534C69.7388 76.2494 69.8968 76.6287 70.1768 76.9087C70.4567 77.1887 70.8361 77.3466 71.2321 77.3481H124.093C124.489 77.3466 124.868 77.1887 125.148 76.9087C125.428 76.6287 125.586 76.2494 125.588 75.8534V1.54942C125.586 1.15346 125.428 0.774118 125.148 0.494124C124.868 0.21413 124.489 0.0561927 124.093 0.0547502H71.2321Z" fill="#EBEBEB"/>
<path d="M123.363 98.0874H117.45V98.1558H123.363V98.0874Z" fill="#EBEBEB"/>
<path d="M128.153 65.2318C127.581 63.5893 123.067 65.8231 121.246 68.5415C120.028 70.351 119.283 72.2864 118.938 74.8815C118.98 71.9141 119.026 68.7358 119.073 65.7328C119.442 64.9855 120.285 63.2554 120.896 61.9003C122.922 57.3341 127.74 55.6369 129.404 52.7516C131.594 48.9738 131.572 43.3099 129.716 41.2678C128.115 39.4802 122.757 51.4923 122.155 52.8337C120.516 56.4259 119.483 60.2647 119.097 64.1943C119.138 61.372 119.182 58.7823 119.218 56.773C119.33 50.255 119.472 48.1581 119.535 47.5147C119.76 47.1972 120.023 46.8304 120.173 46.6333C121.465 44.9689 124.334 42.9869 125.769 40.567C127.863 37.0328 127.523 32.8034 126.056 31.2403C124.52 29.5978 121.805 33.485 120.365 37.3394C118.925 41.1938 119.543 44.8867 119.136 48.0896C119.051 48.7274 118.963 51.1009 118.881 54.4132C118.443 50.8545 117.572 48.4674 115.96 46.2445C113.973 43.507 112.259 40.181 110.625 40.6108C108.99 41.0406 109.869 45.4479 111.172 48.5495C112.325 51.3034 118.016 54.0491 118.837 56.2638C118.741 60.7478 118.651 66.4391 118.588 71.7225C118.142 68.985 118.448 68.755 116.612 64.5776C115.517 62.0892 111.044 59.0205 110.512 60.7314C109.981 62.4423 110.786 65.6589 112.478 67.9392C113.847 69.7651 116.858 69.7624 117.567 70.8957C117.729 71.1695 118.268 72.1659 118.577 72.7545C118.503 79.2122 118.47 84.9145 118.509 86.8608L118.802 86.88C118.788 86.379 118.824 83.0913 118.881 78.7414C119.615 76.431 124.561 75.0786 126.089 72.6724C127.69 70.1402 128.837 67.2028 128.153 65.2318Z" fill="#E6E6E6"/>
<path d="M123.502 89.7735H114.014C113.764 89.7706 113.523 89.6824 113.33 89.5235C113.138 89.3647 113.005 89.1448 112.954 88.9002L112.278 85.5769H125.254L124.581 88.9002C124.529 89.148 124.394 89.3704 124.197 89.5295C124.001 89.6887 123.755 89.7749 123.502 89.7735V89.7735Z" fill="#E6E6E6"/>
<path d="M125.517 86.8636H111.999C111.842 86.8645 111.69 86.8075 111.573 86.7034C111.456 86.5993 111.381 86.4555 111.364 86.2996L111.09 83.8359C111.071 83.6703 111.118 83.5041 111.22 83.3726C111.323 83.2411 111.472 83.1549 111.637 83.1323H125.785C125.868 83.1316 125.951 83.1474 126.029 83.1789C126.106 83.2103 126.177 83.2567 126.237 83.3155C126.296 83.3742 126.343 83.4441 126.376 83.5212C126.408 83.5983 126.425 83.6811 126.425 83.7647C126.427 83.7893 126.427 83.814 126.425 83.8386L126.152 86.3024C126.135 86.4582 126.06 86.602 125.943 86.7058C125.825 86.8096 125.673 86.8659 125.517 86.8636V86.8636Z" fill="#F0F0F0"/>
<path d="M33.5921 9.31018H14.4844V30.2904H33.5921V9.31018Z" fill="#E6E6E6"/>
<path d="M35.2257 9.31018H14.7383V30.2904H35.2257V9.31018Z" fill="#F5F5F5"/>
<path d="M33.9198 10.616H16.0439V28.9819H33.9198V10.616Z" fill="white"/>
<path d="M22.3056 26.3319C21.2839 25.3094 20.71 23.923 20.71 22.4775C20.71 21.032 21.2839 19.6456 22.3056 18.6231V18.6231L27.6492 13.2686C28.6709 14.2911 29.2449 15.6774 29.2449 17.123C29.2449 18.5685 28.6709 19.9548 27.6492 20.9774L22.3056 26.3319Z" fill="#F5F5F5"/>
<path d="M27.7715 41.3527H14.7656V56.0311H27.7715V41.3527Z" fill="#E6E6E6"/>
<path d="M29.653 41.3527H15.084V56.0311H29.653V41.3527Z" fill="#F5F5F5"/>
<path d="M28.153 42.8556H16.5898V54.531H28.153V42.8556Z" fill="white"/>
<path d="M21.3205 46.3215L19.9945 47.6475C19.4172 48.2248 19.4172 49.1607 19.9945 49.738L21.3205 51.064C21.8977 51.6413 22.8337 51.6413 23.411 51.064L24.737 49.738C25.3143 49.1607 25.3143 48.2248 24.737 47.6475L23.411 46.3215C22.8337 45.7442 21.8977 45.7442 21.3205 46.3215Z" fill="#F5F5F5"/>
<path d="M56.3544 59.6885H50.4277V89.5847H56.3544V59.6885Z" fill="#E6E6E6"/>
<path d="M50.4274 59.6912H24.8564V89.5874H50.4274V59.6912Z" fill="#F0F0F0"/>
<path d="M48.0983 71.1914H27.1865V78.0817H48.0983V71.1914Z" fill="#E6E6E6"/>
<path d="M48.0983 79.6201H27.1865V86.5104H48.0983V79.6201Z" fill="#E6E6E6"/>
<path d="M35.2917 72.1167H39.9892C40.142 72.1152 40.2881 72.0539 40.3961 71.9459C40.5041 71.8379 40.5654 71.6918 40.5668 71.539V71.539C40.5661 71.3861 40.505 71.2396 40.3969 71.1314C40.2887 71.0232 40.1422 70.9621 39.9892 70.9614H35.2917C35.139 70.9621 34.9927 71.0233 34.885 71.1316C34.7773 71.2398 34.7168 71.3863 34.7168 71.539V71.539C34.7168 71.6918 34.7773 71.8383 34.885 71.9465C34.9927 72.0548 35.139 72.1159 35.2917 72.1167V72.1167Z" fill="#F0F0F0"/>
<path d="M48.0983 62.7654H27.1865V69.6557H48.0983V62.7654Z" fill="#E6E6E6"/>
<path d="M35.2917 63.6879H39.9892C40.1422 63.6872 40.2887 63.6261 40.3969 63.518C40.505 63.4098 40.5661 63.2633 40.5668 63.1103V63.1103C40.5654 62.9576 40.5041 62.8115 40.3961 62.7035C40.2881 62.5955 40.142 62.5341 39.9892 62.5327H35.2917C35.139 62.5334 34.9927 62.5946 34.885 62.7029C34.7773 62.8111 34.7168 62.9576 34.7168 63.1103V63.1103C34.7168 63.2631 34.7773 63.4096 34.885 63.5178C34.9927 63.626 35.139 63.6872 35.2917 63.6879Z" fill="#F0F0F0"/>
<path d="M35.2917 80.5455H39.9892C40.1427 80.5448 40.2896 80.4833 40.3978 80.3745C40.5061 80.2658 40.5668 80.1186 40.5668 79.9651V79.9651C40.5661 79.8124 40.5049 79.6662 40.3967 79.5585C40.2885 79.4507 40.1419 79.3903 39.9892 79.3903H35.2917C35.2162 79.3903 35.1414 79.4051 35.0717 79.434C35.0019 79.4629 34.9386 79.5052 34.8852 79.5586C34.8318 79.612 34.7895 79.6754 34.7606 79.7451C34.7317 79.8149 34.7168 79.8896 34.7168 79.9651V79.9651C34.7164 80.041 34.731 80.1162 34.7597 80.1864C34.7884 80.2566 34.8307 80.3205 34.884 80.3744C34.9374 80.4283 35.0009 80.4711 35.0708 80.5005C35.1408 80.5298 35.2158 80.5451 35.2917 80.5455V80.5455Z" fill="#F0F0F0"/>
<path d="M50.4276 58.1171H24.0654V59.6884H50.4276V58.1171Z" fill="#E6E6E6"/>
<path d="M57.1811 58.1199H50.4277V59.6912H57.1811V58.1199Z" fill="#E0E0E0"/>
<path d="M70.0797 107.211C96.5633 107.211 118.033 105.518 118.033 103.428C118.033 101.339 96.5633 99.645 70.0797 99.645C43.5961 99.645 22.127 101.339 22.127 103.428C22.127 105.518 43.5961 107.211 70.0797 107.211Z" fill="#F5F5F5"/>
<path d="M108.854 20.2109C108.459 18.9043 107.936 17.6398 107.293 16.4359V16.4359L108.265 13.255L101.985 6.95871L98.7987 7.93873C97.5987 7.28788 96.3345 6.76312 95.0264 6.37288V6.37288L93.466 3.43555H84.5883L83.0252 6.37288C81.7128 6.76344 80.4441 7.28816 79.2392 7.93873V7.93873L76.0555 6.96145L69.7593 13.2577L70.7338 16.4414C70.0875 17.6438 69.5647 18.9086 69.1735 20.2164L66.2471 21.7795V30.66L69.1844 32.2231C69.5754 33.5305 70.0992 34.7946 70.7475 35.9954V35.9954L69.773 39.1736L76.0692 45.4699L79.2529 44.498C80.4548 45.1447 81.7198 45.6666 83.0279 46.0557L84.5883 49.0012H93.4797L95.0401 46.0639C96.3471 45.6717 97.611 45.148 98.8124 44.5008L101.999 45.4726L108.295 39.1763L107.31 36.0008C107.952 34.7983 108.473 33.5346 108.864 32.2286V32.2286L111.791 30.66V21.7713L108.854 20.2109ZM89.0176 42.3382C85.8293 42.3376 82.7127 41.3917 80.0619 39.6199C77.4112 37.8482 75.3453 35.3302 74.1256 32.3844C72.9058 29.4386 72.5869 26.1973 73.2093 23.0703C73.8316 19.9433 75.3672 17.071 77.6219 14.8167C79.8766 12.5624 82.7491 11.0273 85.8763 10.4054C89.0034 9.78363 92.2447 10.103 95.1903 11.3233C98.1359 12.5435 100.653 14.6098 102.425 17.2609C104.196 19.9119 105.141 23.0287 105.141 26.217C105.141 30.4929 103.442 34.5933 100.418 37.6165C97.3942 40.6398 93.2934 42.3382 89.0176 42.3382V42.3382Z" fill="#003350"/>
<path d="M89.0174 12.3571C86.2758 12.3581 83.5962 13.1721 81.3172 14.696C79.0382 16.2199 77.2622 18.3854 76.2138 20.9185C75.1654 23.4517 74.8917 26.2388 75.4272 28.9276C75.9627 31.6163 77.2834 34.0859 79.2224 36.0241C81.1613 37.9623 83.6314 39.282 86.3204 39.8165C89.0093 40.3509 91.7964 40.0761 94.3292 39.0267C96.8619 37.9773 99.0266 36.2005 100.55 33.9209C102.073 31.6413 102.886 28.9613 102.886 26.2198C102.886 24.3988 102.527 22.5957 101.83 20.9135C101.133 19.2312 100.111 17.7028 98.8233 16.4154C97.5355 15.1281 96.0066 14.1071 94.3241 13.4107C92.6416 12.7144 90.8383 12.3563 89.0174 12.3571V12.3571ZM89.0174 38.2374C86.6405 38.2379 84.3169 37.5336 82.3403 36.2136C80.3637 34.8935 78.8229 33.017 77.9129 30.8212C77.0028 28.6255 76.7642 26.2092 77.2274 23.8779C77.6906 21.5466 78.8347 19.405 80.515 17.7239C82.1953 16.0429 84.3364 14.8978 86.6674 14.4336C88.9985 13.9693 91.4149 14.2068 93.6111 15.1159C95.8072 16.025 97.6845 17.5649 99.0054 19.5408C100.326 21.5168 101.032 23.8402 101.032 26.217V26.217C101.026 29.4021 99.758 32.4549 97.5063 34.7076C95.2547 36.9603 92.2024 38.2294 89.0174 38.2374V38.2374Z" fill="#003350"/>
<path opacity="0.4" d="M108.854 20.2109C108.459 18.9043 107.936 17.6398 107.293 16.4359V16.4359L108.265 13.255L101.985 6.95871L98.7987 7.93873C97.5987 7.28788 96.3345 6.76312 95.0264 6.37288V6.37288L93.466 3.43555H84.5883L83.0252 6.37288C81.7128 6.76344 80.4441 7.28816 79.2392 7.93873V7.93873L76.0555 6.96145L69.7593 13.2577L70.7338 16.4414C70.0875 17.6438 69.5647 18.9086 69.1735 20.2164L66.2471 21.7795V30.66L69.1844 32.2231C69.5754 33.5305 70.0992 34.7946 70.7475 35.9954V35.9954L69.773 39.1736L76.0692 45.4699L79.2529 44.498C80.4548 45.1447 81.7198 45.6666 83.0279 46.0557L84.5883 49.0012H93.4797L95.0401 46.0639C96.3471 45.6717 97.611 45.148 98.8124 44.5008L101.999 45.4726L108.295 39.1763L107.31 36.0008C107.952 34.7983 108.473 33.5346 108.864 32.2286V32.2286L111.791 30.66V21.7713L108.854 20.2109ZM89.0176 42.3382C85.8293 42.3376 82.7127 41.3917 80.0619 39.6199C77.4112 37.8482 75.3453 35.3302 74.1256 32.3844C72.9058 29.4386 72.5869 26.1973 73.2093 23.0703C73.8316 19.9433 75.3672 17.071 77.6219 14.8167C79.8766 12.5624 82.7491 11.0273 85.8763 10.4054C89.0034 9.78363 92.2447 10.103 95.1903 11.3233C98.1359 12.5435 100.653 14.6098 102.425 17.2609C104.196 19.9119 105.141 23.0287 105.141 26.217C105.141 30.4929 103.442 34.5933 100.418 37.6165C97.3942 40.6398 93.2934 42.3382 89.0176 42.3382V42.3382Z" fill="white"/>
<path opacity="0.4" d="M89.0174 12.3571C86.2758 12.3581 83.5962 13.1721 81.3172 14.696C79.0382 16.2199 77.2622 18.3854 76.2138 20.9185C75.1654 23.4517 74.8917 26.2388 75.4272 28.9276C75.9627 31.6163 77.2834 34.0859 79.2224 36.0241C81.1613 37.9623 83.6314 39.282 86.3204 39.8165C89.0093 40.3509 91.7964 40.0761 94.3292 39.0267C96.8619 37.9773 99.0266 36.2005 100.55 33.9209C102.073 31.6413 102.886 28.9613 102.886 26.2198C102.886 24.3988 102.527 22.5957 101.83 20.9135C101.133 19.2312 100.111 17.7028 98.8233 16.4154C97.5355 15.1281 96.0066 14.1071 94.3241 13.4107C92.6416 12.7144 90.8383 12.3563 89.0174 12.3571V12.3571ZM89.0174 38.2374C86.6405 38.2379 84.3169 37.5336 82.3403 36.2136C80.3637 34.8935 78.8229 33.017 77.9129 30.8212C77.0028 28.6255 76.7642 26.2092 77.2274 23.8779C77.6906 21.5466 78.8347 19.405 80.515 17.7239C82.1953 16.0429 84.3364 14.8978 86.6674 14.4336C88.9985 13.9693 91.4149 14.2068 93.6111 15.1159C95.8072 16.025 97.6845 17.5649 99.0054 19.5408C100.326 21.5168 101.032 23.8402 101.032 26.217V26.217C101.026 29.4021 99.758 32.4549 97.5063 34.7076C95.2547 36.9603 92.2024 38.2294 89.0174 38.2374V38.2374Z" fill="white"/>
<path d="M52.9211 37.8104C52.7148 37.1176 52.4397 36.4472 52.0999 35.8093L52.6173 34.1202L49.2748 30.7832L47.5857 31.3006C46.9478 30.9607 46.2774 30.6856 45.5846 30.4794L44.7634 28.9299H40.033L39.2117 30.4794C38.5189 30.6856 37.8485 30.9607 37.2106 31.3006L35.5216 30.7832L32.1873 34.1202L32.7019 35.8093C32.3631 36.4477 32.0881 37.118 31.8807 37.8104L30.3203 38.6316V43.3511L31.8807 44.1723C32.0869 44.8651 32.362 45.5355 32.7019 46.1734L32.1873 47.8625L35.5216 51.1995L37.2106 50.6821C37.8491 51.0208 38.5193 51.2959 39.2117 51.5034L40.033 53.05H44.7524L45.5737 51.5034C46.266 51.2959 46.9363 51.0208 47.5748 50.6821L49.2638 51.1995L52.6008 47.8625L52.0834 46.1734C52.4233 45.5355 52.6984 44.8651 52.9047 44.1723L54.4623 43.3511V38.6398L52.9211 37.8104ZM42.3927 47.701C41.0667 47.701 39.7706 47.3078 38.6681 46.5711C37.5656 45.8345 36.7063 44.7874 36.1989 43.5624C35.6915 42.3374 35.5587 40.9894 35.8174 39.6889C36.076 38.3884 36.7146 37.1939 37.6521 36.2563C38.5897 35.3187 39.7843 34.6802 41.0848 34.4215C42.3853 34.1628 43.7332 34.2956 44.9582 34.803C46.1833 35.3104 47.2303 36.1697 47.967 37.2722C48.7036 38.3747 49.0968 39.6709 49.0968 40.9968C49.0961 42.7747 48.3895 44.4795 47.1324 45.7366C45.8753 46.9937 44.1705 47.7002 42.3927 47.701V47.701Z" fill="#263238"/>
<path d="M52.9211 37.8104C52.7148 37.1176 52.4397 36.4472 52.0999 35.8093L52.6173 34.1202L49.2748 30.7832L47.5857 31.3006C46.9478 30.9607 46.2774 30.6856 45.5846 30.4794L44.7634 28.9299H40.033L39.2117 30.4794C38.5189 30.6856 37.8485 30.9607 37.2106 31.3006L35.5216 30.7832L32.1873 34.1202L32.7019 35.8093C32.3631 36.4477 32.0881 37.118 31.8807 37.8104L30.3203 38.6316V43.3511L31.8807 44.1723C32.0869 44.8651 32.362 45.5355 32.7019 46.1734L32.1873 47.8625L35.5216 51.1995L37.2106 50.6821C37.8491 51.0208 38.5193 51.2959 39.2117 51.5034L40.033 53.05H44.7524L45.5737 51.5034C46.266 51.2959 46.9363 51.0208 47.5748 50.6821L49.2638 51.1995L52.6008 47.8625L52.0834 46.1734C52.4233 45.5355 52.6984 44.8651 52.9047 44.1723L54.4623 43.3511V38.6398L52.9211 37.8104ZM42.3927 47.701C41.0667 47.701 39.7706 47.3078 38.6681 46.5711C37.5656 45.8345 36.7063 44.7874 36.1989 43.5624C35.6915 42.3374 35.5587 40.9894 35.8174 39.6889C36.076 38.3884 36.7146 37.1939 37.6521 36.2563C38.5897 35.3187 39.7843 34.6802 41.0848 34.4215C42.3853 34.1628 43.7332 34.2956 44.9582 34.803C46.1833 35.3104 47.2303 36.1697 47.967 37.2722C48.7036 38.3747 49.0968 39.6709 49.0968 40.9968C49.0961 42.7747 48.3895 44.4795 47.1324 45.7366C45.8753 46.9937 44.1705 47.7002 42.3927 47.701V47.701Z" fill="#003350"/>
<path d="M42.3928 38.7766C41.9531 38.7766 41.5234 38.907 41.1578 39.1512C40.7923 39.3955 40.5074 39.7426 40.3391 40.1488C40.1709 40.555 40.1269 41.0019 40.2126 41.4331C40.2984 41.8643 40.5101 42.2604 40.821 42.5713C41.1318 42.8821 41.5279 43.0938 41.9591 43.1796C42.3903 43.2654 42.8372 43.2213 43.2434 43.0531C43.6496 42.8849 43.9968 42.6 44.241 42.2344C44.4853 41.8689 44.6156 41.4391 44.6156 40.9995C44.6156 40.4099 44.3814 39.8445 43.9646 39.4277C43.5477 39.0108 42.9823 38.7766 42.3928 38.7766Z" fill="#263238"/>
<path opacity="0.4" d="M52.9211 37.8104C52.7148 37.1176 52.4397 36.4472 52.0999 35.8093L52.6173 34.1202L49.2748 30.7832L47.5857 31.3006C46.9478 30.9607 46.2774 30.6856 45.5846 30.4794L44.7634 28.9299H40.033L39.2117 30.4794C38.5189 30.6856 37.8485 30.9607 37.2106 31.3006L35.5216 30.7832L32.1873 34.1202L32.7019 35.8093C32.3631 36.4477 32.0881 37.118 31.8807 37.8104L30.3203 38.6316V43.3511L31.8807 44.1723C32.0869 44.8651 32.362 45.5355 32.7019 46.1734L32.1873 47.8625L35.5216 51.1995L37.2106 50.6821C37.8491 51.0208 38.5193 51.2959 39.2117 51.5034L40.033 53.05H44.7524L45.5737 51.5034C46.266 51.2959 46.9363 51.0208 47.5748 50.6821L49.2638 51.1995L52.6008 47.8625L52.0834 46.1734C52.4233 45.5355 52.6984 44.8651 52.9047 44.1723L54.4623 43.3511V38.6398L52.9211 37.8104ZM42.3927 47.701C41.0667 47.701 39.7706 47.3078 38.6681 46.5711C37.5656 45.8345 36.7063 44.7874 36.1989 43.5624C35.6915 42.3374 35.5587 40.9894 35.8174 39.6889C36.076 38.3884 36.7146 37.1939 37.6521 36.2563C38.5897 35.3187 39.7843 34.6802 41.0848 34.4215C42.3853 34.1628 43.7332 34.2956 44.9582 34.803C46.1833 35.3104 47.2303 36.1697 47.967 37.2722C48.7036 38.3747 49.0968 39.6709 49.0968 40.9968C49.0961 42.7747 48.3895 44.4795 47.1324 45.7366C45.8753 46.9937 44.1705 47.7002 42.3927 47.701V47.701Z" fill="white"/>
<path opacity="0.2" d="M42.3928 38.7766C41.9531 38.7766 41.5234 38.907 41.1578 39.1512C40.7923 39.3955 40.5074 39.7426 40.3391 40.1488C40.1709 40.555 40.1269 41.0019 40.2126 41.4331C40.2984 41.8643 40.5101 42.2604 40.821 42.5713C41.1318 42.8821 41.5279 43.0938 41.9591 43.1796C42.3903 43.2654 42.8372 43.2213 43.2434 43.0531C43.6496 42.8849 43.9968 42.6 44.241 42.2344C44.4853 41.8689 44.6156 41.4391 44.6156 40.9995C44.6156 40.4099 44.3814 39.8445 43.9646 39.4277C43.5477 39.0108 42.9823 38.7766 42.3928 38.7766Z" fill="white"/>
<path d="M57.2133 33.5317L55.4065 32.7871L55.3408 32.1082C55.1719 31.9657 55.0144 31.8101 54.87 31.6428L54.1966 31.5744L53.4492 29.7703L53.8845 29.253C53.8653 29.0316 53.8653 28.8091 53.8845 28.5877L53.4492 28.0731L54.202 26.28L54.8755 26.2143C55.0218 26.0419 55.1811 25.8809 55.3518 25.7325L55.4175 25.0564L57.2242 24.3118L57.7389 24.7443C57.9603 24.7279 58.1827 24.7279 58.4041 24.7443L58.9187 24.3118L60.7255 25.0564L60.7885 25.7325C60.9561 25.8774 61.1135 26.0338 61.2593 26.2006L61.9327 26.2663L62.6773 28.0704L62.2448 28.585C62.264 28.8063 62.264 29.0289 62.2448 29.2502L62.6773 29.7676L61.9327 31.5716L61.2593 31.6401C61.1149 31.8082 60.9574 31.9647 60.7885 32.1082L60.7255 32.7843L58.9187 33.5289L58.4041 33.0964C58.1836 33.1128 57.9621 33.1128 57.7416 33.0964L57.2133 33.5317ZM58.5218 32.7104L58.9899 33.0964L60.3587 32.5297L60.4134 31.9248L60.4791 31.8755C60.6711 31.72 60.848 31.5468 61.0075 31.3581L61.0567 31.2951L61.6617 31.2376L62.2284 29.8689L61.867 29.3871V29.3077C61.8917 29.0592 61.8917 28.8089 61.867 28.5604V28.47L62.253 27.9992L61.6864 26.6304L61.0841 26.5757L61.0321 26.51C60.871 26.3251 60.6922 26.1564 60.4983 26.0063L60.4326 25.9543L60.3778 25.352L59.0091 24.7826L58.5328 25.185H58.4534C58.205 25.1577 57.9544 25.1577 57.706 25.185H57.6239L57.1558 24.7963L55.787 25.3657L55.7296 25.968L55.6693 26.02C55.4753 26.173 55.2973 26.3454 55.1383 26.5346L55.0862 26.6003L54.4813 26.6551L53.9091 28.0238L54.2978 28.4919V28.5713C54.2705 28.8197 54.2705 29.0703 54.2978 29.3187V29.4008L53.9091 29.8388L54.4785 31.2075L55.0808 31.265L55.1328 31.3252C55.2899 31.5202 55.467 31.6982 55.6611 31.8563L55.7241 31.9056L55.7816 32.5133L57.1503 33.08L57.6212 32.694H57.7006C57.9491 32.7186 58.1994 32.7186 58.4479 32.694L58.5218 32.7104Z" fill="#263238"/>
<path d="M58.881 30.8571C58.4978 31.0163 58.0761 31.0582 57.6691 30.9776C57.2621 30.897 56.8882 30.6975 56.5946 30.4043C56.301 30.1112 56.1011 29.7375 56.02 29.3306C55.9388 28.9237 55.9803 28.5019 56.139 28.1186C56.2977 27.7352 56.5665 27.4076 56.9115 27.1771C57.2565 26.9466 57.6621 26.8236 58.077 26.8237C58.4919 26.8238 58.8974 26.947 59.2423 27.1777C59.5871 27.4084 59.8558 27.7362 60.0143 28.1196V28.1196C60.1198 28.3736 60.1743 28.6459 60.1746 28.9209C60.1749 29.1959 60.121 29.4683 60.016 29.7225C59.911 29.9767 59.757 30.2077 59.5627 30.4024C59.3684 30.5971 59.1377 30.7516 58.8837 30.8571H58.881Z" fill="#263238"/>
<path d="M43.7996 29.2529C43.7654 29.2529 43.7327 29.2393 43.7086 29.2152C43.6845 29.1911 43.6709 29.1584 43.6709 29.1242V28.47C43.6709 28.4358 43.6845 28.4031 43.7086 28.379C43.7327 28.3549 43.7654 28.3413 43.7996 28.3413C43.8337 28.3413 43.8664 28.3549 43.8905 28.379C43.9147 28.4031 43.9282 28.4358 43.9282 28.47V29.1133C43.9297 29.1311 43.9275 29.149 43.9218 29.1659C43.916 29.1828 43.9067 29.1983 43.8946 29.2114C43.8825 29.2246 43.8678 29.235 43.8515 29.2422C43.8351 29.2493 43.8174 29.253 43.7996 29.2529V29.2529Z" fill="#003350"/>
<path d="M43.7996 27.3175C43.7654 27.3175 43.7327 27.3039 43.7086 27.2798C43.6845 27.2557 43.6709 27.223 43.6709 27.1888V25.8967C43.6709 25.8626 43.6845 25.8299 43.7086 25.8058C43.7327 25.7816 43.7654 25.7681 43.7996 25.7681C43.8337 25.7681 43.8664 25.7816 43.8905 25.8058C43.9147 25.8299 43.9282 25.8626 43.9282 25.8967V27.1888C43.9282 27.223 43.9147 27.2557 43.8905 27.2798C43.8664 27.3039 43.8337 27.3175 43.7996 27.3175V27.3175ZM43.7996 24.7333C43.7654 24.7333 43.7327 24.7197 43.7086 24.6956C43.6845 24.6715 43.6709 24.6388 43.6709 24.6046V23.3125C43.6709 23.2784 43.6845 23.2457 43.7086 23.2216C43.7327 23.1974 43.7654 23.1839 43.7996 23.1839C43.8337 23.1839 43.8664 23.1974 43.8905 23.2216C43.9147 23.2457 43.9282 23.2784 43.9282 23.3125V24.6046C43.9282 24.6388 43.9147 24.6715 43.8905 24.6956C43.8664 24.7197 43.8337 24.7333 43.7996 24.7333V24.7333ZM43.7996 22.1518C43.7652 22.1511 43.7325 22.137 43.7084 22.1124C43.6844 22.0878 43.6709 22.0548 43.6709 22.0204V20.7311C43.6709 20.6969 43.6845 20.6642 43.7086 20.6401C43.7327 20.616 43.7654 20.6024 43.7996 20.6024C43.8337 20.6024 43.8664 20.616 43.8905 20.6401C43.9147 20.6642 43.9282 20.6969 43.9282 20.7311V22.0204C43.9282 22.0548 43.9148 22.0878 43.8907 22.1124C43.8667 22.137 43.8339 22.1511 43.7996 22.1518V22.1518ZM43.7996 19.5594C43.7831 19.5606 43.7665 19.5583 43.7509 19.5527C43.7354 19.5472 43.7211 19.5385 43.709 19.5272C43.697 19.5159 43.6873 19.5022 43.6808 19.487C43.6742 19.4719 43.6709 19.4555 43.6709 19.439V19.4198C43.6708 18.9801 43.7439 18.5434 43.8872 18.1277C43.8989 18.0958 43.9226 18.0697 43.9533 18.0549C43.9839 18.0401 44.0191 18.0377 44.0514 18.0483C44.0677 18.0535 44.0827 18.062 44.0956 18.0732C44.1084 18.0844 44.1189 18.0981 44.1263 18.1134C44.1337 18.1288 44.138 18.1455 44.1387 18.1625C44.1395 18.1796 44.1368 18.1966 44.1308 18.2126C43.9963 18.6008 43.9278 19.0089 43.9282 19.4198C43.9283 19.455 43.9151 19.489 43.8913 19.5149C43.8674 19.5407 43.8347 19.5567 43.7996 19.5594V19.5594ZM44.6208 17.1723C44.592 17.1728 44.5639 17.1631 44.5414 17.1449C44.5281 17.1345 44.517 17.1216 44.5087 17.1069C44.5004 17.0921 44.4951 17.0759 44.493 17.0591C44.491 17.0424 44.4923 17.0254 44.4968 17.0091C44.5014 16.9928 44.5091 16.9776 44.5195 16.9643C44.7978 16.6159 45.1328 16.317 45.5105 16.0801C45.5249 16.0711 45.5409 16.065 45.5576 16.0622C45.5743 16.0594 45.5914 16.0599 45.608 16.0637C45.6245 16.0676 45.6401 16.0746 45.6539 16.0844C45.6677 16.0943 45.6794 16.1067 45.6884 16.1211C45.6974 16.1355 45.7035 16.1515 45.7063 16.1682C45.7091 16.185 45.7086 16.2021 45.7048 16.2186C45.7009 16.2351 45.6939 16.2507 45.6841 16.2645C45.6742 16.2783 45.6618 16.2901 45.6474 16.2991C45.2945 16.5182 44.9815 16.7959 44.7221 17.1203C44.7027 17.1466 44.6745 17.165 44.6427 17.1723H44.6208ZM46.7698 15.8309C46.7378 15.8312 46.707 15.8196 46.6831 15.7983C46.6593 15.7771 46.6442 15.7478 46.6408 15.716C46.6374 15.6843 46.6459 15.6525 46.6647 15.6266C46.6834 15.6008 46.7111 15.5829 46.7424 15.5764C47.0228 15.5139 47.3092 15.4827 47.5965 15.4833H48.0536C48.0705 15.4833 48.0873 15.4866 48.1029 15.4931C48.1185 15.4995 48.1327 15.509 48.1446 15.521C48.1566 15.5329 48.166 15.5471 48.1725 15.5627C48.179 15.5783 48.1823 15.5951 48.1823 15.6119C48.1823 15.6288 48.179 15.6456 48.1725 15.6612C48.166 15.6768 48.1566 15.691 48.1446 15.7029C48.1327 15.7149 48.1185 15.7244 48.1029 15.7308C48.0873 15.7373 48.0705 15.7406 48.0536 15.7406H47.6321C47.3632 15.7409 47.0952 15.7703 46.8327 15.8282L46.7698 15.8309ZM68.7218 15.7406H67.4516C67.4174 15.7406 67.3847 15.7271 67.3606 15.7029C67.3365 15.6788 67.3229 15.6461 67.3229 15.6119C67.3229 15.5778 67.3365 15.5451 67.3606 15.521C67.3847 15.4968 67.4174 15.4833 67.4516 15.4833H68.7437C68.7606 15.4833 68.7773 15.4866 68.7929 15.4931C68.8085 15.4995 68.8227 15.509 68.8346 15.521C68.8466 15.5329 68.8561 15.5471 68.8625 15.5627C68.869 15.5783 68.8723 15.5951 68.8723 15.6119C68.8723 15.6288 68.869 15.6456 68.8625 15.6612C68.8561 15.6768 68.8466 15.691 68.8346 15.7029C68.8227 15.7149 68.8085 15.7244 68.7929 15.7308C68.7773 15.7373 68.7606 15.7406 68.7437 15.7406H68.7218ZM66.1376 15.7406H64.8783C64.8614 15.7406 64.8447 15.7373 64.8291 15.7308C64.8135 15.7244 64.7993 15.7149 64.7873 15.7029C64.7754 15.691 64.7659 15.6768 64.7594 15.6612C64.753 15.6456 64.7496 15.6288 64.7496 15.6119C64.7496 15.5951 64.753 15.5783 64.7594 15.5627C64.7659 15.5471 64.7754 15.5329 64.7873 15.521C64.7993 15.509 64.8135 15.4995 64.8291 15.4931C64.8447 15.4866 64.8614 15.4833 64.8783 15.4833H66.1677C66.1846 15.4833 66.2013 15.4866 66.2169 15.4931C66.2325 15.4995 66.2467 15.509 66.2587 15.521C66.2706 15.5329 66.2801 15.5471 66.2865 15.5627C66.293 15.5783 66.2963 15.5951 66.2963 15.6119C66.2963 15.6288 66.293 15.6456 66.2865 15.6612C66.2801 15.6768 66.2706 15.691 66.2587 15.7029C66.2467 15.7149 66.2325 15.7244 66.2169 15.7308C66.2013 15.7373 66.1846 15.7406 66.1677 15.7406H66.1376ZM63.5561 15.7406H62.264C62.2299 15.7406 62.1972 15.7271 62.173 15.7029C62.1489 15.6788 62.1353 15.6461 62.1353 15.6119C62.1353 15.5778 62.1489 15.5451 62.173 15.521C62.1972 15.4968 62.2299 15.4833 62.264 15.4833H63.5561C63.573 15.4833 63.5897 15.4866 63.6053 15.4931C63.6209 15.4995 63.6351 15.509 63.6471 15.521C63.659 15.5329 63.6685 15.5471 63.675 15.5627C63.6814 15.5783 63.6848 15.5951 63.6848 15.6119C63.6848 15.6288 63.6814 15.6456 63.675 15.6612C63.6685 15.6768 63.659 15.691 63.6471 15.7029C63.6351 15.7149 63.6209 15.7244 63.6053 15.7308C63.5897 15.7373 63.573 15.7406 63.5561 15.7406V15.7406ZM60.9719 15.7406H59.6798C59.6457 15.7406 59.6129 15.7271 59.5888 15.7029C59.5647 15.6788 59.5511 15.6461 59.5511 15.6119C59.5511 15.5778 59.5647 15.5451 59.5888 15.521C59.6129 15.4968 59.6457 15.4833 59.6798 15.4833H60.9719C60.9888 15.4833 61.0055 15.4866 61.0211 15.4931C61.0367 15.4995 61.0509 15.509 61.0629 15.521C61.0748 15.5329 61.0843 15.5471 61.0908 15.5627C61.0972 15.5783 61.1006 15.5951 61.1006 15.6119C61.1006 15.6288 61.0972 15.6456 61.0908 15.6612C61.0843 15.6768 61.0748 15.691 61.0629 15.7029C61.0509 15.7149 61.0367 15.7244 61.0211 15.7308C61.0055 15.7373 60.9888 15.7406 60.9719 15.7406V15.7406ZM58.3877 15.7406H57.0956C57.0615 15.7406 57.0287 15.7271 57.0046 15.7029C56.9805 15.6788 56.9669 15.6461 56.9669 15.6119C56.9669 15.5778 56.9805 15.5451 57.0046 15.521C57.0287 15.4968 57.0615 15.4833 57.0956 15.4833H58.3877C58.4046 15.4833 58.4213 15.4866 58.4369 15.4931C58.4525 15.4995 58.4667 15.509 58.4787 15.521C58.4906 15.5329 58.5001 15.5471 58.5066 15.5627C58.513 15.5783 58.5164 15.5951 58.5164 15.6119C58.5164 15.6288 58.513 15.6456 58.5066 15.6612C58.5001 15.6768 58.4906 15.691 58.4787 15.7029C58.4667 15.7149 58.4525 15.7244 58.4369 15.7308C58.4213 15.7373 58.4046 15.7406 58.3877 15.7406V15.7406ZM55.8035 15.7406H54.5141C54.4972 15.7406 54.4805 15.7373 54.4649 15.7308C54.4493 15.7244 54.4351 15.7149 54.4232 15.7029C54.4112 15.691 54.4017 15.6768 54.3953 15.6612C54.3888 15.6456 54.3855 15.6288 54.3855 15.6119C54.3855 15.5951 54.3888 15.5783 54.3953 15.5627C54.4017 15.5471 54.4112 15.5329 54.4232 15.521C54.4351 15.509 54.4493 15.4995 54.4649 15.4931C54.4805 15.4866 54.4972 15.4833 54.5141 15.4833H55.8035C55.8204 15.4833 55.8371 15.4866 55.8527 15.4931C55.8683 15.4995 55.8825 15.509 55.8945 15.521C55.9064 15.5329 55.9159 15.5471 55.9224 15.5627C55.9288 15.5783 55.9322 15.5951 55.9322 15.6119C55.9322 15.6288 55.9288 15.6456 55.9224 15.6612C55.9159 15.6768 55.9064 15.691 55.8945 15.7029C55.8825 15.7149 55.8683 15.7244 55.8527 15.7308C55.8371 15.7373 55.8204 15.7406 55.8035 15.7406V15.7406ZM53.222 15.7406H51.9299C51.8958 15.7406 51.8631 15.7271 51.839 15.7029C51.8148 15.6788 51.8013 15.6461 51.8013 15.6119C51.8013 15.5778 51.8148 15.5451 51.839 15.521C51.8631 15.4968 51.8958 15.4833 51.9299 15.4833H53.222C53.2389 15.4833 53.2557 15.4866 53.2713 15.4931C53.2869 15.4995 53.3011 15.509 53.313 15.521C53.325 15.5329 53.3344 15.5471 53.3409 15.5627C53.3474 15.5783 53.3507 15.5951 53.3507 15.6119C53.3507 15.6288 53.3474 15.6456 53.3409 15.6612C53.3344 15.6768 53.325 15.691 53.313 15.7029C53.3011 15.7149 53.2869 15.7244 53.2713 15.7308C53.2557 15.7373 53.2389 15.7406 53.222 15.7406V15.7406ZM50.6378 15.7406H49.3457C49.3116 15.7406 49.2789 15.7271 49.2548 15.7029C49.2306 15.6788 49.2171 15.6461 49.2171 15.6119C49.2171 15.5778 49.2306 15.5451 49.2548 15.521C49.2789 15.4968 49.3116 15.4833 49.3457 15.4833H50.6378C50.6547 15.4833 50.6715 15.4866 50.6871 15.4931C50.7027 15.4995 50.7169 15.509 50.7288 15.521C50.7408 15.5329 50.7502 15.5471 50.7567 15.5627C50.7632 15.5783 50.7665 15.5951 50.7665 15.6119C50.7665 15.6288 50.7632 15.6456 50.7567 15.6612C50.7502 15.6768 50.7408 15.691 50.7288 15.7029C50.7169 15.7149 50.7027 15.7244 50.6871 15.7308C50.6715 15.7373 50.6547 15.7406 50.6378 15.7406V15.7406Z" fill="#003350"/>
<path d="M70.6849 15.7406H70.0388C70.0047 15.7406 69.972 15.727 69.9478 15.7029C69.9237 15.6788 69.9102 15.6461 69.9102 15.6119C69.9102 15.5778 69.9237 15.5451 69.9478 15.521C69.972 15.4968 70.0047 15.4833 70.0388 15.4833H70.6849C70.719 15.4833 70.7517 15.4968 70.7758 15.521C70.8 15.5451 70.8135 15.5778 70.8135 15.6119C70.8135 15.6461 70.8 15.6788 70.7758 15.7029C70.7517 15.727 70.719 15.7406 70.6849 15.7406V15.7406Z" fill="#003350"/>
<path d="M43.7334 103.141H45.083L45.083 60.9641H43.7334L43.7334 103.141Z" fill="#263238"/>
<path d="M99.335 79.8801H77.0462V76.7895H99.335C99.6043 76.7895 99.8627 76.8965 100.053 77.087C100.244 77.2774 100.351 77.5357 100.351 77.8051V78.8645C100.351 78.9979 100.324 79.13 100.273 79.2532C100.222 79.3764 100.147 79.4884 100.053 79.5827C99.9588 79.677 99.8468 79.7518 99.7236 79.8028C99.6004 79.8539 99.4683 79.8801 99.335 79.8801V79.8801Z" fill="#003350"/>
<path d="M98.4784 103.373L96.8633 77.8462" stroke="#003350" stroke-width="0.773481" stroke-linecap="round" stroke-linejoin="round"/>
<path d="M92.2938 104.638L90.6787 79.111" stroke="#003350" stroke-width="0.773481" stroke-linecap="round" stroke-linejoin="round"/>
<path d="M76.0859 103.373L77.7011 77.8462" stroke="#003350" stroke-width="0.773481" stroke-linecap="round" stroke-linejoin="round"/>
<path d="M82.2695 104.638L83.8847 79.111" stroke="#003350" stroke-width="0.773481" stroke-linecap="round" stroke-linejoin="round"/>
<path d="M101.314 77.8462H79.0257V74.7556H101.314C101.584 74.7556 101.842 74.8626 102.033 75.053C102.223 75.2435 102.33 75.5018 102.33 75.7712V76.8306C102.33 77.0999 102.223 77.3583 102.033 77.5487C101.842 77.7392 101.584 77.8462 101.314 77.8462Z" fill="#003350"/>
<path opacity="0.2" d="M101.314 77.8462H79.0257V74.7556H101.314C101.584 74.7556 101.842 74.8626 102.033 75.053C102.223 75.2435 102.33 75.5018 102.33 75.7712V76.8306C102.33 77.0999 102.223 77.3583 102.033 77.5487C101.842 77.7392 101.584 77.8462 101.314 77.8462Z" fill="black"/>
<path d="M78.8672 104.148H80.2168V61.9715H78.8672V104.148Z" fill="#263238"/>
<path d="M83.4656 65.1798C83.4656 65.1798 68.0398 65.7602 65.4775 71.9524C65.4775 71.9524 65.8334 90.3949 67.8975 96.4475L72.3131 95.9466L71.6068 78.0187L87.5637 65.1853L83.4656 65.1798Z" fill="#263238"/>
<path opacity="0.2" d="M83.4656 65.1798C83.4656 65.1798 68.0398 65.7602 65.4775 71.9524C65.4775 71.9524 65.8334 90.3949 67.8975 96.4475L72.3131 95.9466L71.6068 78.0187L87.5637 65.1853L83.4656 65.1798Z" fill="black"/>
<path d="M71.5821 100.562H68.8255L68.7871 98.7252L68.7598 97.2853L71.4535 97.4495L71.5055 98.7252L71.5821 100.562Z" fill="#B55B52"/>
<path opacity="0.2" d="M71.5055 98.7252H68.7871L68.7598 97.2853L71.4535 97.4495L71.5055 98.7252Z" fill="black"/>
<path d="M72.8138 97.871L66.9118 98.049L65.8359 95.859L72.6496 95.796L72.8138 97.871Z" fill="#003350"/>
<path d="M68.1195 100.978C68.1195 100.978 68.2619 99.3603 67.6979 99.5847C67.134 99.8092 67.7636 100.636 68.1195 100.978Z" stroke="#003350" stroke-width="0.257827" stroke-miterlimit="10"/>
<path d="M68.1197 100.978C68.1197 100.978 66.907 100.13 66.5977 100.562C66.2884 100.995 68.1197 100.978 68.1197 100.978Z" stroke="#003350" stroke-width="0.257827" stroke-miterlimit="10"/>
<path d="M69.0803 100.192L71.2703 100.214C71.4248 100.218 71.5724 100.279 71.6847 100.385C71.797 100.491 71.8658 100.635 71.878 100.789L72.0313 102.725C72.0386 102.808 72.0282 102.893 72.0007 102.973C71.9731 103.052 71.9291 103.125 71.8715 103.187C71.8139 103.248 71.744 103.297 71.6664 103.329C71.5887 103.362 71.505 103.378 71.4208 103.376C70.2355 103.341 67.7964 103.278 66.9313 103.302C65.7734 103.335 64.1281 103.354 63.8927 102.913C63.8257 102.795 63.803 102.657 63.8286 102.524C63.8542 102.39 63.9264 102.27 64.0323 102.185C64.0323 102.185 67.1887 101.892 68.6395 100.392C68.6959 100.331 68.7639 100.282 68.8396 100.248C68.9153 100.213 68.9972 100.195 69.0803 100.192Z" fill="#263238"/>
<path d="M97.3068 65.1798C97.3068 65.1798 97.5997 68.7741 97.4902 71.5527C97.3643 74.7556 90.4686 77.5752 80.4301 75.9327C80.4301 75.9327 79.6472 81.3447 76.8714 86.3352C74.0956 91.3257 69.7539 98.7251 69.7539 98.7251L65.4834 95.9466C65.4834 95.9466 71.1062 80.3428 72.1766 76.0121C73.2469 71.6814 73.6713 69.6036 76.7318 68.2513C79.7923 66.899 86.4855 65.1798 86.4855 65.1798H97.3068Z" fill="#263238"/>
<path d="M68.1189 97.9093L67.6125 98.6868L66.4983 100.403L64.3604 99.1576L65.48 97.4166L65.9152 96.7432L68.1189 97.9093Z" fill="#B55B52"/>
<path opacity="0.2" d="M68.1194 97.9093L67.613 98.6868L65.4805 97.4166L65.9157 96.7432L68.1194 97.9093Z" fill="black"/>
<path d="M70.8647 97.2851L65.2665 93.9344L64.3604 96.171L69.6738 99.2397L70.8647 97.2851Z" fill="#003350"/>
<path d="M62.8957 99.2398C62.8957 99.2398 63.3036 97.8382 62.8464 97.8108C62.3893 97.7834 62.8957 99.2398 62.8957 99.2398Z" stroke="#003350" stroke-width="0.257827" stroke-miterlimit="10"/>
<path d="M62.7898 99.1878C62.7898 99.1878 62.1575 97.6657 61.6483 98.0052C61.1391 98.3446 62.7898 99.1878 62.7898 99.1878Z" stroke="#003350" stroke-width="0.257827" stroke-miterlimit="10"/>
<path d="M64.6366 99.0044L66.5035 100.099C66.6348 100.176 66.7319 100.3 66.7751 100.446C66.8183 100.592 66.8044 100.749 66.7362 100.885L65.8903 102.601C65.8529 102.676 65.8004 102.743 65.7359 102.797C65.6715 102.85 65.5966 102.89 65.5161 102.913C65.4355 102.936 65.351 102.942 65.2679 102.931C65.1849 102.92 65.105 102.892 65.0335 102.848C64.0288 102.229 61.9566 100.962 61.201 100.554C60.1827 100.006 58.7564 99.2069 58.7756 98.7169C58.7794 98.5825 58.8308 98.4538 58.9205 98.3536C59.0101 98.2534 59.1324 98.1881 59.2656 98.1694C59.2656 98.1694 62.1345 99.4889 64.1466 98.9414C64.2283 98.9188 64.3138 98.9127 64.3979 98.9235C64.482 98.9343 64.5632 98.9618 64.6366 99.0044Z" fill="#263238"/>
<path d="M79.9776 49.4721C79.9776 49.4721 79.4028 55.7519 79.6327 57.367C79.6327 57.367 73.6321 58.2458 70.599 57.8297L68.5677 57.3205L66.0273 57.9419L66.7199 59.954H68.7512C68.7512 59.954 70.2294 60.3701 70.8755 59.954C70.8755 59.954 75.9535 60.9696 78.9538 60.6466C81.9541 60.3235 82.8849 59.182 83.019 56.9071C83.1449 54.7171 84.5876 49.8389 83.4351 48.7302L79.9776 49.4721Z" fill="#B55B52"/>
<path d="M100.586 50.1783C100.586 50.1783 98.2837 44.331 96.0444 43.0116C93.8051 41.6921 83.4355 44.2161 83.4355 44.2161C83.4355 44.2161 78.987 45.6478 78.7324 52.5983L82.8195 54.3311L83.4656 65.1798H97.3064L97.2325 51.1283L100.586 50.1783Z" fill="#003350"/>
<path d="M83.6244 32.7569C83.6244 32.7569 82.2557 32.5844 81.8834 31.5579C81.5111 30.5313 82.94 31.0487 82.8196 29.1927C82.6991 27.3366 84.8317 26.8932 86.3783 27.7089C87.925 28.5247 90.3806 27.635 91.3058 28.7492C92.2311 29.8633 91.826 30.9009 91.826 30.9009C91.826 30.9009 94.4868 33.9121 91.1142 35.968C87.7416 38.0238 83.6244 32.7569 83.6244 32.7569Z" fill="#263238"/>
<path d="M91.6724 42.7624C90.1942 45.0154 88.8638 45.2481 87.0817 45.2453C85.0805 45.2453 85.7512 43.8246 85.7512 43.8246C86.5889 43.4057 87.1994 42.9568 87.2952 41.9248C87.3146 41.7246 87.3192 41.5233 87.3089 41.3225C87.2893 40.8578 87.2093 40.3977 87.0707 39.9538C84.2374 40.2111 83.2382 38.8286 82.8851 36.2198C82.688 34.6151 82.98 32.9884 83.7227 31.5524C85.3652 33.485 88.4559 31.9712 88.4559 31.9712C87.5881 34.4815 89.7124 35.3821 89.7124 35.3821C90.5336 34.8675 91.1906 35.3164 91.1277 36.3156C91.1155 36.5944 91.02 36.863 90.8536 37.087C90.6872 37.311 90.4575 37.4799 90.1942 37.5721C90.0327 42.0206 91.6724 42.7624 91.6724 42.7624Z" fill="#B55B52"/>
<path d="M84.5028 37.2463C84.4805 37.2464 84.459 37.2379 84.4427 37.2226C84.4265 37.2074 84.4166 37.1865 84.4152 37.1642C84.4145 37.1527 84.416 37.1412 84.4197 37.1303C84.4235 37.1193 84.4293 37.1093 84.437 37.1006C84.4446 37.092 84.4538 37.0849 84.4642 37.0799C84.4746 37.0748 84.4858 37.0718 84.4974 37.0711C85.4883 37.0191 85.8661 36.5428 85.8798 36.5373C85.8867 36.5284 85.8954 36.521 85.9052 36.5155C85.9151 36.51 85.9259 36.5065 85.9371 36.5052C85.9484 36.5039 85.9597 36.5049 85.9705 36.5081C85.9814 36.5112 85.9915 36.5165 86.0002 36.5236C86.0094 36.5306 86.0172 36.5394 86.023 36.5494C86.0288 36.5593 86.0326 36.5704 86.0341 36.5818C86.0356 36.5933 86.0348 36.6049 86.0319 36.6161C86.0289 36.6272 86.0237 36.6377 86.0167 36.6468C86.0002 36.6687 85.5841 37.1943 84.5083 37.2463H84.5028Z" fill="#263238"/>
<path d="M84.5037 36.1678L84.3422 34.5061L83.625 36.0172C83.7457 36.1166 83.8902 36.1828 84.0444 36.2093C84.1985 36.2357 84.3568 36.2214 84.5037 36.1678Z" fill="#A02724"/>
<path d="M85.6094 34.5062C85.6094 34.7142 85.7052 34.884 85.8256 34.884C85.9461 34.884 86.0419 34.7142 86.0419 34.5062C86.0419 34.2981 85.9461 34.1284 85.8256 34.1284C85.7052 34.1284 85.6094 34.2981 85.6094 34.5062Z" fill="#263238"/>
<path d="M83.4077 34.884C83.5271 34.884 83.6239 34.7148 83.6239 34.5062C83.6239 34.2976 83.5271 34.1284 83.4077 34.1284C83.2882 34.1284 83.1914 34.2976 83.1914 34.5062C83.1914 34.7148 83.2882 34.884 83.4077 34.884Z" fill="#263238"/>
<path d="M87.052 33.6712C87.0332 33.6717 87.0146 33.6674 86.9978 33.6588C86.9811 33.6502 86.9668 33.6375 86.9562 33.6219C86.9425 33.6 86.5839 33.1182 85.7517 33.2715C85.7366 33.2747 85.721 33.2748 85.7058 33.2718C85.6907 33.2688 85.6763 33.2628 85.6635 33.2541C85.6507 33.2454 85.6398 33.2342 85.6315 33.2212C85.6231 33.2082 85.6174 33.1937 85.6148 33.1784C85.6099 33.1481 85.6168 33.1169 85.6341 33.0915C85.6514 33.066 85.6778 33.0482 85.7079 33.0416C86.6934 32.8609 87.1287 33.4604 87.1478 33.4878C87.1597 33.5054 87.1665 33.5258 87.1677 33.547C87.1689 33.5681 87.1643 33.5892 87.1545 33.608C87.1447 33.6268 87.13 33.6426 87.1119 33.6537C87.0939 33.6648 87.0732 33.6709 87.052 33.6712V33.6712Z" fill="#263238"/>
<path d="M83.0412 33.5179C83.0221 33.5175 83.0034 33.5129 82.9864 33.5042C82.9729 33.4973 82.9608 33.4877 82.951 33.4761C82.9412 33.4645 82.9337 33.451 82.9292 33.4365C82.9246 33.422 82.9229 33.4067 82.9243 33.3915C82.9257 33.3764 82.93 33.3616 82.9371 33.3482C83.0295 33.1943 83.1654 33.0714 83.3277 32.9949C83.4899 32.9183 83.6713 32.8917 83.8487 32.9184C83.8639 32.9204 83.8785 32.9254 83.8917 32.9331C83.9049 32.9409 83.9164 32.9511 83.9256 32.9634C83.9348 32.9756 83.9414 32.9896 83.9451 33.0044C83.9489 33.0192 83.9496 33.0347 83.9473 33.0498C83.9456 33.0648 83.9409 33.0794 83.9335 33.0926C83.926 33.1058 83.916 33.1173 83.904 33.1265C83.8919 33.1357 83.8782 33.1424 83.8635 33.1461C83.8489 33.1499 83.8336 33.1506 83.8186 33.1483C83.6887 33.1288 83.556 33.1474 83.4365 33.2018C83.3169 33.2562 83.2158 33.3442 83.1452 33.4549C83.1348 33.4735 83.1197 33.4891 83.1015 33.5001C83.0832 33.5112 83.0625 33.5173 83.0412 33.5179Z" fill="#263238"/>
<path d="M82.8556 35.801C82.5996 35.8004 82.3495 35.724 82.137 35.5814C81.9244 35.4388 81.7588 35.2364 81.6613 34.9998C81.5637 34.7631 81.5384 34.5028 81.5887 34.2519C81.639 34.0009 81.7625 33.7704 81.9437 33.5896C82.1249 33.4088 82.3556 33.2857 82.6067 33.236C82.8578 33.1862 83.118 33.212 83.3545 33.3101C83.5909 33.4082 83.793 33.5742 83.9351 33.7871C84.0773 33.9999 84.1532 34.2502 84.1532 34.5061C84.1532 34.6764 84.1196 34.845 84.0543 35.0023C83.9891 35.1596 83.8935 35.3024 83.7729 35.4227C83.6524 35.543 83.5093 35.6383 83.3519 35.7032C83.1945 35.7681 83.0259 35.8013 82.8556 35.801ZM82.8556 33.3838C82.6336 33.3838 82.4166 33.4496 82.232 33.5729C82.0474 33.6962 81.9036 33.8715 81.8186 34.0766C81.7337 34.2817 81.7115 34.5074 81.7548 34.7251C81.7981 34.9428 81.905 35.1428 82.0619 35.2998C82.2189 35.4567 82.4189 35.5636 82.6366 35.6069C82.8543 35.6503 83.08 35.628 83.2851 35.5431C83.4902 35.4581 83.6655 35.3143 83.7888 35.1297C83.9121 34.9451 83.9779 34.7281 83.9779 34.5061C83.9743 34.2108 83.8545 33.9289 83.6444 33.7213C83.4343 33.5138 83.1509 33.3974 82.8556 33.3975V33.3838Z" fill="white"/>
<path d="M85.9569 35.801C85.7009 35.801 85.4505 35.725 85.2376 35.5828C85.0246 35.4405 84.8587 35.2383 84.7607 35.0017C84.6627 34.7651 84.637 34.5047 84.687 34.2535C84.737 34.0024 84.8603 33.7716 85.0414 33.5906C85.2224 33.4095 85.4532 33.2861 85.7043 33.2362C85.9555 33.1862 86.2159 33.2119 86.4525 33.3099C86.6891 33.4079 86.8913 33.5738 87.0336 33.7868C87.1758 33.9997 87.2518 34.25 87.2518 34.5061C87.2511 34.8493 87.1144 35.1783 86.8717 35.4209C86.6291 35.6636 86.3001 35.8003 85.9569 35.801ZM85.9569 33.3838C85.7348 33.3832 85.5176 33.4486 85.3326 33.5716C85.1477 33.6946 85.0034 33.8697 84.9181 34.0747C84.8327 34.2798 84.8101 34.5055 84.8531 34.7234C84.8961 34.9413 85.0027 35.1416 85.1596 35.2988C85.3165 35.456 85.5164 35.5632 85.7342 35.6067C85.952 35.6503 86.1778 35.6282 86.3831 35.5433C86.5883 35.4585 86.7638 35.3146 86.8872 35.13C87.0107 34.9453 87.0766 34.7282 87.0766 34.5061C87.0723 34.2115 86.9526 33.9304 86.7432 33.7231C86.5339 33.5158 86.2516 33.3989 85.9569 33.3975V33.3838Z" fill="white"/>
<path d="M84.1523 34.5061H84.6506" stroke="white" stroke-width="0.257827" stroke-miterlimit="10"/>
<path d="M87.1582 34.7443L89.5864 35.3274" stroke="white" stroke-width="0.257827" stroke-linecap="round" stroke-linejoin="round"/>
<path opacity="0.2" d="M88.0102 39.6937C87.8551 40.2637 87.6191 40.8085 87.3095 41.3116C87.2899 40.8469 87.2098 40.3868 87.0713 39.9428L88.0102 39.6937Z" fill="black"/>
<path opacity="0.2" d="M82.8199 54.3311V52.5983L82.1191 54.0355L82.8199 54.3311Z" fill="black"/>
<path opacity="0.2" d="M94.243 52.0179L93.7092 48.8999L93.5586 52.2944L94.243 52.0179Z" fill="black"/>
<path d="M98.0624 58.5605C98.0295 60.8409 97.0029 61.9769 93.9999 62.3C90.9969 62.623 85.9215 61.6074 85.9215 61.6074C85.2755 62.0235 83.7972 61.6074 83.7972 61.6074H81.766L81.0762 59.5953L83.6138 58.9766L85.6451 59.4831C88.6919 59.8992 94.6925 59.0232 94.6925 59.0232C94.52 57.8132 94.3257 53.863 94.2435 52.0179L97.8242 50.9585C98.1773 53.3812 98.0925 56.595 98.0624 58.5605Z" fill="#B55B52"/>
<path d="M45.1048 46.6524L47.5275 59.0013C47.5812 59.2689 47.7258 59.5098 47.9369 59.6829C48.148 59.856 48.4124 59.9508 48.6854 59.9512H69.1975C69.3697 59.9511 69.5397 59.9132 69.6956 59.8403C69.8515 59.7674 69.9896 59.6611 70.1 59.529C70.2104 59.397 70.2905 59.2423 70.3346 59.0759C70.3788 58.9095 70.3859 58.7354 70.3555 58.566L68.1655 46.2171C68.1172 45.9452 67.9746 45.6991 67.7629 45.5218C67.5511 45.3446 67.2836 45.2477 67.0075 45.2481H46.2627C46.0885 45.2471 45.9162 45.285 45.7584 45.3589C45.6006 45.4328 45.4612 45.5409 45.3503 45.6753C45.2395 45.8098 45.1599 45.9672 45.1174 46.1362C45.075 46.3052 45.0706 46.4815 45.1048 46.6524Z" fill="#003350"/>
<path opacity="0.2" d="M67.3066 45.2481L69.8689 59.9512C69.9589 59.9514 70.0478 59.9319 70.1293 59.8939C70.2109 59.856 70.283 59.8005 70.3408 59.7316C70.3985 59.6626 70.4404 59.5818 70.4634 59.4949C70.4864 59.4079 70.49 59.317 70.4739 59.2285L68.0731 45.7518C68.0479 45.6099 67.9734 45.4815 67.8627 45.3894C67.752 45.2972 67.6122 45.2471 67.4682 45.2481H67.3066Z" fill="black"/>
<path d="M47.7686 61.131H79.3155C79.3159 60.976 79.2856 60.8224 79.2264 60.6791C79.1673 60.5358 79.0804 60.4056 78.9707 60.2959C78.8611 60.1863 78.7309 60.0994 78.5876 60.0402C78.4443 59.9811 78.2907 59.9508 78.1356 59.9512H48.9539C48.7986 59.9508 48.6447 59.981 48.5011 60.0401C48.3575 60.0992 48.2269 60.186 48.1169 60.2956C48.0068 60.4052 47.9194 60.5353 47.8596 60.6787C47.7999 60.822 47.7689 60.9757 47.7686 61.131V61.131Z" fill="#003350"/>
<path opacity="0.2" d="M68.8936 61.131H79.3152C79.3156 60.976 79.2853 60.8224 79.2261 60.6791C79.167 60.5358 79.0801 60.4056 78.9704 60.2959C78.8608 60.1863 78.7306 60.0994 78.5873 60.0402C78.444 59.9811 78.2904 59.9508 78.1354 59.9512H70.0789C69.9236 59.9508 69.7697 59.981 69.6261 60.0401C69.4825 60.0992 69.3519 60.186 69.2419 60.2956C69.1318 60.4052 69.0444 60.5353 68.9846 60.6787C68.9249 60.822 68.8939 60.9757 68.8936 61.131V61.131Z" fill="black"/>
<path opacity="0.4" d="M55.2224 53.0582C55.4441 54.5939 56.5062 55.7136 57.5958 55.5575C58.6853 55.4015 59.3888 54.0273 59.1698 52.4915C58.9508 50.9558 57.8859 49.8361 56.7964 49.9922C55.7069 50.1482 55.0006 51.5197 55.2224 53.0582Z" fill="white"/>
<path opacity="0.2" d="M47.7686 61.131H79.3155C79.3159 60.976 79.2856 60.8224 79.2264 60.6791C79.1673 60.5358 79.0804 60.4056 78.9707 60.2959C78.8611 60.1863 78.7309 60.0994 78.5876 60.0402C78.4443 59.9811 78.2907 59.9508 78.1356 59.9512H48.9539C48.7986 59.9508 48.6447 59.981 48.5011 60.0401C48.3575 60.0992 48.2269 60.186 48.1169 60.2956C48.0068 60.4052 47.9194 60.5353 47.8596 60.6787C47.7999 60.822 47.7689 60.9757 47.7686 61.131V61.131Z" fill="black"/>
<path d="M34.8477 62.6586H89.3239C89.3239 62.1416 89.1186 61.6459 88.753 61.2804C88.3875 60.9148 87.8917 60.7095 87.3748 60.7095H36.7995C36.2823 60.7095 35.7863 60.9147 35.4203 61.2802C35.0543 61.6456 34.8484 62.1414 34.8477 62.6586V62.6586Z" fill="#263238"/>
</svg>