<svg viewBox="0 0 606 606" fill="none" xmlns="http://www.w3.org/2000/svg"><path d="M162.965 288.141c70.951 73.156 164.19 123.939 250.618 41.972 44.553-42.227 103.432-156.264 45.329-208.464-80.077-71.92-126.048 45.753-185.885 61.702-41.038 10.908-75.544-52.116-124.666-10.011-38.833 33.27-14.896 84.392 14.604 114.801z" fill="#003350"></path><path opacity="0.9" d="M162.965 288.141c70.951 73.156 164.19 123.939 250.618 41.972 44.553-42.227 103.432-156.264 45.329-208.464-80.077-71.92-126.048 45.753-185.885 61.702-41.038 10.908-75.544-52.116-124.666-10.011-38.833 33.27-14.896 84.392 14.604 114.801z" fill="#fff"></path><path d="M303.001 518.203c129.784 0 234.994-6.143 234.994-13.72 0-7.577-105.21-13.72-234.994-13.72s-234.995 6.143-234.995 13.72c0 7.577 105.211 13.72 234.995 13.72z" fill="#F5F5F5"></path><path d="M423.29 198.077l-12.023-4.848s-15.865 28.931-20.41 30.397c-6.181 1.988-18.98 7.515-26.567 8.484-1.03 1.212-2.715 4.982-2.557 6.351 10.193 3.406 32.591-1.115 37.39-4.678 10.92-8.084 24.167-35.706 24.167-35.706z" fill="#E58A7B"></path><path d="M426.987 191.496c2.243 8.278-9.902 24.931-9.902 24.931l-15.913-8.92s2.981-6.848 6.617-13.817c5.83-11.26 16.641-11.635 19.198-2.194z" fill="#003350"></path><path opacity="0.2" d="M426.987 191.496c2.243 8.278-9.902 24.931-9.902 24.931l-15.913-8.92s2.981-6.848 6.617-13.817c5.83-11.26 16.641-11.635 19.198-2.194z" fill="#000"></path><path opacity="0.2" d="M407.486 211.07l6.266 3.515 1.103-19.235c-3.648 2.8-6.217 11.236-7.369 15.72z" fill="#000"></path><path d="M416.516 185.266s-12.387 27.561-5.163 78.877h48.807c.776-7.49-1.794-44.044 7.502-79.337a124.074 124.074 0 00-16.216-2.073c-6.907-.4-13.831-.4-20.737 0a95.652 95.652 0 00-14.193 2.533z" fill="#003350"></path><path opacity="0.2" d="M416.516 185.266s-12.387 27.561-5.163 78.877h48.807c.776-7.49-1.794-44.044 7.502-79.337a124.074 124.074 0 00-16.216-2.073c-6.907-.4-13.831-.4-20.737 0a95.652 95.652 0 00-14.193 2.533z" fill="#000"></path><path d="M405.196 505.574c-.073 1.309 18.434 2.363 41.329 2.363 22.894 0 41.535-1.054 41.608-2.363.072-1.309-18.423-2.352-41.33-2.352-22.906 0-41.523 1.055-41.607 2.352z" fill="#E8ECF1"></path><path d="M437.775 471.181l-8.657 3.35 7.457 19.264 8.656-3.351-7.456-19.263zM476.377 496.254h-9.127l-3.345-21.126h9.127l3.345 21.126z" fill="#E58A7B"></path><path d="M466.619 495.199h10.254a.75.75 0 01.739.63l1.321 8.109a1.418 1.418 0 01-.344 1.139 1.439 1.439 0 01-1.086.485c-3.575-.061-5.296-.279-9.805-.279-2.776 0-8.484.291-12.338.291-3.855 0-4.109-3.782-2.521-4.133 7.126-1.539 9.89-3.636 12.265-5.672a2.29 2.29 0 011.515-.57zM436.32 492.072l9.696-2.836a.784.784 0 01.909.388l3.636 7.272a1.386 1.386 0 01-.007 1.175 1.39 1.39 0 01-.902.752c-3.527.97-5.89 1.563-10.302 2.848-3.042.885-6.145 2.327-9.151 3.285-2.084.666-6.981.691-9.514.691-3.745 0-4.581-3.952-2.969-4.133 4.06-.449 4.605-.243 6.848-1.37a31.15 31.15 0 009.793-6.763 4.547 4.547 0 011.963-1.309z" fill="#263238"></path><path d="M365.818 232.062l-10.036-4.206-4.133 11.126a41.18 41.18 0 0012.411 0l1.758-6.92zM348.316 227.565l-.266 7.393 3.599 4 4.133-11.126-7.466-.267z" fill="#E58A7B"></path><path d="M438.963 472.816l-8.684 3.353 3.846 9.961 8.683-3.353-3.845-9.961zM473.032 475.128h-9.127l1.733 10.896h9.127l-1.733-10.896z" fill="#CF6F64"></path><path opacity="0.2" d="M409.801 250.266c.182 2.194.388 4.436.654 6.739l36.288-11.781a25.994 25.994 0 0013.962-10.096c.145-3.236.327-6.642.606-10.193.121-1.721.266-3.491.424-5.284.158-1.794.376-3.782.606-5.697l-52.54 36.312z" fill="#000"></path><path d="M421.654 210.512l-1.212-.145c.715-6.06 5.236-10.835 9.999-10.714v1.212c-4.169-.085-8.144 4.218-8.787 9.647zM428.114 221.699h-.206v-1.212c4.169.158 8.084-4.193 8.727-9.611l1.212.145c-.643 5.927-5.018 10.678-9.733 10.678z" fill="#fff"></path><path d="M450.766 159.378c-1.708 6.678-3.72 18.907.679 23.355 0 0-3.078 6.775-15.477 6.775-11.332 0-5.26-6.775-5.26-6.775 7.539-1.769 7.672-7.272 6.678-12.483l13.38-10.872z" fill="#E58A7B"></path><path d="M445.313 163.814l-7.915 6.436c.246 1.197.388 2.414.425 3.636 2.315 2.302 6.957-3.527 7.429-6.509a9.702 9.702 0 00.061-3.563zM423.788 159.293a8.004 8.004 0 005.151 3.806c2.909.642 4.363-2.036 3.563-4.727-.715-2.424-3.102-5.684-6.06-5.127a4.055 4.055 0 00-2.89 2.338 4.052 4.052 0 00.236 3.71z" fill="#CF6F64"></path><path d="M428.599 137.926c-4.532 2.072-6.132 20.082-.436 22.749 5.696 2.666 9.017-26.688.436-22.749z" fill="#263238"></path><path d="M452.148 149.331c-1.091 9.041-1.212 14.362-6.06 18.992a11.663 11.663 0 01-11.806 2.979 11.653 11.653 0 01-8.022-9.16c-1.467-8.121.557-21.538 9.623-25.137a11.664 11.664 0 0111.76 1.376 11.677 11.677 0 014.505 10.95z" fill="#E58A7B"></path><path d="M437.253 142.604c6.715-1.709 11.648-2.872 9.878 2.715-2.339 7.466-5.151 14.689-1.382 15.017 2.303.206 12.484-4.109 11.187-8.484-1.127-3.806 3.636-4.848 4.484-6.776 3.14-6.981-5.841-6.06-4.242-10.302 1.6-4.242-7.272-11.077-12.12-7.671-7.89 5.502-21.428 5.417-14.313-3.636 5.102-6.46-4-5.139-4-5.139s5.503 3.26-3.757 8.302c-9.793 5.381-.812 19.84 14.265 15.974z" fill="#263238"></path><path d="M455.712 159.293a9.394 9.394 0 01-5.587 3.806c-2.994.642-4.145-2.036-3.018-4.727 1.006-2.424 3.769-5.684 6.629-5.127 2.861.558 3.515 3.673 1.976 6.048z" fill="#E58A7B"></path><path d="M411.352 264.143s-8.193 73.326-8.835 101.154c-.654 28.942 27.767 119.249 27.767 119.249l14.544-6.06s-16.968-82.513-14.544-110.935c2.569-30.991 13.186-103.359 13.186-103.359l-32.118-.049z" fill="#003350"></path><path opacity="0.2" d="M431.715 284.275c-6.533 13.55-2.134 40.347 1.405 56.224 1.346-11.211 2.946-23.379 4.461-34.639-.146-17.307-1.491-30.675-5.866-21.585z" fill="#000"></path><path d="M444.185 473.686c.073 0 1.721 4.63 1.721 4.63l-16.774 7.054-2.642-4.921 17.695-6.763zM428.672 264.143s6.266 69.739 10.411 95.857c4.557 28.616 22.422 123.915 22.422 123.915h16.713s-10.011-92.984-11.901-121.321c-2.061-30.736-6.157-98.451-6.157-98.451h-31.488z" fill="#003350"></path><path d="M478.473 479.564c.073 0 .557 4.666.557 4.666h-18.373l-1.309-5.357 19.125.691z" fill="#003350"></path><path opacity="0.2" d="M472.073 474.038a.158.158 0 01-.157-.134c-.097-.848-9.126-84.84-10.823-110.292-1.843-27.609-5.551-88.851-5.588-89.47a.148.148 0 01.087-.145.157.157 0 01.216.133c0 .618 3.745 61.812 5.588 89.47 1.697 25.452 10.726 109.383 10.811 110.292a.151.151 0 01-.029.115.143.143 0 01-.047.038.14.14 0 01-.058.017v-.024z" fill="#000"></path><path d="M438.284 151.852c0 .739-.461 1.333-.946 1.333-.485 0-.836-.594-.788-1.333.049-.74.461-1.334.946-1.334.485 0 .836.606.788 1.334zM429.968 151.852c0 .739-.472 1.333-.945 1.333s-.836-.594-.8-1.333c.037-.74.473-1.334.958-1.334.484 0 .836.606.787 1.334z" fill="#263238"></path><path d="M432.586 152.227a28.203 28.203 0 01-3.878 6.291c1.212 1.212 3.478.654 3.478.654l.4-6.945z" fill="#DF5753"></path><path d="M432.805 162.263a.211.211 0 01-.15-.065.207.207 0 01-.056-.153.233.233 0 01.23-.219 6.203 6.203 0 004.848-2.278.23.23 0 01.303 0c.04.04.061.095.061.151a.216.216 0 01-.061.152 6.62 6.62 0 01-5.175 2.412zM439.762 149.621a.414.414 0 01-.376 0 3.45 3.45 0 00-3.091-.327.413.413 0 01-.46-.062.407.407 0 01-.097-.132.447.447 0 01.23-.582 4.268 4.268 0 013.915.364.442.442 0 01.117.119.433.433 0 01-.008.475.482.482 0 01-.23.145zM426.757 147.198a.363.363 0 01-.17-.097.438.438 0 01-.127-.303.423.423 0 01.127-.303 4.54 4.54 0 013.733-1.503.403.403 0 01.278.175.41.41 0 01.062.322.473.473 0 01-.509.363 3.648 3.648 0 00-2.946 1.212.446.446 0 01-.448.134z" fill="#263238"></path><path d="M472.353 196.732l-12.605-3.357s-12.363 30.433-16.738 32.409c-5.939 2.715-20.98 12.12-27.379 16.568-.352 1.515-.073 5.526.727 6.629 10.908-1.987 31.791-10.023 36.154-14.107 9.951-9.321 19.841-38.142 19.841-38.142z" fill="#E58A7B"></path><path d="M463.554 496.799a2.66 2.66 0 01-1.733-.473 1.205 1.205 0 01-.376-1.139.715.715 0 01.412-.606c1.018-.521 3.866 1.285 4.193 1.491a.198.198 0 01.08.094c.015.04.017.083.005.124a.25.25 0 01-.061.113.264.264 0 01-.108.069c-.79.194-1.599.303-2.412.327zm-1.212-1.891a.656.656 0 00-.279 0 .27.27 0 00-.145.255.821.821 0 00.242.787c.473.425 1.66.473 3.224.17a8.034 8.034 0 00-3.079-1.212h.037z" fill="#003350"></path><path d="M465.905 496.472a.16.16 0 01-.097 0c-.909-.509-2.618-2.509-2.364-3.527a.744.744 0 01.716-.57 1.138 1.138 0 01.909.279c1.006.86 1.066 3.503 1.066 3.636a.183.183 0 01-.109.194.208.208 0 01-.121-.012zm-1.624-3.697h-.085c-.279 0-.315.158-.327.218-.146.594.933 2.109 1.83 2.824a5.013 5.013 0 00-.909-2.86.739.739 0 00-.509-.182zM431.375 495.284a3.475 3.475 0 01-2.291 0 1.141 1.141 0 01-.594-.921.713.713 0 01.255-.643c.969-.872 4.932 0 5.381.17a.192.192 0 01.145.194.223.223 0 01-.033.129.233.233 0 01-.1.089c-.892.403-1.817.732-2.763.982zm-1.976-1.442a.845.845 0 00-.376.181.26.26 0 00-.097.255.762.762 0 00.388.618c.643.339 2.133.073 4.06-.739a11.903 11.903 0 00-3.975-.315z" fill="#003350"></path><path d="M434.102 494.302h-.097c-1.212-.218-3.636-1.612-3.709-2.654 0-.243.109-.582.691-.776a1.557 1.557 0 011.212.073c1.309.642 2 2.969 2.036 3.078a.231.231 0 01-.003.111.222.222 0 01-.058.095.219.219 0 01-.072.073zm-2.873-3.066h-.121c-.376.133-.376.291-.376.339 0 .63 1.758 1.782 2.982 2.17a4.58 4.58 0 00-1.697-2.424 1.115 1.115 0 00-.788-.085z" fill="#003350"></path><path d="M416.661 241.636l-12.641 5.818-1.466 3.636 4.666 3.139s8.726-.945 11.211-6.557l-1.77-6.036z" fill="#E58A7B"></path><path d="M417.194 249.187a17.033 17.033 0 00-2.351-6.86l2-1.503a19.497 19.497 0 012.811 7.939l-2.46.424z" fill="#263238"></path><path d="M419.351 243.357a2.418 2.418 0 01-.126 2.781 2.421 2.421 0 01-4.341-1.388 2.42 2.42 0 011.51-2.338 2.205 2.205 0 012.957.945z" fill="#263238"></path><path d="M395.476 252.157l1.684 1.696 11.345-4.848-4.485-1.551-8.544 4.703z" fill="#E58A7B"></path><path opacity="0.2" d="M444.185 473.686c.073 0 1.721 4.63 1.721 4.63l-16.774 7.054-2.642-4.921 17.695-6.763zM478.473 479.564c.073 0 .557 4.666.557 4.666h-18.373l-1.309-5.357 19.125.691z" fill="#000"></path><path d="M475.637 193.241c3.333 10.751-9.696 25.452-9.696 25.452l-17.999-7.344a186.81 186.81 0 017.369-18.265c5.527-11.914 16.956-10.69 20.326.157z" fill="#003350"></path><path opacity="0.2" d="M475.637 193.241c3.333 10.751-9.696 25.452-9.696 25.452l-17.999-7.344a186.81 186.81 0 017.369-18.265c5.527-11.914 16.956-10.69 20.326.157z" fill="#000"></path><path d="M296.794 85.53h-7.744v1.25h7.744v-1.25zM397.049 134.94l-.938 20.801 1.247.056.938-20.801-1.247-.056zM394.639 91.13H251.623l-13.308 297.813h143.016L394.639 91.13z" fill="#003350"></path><path opacity="0.56" d="M390.373 95.227H247.357l-13.308 297.812h143.016l13.308-297.812z" fill="#FAFAFA"></path><path opacity="0.07" d="M386.106 99.311H243.09l-13.319 297.813h143.015l13.32-297.813z" fill="#003350"></path><path d="M369.829 229.201H247.756l-1.018 22.786h122.073l1.018-22.786z" fill="#fff"></path><path d="M314.89 212.573h-66.394l-.448 10.192h66.393l.449-10.192z" fill="#003350"></path><path d="M367.078 290.698H245.005l-1.018 22.786H366.06l1.018-22.786z" fill="#fff"></path><path opacity="0.47" d="M344.693 344.256h-82.089l-1.224 27.307h82.089l1.224-27.307z" fill="#B4F626"></path><path d="M339.202 375.805h-82.089a.223.223 0 01-.109 0 .17.17 0 010-.109l1.212-27.319c0-.018.004-.037.011-.054a.16.16 0 01.032-.045.144.144 0 01.048-.028.126.126 0 01.055-.006h82.088a.104.104 0 01.097 0 .091.091 0 01.013.048.095.095 0 01-.013.049l-1.188 27.379a.156.156 0 01-.157.085zm-81.943-.291h81.797l1.212-27.028h-81.797l-1.212 27.028z" fill="#fff"></path><path d="M300.551 274.07h-54.807l-.448 10.205h54.794l.461-10.205z" fill="#003350"></path><path d="M343.129 155.596a32.163 32.163 0 01-6.751 18.241 32.587 32.587 0 01-25.695 12.811 29.468 29.468 0 01-29.645-31.052 32.725 32.725 0 0132.421-31.051 29.435 29.435 0 0127.889 19.235 29.45 29.45 0 011.781 11.816z" fill="#fff"></path><path d="M346.049 131.041a8.485 8.485 0 01-1.793 4.848 8.687 8.687 0 01-6.836 3.406 7.85 7.85 0 01-6.521-3.406 8.017 8.017 0 01-1.357-4.848 8.701 8.701 0 018.617-8.241 7.816 7.816 0 015.727 2.415 7.831 7.831 0 012.163 5.826z" fill="#003350"></path><path d="M260.907 240.594a3.868 3.868 0 01-3.818 3.636 3.455 3.455 0 01-3.49-3.636 3.84 3.84 0 013.817-3.636 3.471 3.471 0 012.529 1.066 3.454 3.454 0 01.962 2.57zM277.244 240.594a3.855 3.855 0 01-3.817 3.636 3.458 3.458 0 01-3.268-2.252 3.453 3.453 0 01-.211-1.384 3.841 3.841 0 013.806-3.636 3.455 3.455 0 013.49 3.636zM293.595 240.594a3.856 3.856 0 01-3.818 3.636 3.463 3.463 0 01-3.275-2.252 3.474 3.474 0 01-.216-1.384 3.856 3.856 0 013.818-3.636 3.46 3.46 0 012.533 1.062 3.462 3.462 0 01.958 2.574zM258.155 302.091a3.864 3.864 0 01-3.817 3.636 3.471 3.471 0 01-2.529-1.066 3.454 3.454 0 01-.962-2.57 3.852 3.852 0 013.818-3.636 3.466 3.466 0 013.49 3.636zM274.493 302.091a3.854 3.854 0 01-3.805 3.636 3.46 3.46 0 01-2.533-1.062 3.462 3.462 0 01-.958-2.574 3.856 3.856 0 013.818-3.636 3.462 3.462 0 012.525 1.066c.326.341.579.745.743 1.186.163.442.235.913.21 1.384zM290.879 302.091a3.852 3.852 0 01-3.817 3.636 3.475 3.475 0 01-3.272-2.254 3.481 3.481 0 01-.219-1.382 3.864 3.864 0 013.818-3.636 3.455 3.455 0 013.49 3.636zM307.193 302.091a3.868 3.868 0 01-3.818 3.636 3.478 3.478 0 01-3.491-3.636 3.87 3.87 0 013.818-3.636 3.471 3.471 0 012.529 1.066 3.454 3.454 0 01.962 2.57zM323.603 302.091a3.864 3.864 0 01-3.818 3.636 3.458 3.458 0 01-2.533-1.062 3.445 3.445 0 01-.957-2.574 3.852 3.852 0 013.818-3.636 3.47 3.47 0 013.275 2.252c.165.442.238.913.215 1.384z" fill="#263238"></path><path d="M321.123 153.979c5.073-4.961 5.342-12.912.601-17.76-4.741-4.848-12.696-4.757-17.769.204-5.073 4.961-5.342 12.913-.601 17.76 4.74 4.848 12.696 4.757 17.769-.204zM336.378 173.837a32.587 32.587 0 01-25.695 12.811 29.415 29.415 0 01-24.531-12.811c5.891-5.866 15.211-9.696 25.537-9.696 10.326 0 19.319 3.83 24.689 9.696z" fill="#003350"></path><path opacity="0.1" d="M321.123 153.979c5.073-4.961 5.342-12.912.601-17.76-4.741-4.848-12.696-4.757-17.769.204-5.073 4.961-5.342 12.913-.601 17.76 4.74 4.848 12.696 4.757 17.769-.204zM336.378 173.837a32.587 32.587 0 01-25.695 12.811 29.415 29.415 0 01-24.531-12.811c5.891-5.866 15.211-9.696 25.537-9.696 10.326 0 19.319 3.83 24.689 9.696z" fill="#fff"></path><path d="M158.058 257.477c-1.152 2.521-2.364 5.297-3.418 7.987-1.055 2.691-2.133 5.467-3.067 8.23a104.662 104.662 0 00-4.339 16.725l-.266 1.782c-.026.306.003.613.085.909a9.437 9.437 0 001.333 2.812 35.478 35.478 0 005.381 6.06 81.686 81.686 0 006.69 5.587c2.327 1.794 4.776 3.539 7.187 5.188l-2.266 4.254a85.89 85.89 0 01-16.301-9.345 39.243 39.243 0 01-7.272-6.884 17.267 17.267 0 01-2.897-5.175 11.756 11.756 0 01-.582-3.636V290.456l.121-1.212a94.785 94.785 0 013.964-18.592c.945-2.982 1.951-5.951 3.102-8.848 1.152-2.897 2.339-5.733 3.806-8.678l8.739 4.351z" fill="#E58A7B"></path><path d="M165.935 312.005l8.569-4.339-2.218 9.405s-5.878 1.649-8.605-1.212l2.254-3.854z" fill="#E58A7B"></path><path d="M182.346 309.205l-2.279 7.782-7.781.084 2.218-9.405 7.842 1.539z" fill="#E58A7B"></path><path d="M194.441 212.1a24.306 24.306 0 001.903 4.848 1.972 1.972 0 01-1.927.618l.024-5.466z" fill="#DF5753"></path><path d="M194.187 212.173c.502 0 .909-.624.909-1.394 0-.77-.407-1.394-.909-1.394s-.909.624-.909 1.394c0 .77.407 1.394.909 1.394z" fill="#263238"></path><path d="M193.92 209.434l1.842-.522s-.897 1.431-1.842.522z" fill="#263238"></path><path d="M170.771 220.996c1.103 5.636 2.206 15.974-1.746 19.744 0 0 1.552 5.72 12.036 5.72 11.526 0 5.502-5.72 5.502-5.72-6.29-1.503-6.133-6.17-5.03-10.557l-10.762-9.187z" fill="#E58A7B"></path><path d="M167.704 208.149c.582 9.417.631 13.417 5.382 18.253 7.163 7.272 18.604 4.508 20.846-4.848 2.024-8.484.739-22.447-8.484-26.192a12.874 12.874 0 00-17.744 12.787z" fill="#E58A7B"></path><path d="M168.638 197.556c-4.726 1.721-11.029.436-8.556 15.017 2.618 15.441-1.406 20.519-1.406 20.519s17.925 3.818 36.226-.23c0 0-5.587-9.769-4.023-16.968 1.999-9.09.424-12.448.424-12.448s-16.023-8.314-22.665-5.89z" fill="#263238"></path><path d="M188.636 213.057a9.468 9.468 0 001.478 5.055c1.285 1.963 2.8 1.212 3.176-.873.339-1.83.085-5.066-1.552-6.327-1.636-1.26-3.078-.024-3.102 2.145z" fill="#E58A7B"></path><path d="M164.529 199.144c-1.357-3.818 5.115-9.696 18.811-7.272 13.695 2.424 14.289 13.829 14.289 13.829l-2.763-3.297.121 3.466-14.071 2.703-16.387-9.429z" fill="#263238"></path><path d="M165.692 241.382a2.15 2.15 0 011.758-2.424c4.266-.703 13.962-2.133 18.834-1.454 3.636.509 4.582 2.617 4.739 4.351a2.13 2.13 0 01-2.242 2.302l-21.065-.945a2.16 2.16 0 01-2.024-1.83z" fill="#003350"></path><path opacity="0.6" d="M165.692 241.382a2.15 2.15 0 011.758-2.424c4.266-.703 13.962-2.133 18.834-1.454 3.636.509 4.582 2.617 4.739 4.351a2.13 2.13 0 01-2.242 2.302l-21.065-.945a2.16 2.16 0 01-2.024-1.83z" fill="#000"></path><path d="M177.873 453.118l7.817 5.43 13.078-17.731-7.817-5.418-13.078 17.719zM159.645 452.767l8.253 4.702 11.575-18.749-8.254-4.703-11.574 18.75z" fill="#E58A7B"></path><path d="M198.756 440.817l-6.738 9.138-7.818-5.418 6.739-9.138 7.817 5.418zM171.207 434.017l8.266 4.715-5.963 9.659-8.266-4.714 5.963-9.66z" fill="#CF6F64"></path><path d="M184.466 300.576s30.519 38.457 24.786 75.241c-4.618 29.706-31.403 69.932-31.403 69.932l-12.593-6.254a411.16 411.16 0 0022.665-55.073 40.712 40.712 0 00-4.848-35.269c-15.466-22.58-40.239-9.139-23.574-48.577h24.967z" fill="#003350"></path><path opacity="0.6" d="M184.466 300.576s30.519 38.457 24.786 75.241c-4.618 29.706-31.403 69.932-31.403 69.932l-12.593-6.254a411.16 411.16 0 0022.665-55.073 40.712 40.712 0 00-4.848-35.269c-15.466-22.58-40.239-9.139-23.574-48.577h24.967z" fill="#000"></path><path opacity="0.4" d="M199.435 325.276l-4.436-4.411c0 .351 8.593 53.4 11.005 68.308a90.366 90.366 0 003.26-13.332c2.836-18.047-3.09-36.481-9.829-50.565z" fill="#000"></path><path d="M198.089 300.576s36.748 48.335 37.791 77.313c.86 24.24-39.996 71.205-39.996 71.205l-11.878-7.684s23.913-33.354 29.936-60.6c-2.327-27.003-51.534-80.234-51.534-80.234h35.681z" fill="#003350"></path><path opacity="0.6" d="M198.089 300.576s36.748 48.335 37.791 77.313c.86 24.24-39.996 71.205-39.996 71.205l-11.878-7.684s23.913-33.354 29.936-60.6c-2.327-27.003-51.534-80.234-51.534-80.234h35.681z" fill="#000"></path><path d="M152.628 242.897c-3.927.933-7.696 15.211-7.696 15.211l15.356 10.253s5.114-11.296 3.321-16.241c-1.855-5.151-6.048-10.399-10.981-9.223z" fill="#003350"></path><path opacity="0.2" d="M155.633 252.096l-1.067 12.447 5.709 3.83a51.13 51.13 0 003.478-11.078l-8.12-5.199z" fill="#000"></path><path d="M202.634 243.176s4.533 1.587-4.545 57.388h-38.614c.654-15.756.666-25.452-6.848-57.667a114.3 114.3 0 0116.398-2.157c5.839-.419 11.7-.419 17.538 0 7.539.69 16.071 2.436 16.071 2.436z" fill="#003350"></path><path d="M206.561 252.096c.873 2.424 1.794 5.03 2.763 7.539.97 2.508 1.891 5.09 2.873 7.635l2.969 7.611.752 1.903.387.946.182.472v.073a2.487 2.487 0 00-.848-.751 3.454 3.454 0 00-1.576-.473 3.168 3.168 0 00-1.345.254c-.558.255-.558.364-.545.352.1-.081.19-.175.266-.279a16.48 16.48 0 001.733-2.824c.57-1.115 1.115-2.303 1.661-3.502 1.066-2.424 2.048-4.933 3.03-7.466a261.843 261.843 0 002.824-7.672l2.763-7.733 4.666 1.212c-.921 5.527-2.109 10.908-3.539 16.386a109.519 109.519 0 01-2.424 8.157 61.139 61.139 0 01-1.551 4.121 26.105 26.105 0 01-2.23 4.339c-.323.462-.679.9-1.067 1.309a6.565 6.565 0 01-2.206 1.563 5.418 5.418 0 01-2.351.437 5.34 5.34 0 01-2.557-.764 6.524 6.524 0 01-2.206-2.291c-.182-.315-.339-.63-.448-.86l-.231-.461-.46-.945-.921-1.879c-1.212-2.521-2.424-5.066-3.479-7.623-1.054-2.557-2.169-5.151-3.212-7.757a111.609 111.609 0 01-2.86-8.023l9.187-3.006z" fill="#E58A7B"></path><path d="M202.635 243.176c4.642 1.103 9.865 14.822 9.865 14.822l-13.804 11.745s-8.933-14.956-7.127-19.889c1.879-5.139 5.006-8.121 11.066-6.678z" fill="#003350"></path><path d="M226.644 243.842l4.848-4.048 3.37 5.248-2.485 4.375s-3.951 3.636-7.441 1.782a6.269 6.269 0 011.708-7.357z" fill="#E58A7B"></path><path d="M240.243 239.806l-.364 1.321-7.672 1.285-.751-2.618 8.787.012z" fill="#E58A7B"></path><path d="M196.829 449.713l-13.841-8.945 2.485-4.315 15.55 9.563-4.194 3.697z" fill="#003350"></path><path d="M173.316 456.839a8.336 8.336 0 01-3.418-1.212.22.22 0 010-.412c.376-.121 3.636-1.127 4.582-.352a.769.769 0 01.266.74 1.278 1.278 0 01-.69 1.042 1.582 1.582 0 01-.74.194zm-2.727-1.333c1.515.775 2.727 1.054 3.309.763a.849.849 0 00.436-.703c0-.193 0-.278-.109-.327-.509-.412-2.327-.097-3.66.267h.024z" fill="#263238"></path><path d="M169.983 455.712a.239.239 0 01-.169-.073.23.23 0 010-.218c0-.109.787-2.739 2.024-3.333a1.211 1.211 0 011.006 0 .801.801 0 01.557.812c-.085 1.091-2.303 2.594-3.321 2.848l-.097-.036zm2.352-3.309a.837.837 0 00-.34.085c-.751.364-1.369 1.782-1.672 2.642 1.066-.448 2.533-1.636 2.581-2.303 0-.109 0-.242-.279-.363a.879.879 0 00-.29-.097v.036zM190.612 462.075c-1.37 0-3.273-1.757-4.315-2.836a.216.216 0 010-.255.255.255 0 01.23-.121c.485 0 4.691.63 5.284 1.818a.692.692 0 010 .703 1.209 1.209 0 01-.957.679l-.242.012zm-3.515-2.666c1.527 1.478 2.872 2.302 3.636 2.205a.824.824 0 00.63-.448.257.257 0 00.042-.139.258.258 0 00-.042-.14c-.315-.654-2.557-1.212-4.266-1.478z" fill="#263238"></path><path d="M187.23 459.348a3.879 3.879 0 01-.812-.061.21.21 0 01-.103-.044.228.228 0 01-.067-.089.256.256 0 010-.23c.073-.085 1.709-2.061 3.261-2.194.439-.034.874.105 1.212.388.472.412.448.776.327 1.006-.303.824-2.4 1.224-3.818 1.224zm-.315-.448c1.357.072 3.527-.376 3.806-.97 0 0 .096-.194-.219-.46a1.198 1.198 0 00-.921-.291 5.301 5.301 0 00-2.666 1.733v-.012z" fill="#263238"></path><path d="M170.311 454.403l-10.278-2.909a.755.755 0 00-.909.424l-3.466 7.794a1.522 1.522 0 00.043 1.249 1.528 1.528 0 00.963.799c3.636.945 5.381 1.212 9.902 2.509 2.788.775 6.763 2.218 10.605 3.308 3.842 1.091 5.127-2.654 3.636-3.454-6.739-3.563-7.272-6.06-9.114-8.726a2.495 2.495 0 00-1.382-.994z" fill="#003350"></path><path d="M186.576 457.821l-8.775-6.06a.749.749 0 00-.994.097l-5.818 6.254a1.521 1.521 0 00-.363 1.192 1.504 1.504 0 00.654 1.062c3.091 2.072 4.691 2.909 8.557 5.587 2.424 1.649 7.114 5.309 10.387 7.587 3.272 2.279 5.708-.848 4.545-2.084-5.212-5.563-6.351-9.054-7.212-12.217a2.508 2.508 0 00-.981-1.418zM179.461 446.549l-15.816-7.866 1.636-4.29 16.895 8.29-2.715 3.866zM158.893 298.297l-1.333 3.491c-.133.267.182.545.63.545h40.093c.352 0 .643-.169.667-.388l.339-3.466c0-.23-.278-.436-.654-.436h-39.111a.748.748 0 00-.631.254z" fill="#003350"></path><path opacity="0.4" d="M158.893 298.297l-1.333 3.491c-.133.267.182.545.63.545h40.093c.352 0 .643-.169.667-.388l.339-3.466c0-.23-.278-.436-.654-.436h-39.111a.748.748 0 00-.631.254z" fill="#fff"></path><path d="M165.208 302.673h-1.054c-.206 0-.364-.109-.352-.243l.497-4.496c0-.121.194-.23.4-.23h1.055c.206 0 .363.109.351.23l-.497 4.496c-.012.134-.194.243-.4.243zM189.933 302.673h-1.043c-.206 0-.363-.109-.351-.243l.485-4.496c0-.121.206-.23.412-.23h1.042c.206 0 .376.109.351.23l-.484 4.496c-.061.134-.194.243-.412.243z" fill="#003350"></path><path d="M164.287 507.925c17.932 0 32.469-1.053 32.469-2.351 0-1.299-14.537-2.352-32.469-2.352-17.933 0-32.47 1.053-32.47 2.352 0 1.298 14.537 2.351 32.47 2.351z" fill="#F5F5F5"></path><path d="M184.067 502.253c-5.745-1.673-12.12-3.818-15.974-6.06-.109-.073-.231-.109-.34-.17v-26.009h11.623a3.47 3.47 0 003.262-3.461 3.466 3.466 0 00-3.262-3.46h-11.562V344.535h-6.981v118.558h-11.551a3.47 3.47 0 00-2.582.938 3.458 3.458 0 00-1.089 2.522 3.47 3.47 0 002.283 3.258c.444.162.917.23 1.388.203h11.551v25.973c-.109 0-.218.097-.328.169-3.914 2.279-10.241 4.424-15.986 6.06a1.699 1.699 0 00-.628 2.9c.305.267.695.417 1.101.421h38.602a1.698 1.698 0 00.473-3.284z" fill="#E0E0E0"></path><path d="M185.849 332.464H142.75a6.278 6.278 0 00-6.278 6.278v12.811a6.278 6.278 0 006.278 6.278h43.099a6.278 6.278 0 006.278-6.278v-12.811a6.278 6.278 0 00-6.278-6.278zM142.35 357.843v2.206c0 1.818 1.975 3.296 4.399 3.296h35.148c2.424 0 4.4-1.478 4.4-3.296v-2.206H142.35z" fill="#003350"></path><path opacity="0.3" d="M142.35 357.843v2.206c0 1.818 1.975 3.296 4.399 3.296h35.148c2.424 0 4.4-1.478 4.4-3.296v-2.206H142.35z" fill="#fff"></path></svg>