<svg width="220" height="223" viewBox="0 0 220 223" fill="none" xmlns="http://www.w3.org/2000/svg"><path d="M162.117 66.7594C173.312 78.2267 207.158 110.726 190.793 144.154C173.735 178.996 147.494 172.892 117.727 152.656C89.9288 133.758 80.1006 172.972 42.503 147.412C10.6698 125.771 14.8335 56.4798 75.4537 38.9986C112.25 28.3939 149.465 53.7836 162.117 66.7594Z" fill="#003350"></path><path opacity="0.9" d="M162.117 66.7594C173.312 78.2267 207.158 110.726 190.793 144.154C173.735 178.996 147.494 172.892 117.727 152.656C89.9288 133.758 80.1006 172.972 42.503 147.412C10.6698 125.771 14.8335 56.4798 75.4537 38.9986C112.25 28.3939 149.465 53.7836 162.117 66.7594Z" fill="white"></path><path opacity="0.6" d="M129.462 66.8489C129.462 66.8489 117.083 78.7023 112.215 77.3981C110.075 76.8179 107.583 74.358 105.261 71.4809C102.73 68.2423 100.426 64.8665 98.3603 61.3729C97.9091 60.5727 97.6643 59.6919 97.644 58.7956C97.6236 57.8992 97.8282 57.0102 98.2426 56.1942C98.5551 55.4974 98.9668 54.8398 99.4676 54.2378C103.121 54.6358 110.316 69.5293 113.066 70.8576C115.815 72.1858 126.717 63.8376 126.717 63.8376L129.462 66.8489Z" fill="#4AB5F4"></path><path d="M104.265 184.14C153.253 184.14 192.965 181.937 192.965 179.219C192.965 176.501 153.253 174.297 104.265 174.297C55.2777 174.297 15.5654 176.501 15.5654 179.219C15.5654 181.937 55.2777 184.14 104.265 184.14Z" fill="#F5F5F5"></path><path d="M51.1631 105.978H55.1467L55.2632 178.498C55.2632 178.863 55.111 179.213 54.84 179.472C54.5689 179.73 54.2011 179.876 53.8171 179.877C53.4363 179.877 53.0708 179.735 52.8 179.48C52.5293 179.226 52.3751 178.88 52.3709 178.518L51.1631 105.978Z" fill="#263238"></path><path opacity="0.2" d="M51.1631 105.978H55.1467L55.2632 178.498C55.2632 178.863 55.111 179.213 54.84 179.472C54.5689 179.73 54.2011 179.876 53.8171 179.877C53.4363 179.877 53.0708 179.735 52.8 179.48C52.5293 179.226 52.3751 178.88 52.3709 178.518L51.1631 105.978Z" fill="white"></path><path d="M29.376 105.978H33.3648L33.4761 178.498C33.4768 178.679 33.4399 178.858 33.3675 179.026C33.2951 179.193 33.1887 179.345 33.0544 179.473C32.92 179.601 32.7604 179.703 32.5846 179.772C32.4088 179.842 32.2203 179.877 32.0299 179.877C31.6491 179.877 31.2837 179.735 31.0129 179.48C30.7421 179.226 30.5879 178.88 30.5838 178.518L29.376 105.978Z" fill="#263238"></path><path opacity="0.2" d="M29.376 105.978H33.3648L33.4761 178.498C33.4768 178.679 33.4399 178.858 33.3675 179.026C33.2951 179.193 33.1887 179.345 33.0544 179.473C32.92 179.601 32.7604 179.703 32.5846 179.772C32.4088 179.842 32.2203 179.877 32.0299 179.877C31.6491 179.877 31.2837 179.735 31.0129 179.48C30.7421 179.226 30.5879 178.88 30.5838 178.518L29.376 105.978Z" fill="white"></path><path d="M145.921 105.978H149.91L150.021 178.498C150.022 178.679 149.985 178.858 149.912 179.026C149.84 179.193 149.734 179.345 149.599 179.473C149.465 179.601 149.305 179.703 149.129 179.772C148.954 179.842 148.765 179.877 148.575 179.877C148.194 179.877 147.829 179.735 147.558 179.48C147.287 179.226 147.133 178.88 147.129 178.518L145.921 105.978Z" fill="#263238"></path><path opacity="0.2" d="M145.921 105.978H149.91L150.021 178.498C150.022 178.679 149.985 178.858 149.912 179.026C149.84 179.193 149.734 179.345 149.599 179.473C149.465 179.601 149.305 179.703 149.129 179.772C148.954 179.842 148.765 179.877 148.575 179.877C148.194 179.877 147.829 179.735 147.558 179.48C147.287 179.226 147.133 178.88 147.129 178.518L145.921 105.978Z" fill="white"></path><path d="M124.141 105.978H128.124L128.241 178.498C128.241 178.863 128.088 179.213 127.817 179.472C127.546 179.73 127.179 179.876 126.795 179.877C126.413 179.877 126.047 179.735 125.776 179.481C125.504 179.226 125.349 178.881 125.343 178.518L124.141 105.978Z" fill="#263238"></path><path opacity="0.2" d="M124.141 105.978H128.124L128.241 178.498C128.241 178.863 128.088 179.213 127.817 179.472C127.546 179.73 127.179 179.876 126.795 179.877C126.413 179.877 126.047 179.735 125.776 179.481C125.504 179.226 125.349 178.881 125.343 178.518L124.141 105.978Z" fill="white"></path><path d="M29.5343 119.57L149.533 118.714V105.978H29.5078L29.5343 119.57Z" fill="#668596"></path><path opacity="0.3" d="M51.1629 106.073L51.3854 119.409L29.5343 119.57L29.5078 105.978L51.1629 106.073Z" fill="black"></path><path d="M154.205 102.922C154.205 101.205 153.533 99.8156 152.706 99.8106H27.6915C26.8651 99.8106 26.1924 101.205 26.1924 102.922C26.1924 104.634 26.8651 106.023 27.6915 106.033H152.706C153.533 106.023 154.205 104.634 154.205 102.922Z" fill="#263238"></path><path opacity="0.1" d="M154.205 102.922C154.205 101.205 153.533 99.8156 152.706 99.8106H27.6915C26.8651 99.8106 26.1924 101.205 26.1924 102.922C26.1924 104.634 26.8651 106.023 27.6915 106.033H152.706C153.533 106.023 154.205 104.634 154.205 102.922Z" fill="white"></path><path opacity="0.3" d="M58.4632 102.922C58.4632 101.205 57.7904 99.8156 56.9588 99.8106H27.6915C26.8651 99.8106 26.1924 101.205 26.1924 102.922C26.1924 104.634 26.8651 106.023 27.6915 106.033H56.9535C57.7905 106.023 58.4579 104.634 58.4632 102.922Z" fill="black"></path><path d="M108.253 41.0335C107.869 41.0335 107.502 40.8887 107.23 40.6309C106.959 40.3732 106.807 40.0237 106.807 39.6592V36.2714H106.092C105.599 36.2714 105.126 36.0852 104.777 35.7539C104.428 35.4225 104.232 34.9731 104.232 34.5045V18.4614C104.235 17.9954 104.432 17.5494 104.779 17.2203C105.126 16.8913 105.596 16.7059 106.086 16.7046H132.435C132.927 16.7046 133.398 16.8902 133.746 17.2206C134.094 17.5511 134.289 17.9992 134.289 18.4665V34.5045C134.289 34.9731 134.093 35.4225 133.744 35.7539C133.396 36.0852 132.923 36.2714 132.43 36.2714H115.214L109.122 40.7465C108.873 40.9305 108.568 41.0313 108.253 41.0335ZM106.092 17.208C105.742 17.2093 105.407 17.3416 105.159 17.5763C104.911 17.8109 104.77 18.129 104.767 18.4614V34.5045C104.769 34.8392 104.909 35.1598 105.158 35.3965C105.407 35.6331 105.745 35.7667 106.097 35.768H107.326V39.6592C107.326 39.8902 107.423 40.1117 107.594 40.275C107.766 40.4383 107.999 40.5301 108.242 40.5301C108.433 40.5256 108.618 40.4659 108.772 40.3589L115.018 35.768H132.414C132.766 35.7667 133.103 35.6331 133.352 35.3965C133.601 35.1598 133.742 34.8392 133.743 34.5045V18.4665C133.743 18.1327 133.604 17.8126 133.355 17.5766C133.107 17.3406 132.77 17.208 132.419 17.208H106.092Z" fill="#28343A"></path><path d="M117.858 14.7007H114.558V15.0835H117.858V14.7007Z" fill="#28343A"></path><path d="M102.426 19.2215H102.019V17.3284C102.02 16.6296 102.313 15.9599 102.833 15.4662C103.354 14.9726 104.059 14.6953 104.794 14.6953H112.152V15.0729H104.794C104.166 15.0729 103.564 15.31 103.12 15.7321C102.676 16.1541 102.426 16.7265 102.426 17.3234V19.2215Z" fill="#28343A"></path><path d="M113.32 27.8643C114.286 27.8643 115.068 27.1206 115.068 26.2031C115.068 25.2857 114.286 24.542 113.32 24.542C112.355 24.542 111.572 25.2857 111.572 26.2031C111.572 27.1206 112.355 27.8643 113.32 27.8643Z" fill="#28343A"></path><path d="M120.969 26.2034C120.97 26.5331 120.868 26.8558 120.676 27.1305C120.484 27.4052 120.21 27.6196 119.89 27.7465C119.57 27.8734 119.217 27.9071 118.876 27.8434C118.536 27.7796 118.223 27.6213 117.977 27.3885C117.732 27.1556 117.564 26.8587 117.496 26.5353C117.428 26.212 117.462 25.8766 117.595 25.5719C117.727 25.2671 117.952 25.0065 118.241 24.8232C118.529 24.6399 118.868 24.542 119.215 24.542C119.679 24.542 120.125 24.7169 120.453 25.0283C120.782 25.3397 120.967 25.7623 120.969 26.2034Z" fill="#28343A"></path><path d="M125.106 27.8643C126.072 27.8643 126.855 27.1206 126.855 26.2031C126.855 25.2857 126.072 24.542 125.106 24.542C124.141 24.542 123.358 25.2857 123.358 26.2031C123.358 27.1206 124.141 27.8643 125.106 27.8643Z" fill="#28343A"></path><path d="M61.0648 66.6567L63.1837 66.561L66.1342 97.5564H63.9041C62.7864 97.4557 62.5268 96.2677 62.2143 94.0325L60.1484 72.3856C59.6292 67.2558 60.5351 66.6567 61.0648 66.6567Z" fill="#B2C2CA"></path><path opacity="0.3" d="M61.0648 66.6567L63.1837 66.561L66.1342 97.5564H63.9041C62.7864 97.4557 62.5268 96.2677 62.2143 94.0325L60.1484 72.3856C59.6292 67.2558 60.5351 66.6567 61.0648 66.6567Z" fill="black"></path><path d="M64.396 97.5566H108.596C108.718 97.5487 108.837 97.5163 108.944 97.4617C109.052 97.407 109.146 97.3313 109.221 97.2394C109.295 97.1476 109.348 97.0418 109.377 96.929C109.405 96.8162 109.408 96.699 109.385 96.585L106.62 67.5326C106.612 67.2843 106.507 67.0477 106.326 66.8684C106.145 66.689 105.901 66.5795 105.64 66.561H61.4402C61.3184 66.569 61.1998 66.6013 61.0922 66.656C60.9845 66.7107 60.8903 66.7864 60.8157 66.8782C60.7411 66.9701 60.6879 67.0759 60.6595 67.1887C60.6311 67.3015 60.6281 67.4187 60.6509 67.5326L63.416 96.585C63.4245 96.8334 63.5292 97.07 63.7101 97.2493C63.891 97.4287 64.1353 97.5381 64.396 97.5566Z" fill="#B2C2CA"></path><path d="M66.0901 93.8865H106.233L104.008 69.7031H63.8652L66.0901 93.8865Z" fill="#B2C2CA"></path><path d="M66.6421 95.7795H106.202C106.462 95.7839 106.721 95.7355 106.96 95.6375C107.199 95.5395 107.413 95.3942 107.589 95.2113C107.764 95.0284 107.897 94.8121 107.977 94.5767C108.058 94.3414 108.085 94.0924 108.056 93.8464L105.842 69.814C105.785 69.2917 105.529 68.8072 105.122 68.452C104.715 68.0968 104.185 67.8954 103.633 67.8859H64.073C63.8133 67.8825 63.5558 67.9313 63.3175 68.0292C63.0792 68.1272 62.8654 68.272 62.6902 68.4542C62.5151 68.6363 62.3825 68.8517 62.3013 69.0861C62.22 69.3205 62.192 69.5685 62.2189 69.814L64.4332 93.8464C64.4888 94.3697 64.7443 94.8553 65.1514 95.2116C65.5585 95.5678 66.0888 95.7699 66.6421 95.7795Z" fill="#263238"></path><path d="M66.0901 93.8865H106.233L104.008 69.7031H63.8652L66.0901 93.8865Z" fill="#B2C2CA"></path><path opacity="0.4" d="M66.0901 93.8865H106.233L104.008 69.7031H63.8652L66.0901 93.8865Z" fill="white"></path><path opacity="0.1" d="M77.6407 67.895L69.8008 95.7686H72.4388L80.194 67.895H77.6407Z" fill="white"></path><path opacity="0.1" d="M81.713 67.895L73.873 95.7686H79.1014L86.8566 67.895H81.713Z" fill="white"></path><path d="M69.6505 76.9164C69.6901 77.1587 69.6733 77.4063 69.6012 77.6418C69.5291 77.8772 69.4035 78.0948 69.2332 78.2791C69.063 78.4634 68.8523 78.61 68.6159 78.7085C68.3796 78.807 68.1234 78.855 67.8653 78.8491C67.3058 78.8354 66.7694 78.6337 66.3514 78.2799C65.9335 77.926 65.661 77.443 65.5823 76.9164C65.5418 76.6737 65.558 76.4255 65.6297 76.1894C65.7014 75.9533 65.8269 75.7351 65.9972 75.5502C66.1675 75.3653 66.3786 75.2182 66.6154 75.1194C66.8521 75.0207 67.1089 74.9726 67.3674 74.9785C67.9278 74.9925 68.4648 75.1949 68.8829 75.5497C69.3009 75.9046 69.5729 76.3888 69.6505 76.9164Z" fill="#B2C2CA"></path><path opacity="0.3" d="M69.6505 76.9164C69.6901 77.1587 69.6733 77.4063 69.6012 77.6418C69.5291 77.8772 69.4035 78.0948 69.2332 78.2791C69.063 78.4634 68.8523 78.61 68.6159 78.7085C68.3796 78.807 68.1234 78.855 67.8653 78.8491C67.3058 78.8354 66.7694 78.6337 66.3514 78.2799C65.9335 77.926 65.661 77.443 65.5823 76.9164C65.5418 76.6737 65.558 76.4255 65.6297 76.1894C65.7014 75.9533 65.8269 75.7351 65.9972 75.5502C66.1675 75.3653 66.3786 75.2182 66.6154 75.1194C66.8521 75.0207 67.1089 74.9726 67.3674 74.9785C67.9278 74.9925 68.4648 75.1949 68.8829 75.5497C69.3009 75.9046 69.5729 76.3888 69.6505 76.9164Z" fill="black"></path><path d="M67.8653 78.8493C68.2769 78.859 68.6799 78.7366 69.0095 78.5021L68.8188 77.8981C68.7848 77.7878 68.7156 77.6903 68.6207 77.619C68.5258 77.5478 68.4099 77.5063 68.289 77.5005H68.0454L68.0136 77.2489C68.1449 77.1744 68.2492 77.0638 68.3126 76.9316C68.376 76.7994 68.3955 76.652 68.3685 76.509C68.3478 76.2982 68.2492 76.1012 68.0902 75.9528C67.9312 75.8045 67.722 75.7145 67.4998 75.6987C67.3974 75.7031 67.2972 75.7287 67.2063 75.7736C67.1154 75.8186 67.0359 75.8818 66.9733 75.959C66.9108 76.0361 66.8667 76.1253 66.8442 76.2203C66.8217 76.3153 66.8212 76.4139 66.8429 76.509C66.8601 76.6643 66.9175 76.8131 67.0099 76.9422C67.1023 77.0713 67.227 77.1766 67.3726 77.2489L67.4044 77.5005H67.1607C67.0464 77.4978 66.9356 77.538 66.8523 77.6125C66.769 77.6869 66.7199 77.7895 66.7158 77.8981L66.6787 78.5021C67.0326 78.7202 67.4435 78.8405 67.8653 78.8493Z" fill="white"></path><path d="M71.1294 76.5488H79.1282C79.499 76.5488 79.4249 76.0054 79.0594 76.0054H71.0287C70.6632 76.0054 70.7321 76.5488 71.1029 76.5488H71.1294Z" fill="white"></path><path d="M71.2677 77.8284H81.8093C82.0529 77.8284 82.0053 77.4658 81.7616 77.4658H71.2201C70.9764 77.4658 71.0188 77.8284 71.2677 77.8284Z" fill="white"></path><path d="M83.7901 77.6468C83.7997 77.7001 83.7965 77.7547 83.781 77.8067C83.7655 77.8587 83.7379 77.9067 83.7003 77.9472C83.6627 77.9877 83.6161 78.0198 83.5638 78.041C83.5116 78.0622 83.4549 78.072 83.3982 78.0698C83.2758 78.0654 83.1587 78.0209 83.067 77.9438C82.9752 77.8667 82.9144 77.7618 82.8949 77.6468C82.8855 77.5934 82.8887 77.5385 82.9042 77.4863C82.9197 77.4342 82.9472 77.3859 82.9847 77.345C83.0222 77.3041 83.0687 77.2715 83.1209 77.2497C83.1732 77.2279 83.2299 77.2174 83.2869 77.2189C83.4101 77.2234 83.5277 77.2687 83.6196 77.3468C83.7114 77.4249 83.7717 77.531 83.7901 77.6468Z" fill="#263238"></path><path opacity="0.5" d="M83.7901 77.6468C83.7997 77.7001 83.7965 77.7547 83.781 77.8067C83.7655 77.8587 83.7379 77.9067 83.7003 77.9472C83.6627 77.9877 83.6161 78.0198 83.5638 78.041C83.5116 78.0622 83.4549 78.072 83.3982 78.0698C83.2758 78.0654 83.1587 78.0209 83.067 77.9438C82.9752 77.8667 82.9144 77.7618 82.8949 77.6468C82.8855 77.5934 82.8887 77.5385 82.9042 77.4863C82.9197 77.4342 82.9472 77.3859 82.9847 77.345C83.0222 77.3041 83.0687 77.2715 83.1209 77.2497C83.1732 77.2279 83.2299 77.2174 83.2869 77.2189C83.4101 77.2234 83.5277 77.2687 83.6196 77.3468C83.7114 77.4249 83.7717 77.531 83.7901 77.6468Z" fill="white"></path><path d="M63.8652 69.7031L64.0612 71.8674H104.204L104.008 69.7031H63.8652Z" fill="#B2C2CA"></path><path d="M65.7091 70.6642C65.7151 70.7201 65.7085 70.7766 65.6899 70.83C65.6712 70.8833 65.6409 70.9322 65.6008 70.9736C65.5608 71.015 65.5119 71.0478 65.4575 71.0699C65.4032 71.0921 65.3445 71.103 65.2853 71.102C65.1615 71.0959 65.0438 71.0488 64.9529 70.9688C64.8619 70.8888 64.8033 70.781 64.7873 70.6642C64.7813 70.609 64.7877 70.5532 64.8061 70.5004C64.8245 70.4477 64.8545 70.3993 64.8941 70.3584C64.9336 70.3175 64.9819 70.285 65.0356 70.2632C65.0894 70.2413 65.1474 70.2305 65.2058 70.2315C65.3298 70.2363 65.4481 70.2822 65.54 70.3612C65.632 70.4403 65.6918 70.5476 65.7091 70.6642Z" fill="white"></path><path d="M66.9186 70.6642C66.9254 70.7199 66.9196 70.7763 66.9016 70.8296C66.8836 70.8829 66.8537 70.932 66.8141 70.9734C66.7744 71.0149 66.7259 71.0478 66.6718 71.07C66.6176 71.0922 66.5591 71.1031 66.5001 71.102C66.3763 71.0959 66.2587 71.0488 66.1677 70.9688C66.0767 70.8888 66.0181 70.781 66.0022 70.6642C65.9962 70.609 66.0026 70.5532 66.021 70.5004C66.0394 70.4477 66.0693 70.3993 66.1089 70.3584C66.1485 70.3175 66.1967 70.285 66.2504 70.2632C66.3042 70.2413 66.3622 70.2305 66.4207 70.2315C66.5437 70.2374 66.6607 70.2838 66.7516 70.3628C66.8425 70.4418 66.9015 70.5484 66.9186 70.6642Z" fill="white"></path><path d="M68.131 70.6643C68.137 70.7197 68.1306 70.7758 68.1122 70.8288C68.0939 70.8818 68.064 70.9305 68.0245 70.9718C67.985 71.013 67.9369 71.046 67.8831 71.0684C67.8294 71.0909 67.7713 71.1023 67.7126 71.102C67.5832 71.1031 67.458 71.0591 67.3604 70.9785C67.2628 70.8978 67.1997 70.7861 67.1829 70.6643C67.1768 70.609 67.1832 70.5532 67.2016 70.5005C67.22 70.4477 67.25 70.3993 67.2896 70.3584C67.3291 70.3175 67.3774 70.2851 67.4311 70.2632C67.4848 70.2413 67.5429 70.2305 67.6013 70.2315C67.7299 70.2303 67.8545 70.2736 67.9519 70.3532C68.0494 70.4328 68.113 70.5434 68.131 70.6643Z" fill="white"></path><path d="M109.05 97.6416H63.992C63.4625 97.6416 63.0332 98.0496 63.0332 98.5529V99.0967C63.0332 99.6 63.4625 100.008 63.992 100.008H109.05C109.58 100.008 110.009 99.6 110.009 99.0967V98.5529C110.009 98.0496 109.58 97.6416 109.05 97.6416Z" fill="#B2C2CA"></path><path opacity="0.3" d="M109.05 97.6416H63.992C63.4625 97.6416 63.0332 98.0496 63.0332 98.5529V99.0967C63.0332 99.6 63.4625 100.008 63.992 100.008H109.05C109.58 100.008 110.009 99.6 110.009 99.0967V98.5529C110.009 98.0496 109.58 97.6416 109.05 97.6416Z" fill="black"></path><path d="M80.9121 97.6318H127.501V98.1705C127.501 98.6537 127.299 99.1172 126.94 99.459C126.58 99.8007 126.092 99.9927 125.584 99.9927H82.835C82.3264 99.9927 81.8387 99.8007 81.4791 99.459C81.1194 99.1172 80.9174 98.6537 80.9174 98.1705V97.6318H80.9121Z" fill="#B2C2CA"></path><path opacity="0.4" d="M80.9121 97.6318H127.501V98.1705C127.501 98.6537 127.299 99.1172 126.94 99.459C126.58 99.8007 126.092 99.9927 125.584 99.9927H82.835C82.3264 99.9927 81.8387 99.8007 81.4791 99.459C81.1194 99.1172 80.9174 98.6537 80.9174 98.1705V97.6318H80.9121Z" fill="white"></path><path opacity="0.3" d="M101.906 97.7075C101.908 98.0208 102.039 98.3208 102.272 98.5423C102.506 98.7638 102.821 98.8888 103.151 98.8901H108.851C109.181 98.8901 109.498 98.7656 109.731 98.5438C109.965 98.322 110.096 98.0212 110.096 97.7075H101.906Z" fill="black"></path><path d="M106.232 93.9419H66.1215L65.9043 91.5859H106.015L106.232 93.9419Z" fill="#B2C2CA"></path><path d="M100.856 92.9153H72.9925L72.9766 92.7036H100.84L100.856 92.9153Z" fill="white"></path><path d="M101.648 92.9248C101.648 93.0254 101.59 93.1059 101.431 93.1059C101.35 93.1068 101.27 93.0839 101.203 93.0405L101.246 92.9601C101.295 92.997 101.357 93.0166 101.42 93.0154C101.5 93.0154 101.542 92.9852 101.537 92.9299C101.532 92.8745 101.494 92.8443 101.373 92.8443H101.23V92.5425H101.574V92.628H101.325V92.7588H101.383C101.563 92.7588 101.637 92.8292 101.648 92.9248Z" fill="white"></path><path d="M101.684 92.7341C101.683 92.7258 101.684 92.7174 101.687 92.7094C101.69 92.7015 101.694 92.6942 101.7 92.6881C101.706 92.6819 101.714 92.677 101.722 92.6737C101.73 92.6703 101.739 92.6686 101.747 92.6687C101.757 92.668 101.766 92.6691 101.775 92.6721C101.784 92.6751 101.793 92.6798 101.8 92.686C101.807 92.6921 101.812 92.6996 101.816 92.7078C101.82 92.7161 101.822 92.7251 101.822 92.7341C101.823 92.7422 101.823 92.7505 101.821 92.7584C101.818 92.7663 101.814 92.7737 101.809 92.78C101.803 92.7862 101.796 92.7912 101.788 92.7946C101.78 92.798 101.772 92.7997 101.763 92.7996C101.754 92.8002 101.744 92.7991 101.734 92.7962C101.725 92.7932 101.717 92.7886 101.709 92.7825C101.702 92.7764 101.696 92.769 101.691 92.7607C101.687 92.7524 101.684 92.7434 101.684 92.7341ZM101.716 93.0362C101.714 93.0277 101.714 93.0189 101.717 93.0106C101.719 93.0022 101.724 92.9946 101.73 92.9882C101.736 92.9818 101.744 92.977 101.752 92.9739C101.761 92.9709 101.77 92.9698 101.779 92.9707C101.798 92.9707 101.816 92.9774 101.83 92.9896C101.844 93.0017 101.852 93.0184 101.853 93.0362C101.854 93.0445 101.853 93.0529 101.85 93.0608C101.847 93.0688 101.843 93.076 101.837 93.0822C101.831 93.0883 101.823 93.0932 101.815 93.0966C101.807 93.0999 101.799 93.1016 101.79 93.1016C101.78 93.1023 101.771 93.1011 101.762 93.0982C101.753 93.0952 101.745 93.0905 101.738 93.0843C101.731 93.0782 101.725 93.0707 101.721 93.0624C101.718 93.0541 101.716 93.0452 101.716 93.0362Z" fill="white"></path><path d="M101.902 92.8193C101.902 92.638 101.981 92.5322 102.119 92.5322C102.257 92.5322 102.373 92.638 102.394 92.8193C102.416 93.0007 102.315 93.1065 102.172 93.1065C102.096 93.1013 102.026 93.0684 101.976 93.0149C101.925 92.9613 101.899 92.8912 101.902 92.8193ZM102.283 92.8193C102.283 92.6833 102.209 92.6229 102.129 92.6229C102.05 92.6229 101.997 92.6833 102.013 92.8193C102.029 92.9553 102.087 93.0158 102.167 93.0158C102.246 93.0158 102.294 92.9553 102.283 92.8193Z" fill="white"></path><path d="M102.463 92.8193C102.463 92.638 102.542 92.5322 102.685 92.5322C102.761 92.5374 102.831 92.5703 102.882 92.6238C102.932 92.6774 102.959 92.7475 102.956 92.8193C102.956 93.0007 102.876 93.1065 102.738 93.1065C102.601 93.1065 102.484 93.0007 102.463 92.8193ZM102.844 92.8193C102.844 92.6833 102.77 92.6229 102.691 92.6229C102.611 92.6229 102.564 92.6833 102.574 92.8193C102.585 92.9553 102.648 93.0158 102.728 93.0158C102.807 93.0158 102.855 92.9553 102.844 92.8193Z" fill="white"></path><path d="M67.3677 93.0104V93.096H66.9333V93.0305L67.1452 92.8192C67.1632 92.8052 67.1778 92.7875 67.1879 92.7675C67.198 92.7475 67.2033 92.7256 67.2035 92.7035C67.2035 92.6532 67.1611 92.623 67.0869 92.623C67.0613 92.6217 67.0357 92.6266 67.0126 92.6371C66.9895 92.6477 66.9695 92.6636 66.9545 92.6833L66.875 92.623C66.8996 92.5923 66.9319 92.568 66.9689 92.5521C67.0059 92.5363 67.0464 92.5295 67.0869 92.5324C67.214 92.5324 67.3041 92.5928 67.3094 92.6934C67.3121 92.7267 67.3063 92.7601 67.2925 92.7908C67.2787 92.8214 67.2572 92.8485 67.2299 92.8695L67.0869 93.0104H67.3677Z" fill="white"></path><path d="M67.4228 92.7341C67.4213 92.726 67.4216 92.7177 67.4238 92.7098C67.426 92.7019 67.4301 92.6945 67.4357 92.6883C67.4412 92.682 67.4482 92.677 67.4561 92.6736C67.4639 92.6702 67.4725 92.6685 67.4811 92.6687C67.4908 92.668 67.5006 92.6691 67.5099 92.672C67.5192 92.675 67.5277 92.6796 67.5351 92.6857C67.5425 92.6918 67.5485 92.6992 67.5529 92.7075C67.5573 92.7158 67.5598 92.7248 67.5605 92.7341C67.5613 92.7424 67.5602 92.7508 67.5573 92.7588C67.5544 92.7667 67.5499 92.7739 67.5439 92.7801C67.5379 92.7863 67.5307 92.7912 67.5226 92.7945C67.5145 92.7979 67.5058 92.7996 67.497 92.7995C67.4875 92.8002 67.478 92.7991 67.469 92.7961C67.46 92.7931 67.4518 92.7884 67.4448 92.7822C67.4379 92.7761 67.4323 92.7686 67.4285 92.7604C67.4248 92.7521 67.4228 92.7431 67.4228 92.7341ZM67.4493 93.0361C67.4476 93.0276 67.448 93.0188 67.4505 93.0105C67.453 93.0022 67.4576 92.9945 67.4637 92.9882C67.4699 92.9818 67.4776 92.9769 67.4861 92.9739C67.4946 92.9708 67.5038 92.9697 67.5129 92.9707C67.5316 92.9706 67.5497 92.9774 67.5635 92.9895C67.5773 93.0017 67.5857 93.0183 67.587 93.0361C67.5877 93.0445 67.5866 93.0529 67.5838 93.0608C67.5809 93.0687 67.5763 93.076 67.5704 93.0821C67.5644 93.0883 67.5571 93.0932 67.5491 93.0965C67.541 93.0999 67.5323 93.1016 67.5235 93.1016C67.5123 93.1056 67.5002 93.1071 67.4883 93.1057C67.4764 93.1044 67.465 93.1003 67.4551 93.0939C67.4452 93.0875 67.4371 93.0788 67.4315 93.0688C67.4259 93.0587 67.4229 93.0475 67.4228 93.0361H67.4493Z" fill="white"></path><path d="M68.0582 92.9248C68.0582 93.0254 68 93.1059 67.841 93.1059C67.7599 93.1068 67.6804 93.0839 67.6133 93.0405L67.6557 92.9601C67.7055 92.997 67.7672 93.0166 67.8305 93.0154C67.9099 93.0154 67.9523 92.9852 67.947 92.9299C67.9417 92.8745 67.9046 92.8443 67.7828 92.8443H67.6398V92.5425H67.9841V92.628H67.7298V92.7588H67.7881C67.9523 92.7588 68.0476 92.8292 68.0582 92.9248Z" fill="white"></path><path d="M68.1104 92.8193C68.1104 92.638 68.1845 92.5322 68.3275 92.5322C68.4029 92.5374 68.4733 92.5703 68.5237 92.6238C68.5741 92.6774 68.6006 92.7475 68.5977 92.8193C68.5977 93.0007 68.5182 93.1065 68.3805 93.1065C68.2428 93.1065 68.1262 93.0007 68.1104 92.8193ZM68.4864 92.8193C68.4864 92.6833 68.4123 92.6229 68.3328 92.6229C68.2534 92.6229 68.2057 92.6833 68.2163 92.8193C68.2269 92.9553 68.2904 93.0158 68.3699 93.0158C68.4494 93.0158 68.4811 92.9553 68.4811 92.8193H68.4864Z" fill="white"></path><path d="M105.445 93.6499H103.681L103.522 91.9688H105.292L105.445 93.6499ZM103.946 93.368H105.128L105.032 92.2456H103.851L103.946 93.368Z" fill="white"></path><path d="M85.089 92.5176H69.1602L69.2131 93.0964H85.142L85.089 92.5176Z" fill="#263238"></path><path d="M85.6692 92.7892C85.6735 92.8578 85.663 92.9264 85.6383 92.991C85.6137 93.0556 85.5753 93.1147 85.5257 93.1646C85.4761 93.2146 85.4162 93.2544 85.3498 93.2815C85.2833 93.3087 85.2117 93.3226 85.1394 93.3225C84.9872 93.3185 84.8416 93.2623 84.7296 93.1643C84.6177 93.0662 84.5468 92.933 84.5303 92.7892C84.5259 92.7206 84.5364 92.6519 84.5611 92.5874C84.5857 92.5228 84.6241 92.4637 84.6737 92.4137C84.7233 92.3638 84.7832 92.324 84.8496 92.2968C84.9161 92.2697 84.9877 92.2557 85.06 92.2559C85.2126 92.2588 85.3587 92.3147 85.4709 92.4129C85.5832 92.5111 85.6537 92.645 85.6692 92.7892Z" fill="#263238"></path><path d="M85.6692 92.7892C85.6735 92.8578 85.663 92.9264 85.6383 92.991C85.6137 93.0556 85.5753 93.1147 85.5257 93.1646C85.4761 93.2146 85.4162 93.2544 85.3498 93.2815C85.2833 93.3087 85.2117 93.3226 85.1394 93.3225C84.9872 93.3185 84.8416 93.2623 84.7296 93.1643C84.6177 93.0662 84.5468 92.933 84.5303 92.7892C84.5259 92.7206 84.5364 92.6519 84.5611 92.5874C84.5857 92.5228 84.6241 92.4637 84.6737 92.4137C84.7233 92.3638 84.7832 92.324 84.8496 92.2968C84.9161 92.2697 84.9877 92.2557 85.06 92.2559C85.2126 92.2588 85.3587 92.3147 85.4709 92.4129C85.5832 92.5111 85.6537 92.645 85.6692 92.7892Z" fill="white"></path><path d="M125.79 64.9291L127.499 63.055C127.499 63.055 128.181 60.2389 128.573 59.7205C128.965 59.2022 131.94 57.7268 131.94 57.7268C131.94 57.7268 132.962 57.7817 133.107 57.986C133.252 58.1904 132.766 62.9354 132.327 63.5585C131.888 64.1815 129.745 64.7049 129.451 64.8095C129.157 64.9142 126.136 68.1939 126.136 68.1939L125.79 64.9291Z" fill="#EBB376"></path><path opacity="0.2" d="M104.985 71.6831C102.546 68.4801 100.325 65.1414 98.3343 61.6862C97.8995 60.8948 97.6635 60.0237 97.6439 59.1372C97.6243 58.2507 97.8215 57.3715 98.2209 56.5645C100.227 58.8361 104.305 64.2898 104.985 71.6831Z" fill="black"></path><path opacity="0.6" d="M129.462 66.8489C129.462 66.8489 117.083 78.7023 112.215 77.3981C110.075 76.8179 107.583 74.358 105.261 71.4809C102.73 68.2423 100.426 64.8665 98.3603 61.3729C97.9091 60.5727 97.6643 59.6919 97.644 58.7956C97.6236 57.8992 97.8282 57.0102 98.2426 56.1942C98.5551 55.4974 98.9668 54.8398 99.4676 54.2378C103.121 54.6358 110.316 69.5293 113.066 70.8576C115.815 72.1858 126.717 63.8376 126.717 63.8376L129.462 66.8489Z" fill="#4AB5F4"></path><path opacity="0.2" d="M104.985 71.6831C102.546 68.4801 100.325 65.1414 98.3343 61.6862C97.8995 60.8948 97.6635 60.0237 97.6439 59.1372C97.6243 58.2507 97.8215 57.3715 98.2209 56.5645C100.227 58.8361 104.305 64.2898 104.985 71.6831Z" fill="black"></path><path opacity="0.6" d="M129.462 66.8489C129.462 66.8489 117.083 78.7023 112.215 77.3981C110.075 76.8179 107.583 74.358 105.261 71.4809C102.73 68.2423 100.426 64.8665 98.3603 61.3729C97.9091 60.5727 97.6643 59.6919 97.644 58.7956C97.6236 57.8992 97.8282 57.0102 98.2426 56.1942C98.5551 55.4974 98.9668 54.8398 99.4676 54.2378C103.121 54.6358 110.316 69.5293 113.066 70.8576C115.815 72.1858 126.717 63.8376 126.717 63.8376L129.462 66.8489Z" fill="#4AB5F4"></path><path opacity="0.2" d="M104.985 71.6831C102.546 68.4801 100.325 65.1414 98.3343 61.6862C97.8995 60.8948 97.6635 60.0237 97.6439 59.1372C97.6243 58.2507 97.8215 57.3715 98.2209 56.5645C100.227 58.8361 104.305 64.2898 104.985 71.6831Z" fill="black"></path><path opacity="0.6" d="M129.462 66.8489C129.462 66.8489 117.083 78.7023 112.215 77.3981C110.075 76.8179 107.583 74.358 105.261 71.4809C102.73 68.2423 100.426 64.8665 98.3603 61.3729C97.9091 60.5727 97.6643 59.6919 97.644 58.7956C97.6236 57.8992 97.8282 57.0102 98.2426 56.1942C98.5551 55.4974 98.9668 54.8398 99.4676 54.2378C103.121 54.6358 110.316 69.5293 113.066 70.8576C115.815 72.1858 126.717 63.8376 126.717 63.8376L129.462 66.8489Z" fill="#4AB5F4"></path><path opacity="0.2" d="M104.985 71.6831C102.546 68.4801 100.325 65.1414 98.3343 61.6862C97.8995 60.8948 97.6635 60.0237 97.6439 59.1372C97.6243 58.2507 97.8215 57.3715 98.2209 56.5645C100.227 58.8361 104.305 64.2898 104.985 71.6831Z" fill="black"></path><path opacity="0.6" d="M129.462 66.8489C129.462 66.8489 117.083 78.7023 112.215 77.3981C110.075 76.8179 107.583 74.358 105.261 71.4809C102.73 68.2423 100.426 64.8665 98.3603 61.3729C97.9091 60.5727 97.6643 59.6919 97.644 58.7956C97.6236 57.8992 97.8282 57.0102 98.2426 56.1942C98.5551 55.4974 98.9668 54.8398 99.4676 54.2378C103.121 54.6358 110.316 69.5293 113.066 70.8576C115.815 72.1858 126.717 63.8376 126.717 63.8376L129.462 66.8489Z" fill="#B2C2CA"></path><path opacity="0.2" d="M104.985 71.6831C102.546 68.4801 100.325 65.1414 98.3343 61.6862C97.8995 60.8948 97.6635 60.0237 97.6439 59.1372C97.6243 58.2507 97.8215 57.3715 98.2209 56.5645C100.227 58.8361 104.305 64.2898 104.985 71.6831Z" fill="black"></path><path opacity="0.6" d="M102.243 91.4546H79.0274C79.0274 90.0644 79.0274 88.5657 78.9209 86.9882C78.7186 83.3007 78.266 79.2138 77.7175 75.2601L77.5578 74.1065C77.1851 71.5381 76.7857 69.0534 76.397 66.7857C75.3321 60.6974 74.3896 56.2211 74.3896 56.2211C85.2998 53.6723 99.9478 54.3083 99.9478 54.3083C103.75 67.4956 102.243 91.4546 102.243 91.4546Z" fill="#85E1F1"></path><path d="M82.9561 55.3183C84.8017 57.1071 89.2451 56.4444 89.2451 56.4444C89.2451 56.4444 92.0135 55.6223 91.446 54.6805C89.8034 54.3865 89.0098 53.5594 88.6775 52.503C88.4949 51.8463 88.4384 51.1562 88.5114 50.475C88.5371 50.097 88.5834 49.721 88.6499 49.3489L83.1129 44.9341C83.8558 47.8441 84.7417 53.2056 82.9561 55.3183Z" fill="#EBB376"></path><path opacity="0.2" d="M84.1797 46.0972C84.4281 50.4647 87.5471 51.6691 89.0749 51.9124C88.8657 51.1106 88.8009 50.2682 88.8846 49.4367L84.1797 46.0972Z" fill="black"></path><path d="M83.9162 47.9085C84.7156 48.7447 85.7778 49.3056 86.9402 49.5053C88.1025 49.705 89.3008 49.5325 90.3515 49.0141C91.7237 48.367 92.7886 47.2415 93.3299 45.8662C93.4043 45.6768 93.4681 45.4823 93.5266 45.2827C94.5212 41.6025 94.0585 35.4858 89.9154 33.7711C89.0007 33.3884 87.9995 33.2371 87.007 33.3315C86.0144 33.426 85.0635 33.7631 84.2444 34.3109C83.4253 34.8586 82.7654 35.5988 82.3272 36.4611C81.889 37.3234 81.6872 38.2792 81.7409 39.2377C81.9058 43.3479 81.7994 45.7638 83.9162 47.9085Z" fill="#EBB376"></path><path d="M91.5283 41.4301C91.4811 42.0679 91.7876 42.5977 92.1178 42.6075C92.4479 42.6174 92.7309 42.0973 92.7466 41.4596C92.7623 40.8218 92.4872 40.2919 92.1571 40.2821C91.827 40.2723 91.544 40.8218 91.5283 41.4301Z" fill="#263238"></path><path d="M87.5702 41.0269C87.5231 41.6648 87.8296 42.1947 88.1598 42.2045C88.4899 42.2143 88.7729 41.6942 88.7886 41.0564C88.8043 40.4185 88.5292 39.8886 88.1991 39.8788C87.8689 39.869 87.586 40.4185 87.5702 41.0269Z" fill="#263238"></path><path d="M90.4228 41.4453C90.989 42.5592 91.7712 43.6111 92.7465 44.5704C92.3922 44.742 91.9897 44.8566 91.567 44.9062C91.1443 44.9558 90.7116 44.9392 90.2988 44.8575L90.4228 41.4453Z" fill="#BE701A"></path><path d="M87.9559 40.279C87.9798 40.2853 88.0043 40.2816 88.027 40.2683C88.0498 40.255 88.0699 40.2326 88.0856 40.2032C88.1844 39.9952 88.3123 39.8263 88.459 39.7097C88.6058 39.5931 88.7675 39.532 88.9316 39.5312C88.9487 39.5342 88.9659 39.5318 88.9824 39.5242C88.9988 39.5165 89.0142 39.5037 89.0275 39.4866C89.0408 39.4695 89.0519 39.4483 89.06 39.4243C89.0682 39.4004 89.0732 39.3741 89.0749 39.347C89.0778 39.2917 89.0669 39.2369 89.0445 39.1944C89.0222 39.1518 88.9902 39.1249 88.9555 39.1194C88.748 39.1108 88.5423 39.1811 88.3554 39.3244C88.1684 39.4676 88.0058 39.6798 87.8809 39.9431C87.8592 39.9858 87.8489 40.0402 87.8521 40.0948C87.8553 40.1494 87.8717 40.2 87.8979 40.2357C87.9153 40.2561 87.935 40.2708 87.9559 40.279Z" fill="#263238"></path><path d="M93.7978 40.2667C93.8252 40.2874 93.8548 40.2874 93.8822 40.2667C93.9181 40.2314 93.9462 40.1662 93.9606 40.0853C93.9749 40.0043 93.9743 39.9141 93.9588 39.8342C93.8646 39.3597 93.7205 38.942 93.5385 38.616C93.3565 38.2899 93.1419 38.0649 92.9126 37.9599C92.8745 37.9477 92.8358 37.9694 92.8049 38.0203C92.774 38.0712 92.7535 38.147 92.7478 38.2312C92.7441 38.3159 92.7545 38.4006 92.7771 38.4693C92.7997 38.5381 92.8329 38.5862 92.8704 38.6044C93.0506 38.6958 93.2185 38.8803 93.3604 39.1426C93.5022 39.405 93.6141 39.7379 93.6867 40.1141C93.6978 40.1584 93.7138 40.1957 93.7333 40.2224C93.7528 40.2491 93.775 40.2644 93.7978 40.2667Z" fill="#263238"></path><path d="M85.0982 34.4663L85.4042 36.2284C85.0639 36.3798 84.8018 36.6364 84.6702 36.9471C84.5386 37.2578 84.5471 37.6 84.6939 37.9056C85.3985 39.3732 84.4976 41.6993 83.2098 42.6527C83.2098 42.6527 83.1463 42.0088 82.5226 42.1785C81.8989 42.3482 82.1819 45.6727 83.4581 47.26C81.8271 45.8055 80.661 44.0098 80.0741 42.0487C79.0058 38.8191 79.1155 36.4231 79.8489 35.1452L85.0982 34.4663Z" fill="#263238"></path><path d="M79.5002 42.8099C79.7474 43.2738 80.1012 43.6912 80.541 44.0379C80.9807 44.3845 81.4975 44.6535 82.0613 44.829C83.5622 45.2883 84.4437 44.1677 84.1101 42.9159C83.8123 41.8054 82.6866 40.1902 81.1321 40.2861C79.5776 40.382 78.9046 41.6691 79.5002 42.8099Z" fill="#EBB376"></path><path d="M90.299 45.2786C90.2243 45.5452 90.1655 45.8188 90.1233 46.0969H90.0076C89.4825 46.0654 89.2467 45.827 89.1444 45.5715C89.0962 45.4458 89.0725 45.3068 89.0754 45.1667C89.075 45.088 89.0833 45.0097 89.0999 44.9341C89.4174 45.1375 89.7646 45.252 90.1188 45.27L90.299 45.2786Z" fill="#263238"></path><path d="M90.299 46.0969C89.5546 46.027 89.2203 45.4996 89.0752 44.9341C89.3583 44.9711 89.636 45.1088 89.8953 45.3408C90.0656 45.5021 90.2067 45.7665 90.299 46.0969Z" fill="#BE701A"></path><path d="M86.0841 36.3331C86.0841 36.3331 86.3632 38.4074 83.5875 39.4789C80.8118 40.5505 79.8006 41.4451 79.8006 41.4451C79.8006 41.4451 77.9255 36.3577 81.328 34.48C81.328 34.48 81.3965 33.497 84.3144 32.568C87.2323 31.639 91.4142 32.0764 93.3103 35.355C94.7324 37.8126 93.4157 39.5674 93.4157 39.5674C93.4157 39.5674 93.1365 38.142 90.4293 37.8176C88.8822 37.6245 87.3991 37.1179 86.0841 36.3331Z" fill="#263238"></path><path d="M92.0356 55.5122L91.4999 58.4049C91.4999 58.4049 94.5618 72.4565 95.1945 79.7568L94.0815 80.9871L92.3266 79.7568C92.3266 79.7568 92.1696 64.9122 90.6225 58.6794L87.8516 56.1782L90.036 55.4004L92.0356 55.5122Z" fill="#263238"></path><path opacity="0.7" d="M82.8036 51.9121L88.9125 54.5021L89.2684 52.4221L91.5101 53.1671C91.9022 53.2965 92.2365 53.5465 92.4591 53.8767C92.6817 54.2069 92.7797 54.5981 92.7372 54.9871L92.4822 57.2671L89.3853 55.6721L87.8394 57.7271L80.5088 54.4021L82.8036 51.9121Z" fill="#4AB5F4"></path><path d="M100.09 74.162L107.019 72.9228C107.019 72.9228 108.306 71.6836 108.902 71.6836C109.498 71.6836 117.223 73.9691 117.223 73.9691C117.223 73.9691 115.14 75.9749 114.149 76.3558C113.158 76.7367 108.606 75.782 108.606 75.782L101.872 77.4986L100.09 74.162Z" fill="#EBB376"></path><path opacity="0.7" d="M74.6424 55.4532C77.8487 54.2595 82.5871 73.6815 83.5916 75.2231C84.5961 76.7646 103.463 72.9601 103.463 72.9601L104.985 77.4808C104.985 77.4808 89.0301 83.1279 82.4095 82.0016C75.789 80.8753 74.2924 71.0137 72.674 65.1643C71.0557 59.3148 72.3037 56.3148 74.6424 55.4532Z" fill="#4AB5F4"></path><path opacity="0.6" d="M102.243 91.4546H79.0274C79.0274 90.0644 79.0274 88.5657 78.9209 86.9882C78.7186 83.3007 78.266 79.2138 77.7175 75.2601L77.5578 74.1065C77.1851 71.5381 76.7857 69.0534 76.397 66.7857C75.3321 60.6974 74.3896 56.2211 74.3896 56.2211C85.2998 53.6723 99.9478 54.3083 99.9478 54.3083C103.75 67.4956 102.243 91.4546 102.243 91.4546Z" fill="#85E1F1"></path><path d="M92.0356 55.5122L91.4999 58.4049C91.4999 58.4049 94.5618 72.4565 95.1945 79.7568L94.0815 80.9871L92.3266 79.7568C92.3266 79.7568 92.1696 64.9122 90.6225 58.6794L87.8516 56.1782L90.036 55.4004L92.0356 55.5122Z" fill="#263238"></path><path opacity="0.7" d="M82.8036 51.9121L88.9125 54.5021L89.2684 52.4221L91.5101 53.1671C91.9022 53.2965 92.2365 53.5465 92.4591 53.8767C92.6817 54.2069 92.7797 54.5981 92.7372 54.9871L92.4822 57.2671L89.3853 55.6721L87.8394 57.7271L80.5088 54.4021L82.8036 51.9121Z" fill="#4AB5F4"></path><path opacity="0.7" d="M74.6424 55.4532C77.8487 54.2595 82.5871 73.6815 83.5916 75.2231C84.5961 76.7646 103.463 72.9601 103.463 72.9601L104.985 77.4808C104.985 77.4808 89.0301 83.1279 82.4095 82.0016C75.789 80.8753 74.2924 71.0137 72.674 65.1643C71.0557 59.3148 72.3037 56.3148 74.6424 55.4532Z" fill="#4AB5F4"></path><path opacity="0.6" d="M102.243 91.4546H79.0274C79.0274 90.0644 79.0274 88.5657 78.9209 86.9882C78.7186 83.3007 78.266 79.2138 77.7175 75.2601L77.5578 74.1065C77.1851 71.5381 76.7857 69.0534 76.397 66.7857C75.3321 60.6974 74.3896 56.2211 74.3896 56.2211C85.2998 53.6723 99.9478 54.3083 99.9478 54.3083C103.75 67.4956 102.243 91.4546 102.243 91.4546Z" fill="#85E1F1"></path><path d="M92.0356 55.5122L91.4999 58.4049C91.4999 58.4049 94.5618 72.4565 95.1945 79.7568L94.0815 80.9871L92.3266 79.7568C92.3266 79.7568 92.1696 64.9122 90.6225 58.6794L87.8516 56.1782L90.036 55.4004L92.0356 55.5122Z" fill="#263238"></path><path opacity="0.7" d="M82.8036 51.9121L88.9125 54.5021L89.2684 52.4221L91.5101 53.1671C91.9022 53.2965 92.2365 53.5465 92.4591 53.8767C92.6817 54.2069 92.7797 54.5981 92.7372 54.9871L92.4822 57.2671L89.3853 55.6721L87.8394 57.7271L80.5088 54.4021L82.8036 51.9121Z" fill="#4AB5F4"></path><path opacity="0.7" d="M74.6424 55.4532C77.8487 54.2595 82.5871 73.6815 83.5916 75.2231C84.5961 76.7646 103.463 72.9601 103.463 72.9601L104.985 77.4808C104.985 77.4808 89.0301 83.1279 82.4095 82.0016C75.789 80.8753 74.2924 71.0137 72.674 65.1643C71.0557 59.3148 72.3037 56.3148 74.6424 55.4532Z" fill="#4AB5F4"></path><path opacity="0.6" d="M102.243 91.4546H79.0274C79.0274 90.0644 79.0274 88.5657 78.9209 86.9882C78.7186 83.3007 78.266 79.2138 77.7175 75.2601L77.5578 74.1065C77.1851 71.5381 76.7857 69.0534 76.397 66.7857C75.3321 60.6974 74.3896 56.2211 74.3896 56.2211C85.2998 53.6723 99.9478 54.3083 99.9478 54.3083C103.75 67.4956 102.243 91.4546 102.243 91.4546Z" fill="#85E1F1"></path><path d="M92.0356 55.5122L91.4999 58.4049C91.4999 58.4049 94.5618 72.4565 95.1945 79.7568L94.0815 80.9871L92.3266 79.7568C92.3266 79.7568 92.1696 64.9122 90.6225 58.6794L87.8516 56.1782L90.036 55.4004L92.0356 55.5122Z" fill="#263238"></path><path opacity="0.7" d="M82.8036 51.9121L88.9125 54.5021L89.2684 52.4221L91.5101 53.1671C91.9022 53.2965 92.2365 53.5465 92.4591 53.8767C92.6817 54.2069 92.7797 54.5981 92.7372 54.9871L92.4822 57.2671L89.3853 55.6721L87.8394 57.7271L80.5088 54.4021L82.8036 51.9121Z" fill="#4AB5F4"></path><path opacity="0.7" d="M74.6424 55.4532C77.8487 54.2595 82.5871 73.6815 83.5916 75.2231C84.5961 76.7646 103.463 72.9601 103.463 72.9601L104.985 77.4808C104.985 77.4808 89.0301 83.1279 82.4095 82.0016C75.789 80.8753 74.2924 71.0137 72.674 65.1643C71.0557 59.3148 72.3037 56.3148 74.6424 55.4532Z" fill="#4AB5F4"></path><path opacity="0.6" d="M102.243 91.4546H79.0274C79.0274 90.0644 79.0274 88.5657 78.9209 86.9882C78.7186 83.3007 78.266 79.2138 77.7175 75.2601L77.5578 74.1065C77.1851 71.5381 76.7857 69.0534 76.397 66.7857C75.3321 60.6974 74.3896 56.2211 74.3896 56.2211C85.2998 53.6723 99.9478 54.3083 99.9478 54.3083C103.75 67.4956 102.243 91.4546 102.243 91.4546Z" fill="#85E1F1"></path><path d="M92.0356 55.5122L91.4999 58.4049C91.4999 58.4049 94.5618 72.4565 95.1945 79.7568L94.0815 80.9871L92.3266 79.7568C92.3266 79.7568 92.1696 64.9122 90.6225 58.6794L87.8516 56.1782L90.036 55.4004L92.0356 55.5122Z" fill="#263238"></path><path opacity="0.7" d="M82.8036 51.9121L88.9125 54.5021L89.2684 52.4221L91.5101 53.1671C91.9022 53.2965 92.2365 53.5465 92.4591 53.8767C92.6817 54.2069 92.7797 54.5981 92.7372 54.9871L92.4822 57.2671L89.3853 55.6721L87.8394 57.7271L80.5088 54.4021L82.8036 51.9121Z" fill="#4AB5F4"></path><path opacity="0.7" d="M74.6424 55.4532C77.8487 54.2595 82.5871 73.6815 83.5916 75.2231C84.5961 76.7646 103.463 72.9601 103.463 72.9601L104.985 77.4808C104.985 77.4808 89.0301 83.1279 82.4095 82.0016C75.789 80.8753 74.2924 71.0137 72.674 65.1643C71.0557 59.3148 72.3037 56.3148 74.6424 55.4532Z" fill="#4AB5F4"></path><path opacity="0.6" d="M102.243 91.4546H79.0274C79.0274 90.0644 79.0274 88.5657 78.9209 86.9882C78.7186 83.3007 78.266 79.2138 77.7175 75.2601L77.5578 74.1065C77.1851 71.5381 76.7857 69.0534 76.397 66.7857C75.3321 60.6974 74.3896 56.2211 74.3896 56.2211C85.2998 53.6723 99.9478 54.3083 99.9478 54.3083C103.75 67.4956 102.243 91.4546 102.243 91.4546Z" fill="#5E707A"></path><path d="M92.0356 55.5122L91.4999 58.4049C91.4999 58.4049 94.5618 72.4565 95.1945 79.7568L94.0815 80.9871L92.3266 79.7568C92.3266 79.7568 92.1696 64.9122 90.6225 58.6794L87.8516 56.1782L90.036 55.4004L92.0356 55.5122Z" fill="#263238"></path><path opacity="0.7" d="M82.8036 51.9121L88.9125 54.5021L89.2684 52.4221L91.5101 53.1671C91.9022 53.2965 92.2365 53.5465 92.4591 53.8767C92.6817 54.2069 92.7797 54.5981 92.7372 54.9871L92.4822 57.2671L89.3853 55.6721L87.8394 57.7271L80.5088 54.4021L82.8036 51.9121Z" fill="#4AB5F4"></path><path opacity="0.7" d="M74.6424 55.4532C77.8487 54.2595 82.5871 73.6815 83.5916 75.2231C84.5961 76.7646 103.463 72.9601 103.463 72.9601L104.985 77.4808C104.985 77.4808 89.0301 83.1279 82.4095 82.0016C75.789 80.8753 74.2924 71.0137 72.674 65.1643C71.0557 59.3148 72.3037 56.3148 74.6424 55.4532Z" fill="#4AB5F4"></path><path d="M92.0356 55.5122L91.4999 58.4049C91.4999 58.4049 94.5618 72.4565 95.1945 79.7568L94.0815 80.9871L92.3266 79.7568C92.3266 79.7568 92.1696 64.9122 90.6225 58.6794L87.8516 56.1782L90.036 55.4004L92.0356 55.5122Z" fill="#263238"></path><path opacity="0.7" d="M82.8036 51.9121L88.9125 54.5021L89.2684 52.4221L91.5101 53.1671C91.9022 53.2965 92.2365 53.5465 92.4591 53.8767C92.6817 54.2069 92.7797 54.5981 92.7372 54.9871L92.4822 57.2671L89.3853 55.6721L87.8394 57.7271L80.5088 54.4021L82.8036 51.9121Z" fill="#4AB5F4"></path><path opacity="0.7" d="M74.6424 55.4532C77.8487 54.2595 82.5871 73.6815 83.5916 75.2231C84.5961 76.7646 103.463 72.9601 103.463 72.9601L104.985 77.4808C104.985 77.4808 89.0301 83.1279 82.4095 82.0016C75.789 80.8753 74.2924 71.0137 72.674 65.1643C71.0557 59.3148 72.3037 56.3148 74.6424 55.4532Z" fill="#4AB5F4"></path><path opacity="0.7" d="M82.8036 51.9121L88.9125 54.5021L89.2684 52.4221L91.5101 53.1671C91.9022 53.2965 92.2365 53.5465 92.4591 53.8767C92.6817 54.2069 92.7797 54.5981 92.7372 54.9871L92.4822 57.2671L89.3853 55.6721L87.8394 57.7271L80.5088 54.4021L82.8036 51.9121Z" fill="#4AB5F4"></path><path opacity="0.7" d="M74.6424 55.4532C77.8487 54.2595 82.5871 73.6815 83.5916 75.2231C84.5961 76.7646 103.463 72.9601 103.463 72.9601L104.985 77.4808C104.985 77.4808 89.0301 83.1279 82.4095 82.0016C75.789 80.8753 74.2924 71.0137 72.674 65.1643C71.0557 59.3148 72.3037 56.3148 74.6424 55.4532Z" fill="#4AB5F4"></path><path opacity="0.7" d="M82.8036 51.9121L88.9125 54.5021L89.2684 52.4221L91.5101 53.1671C91.9022 53.2965 92.2365 53.5465 92.4591 53.8767C92.6817 54.2069 92.7797 54.5981 92.7372 54.9871L92.4822 57.2671L89.3853 55.6721L87.8394 57.7271L80.5088 54.4021L82.8036 51.9121Z" fill="#4AB5F4"></path><path opacity="0.7" d="M74.6424 55.4532C77.8487 54.2595 82.5871 73.6815 83.5916 75.2231C84.5961 76.7646 103.463 72.9601 103.463 72.9601L104.985 77.4808C104.985 77.4808 89.0301 83.1279 82.4095 82.0016C75.789 80.8753 74.2924 71.0137 72.674 65.1643C71.0557 59.3148 72.3037 56.3148 74.6424 55.4532Z" fill="#4AB5F4"></path><path opacity="0.7" d="M82.8036 51.9121L88.9125 54.5021L89.2684 52.4221L91.5101 53.1671C91.9022 53.2965 92.2365 53.5465 92.4591 53.8767C92.6817 54.2069 92.7797 54.5981 92.7372 54.9871L92.4822 57.2671L89.3853 55.6721L87.8394 57.7271L80.5088 54.4021L82.8036 51.9121Z" fill="#4AB5F4"></path><path opacity="0.7" d="M74.6424 55.4532C77.8487 54.2595 82.5871 73.6815 83.5916 75.2231C84.5961 76.7646 103.463 72.9601 103.463 72.9601L104.985 77.4808C104.985 77.4808 89.0301 83.1279 82.4095 82.0016C75.789 80.8753 74.2924 71.0137 72.674 65.1643C71.0557 59.3148 72.3037 56.3148 74.6424 55.4532Z" fill="#4AB5F4"></path><path opacity="0.7" d="M82.8036 51.9121L88.9125 54.5021L89.2684 52.4221L91.5101 53.1671C91.9022 53.2965 92.2365 53.5465 92.4591 53.8767C92.6817 54.2069 92.7797 54.5981 92.7372 54.9871L92.4822 57.2671L89.3853 55.6721L87.8394 57.7271L80.5088 54.4021L82.8036 51.9121Z" fill="#B2C2CA"></path><path opacity="0.7" d="M74.6424 55.4532C77.8487 54.2595 82.5871 73.6815 83.5916 75.2231C84.5961 76.7646 103.463 72.9601 103.463 72.9601L104.985 77.4808C104.985 77.4808 89.0301 83.1279 82.4095 82.0016C75.789 80.8753 74.2924 71.0137 72.674 65.1643C71.0557 59.3148 72.3037 56.3148 74.6424 55.4532Z" fill="#B2C2CA"></path><path d="M145.936 54.48C145.395 55.569 144.704 56.5847 143.881 57.5006C144.511 58.1199 145.682 57.8883 145.682 57.8883L145.936 54.48Z" fill="#A02724"></path><path d="M159.244 60.1787L155.721 62.6957L150.911 66.0937C151.165 66.6167 151.314 67.1801 151.351 67.7549C151.504 69.0235 151.658 69.9649 148.676 70.7049C148.36 70.7712 148.071 70.9229 147.843 71.1417C147.616 71.3605 147.46 71.6371 147.394 71.9382C147.267 72.6883 147.733 73.5994 150.466 74.0827C153.115 74.497 155.834 74.0967 158.227 72.94C159.397 72.4013 159.408 71.7369 158.936 70.6143C157.522 67.3824 158.29 63.33 159.244 60.1787Z" fill="#EBB376"></path><path d="M145.005 54.1279C144.899 54.5207 145.005 54.8832 145.206 54.9336C145.407 54.9839 145.677 54.707 145.783 54.3142C145.889 53.9215 145.783 53.5589 145.582 53.5035C145.381 53.4482 145.105 53.7301 145.005 54.1279Z" fill="#263238"></path><path d="M148.129 53.5334C148.083 53.5331 148.038 53.5214 147.998 53.4993C147.958 53.4772 147.924 53.4456 147.901 53.4075C147.683 53.0534 147.375 52.7571 147.004 52.546C146.634 52.3349 146.214 52.2156 145.782 52.1993C145.712 52.1993 145.645 52.1727 145.595 52.1255C145.545 52.0783 145.518 52.0143 145.518 51.9475C145.518 51.8808 145.545 51.8168 145.595 51.7695C145.645 51.7223 145.712 51.6958 145.782 51.6958C146.308 51.7139 146.819 51.857 147.271 52.1121C147.723 52.3672 148.1 52.7261 148.368 53.1558C148.401 53.2149 148.409 53.2839 148.39 53.3486C148.371 53.4132 148.327 53.4685 148.267 53.5032C148.224 53.524 148.177 53.5344 148.129 53.5334Z" fill="#263238"></path><path d="M144.978 59.6952C145.093 60.8203 145.48 61.905 146.107 62.8653C146.734 63.8257 147.586 64.6357 148.596 65.2327C149.279 65.6402 150.029 65.9347 150.816 66.1036C151.772 66.3078 152.764 66.3066 153.72 66.1002C154.676 65.8938 155.571 65.4874 156.341 64.9105C159.408 62.7056 159.763 59.7203 160.827 54.7063C161.087 53.5375 161.032 52.3254 160.668 51.1819C160.304 50.0385 159.643 49.0007 158.746 48.1643C157.848 47.3279 156.743 46.72 155.533 46.3967C154.323 46.0734 153.047 46.0451 151.822 46.3144C146.35 47.5629 144.501 54.9782 144.978 59.6952Z" fill="#EBB376"></path><path opacity="0.2" d="M148.597 65.2179C149.279 65.6252 150.03 65.9195 150.816 66.0884H150.912L150.578 65.082C150.578 65.082 150.122 65.8016 148.597 65.2179Z" fill="black"></path><path d="M162.364 58.316C161.474 60.0427 160.372 61.7744 158.693 62.8467C158.073 63.2494 153.369 62.9524 153.369 62.9524C153.417 61.4422 151.393 56.2068 150.419 54.4499C150.112 55.1698 150.546 56.1564 150.159 56.8209C149.629 56.7253 140.206 53.5035 144.359 47.0649C147.293 42.5343 155.165 42.1215 158.433 46.6018C159.134 46.4296 159.872 46.4427 160.565 46.6397C161.259 46.8366 161.883 47.21 162.369 47.7194C163.321 48.7658 163.88 50.0833 163.958 51.4647C164.197 53.8357 163.455 56.1816 162.364 58.316Z" fill="#263238"></path><path d="M153.643 55.7386C153.545 56.8893 153.004 57.9652 152.122 58.7593C150.989 59.7661 149.569 58.6988 149.394 57.2489C149.235 55.9551 149.897 54.0621 151.28 53.609C152.663 53.1559 153.764 54.339 153.643 55.7386Z" fill="#FF8B7B"></path><path d="M108.083 168.879L103.204 166.604L106.812 155.307L112.755 158.458L108.083 168.879Z" fill="#EBB376"></path><path opacity="0.2" d="M114.038 155.358L107.782 151.929L105.303 160.07L110.95 162.597L114.038 155.358Z" fill="black"></path><path d="M102.913 165.703L108.501 168.155C108.603 168.204 108.682 168.287 108.722 168.389C108.763 168.491 108.761 168.603 108.718 168.704L106.891 173.864C106.851 173.987 106.785 174.101 106.697 174.2C106.61 174.298 106.502 174.379 106.381 174.437C106.26 174.496 106.128 174.53 105.992 174.539C105.857 174.548 105.721 174.53 105.593 174.488C103.665 173.597 102.78 173.063 100.328 171.971C98.8125 171.311 95.364 169.746 93.2133 169.006C91.0627 168.266 91.9526 165.864 92.9379 165.96C97.3717 166.408 99.9779 166.307 101.906 165.668C102.234 165.555 102.595 165.568 102.913 165.703Z" fill="#263238"></path><path d="M100.036 166.056C100.483 166.222 100.946 166.343 101.419 166.418C101.442 166.423 101.467 166.421 101.489 166.412C101.511 166.403 101.529 166.388 101.541 166.368C101.558 166.352 101.57 166.332 101.576 166.309C101.582 166.287 101.58 166.264 101.573 166.242C101.461 166.071 100.444 164.581 99.7345 164.555C99.6537 164.551 99.5733 164.567 99.5015 164.603C99.4297 164.638 99.3693 164.691 99.3266 164.757C99.2434 164.848 99.1877 164.959 99.1653 165.077C99.143 165.196 99.1547 165.318 99.1995 165.431C99.3876 165.731 99.6858 165.953 100.036 166.056ZM101.202 166.136C100.232 165.915 99.5756 165.633 99.4431 165.331C99.42 165.258 99.4176 165.18 99.4362 165.106C99.4548 165.031 99.4938 164.963 99.5491 164.908C99.5699 164.875 99.5993 164.847 99.6346 164.827C99.6698 164.808 99.7097 164.798 99.7504 164.797C100.121 164.807 100.794 165.547 101.202 166.136Z" fill="#6D9DAA"></path><path d="M101.425 166.418H101.483C101.505 166.414 101.526 166.406 101.544 166.394C101.562 166.382 101.578 166.366 101.589 166.347C101.589 166.287 102.346 164.963 102.044 164.298C102.008 164.21 101.95 164.132 101.875 164.07C101.801 164.008 101.711 163.964 101.615 163.941C101.514 163.903 101.403 163.899 101.299 163.929C101.195 163.959 101.105 164.022 101.043 164.107C100.693 164.58 101.001 165.879 101.372 166.363C101.375 166.375 101.382 166.387 101.391 166.396C101.4 166.406 101.412 166.414 101.425 166.418ZM101.605 164.208C101.652 164.226 101.694 164.253 101.73 164.288C101.766 164.322 101.793 164.364 101.811 164.409C101.883 164.979 101.76 165.556 101.462 166.055C101.155 165.503 101.079 164.861 101.25 164.258C101.25 164.192 101.361 164.137 101.541 164.187L101.605 164.208Z" fill="#6D9DAA"></path><path d="M145.249 110.489C145.249 110.489 116.496 105.787 112.878 120.733C110.086 131.199 108.735 135.458 105.181 158.665L112.772 160.291C112.772 160.291 125.008 136.52 125.723 126.412C134.305 127.791 153.83 131.657 157.989 124.755C160.072 121.246 161.463 117.404 162.094 113.419L145.249 110.489Z" fill="#41494D"></path><path d="M113.739 161.897L104.019 158.665L104.93 154.482L114.899 158.333L113.739 161.897Z" fill="#577396"></path><path d="M87.9598 167.209L82.832 164.505L87.928 155.147L94.2476 157.588L87.9598 167.209Z" fill="#EBB376"></path><path opacity="0.2" d="M96.0087 154.708L90.3778 150.409L86.6221 158.096L91.7921 161.414L96.0087 154.708Z" fill="black"></path><path d="M83.3555 163.322L88.4885 166.554C88.575 166.616 88.6348 166.706 88.6572 166.806C88.6796 166.907 88.663 167.012 88.6104 167.102L85.9618 171.94C85.9028 172.056 85.8197 172.16 85.7174 172.245C85.6151 172.33 85.4958 172.394 85.3666 172.434C85.2374 172.474 85.1011 172.489 84.9657 172.478C84.8304 172.466 84.6989 172.429 84.5792 172.368C82.8152 171.21 82.0312 170.556 79.7746 169.131C78.3867 168.26 75.2295 166.216 73.2219 165.169C71.2142 164.122 72.4803 161.887 73.4391 162.124C77.751 163.206 80.3255 163.488 82.349 163.131C82.6979 163.066 83.0598 163.134 83.3555 163.322Z" fill="#263238"></path><path d="M80.4582 163.251C80.8729 163.479 81.3114 163.664 81.7666 163.805C81.7883 163.814 81.8126 163.816 81.8357 163.811C81.8588 163.805 81.8792 163.793 81.8938 163.775C81.9134 163.763 81.9289 163.745 81.9383 163.725C81.9477 163.704 81.9506 163.681 81.9467 163.659C81.8673 163.468 81.0992 161.852 80.4 161.726C80.3206 161.71 80.2381 161.714 80.1609 161.738C80.0837 161.762 80.0145 161.804 79.9603 161.862C79.866 161.942 79.7951 162.044 79.7543 162.158C79.7134 162.271 79.7041 162.393 79.7272 162.511C79.8687 162.834 80.1284 163.097 80.4582 163.251ZM81.5971 163.498C80.6754 163.136 80.0715 162.783 80.008 162.451C79.9966 162.374 80.0068 162.296 80.0375 162.225C80.0683 162.153 80.1184 162.09 80.1828 162.043C80.2084 162.015 80.2414 161.993 80.2784 161.979C80.3155 161.966 80.3555 161.962 80.3947 161.968C80.7443 162.028 81.2687 162.854 81.5971 163.498Z" fill="#6D9DAA"></path><path d="M81.7723 163.809H81.8252C81.8475 163.811 81.8697 163.807 81.89 163.798C81.9103 163.789 81.9281 163.776 81.9418 163.759C81.9683 163.704 82.9112 162.501 82.7205 161.801C82.699 161.709 82.6546 161.623 82.591 161.55C82.5274 161.478 82.4465 161.42 82.355 161.383C82.261 161.331 82.1513 161.311 82.0436 161.325C81.9358 161.34 81.8365 161.389 81.7617 161.464C81.3432 161.882 81.4332 163.205 81.7246 163.739C81.726 163.753 81.731 163.767 81.7393 163.78C81.7476 163.792 81.7589 163.802 81.7723 163.809ZM82.302 161.65C82.3463 161.675 82.3847 161.709 82.4148 161.749C82.4448 161.788 82.466 161.834 82.4768 161.882C82.4575 162.455 82.2417 163.006 81.8623 163.452C81.6485 162.863 81.6788 162.219 81.9471 161.65C81.9736 161.59 82.0795 161.549 82.249 161.62L82.302 161.65Z" fill="#6D9DAA"></path><path d="M136.185 109.034C135.984 108.999 104.661 100.949 99.4702 117.813C92.3507 138.337 87.0693 155.76 87.0693 155.76L93.2141 159.994C93.2141 159.994 108.889 139.384 111.225 125.259C121.014 124.212 144.407 132.362 148.565 125.465C151.971 119.827 152.135 111.601 152.135 111.601L136.185 109.034Z" fill="#515B60"></path><path d="M94.1239 161.082L85.8125 155.796L87.158 152.413L96.0892 157.044L94.1239 161.082Z" fill="#577396"></path><path d="M165.314 74.5961C164.784 76.6097 164.143 78.5981 163.449 80.5866C162.755 82.5751 161.961 84.5434 161.028 86.557C160.081 88.6281 158.908 90.5989 157.527 92.4368C156.715 93.5149 155.743 94.4747 154.64 95.2861C153.962 95.7834 153.213 96.1868 152.415 96.4842C151.958 96.6495 151.484 96.7709 151.001 96.8467L150.614 96.9071C150.413 96.9071 150.19 96.9373 149.994 96.9373C149.661 96.9325 149.33 96.8971 149.004 96.8316C148.521 96.7371 148.05 96.5936 147.6 96.4037C147.235 96.26 146.881 96.0918 146.54 95.9003C145.977 95.5677 145.436 95.2029 144.92 94.8079C144.019 94.1081 140.661 89.0741 138.271 85.5502L141.116 83.2949C144.199 85.9479 147.33 88.6764 150.466 91.0071C151.271 91.5508 147.875 89.3711 148.633 89.8342C148.973 90.0366 149.327 90.2165 149.692 90.3728C149.994 90.5037 150.291 90.5692 150.222 90.5188C150.157 90.4986 150.089 90.4884 150.021 90.4886C149.945 90.4836 149.869 90.4836 149.793 90.4886C149.831 90.4748 149.869 90.458 149.904 90.4383C150.08 90.3403 150.245 90.2256 150.397 90.096C150.931 89.6234 151.402 89.0909 151.801 88.5102C152.8 87.0121 153.644 85.4257 154.322 83.7732C155.096 82.0213 155.726 80.2493 156.335 78.3917C156.944 76.5342 157.511 74.6816 158.025 72.7788C158.539 70.8759 165.865 72.5724 165.314 74.5961Z" fill="#6D9DAA"></path><path opacity="0.6" d="M165.314 74.5961C164.784 76.6097 164.143 78.5981 163.449 80.5866C162.755 82.5751 161.961 84.5434 161.028 86.557C160.081 88.6281 158.908 90.5989 157.527 92.4368C156.715 93.5149 155.743 94.4747 154.64 95.2861C153.962 95.7834 153.213 96.1868 152.415 96.4842C151.958 96.6495 151.484 96.7709 151.001 96.8467L150.614 96.9071C150.413 96.9071 150.19 96.9373 149.994 96.9373C149.661 96.9325 149.33 96.8971 149.004 96.8316C148.521 96.7371 148.05 96.5936 147.6 96.4037C147.235 96.26 146.881 96.0918 146.54 95.9003C145.977 95.5677 145.436 95.2029 144.92 94.8079C144.019 94.1081 140.661 89.0741 138.271 85.5502L141.116 83.2949C144.199 85.9479 147.33 88.6764 150.466 91.0071C151.271 91.5508 147.875 89.3711 148.633 89.8342C148.973 90.0366 149.327 90.2165 149.692 90.3728C149.994 90.5037 150.291 90.5692 150.222 90.5188C150.157 90.4986 150.089 90.4884 150.021 90.4886C149.945 90.4836 149.869 90.4836 149.793 90.4886C149.831 90.4748 149.869 90.458 149.904 90.4383C150.08 90.3403 150.245 90.2256 150.397 90.096C150.931 89.6234 151.402 89.0909 151.801 88.5102C152.8 87.0121 153.644 85.4257 154.322 83.7732C155.096 82.0213 155.726 80.2493 156.335 78.3917C156.944 76.5342 157.511 74.6816 158.025 72.7788C158.539 70.8759 165.865 72.5724 165.314 74.5961Z" fill="white"></path><path d="M141.328 83.5972L138.61 78.1152L133.445 80.9191C133.445 80.9191 136.788 86.0084 138.668 85.505L141.328 83.5972Z" fill="#FF8B7B"></path><path d="M134.394 76.8165L132.047 77.7477C131.909 77.801 131.787 77.8857 131.691 77.9943C131.595 78.103 131.529 78.2323 131.498 78.371C131.467 78.5097 131.473 78.6534 131.514 78.7896C131.555 78.9258 131.631 79.0503 131.735 79.1521L133.488 80.8938L138.653 78.09L135.088 76.8115C134.865 76.7272 134.616 76.729 134.394 76.8165Z" fill="#EBB376"></path><path d="M114.874 93.6859L109.312 93.0415L107.463 98.5788C107.463 98.5788 113.82 98.7299 114.879 97.0989L114.874 93.6859Z" fill="#EBB376"></path><path d="M105.163 94.9287L104.104 97.0379C104.036 97.1845 104.005 97.3444 104.016 97.5044C104.026 97.6644 104.076 97.8197 104.162 97.9576C104.248 98.0955 104.367 98.2118 104.51 98.297C104.653 98.3822 104.815 98.4337 104.983 98.4473L107.446 98.5933L109.295 93.0562L105.698 94.4455C105.465 94.5404 105.275 94.7119 105.163 94.9287Z" fill="#EBB376"></path><path d="M167.084 74.3041C166.835 73.0758 164.912 71.5807 163.609 71.3743L162.745 71.2333C161.001 70.9737 159.243 70.8057 157.48 70.7299C153.951 70.5419 150.414 70.5419 146.885 70.7299C145.248 70.8759 143.643 71.1276 142.367 71.3642H142.319C141.594 71.5126 140.942 71.8878 140.467 72.4299C139.993 72.972 139.724 73.6497 139.702 74.3544C139.58 78.1552 139.273 85.8775 138.553 93.484C137.997 99.4293 136.762 105.224 136.206 109.251L162.12 113.409C163.868 108.737 164.472 104.514 166.088 95.8349C167.036 90.6146 168.117 79.3583 167.084 74.3041Z" fill="#6D9DAA"></path><path opacity="0.6" d="M167.084 74.3041C166.835 73.0758 164.912 71.5807 163.609 71.3743L162.745 71.2333C161.001 70.9737 159.243 70.8057 157.48 70.7299C153.951 70.5419 150.414 70.5419 146.885 70.7299C145.248 70.8759 143.643 71.1276 142.367 71.3642H142.319C141.594 71.5126 140.942 71.8878 140.467 72.4299C139.993 72.972 139.724 73.6497 139.702 74.3544C139.58 78.1552 139.273 85.8775 138.553 93.484C137.997 99.4293 136.762 105.224 136.206 109.251L162.12 113.409C163.868 108.737 164.472 104.514 166.088 95.8349C167.036 90.6146 168.117 79.3583 167.084 74.3041Z" fill="#335C73"></path><path d="M142.235 71.9582C142.735 72.1657 143.186 72.4652 143.564 72.8395C143.941 73.2138 144.237 73.6554 144.434 74.1388C144.631 74.6223 144.725 75.138 144.712 75.6563C144.698 76.1746 144.576 76.6851 144.354 77.1585C142.235 81.6892 138.686 88.8326 137.16 91.3396C136.583 92.2256 136 93.1116 135.348 93.9976C135.025 94.4456 134.66 94.8836 134.289 95.3417C134.077 95.5682 133.907 95.7797 133.658 96.0213L133.304 96.3737L133.102 96.57C132.536 97.0682 131.862 97.4413 131.126 97.6624C130.738 97.7834 130.342 97.8793 129.94 97.9494C129.286 98.0492 128.626 98.1014 127.964 98.1054C126.82 98.1054 118.959 98.775 114.943 97.4409L114.731 93.3281C118.736 93.6301 125.723 91.5712 126.624 91.4805C126.982 91.4365 127.336 91.3675 127.683 91.2741C127.797 91.2423 127.908 91.1984 128.012 91.1433C128.049 91.1433 128.012 91.103 127.847 91.2087C127.788 91.2433 127.733 91.2838 127.683 91.3295L127.741 91.259L127.906 91.0728C128.017 90.962 128.144 90.7808 128.266 90.6348C128.504 90.3227 128.748 89.9854 128.992 89.628C129.474 88.9131 129.94 88.1177 130.401 87.3173C131.317 85.7114 132.165 84.0099 132.991 82.2832C133.574 81.0649 135.301 77.3598 136.768 74.0424C136.98 73.5621 137.29 73.1266 137.681 72.7613C138.071 72.3959 138.534 72.1079 139.043 71.914C139.551 71.7201 140.095 71.6242 140.643 71.6318C141.191 71.6394 141.732 71.7503 142.235 71.9582Z" fill="#6D9DAA"></path><path opacity="0.2" d="M138.723 87.9623C138.797 90.2125 138.765 89.4725 138.85 91.8435C145.768 82.747 143.988 76.4292 143.988 76.4292L138.723 87.9623Z" fill="black"></path><path opacity="0.6" d="M142.235 71.9582C142.735 72.1657 143.186 72.4652 143.564 72.8395C143.941 73.2138 144.237 73.6554 144.434 74.1388C144.631 74.6223 144.725 75.138 144.712 75.6563C144.698 76.1746 144.576 76.6851 144.354 77.1585C142.235 81.6892 138.686 88.8326 137.16 91.3396C136.583 92.2256 136 93.1116 135.348 93.9976C135.025 94.4456 134.66 94.8836 134.289 95.3417C134.077 95.5682 133.907 95.7797 133.658 96.0213L133.304 96.3737L133.102 96.57C132.536 97.0682 131.862 97.4413 131.126 97.6624C130.738 97.7834 130.342 97.8793 129.94 97.9494C129.286 98.0492 128.626 98.1014 127.964 98.1054C126.82 98.1054 118.959 98.775 114.943 97.4409L114.731 93.3281C118.736 93.6301 125.723 91.5712 126.624 91.4805C126.982 91.4365 127.336 91.3675 127.683 91.2741C127.797 91.2423 127.908 91.1984 128.012 91.1433C128.049 91.1433 128.012 91.103 127.847 91.2087C127.788 91.2433 127.733 91.2838 127.683 91.3295L127.741 91.259L127.906 91.0728C128.017 90.962 128.144 90.7808 128.266 90.6348C128.504 90.3227 128.748 89.9854 128.992 89.628C129.474 88.9131 129.94 88.1177 130.401 87.3173C131.317 85.7114 132.165 84.0099 132.991 82.2832C133.574 81.0649 135.301 77.3598 136.768 74.0424C136.98 73.5621 137.29 73.1266 137.681 72.7613C138.071 72.3959 138.534 72.1079 139.043 71.914C139.551 71.7201 140.095 71.6242 140.643 71.6318C141.191 71.6394 141.732 71.7503 142.235 71.9582Z" fill="#335C73"></path><path d="M150.016 54.3392C149.602 54.686 149.264 55.1077 149.023 55.5795C148.782 56.0514 148.642 56.5641 148.612 57.0878C148.543 58.4822 149.968 58.8598 151.202 58.2054C152.325 57.6113 153.697 56.1917 153.178 54.903C152.659 53.6142 151.054 53.4632 150.016 54.3392Z" fill="#FAB27B"></path><path d="M154.73 56.5141C154.624 58.7995 153.172 60.5967 150.767 60.496C148.362 60.3953 147.059 58.4824 147.186 56.1969C147.313 53.9115 148.749 52.1143 151.154 52.215C153.559 52.3157 154.825 54.2286 154.73 56.5141Z" fill="#6D9DAA"></path><path opacity="0.7" d="M154.73 56.5141C154.624 58.7995 153.172 60.5967 150.767 60.496C148.362 60.3953 147.059 58.4824 147.186 56.1969C147.313 53.9115 148.749 52.1143 151.154 52.215C153.559 52.3157 154.825 54.2286 154.73 56.5141Z" fill="white"></path><path d="M153.624 56.4687C153.545 58.0845 152.523 59.3479 150.822 59.2775C149.122 59.207 148.221 57.858 148.301 56.2573C148.38 54.6567 149.397 53.3781 151.098 53.4486C152.798 53.5191 153.699 54.8429 153.624 56.4687Z" fill="#6D9DAA"></path><path opacity="0.3" d="M153.624 56.4687C153.545 58.0845 152.523 59.3479 150.822 59.2775C149.122 59.207 148.221 57.858 148.301 56.2573C148.38 54.6567 149.397 53.3781 151.098 53.4486C152.798 53.5191 153.699 54.8429 153.624 56.4687Z" fill="white"></path><path d="M150.837 51.822C151.33 49.899 153.279 44.7743 157.321 44.0594C157.515 44.0279 157.715 44.0447 157.901 44.1082C158.086 44.1717 158.251 44.2798 158.38 44.4219L158.862 44.9253C158.975 45.0495 159.058 45.1962 159.103 45.3545C159.149 45.5129 159.157 45.6789 159.126 45.8405C159.096 46.0021 159.028 46.1552 158.927 46.2887C158.826 46.4221 158.696 46.5325 158.544 46.6117C156.012 47.8736 154.012 49.9222 152.876 52.416C152.797 52.594 152.652 52.7388 152.469 52.8238C152.286 52.9088 152.077 52.9285 151.88 52.8791L151.43 52.7634C151.224 52.7078 151.047 52.5794 150.937 52.4045C150.827 52.2295 150.791 52.0212 150.837 51.822Z" fill="#6D9DAA"></path><path opacity="0.2" d="M150.837 51.822C151.33 49.899 153.279 44.7743 157.321 44.0594C157.515 44.0279 157.715 44.0447 157.901 44.1082C158.086 44.1717 158.251 44.2798 158.38 44.4219L158.862 44.9253C158.975 45.0495 159.058 45.1962 159.103 45.3545C159.149 45.5129 159.157 45.6789 159.126 45.8405C159.096 46.0021 159.028 46.1552 158.927 46.2887C158.826 46.4221 158.696 46.5325 158.544 46.6117C156.012 47.8736 154.012 49.9222 152.876 52.416C152.797 52.594 152.652 52.7388 152.469 52.8238C152.286 52.9088 152.077 52.9285 151.88 52.8791L151.43 52.7634C151.224 52.7078 151.047 52.5794 150.937 52.4045C150.827 52.2295 150.791 52.0212 150.837 51.822Z" fill="white"></path><path d="M122.385 108.078H118.941V122.043H122.385V108.078Z" fill="#263238"></path><path d="M122.385 108.078H118.941V122.043H122.385V108.078Z" fill="#263238"></path><path d="M132.36 112.343C124.782 109.827 116.53 109.827 108.952 112.343C108.19 112.615 107.349 112.612 106.589 112.333C105.829 112.055 105.203 111.521 104.831 110.833C104.126 109.423 105.069 107.596 106.981 106.961C115.832 104.021 125.47 104.021 134.32 106.961C136.227 107.59 137.17 109.423 136.471 110.833C136.096 111.516 135.472 112.046 134.715 112.324C133.959 112.602 133.122 112.609 132.36 112.343Z" fill="#263238"></path><path opacity="0.4" d="M132.36 112.343C124.782 109.827 116.53 109.827 108.952 112.343C108.19 112.615 107.349 112.612 106.589 112.333C105.829 112.055 105.203 111.521 104.831 110.833C104.126 109.423 105.069 107.596 106.981 106.961C115.832 104.021 125.47 104.021 134.32 106.961C136.227 107.59 137.17 109.423 136.471 110.833C136.096 111.516 135.472 112.046 134.715 112.324C133.959 112.602 133.122 112.609 132.36 112.343Z" fill="#263238"></path><path d="M128.769 178.147C128.769 178.651 128.612 179.144 128.317 179.563C128.023 179.982 127.604 180.308 127.114 180.501C126.625 180.694 126.086 180.744 125.566 180.646C125.046 180.548 124.568 180.305 124.193 179.949C123.818 179.592 123.563 179.139 123.46 178.644C123.356 178.15 123.409 177.638 123.612 177.173C123.815 176.707 124.159 176.309 124.599 176.029C125.04 175.75 125.558 175.6 126.089 175.6C126.799 175.6 127.481 175.868 127.984 176.346C128.487 176.824 128.769 177.472 128.769 178.147Z" fill="#263238"></path><path d="M168.125 178.148C168.125 178.652 168.283 179.144 168.577 179.563C168.872 179.982 169.291 180.309 169.781 180.501C170.271 180.694 170.81 180.744 171.33 180.646C171.851 180.547 172.328 180.304 172.703 179.947C173.077 179.59 173.332 179.136 173.435 178.641C173.538 178.147 173.484 177.635 173.28 177.169C173.077 176.704 172.732 176.306 172.291 176.027C171.849 175.748 171.331 175.599 170.8 175.6C170.448 175.597 170.098 175.66 169.771 175.787C169.445 175.914 169.148 176.102 168.899 176.339C168.65 176.576 168.453 176.859 168.32 177.169C168.187 177.48 168.121 177.812 168.125 178.148Z" fill="#263238"></path><path d="M144.916 177.332C144.916 177.837 145.074 178.33 145.37 178.75C145.666 179.169 146.087 179.496 146.578 179.688C147.07 179.879 147.61 179.928 148.131 179.827C148.652 179.726 149.129 179.481 149.503 179.122C149.877 178.762 150.129 178.306 150.229 177.81C150.329 177.314 150.271 176.801 150.064 176.336C149.856 175.871 149.507 175.476 149.062 175.199C148.617 174.923 148.096 174.779 147.565 174.785C146.859 174.793 146.186 175.065 145.69 175.541C145.194 176.018 144.916 176.661 144.916 177.332Z" fill="#263238"></path><path d="M176.646 174.724C176.587 175.014 176.421 175.274 176.179 175.459C175.936 175.643 175.632 175.739 175.322 175.731L147.379 175.368L121.205 175.932C120.88 175.938 120.564 175.828 120.32 175.625C120.075 175.421 119.92 175.137 119.884 174.83C119.848 174.523 119.934 174.214 120.126 173.965C120.317 173.715 120.6 173.542 120.919 173.48L135.222 170.843C136.705 170.58 138.21 170.446 139.719 170.445H155.081C156.588 170.446 158.092 170.579 159.573 170.843L175.634 173.289C175.967 173.355 176.259 173.542 176.448 173.81C176.638 174.078 176.709 174.406 176.646 174.724Z" fill="#263238"></path><path d="M152.124 148.275H142.621V174.276H152.124V148.275Z" fill="#263238"></path><path d="M150.763 131.804H143.988V148.406H150.763V131.804Z" fill="#263238"></path><path opacity="0.2" d="M143.988 134.88L150.763 136.501V131.804H143.988V134.88Z" fill="black"></path><path d="M144.651 119.989V131.728H108.577C107.794 131.73 107.024 131.534 106.346 131.16C105.668 130.787 105.107 130.249 104.719 129.603C104.331 128.956 104.131 128.223 104.139 127.478C104.147 126.734 104.362 126.005 104.763 125.365C105.782 123.729 107.232 122.372 108.969 121.43C110.707 120.487 112.673 119.99 114.674 119.989H144.651Z" fill="#003350"></path><path d="M151.913 76.5142C151.823 76.8918 151.765 77.2756 151.739 77.6619L147.771 131.526H142.299L146.261 77.6619C146.259 77.62 146.259 77.578 146.261 77.5361L151.913 76.5142Z" fill="#003350"></path><path d="M177.076 131.738V131.799H176.154C176.463 131.799 176.771 131.779 177.076 131.738Z" fill="#263238"></path><path d="M189.258 76.1724L189.322 69.7691C189.356 67.9966 188.691 66.2761 187.457 64.9465L183.479 60.6827L182.054 50.0155C181.954 49.2184 181.547 48.4847 180.911 47.9565C180.275 47.4283 179.455 47.1431 178.611 47.1562H168.726C167.93 47.1654 167.153 47.3969 166.494 47.8221C165.835 48.2472 165.321 48.8472 165.018 49.5474L160.033 61.02L151.791 65.6463C150.75 66.2263 149.846 67.0032 149.135 67.9289C148.423 68.8545 147.919 69.9093 147.654 71.0277L146.149 77.5719H146.266L151.902 76.5651C151.812 76.9427 151.754 77.3265 151.727 77.7129L147.76 131.577H178.786C179.096 131.577 179.406 131.557 179.713 131.517C181.27 131.29 182.701 130.57 183.774 129.474C184.847 128.377 185.499 126.969 185.624 125.476L189.174 77.2044C189.197 76.8591 189.197 76.5127 189.174 76.1674L189.258 76.1724ZM163.328 72.0999L153.682 72.9658L153.264 73.006L154.599 68.8378L161.225 65.9181L163.434 64.9415L163.784 65.9181L163.842 66.0842L164.165 66.9853L163.328 72.0999ZM182.282 72.2107L181.101 71.9187C181.101 71.5663 181.058 71.2038 181.037 70.8464C180.915 68.8328 180.814 66.9702 180.814 66.9702L180.958 66.3108L181.254 64.9264L185.534 68.8429V73.0111L182.282 72.2107Z" fill="#263238"></path></svg>